G04 DipTrace 2.4.0.2*
%INBoard.gbr*%
%MOIN*%
%ADD11C,0.0055*%
%FSLAX44Y44*%
G04*
G70*
G90*
G75*
G01*
%LNBoardPoly*%
%LPD*%
G36*
X3937Y81102D2*
D11*
X117520D1*
Y3937D1*
X3937D1*
Y81102D1*
G37*
%LNBoardPolyC*%
%LPC*%
G36*
X13031Y75984D2*
X13819D1*
Y68898D1*
X13031D1*
Y75984D1*
G37*
G36*
Y57874D2*
X13819D1*
Y50787D1*
X13031D1*
Y57874D1*
G37*
G36*
Y66929D2*
X13819D1*
Y59843D1*
X13031D1*
Y66929D1*
G37*
G36*
X50039Y75984D2*
X50827D1*
Y68898D1*
X50039D1*
Y75984D1*
G37*
G36*
Y57874D2*
X50827D1*
Y50787D1*
X50039D1*
Y57874D1*
G37*
G36*
X15787Y78740D2*
Y78150D1*
X17362D1*
X17953Y77559D1*
Y76772D1*
X17362Y76181D1*
X15787D1*
Y75591D1*
X17756D1*
X18543Y76181D1*
Y78150D1*
X17756Y78740D1*
X15787D1*
G37*
G36*
Y69488D2*
Y68898D1*
X17362D1*
X17953Y68307D1*
Y67520D1*
X17362Y66929D1*
X15787D1*
Y66339D1*
X17756D1*
X18543Y66929D1*
Y68898D1*
X17756Y69488D1*
X15787D1*
G37*
G36*
Y60433D2*
Y59843D1*
X17362D1*
X17953Y59252D1*
Y58465D1*
X17362Y57874D1*
X15787D1*
Y57283D1*
X17756D1*
X18543Y57874D1*
Y59843D1*
X17756Y60433D1*
X15787D1*
G37*
G36*
Y51378D2*
Y50787D1*
X17362D1*
X17953Y50197D1*
Y49409D1*
X17362Y48819D1*
X15787D1*
Y48228D1*
X17756D1*
X18543Y48819D1*
Y50787D1*
X17756Y51378D1*
X15787D1*
G37*
G36*
X48268Y75591D2*
Y76181D1*
X46693D1*
X46102Y76772D1*
Y77559D1*
X46693Y78150D1*
X48268D1*
Y78740D1*
X46299D1*
X45512Y78150D1*
Y76181D1*
X46299Y75591D1*
X48268D1*
G37*
G36*
Y66339D2*
Y66929D1*
X46693D1*
X46102Y67520D1*
Y68307D1*
X46693Y68898D1*
X48268D1*
Y69488D1*
X46299D1*
X45512Y68898D1*
Y66929D1*
X46299Y66339D1*
X48268D1*
G37*
G36*
Y57283D2*
Y57874D1*
X46693D1*
X46102Y58465D1*
Y59252D1*
X46693Y59843D1*
X48268D1*
Y60433D1*
X46299D1*
X45512Y59843D1*
Y57874D1*
X46299Y57283D1*
X48268D1*
G37*
G36*
Y48228D2*
Y48819D1*
X46693D1*
X46102Y49409D1*
Y50197D1*
X46693Y50787D1*
X48268D1*
Y51378D1*
X46299D1*
X45512Y50787D1*
Y48819D1*
X46299Y48228D1*
X48268D1*
G37*
G36*
X50039Y66929D2*
X50827D1*
Y59843D1*
X50039D1*
Y66929D1*
G37*
G36*
X29055Y47835D2*
X30079D1*
X30945D1*
X39016D1*
X40000Y46850D1*
X40197Y46654D1*
Y45079D1*
X40787D1*
Y46850D1*
X39213Y48425D1*
X30551D1*
X29528D1*
X29055D1*
Y47835D1*
G37*
G36*
X13032Y48797D2*
X13819D1*
Y44681D1*
X13032D1*
Y48797D1*
G37*
G36*
X13031Y37402D2*
X13819D1*
Y30315D1*
X13031D1*
Y37402D1*
G37*
G36*
Y19291D2*
X13819D1*
Y12205D1*
X13031D1*
Y19291D1*
G37*
G36*
Y28346D2*
X13819D1*
Y21260D1*
X13031D1*
Y28346D1*
G37*
G36*
X50039Y37402D2*
X50827D1*
Y30315D1*
X50039D1*
Y37402D1*
G37*
G36*
Y19291D2*
X50827D1*
Y12205D1*
X50039D1*
Y19291D1*
G37*
G36*
X15787Y40157D2*
Y39567D1*
X17362D1*
X17953Y38976D1*
Y38189D1*
X17362Y37598D1*
X15787D1*
Y37008D1*
X17756D1*
X18543Y37598D1*
Y39567D1*
X17756Y40157D1*
X15787D1*
G37*
G36*
Y30906D2*
Y30315D1*
X17362D1*
X17953Y29724D1*
Y28937D1*
X17362Y28346D1*
X15787D1*
Y27756D1*
X17756D1*
X18543Y28346D1*
Y30315D1*
X17756Y30906D1*
X15787D1*
G37*
G36*
Y21850D2*
Y21260D1*
X17362D1*
X17953Y20669D1*
Y19882D1*
X17362Y19291D1*
X15787D1*
Y18701D1*
X17756D1*
X18543Y19291D1*
Y21260D1*
X17756Y21850D1*
X15787D1*
G37*
G36*
Y12795D2*
Y12205D1*
X17362D1*
X17953Y11614D1*
Y10827D1*
X17362Y10236D1*
X15787D1*
Y9646D1*
X17756D1*
X18543Y10236D1*
Y12205D1*
X17756Y12795D1*
X15787D1*
G37*
G36*
X48268Y37008D2*
Y37598D1*
X46693D1*
X46102Y38189D1*
Y38976D1*
X46693Y39567D1*
X48268D1*
Y40157D1*
X46299D1*
X45512Y39567D1*
Y37598D1*
X46299Y37008D1*
X48268D1*
G37*
G36*
Y27756D2*
Y28346D1*
X46693D1*
X46102Y28937D1*
Y29724D1*
X46693Y30315D1*
X48268D1*
Y30906D1*
X46299D1*
X45512Y30315D1*
Y28346D1*
X46299Y27756D1*
X48268D1*
G37*
G36*
Y18701D2*
Y19291D1*
X46693D1*
X46102Y19882D1*
Y20669D1*
X46693Y21260D1*
X48268D1*
Y21850D1*
X46299D1*
X45512Y21260D1*
Y19291D1*
X46299Y18701D1*
X48268D1*
G37*
G36*
Y9646D2*
Y10236D1*
X46693D1*
X46102Y10827D1*
Y11614D1*
X46693Y12205D1*
X48268D1*
Y12795D1*
X46299D1*
X45512Y12205D1*
Y10236D1*
X46299Y9646D1*
X48268D1*
G37*
G36*
X50039Y28346D2*
X50827D1*
Y21260D1*
X50039D1*
Y28346D1*
G37*
G36*
X29055Y9252D2*
X30079D1*
X30945D1*
X39016D1*
X40000Y8268D1*
X40197Y8071D1*
Y6496D1*
X40787D1*
Y8268D1*
X39213Y9843D1*
X30551D1*
X29528D1*
X29055D1*
Y9252D1*
G37*
G36*
X13032Y10214D2*
X13819D1*
Y6098D1*
X13032D1*
Y10214D1*
G37*
G36*
X70118Y75984D2*
X70906D1*
Y68898D1*
X70118D1*
Y75984D1*
G37*
G36*
Y57874D2*
X70906D1*
Y50787D1*
X70118D1*
Y57874D1*
G37*
G36*
Y66929D2*
X70906D1*
Y59843D1*
X70118D1*
Y66929D1*
G37*
G36*
X107126Y75984D2*
X107913D1*
Y68898D1*
X107126D1*
Y75984D1*
G37*
G36*
Y57874D2*
X107913D1*
Y50787D1*
X107126D1*
Y57874D1*
G37*
G36*
X72874Y78740D2*
Y78150D1*
X74449D1*
X75039Y77559D1*
Y76772D1*
X74449Y76181D1*
X72874D1*
Y75591D1*
X74843D1*
X75630Y76181D1*
Y78150D1*
X74843Y78740D1*
X72874D1*
G37*
G36*
Y69488D2*
Y68898D1*
X74449D1*
X75039Y68307D1*
Y67520D1*
X74449Y66929D1*
X72874D1*
Y66339D1*
X74843D1*
X75630Y66929D1*
Y68898D1*
X74843Y69488D1*
X72874D1*
G37*
G36*
Y60433D2*
Y59843D1*
X74449D1*
X75039Y59252D1*
Y58465D1*
X74449Y57874D1*
X72874D1*
Y57283D1*
X74843D1*
X75630Y57874D1*
Y59843D1*
X74843Y60433D1*
X72874D1*
G37*
G36*
Y51378D2*
Y50787D1*
X74449D1*
X75039Y50197D1*
Y49409D1*
X74449Y48819D1*
X72874D1*
Y48228D1*
X74843D1*
X75630Y48819D1*
Y50787D1*
X74843Y51378D1*
X72874D1*
G37*
G36*
X105354Y75591D2*
Y76181D1*
X103780D1*
X103189Y76772D1*
Y77559D1*
X103780Y78150D1*
X105354D1*
Y78740D1*
X103386D1*
X102598Y78150D1*
Y76181D1*
X103386Y75591D1*
X105354D1*
G37*
G36*
Y66339D2*
Y66929D1*
X103780D1*
X103189Y67520D1*
Y68307D1*
X103780Y68898D1*
X105354D1*
Y69488D1*
X103386D1*
X102598Y68898D1*
Y66929D1*
X103386Y66339D1*
X105354D1*
G37*
G36*
Y57283D2*
Y57874D1*
X103780D1*
X103189Y58465D1*
Y59252D1*
X103780Y59843D1*
X105354D1*
Y60433D1*
X103386D1*
X102598Y59843D1*
Y57874D1*
X103386Y57283D1*
X105354D1*
G37*
G36*
Y48228D2*
Y48819D1*
X103780D1*
X103189Y49409D1*
Y50197D1*
X103780Y50787D1*
X105354D1*
Y51378D1*
X103386D1*
X102598Y50787D1*
Y48819D1*
X103386Y48228D1*
X105354D1*
G37*
G36*
X107126Y66929D2*
X107913D1*
Y59843D1*
X107126D1*
Y66929D1*
G37*
G36*
X86142Y47835D2*
X87165D1*
X88031D1*
X96102D1*
X97087Y46850D1*
X97283Y46654D1*
Y45079D1*
X97874D1*
Y46850D1*
X96299Y48425D1*
X87638D1*
X86614D1*
X86142D1*
Y47835D1*
G37*
G36*
X70118Y48797D2*
X70906D1*
Y44681D1*
X70118D1*
Y48797D1*
G37*
G36*
Y37402D2*
X70906D1*
Y30315D1*
X70118D1*
Y37402D1*
G37*
G36*
Y19291D2*
X70906D1*
Y12205D1*
X70118D1*
Y19291D1*
G37*
G36*
Y28346D2*
X70906D1*
Y21260D1*
X70118D1*
Y28346D1*
G37*
G36*
X107126Y37402D2*
X107913D1*
Y30315D1*
X107126D1*
Y37402D1*
G37*
G36*
Y19291D2*
X107913D1*
Y12205D1*
X107126D1*
Y19291D1*
G37*
G36*
X72874Y40157D2*
Y39567D1*
X74449D1*
X75039Y38976D1*
Y38189D1*
X74449Y37598D1*
X72874D1*
Y37008D1*
X74843D1*
X75630Y37598D1*
Y39567D1*
X74843Y40157D1*
X72874D1*
G37*
G36*
Y30906D2*
Y30315D1*
X74449D1*
X75039Y29724D1*
Y28937D1*
X74449Y28346D1*
X72874D1*
Y27756D1*
X74843D1*
X75630Y28346D1*
Y30315D1*
X74843Y30906D1*
X72874D1*
G37*
G36*
Y21850D2*
Y21260D1*
X74449D1*
X75039Y20669D1*
Y19882D1*
X74449Y19291D1*
X72874D1*
Y18701D1*
X74843D1*
X75630Y19291D1*
Y21260D1*
X74843Y21850D1*
X72874D1*
G37*
G36*
Y12795D2*
Y12205D1*
X74449D1*
X75039Y11614D1*
Y10827D1*
X74449Y10236D1*
X72874D1*
Y9646D1*
X74843D1*
X75630Y10236D1*
Y12205D1*
X74843Y12795D1*
X72874D1*
G37*
G36*
X105354Y37008D2*
Y37598D1*
X103780D1*
X103189Y38189D1*
Y38976D1*
X103780Y39567D1*
X105354D1*
Y40157D1*
X103386D1*
X102598Y39567D1*
Y37598D1*
X103386Y37008D1*
X105354D1*
G37*
G36*
Y27756D2*
Y28346D1*
X103780D1*
X103189Y28937D1*
Y29724D1*
X103780Y30315D1*
X105354D1*
Y30906D1*
X103386D1*
X102598Y30315D1*
Y28346D1*
X103386Y27756D1*
X105354D1*
G37*
G36*
Y18701D2*
Y19291D1*
X103780D1*
X103189Y19882D1*
Y20669D1*
X103780Y21260D1*
X105354D1*
Y21850D1*
X103386D1*
X102598Y21260D1*
Y19291D1*
X103386Y18701D1*
X105354D1*
G37*
G36*
Y9646D2*
Y10236D1*
X103780D1*
X103189Y10827D1*
Y11614D1*
X103780Y12205D1*
X105354D1*
Y12795D1*
X103386D1*
X102598Y12205D1*
Y10236D1*
X103386Y9646D1*
X105354D1*
G37*
G36*
X107126Y28346D2*
X107913D1*
Y21260D1*
X107126D1*
Y28346D1*
G37*
G36*
X86142Y9252D2*
X87165D1*
X88031D1*
X96102D1*
X97087Y8268D1*
X97283Y8071D1*
Y6496D1*
X97874D1*
Y8268D1*
X96299Y9843D1*
X87638D1*
X86614D1*
X86142D1*
Y9252D1*
G37*
G36*
X70118Y10214D2*
X70906D1*
Y6098D1*
X70118D1*
Y10214D1*
G37*
M02*
