G04 DipTrace 2.4.0.2*
%INBottomAssy.gbr*%
%MOIN*%
%ADD18C,0.006*%
%FSLAX44Y44*%
G04*
G70*
G90*
G75*
G01*
%LNBotAssy*%
%LPD*%
X35931Y66600D2*
D18*
Y65222D1*
X36045D1*
X36951D2*
X36565D1*
X37856D2*
X37470D1*
X38376D2*
X38490D1*
Y66600D1*
X37923D1*
X36498D2*
X35931D1*
G36*
X37348Y64533D2*
X37073D1*
Y65222D1*
X37348D1*
Y64533D1*
G37*
G36*
X38254D2*
X37978D1*
Y65222D1*
X38254D1*
Y64533D1*
G37*
G36*
X37801Y66600D2*
X36620D1*
Y67289D1*
X37801D1*
Y66600D1*
G37*
G36*
X36443Y64533D2*
X36167D1*
Y65222D1*
X36443D1*
Y64533D1*
G37*
X38376Y65222D2*
D18*
X37856D1*
X37470D2*
X36951D1*
X36565D2*
X36045D1*
X37923Y66600D2*
X36498D1*
G36*
X37604Y65517D2*
X36817D1*
Y66305D1*
X37604D1*
Y65517D1*
G37*
X35931Y28017D2*
D18*
Y26639D1*
X36045D1*
X36951D2*
X36565D1*
X37856D2*
X37470D1*
X38376D2*
X38490D1*
Y28017D1*
X37923D1*
X36498D2*
X35931D1*
G36*
X37348Y25950D2*
X37073D1*
Y26639D1*
X37348D1*
Y25950D1*
G37*
G36*
X38254D2*
X37978D1*
Y26639D1*
X38254D1*
Y25950D1*
G37*
G36*
X37801Y28017D2*
X36620D1*
Y28706D1*
X37801D1*
Y28017D1*
G37*
G36*
X36443Y25950D2*
X36167D1*
Y26639D1*
X36443D1*
Y25950D1*
G37*
X38376Y26639D2*
D18*
X37856D1*
X37470D2*
X36951D1*
X36565D2*
X36045D1*
X37923Y28017D2*
X36498D1*
G36*
X37604Y26935D2*
X36817D1*
Y27722D1*
X37604D1*
Y26935D1*
G37*
X93018Y66600D2*
D18*
Y65222D1*
X93132D1*
X94038D2*
X93652D1*
X94943D2*
X94557D1*
X95463D2*
X95577D1*
Y66600D1*
X95010D1*
X93585D2*
X93018D1*
G36*
X94435Y64533D2*
X94160D1*
Y65222D1*
X94435D1*
Y64533D1*
G37*
G36*
X95341D2*
X95065D1*
Y65222D1*
X95341D1*
Y64533D1*
G37*
G36*
X94888Y66600D2*
X93707D1*
Y67289D1*
X94888D1*
Y66600D1*
G37*
G36*
X93530Y64533D2*
X93254D1*
Y65222D1*
X93530D1*
Y64533D1*
G37*
X95463Y65222D2*
D18*
X94943D1*
X94557D2*
X94038D1*
X93652D2*
X93132D1*
X95010Y66600D2*
X93585D1*
G36*
X94691Y65517D2*
X93904D1*
Y66305D1*
X94691D1*
Y65517D1*
G37*
X93018Y28017D2*
D18*
Y26639D1*
X93132D1*
X94038D2*
X93652D1*
X94943D2*
X94557D1*
X95463D2*
X95577D1*
Y28017D1*
X95010D1*
X93585D2*
X93018D1*
G36*
X94435Y25950D2*
X94160D1*
Y26639D1*
X94435D1*
Y25950D1*
G37*
G36*
X95341D2*
X95065D1*
Y26639D1*
X95341D1*
Y25950D1*
G37*
G36*
X94888Y28017D2*
X93707D1*
Y28706D1*
X94888D1*
Y28017D1*
G37*
G36*
X93530Y25950D2*
X93254D1*
Y26639D1*
X93530D1*
Y25950D1*
G37*
X95463Y26639D2*
D18*
X94943D1*
X94557D2*
X94038D1*
X93652D2*
X93132D1*
X95010Y28017D2*
X93585D1*
G36*
X94691Y26935D2*
X93904D1*
Y27722D1*
X94691D1*
Y26935D1*
G37*
M02*
