G04 DipTrace 2.4.0.2*
%INBottomSilk.gbr*%
%MOIN*%
%ADD18C,0.006*%
%ADD93C,0.0077*%
%ADD95C,0.0124*%
%FSLAX44Y44*%
G04*
G70*
G90*
G75*
G01*
%LNBotSilk*%
%LPD*%
X35931Y66600D2*
D18*
Y65222D1*
X36045D1*
X36951D2*
X36565D1*
X37856D2*
X37470D1*
X38376D2*
X38490D1*
Y66600D1*
X37923D1*
X36498D2*
X35931D1*
Y28017D2*
Y26639D1*
X36045D1*
X36951D2*
X36565D1*
X37856D2*
X37470D1*
X38376D2*
X38490D1*
Y28017D1*
X37923D1*
X36498D2*
X35931D1*
X93018Y66600D2*
Y65222D1*
X93132D1*
X94038D2*
X93652D1*
X94943D2*
X94557D1*
X95463D2*
X95577D1*
Y66600D1*
X95010D1*
X93585D2*
X93018D1*
Y28017D2*
Y26639D1*
X93132D1*
X94038D2*
X93652D1*
X94943D2*
X94557D1*
X95463D2*
X95577D1*
Y28017D1*
X95010D1*
X93585D2*
X93018D1*
X37604Y68208D2*
D93*
Y67706D1*
X37091Y68089D2*
X37115Y68136D1*
X37163Y68184D1*
X37211Y68208D1*
X37306D1*
X37354Y68184D1*
X37402Y68136D1*
X37426Y68089D1*
X37450Y68017D1*
Y67897D1*
X37426Y67826D1*
X37402Y67778D1*
X37354Y67730D1*
X37306Y67706D1*
X37211D1*
X37163Y67730D1*
X37115Y67778D1*
X37091Y67826D1*
X36937Y68112D2*
X36889Y68136D1*
X36817Y68208D1*
Y67706D1*
X37604Y29626D2*
Y29123D1*
X37091Y29506D2*
X37115Y29554D1*
X37163Y29602D1*
X37211Y29626D1*
X37306D1*
X37354Y29602D1*
X37402Y29554D1*
X37426Y29506D1*
X37450Y29434D1*
Y29314D1*
X37426Y29243D1*
X37402Y29195D1*
X37354Y29147D1*
X37306Y29123D1*
X37211D1*
X37163Y29147D1*
X37115Y29195D1*
X37091Y29243D1*
X36937Y29529D2*
X36889Y29554D1*
X36817Y29625D1*
Y29123D1*
X94691Y68208D2*
Y67706D1*
X94178Y68089D2*
X94202Y68136D1*
X94250Y68184D1*
X94297Y68208D1*
X94393D1*
X94441Y68184D1*
X94488Y68136D1*
X94513Y68089D1*
X94537Y68017D1*
Y67897D1*
X94513Y67826D1*
X94488Y67778D1*
X94441Y67730D1*
X94393Y67706D1*
X94297D1*
X94250Y67730D1*
X94202Y67778D1*
X94178Y67826D1*
X94023Y68112D2*
X93975Y68136D1*
X93904Y68208D1*
Y67706D1*
X94691Y29626D2*
Y29123D1*
X94178Y29506D2*
X94202Y29554D1*
X94250Y29602D1*
X94297Y29626D1*
X94393D1*
X94441Y29602D1*
X94488Y29554D1*
X94513Y29506D1*
X94537Y29434D1*
Y29314D1*
X94513Y29243D1*
X94488Y29195D1*
X94441Y29147D1*
X94393Y29123D1*
X94297D1*
X94250Y29147D1*
X94202Y29195D1*
X94178Y29243D1*
X94023Y29529D2*
X93975Y29554D1*
X93904Y29625D1*
Y29123D1*
X22884Y79819D2*
D95*
X23688D1*
Y79474D1*
X23649Y79359D1*
X23611Y79321D1*
X23535Y79283D1*
X23420D1*
X23343Y79321D1*
X23305Y79359D1*
X23267Y79474D1*
X23228Y79359D1*
X23190Y79321D1*
X23114Y79283D1*
X23037D1*
X22961Y79321D1*
X22922Y79359D1*
X22884Y79474D1*
Y79819D1*
X23267D2*
Y79474D1*
X23038Y79036D2*
X22999Y78959D1*
X22885Y78844D1*
X23688D1*
X23821Y78597D2*
Y77871D1*
X23076Y77585D2*
X23038D1*
X22961Y77547D1*
X22923Y77509D1*
X22885Y77432D1*
Y77279D1*
X22923Y77203D1*
X22961Y77165D1*
X23038Y77126D1*
X23114D1*
X23191Y77165D1*
X23305Y77241D1*
X23688Y77623D1*
Y77088D1*
X22885Y76611D2*
X22923Y76726D1*
X23038Y76803D1*
X23229Y76841D1*
X23344D1*
X23535Y76803D1*
X23650Y76726D1*
X23688Y76611D1*
Y76535D1*
X23650Y76420D1*
X23535Y76344D1*
X23344Y76305D1*
X23229D1*
X23038Y76344D1*
X22923Y76420D1*
X22885Y76535D1*
Y76611D1*
X23038Y76344D2*
X23535Y76803D1*
X23038Y76058D2*
X22999Y75981D1*
X22885Y75866D1*
X23688D1*
X22885Y75428D2*
X22923Y75542D1*
X22999Y75581D1*
X23076D1*
X23152Y75542D1*
X23191Y75466D1*
X23229Y75313D1*
X23267Y75198D1*
X23344Y75122D1*
X23420Y75084D1*
X23535D1*
X23611Y75122D1*
X23650Y75160D1*
X23688Y75275D1*
Y75428D1*
X23650Y75542D1*
X23611Y75581D1*
X23535Y75619D1*
X23420D1*
X23344Y75581D1*
X23267Y75504D1*
X23229Y75390D1*
X23191Y75237D1*
X23152Y75160D1*
X23076Y75122D1*
X22999D1*
X22923Y75160D1*
X22885Y75275D1*
Y75428D1*
Y74607D2*
X22923Y74722D1*
X23038Y74799D1*
X23229Y74837D1*
X23344D1*
X23535Y74799D1*
X23650Y74722D1*
X23688Y74607D1*
Y74531D1*
X23650Y74416D1*
X23535Y74340D1*
X23344Y74301D1*
X23229D1*
X23038Y74340D1*
X22923Y74416D1*
X22885Y74531D1*
Y74607D1*
X23038Y74340D2*
X23535Y74799D1*
X23688Y73671D2*
X22885D1*
X23420Y74054D1*
Y73480D1*
X23821Y73233D2*
Y72506D1*
X22884Y72259D2*
X23688Y71953D1*
X22884Y71647D1*
X23038Y71400D2*
X22999Y71323D1*
X22885Y71208D1*
X23688D1*
X23611Y70923D2*
X23650Y70961D1*
X23688Y70923D1*
X23650Y70884D1*
X23611Y70923D1*
X22885Y70407D2*
X22923Y70522D1*
X23038Y70599D1*
X23229Y70637D1*
X23344D1*
X23535Y70599D1*
X23650Y70522D1*
X23688Y70407D1*
Y70331D1*
X23650Y70216D1*
X23535Y70140D1*
X23344Y70101D1*
X23229D1*
X23038Y70140D1*
X22923Y70216D1*
X22885Y70331D1*
Y70407D1*
X23038Y70140D2*
X23535Y70599D1*
X22884Y41237D2*
X23688D1*
Y40892D1*
X23649Y40777D1*
X23611Y40739D1*
X23535Y40701D1*
X23420D1*
X23343Y40739D1*
X23305Y40777D1*
X23267Y40892D1*
X23228Y40777D1*
X23190Y40739D1*
X23114Y40701D1*
X23037D1*
X22961Y40739D1*
X22922Y40777D1*
X22884Y40892D1*
Y41237D1*
X23267D2*
Y40892D1*
X23038Y40454D2*
X22999Y40377D1*
X22885Y40262D1*
X23688D1*
X23821Y40015D2*
Y39288D1*
X23076Y39002D2*
X23038D1*
X22961Y38964D1*
X22923Y38926D1*
X22885Y38849D1*
Y38696D1*
X22923Y38620D1*
X22961Y38582D1*
X23038Y38543D1*
X23114D1*
X23191Y38582D1*
X23305Y38658D1*
X23688Y39041D1*
Y38505D1*
X22885Y38028D2*
X22923Y38143D1*
X23038Y38220D1*
X23229Y38258D1*
X23344D1*
X23535Y38220D1*
X23650Y38143D1*
X23688Y38028D1*
Y37952D1*
X23650Y37837D1*
X23535Y37761D1*
X23344Y37722D1*
X23229D1*
X23038Y37761D1*
X22923Y37837D1*
X22885Y37952D1*
Y38028D1*
X23038Y37761D2*
X23535Y38220D1*
X23038Y37475D2*
X22999Y37398D1*
X22885Y37283D1*
X23688D1*
X22885Y36845D2*
X22923Y36959D1*
X22999Y36998D1*
X23076D1*
X23152Y36959D1*
X23191Y36883D1*
X23229Y36730D1*
X23267Y36615D1*
X23344Y36539D1*
X23420Y36501D1*
X23535D1*
X23611Y36539D1*
X23650Y36577D1*
X23688Y36692D1*
Y36845D1*
X23650Y36959D1*
X23611Y36998D1*
X23535Y37036D1*
X23420D1*
X23344Y36998D1*
X23267Y36921D1*
X23229Y36807D1*
X23191Y36654D1*
X23152Y36577D1*
X23076Y36539D1*
X22999D1*
X22923Y36577D1*
X22885Y36692D1*
Y36845D1*
Y36024D2*
X22923Y36139D1*
X23038Y36216D1*
X23229Y36254D1*
X23344D1*
X23535Y36216D1*
X23650Y36139D1*
X23688Y36024D1*
Y35948D1*
X23650Y35833D1*
X23535Y35757D1*
X23344Y35718D1*
X23229D1*
X23038Y35757D1*
X22923Y35833D1*
X22885Y35948D1*
Y36024D1*
X23038Y35757D2*
X23535Y36216D1*
X23688Y35088D2*
X22885D1*
X23420Y35471D1*
Y34897D1*
X23821Y34650D2*
Y33923D1*
X22884Y33676D2*
X23688Y33370D1*
X22884Y33064D1*
X23038Y32817D2*
X22999Y32740D1*
X22885Y32625D1*
X23688D1*
X23611Y32340D2*
X23650Y32378D1*
X23688Y32340D1*
X23650Y32301D1*
X23611Y32340D1*
X22885Y31824D2*
X22923Y31939D1*
X23038Y32016D1*
X23229Y32054D1*
X23344D1*
X23535Y32016D1*
X23650Y31939D1*
X23688Y31824D1*
Y31748D1*
X23650Y31633D1*
X23535Y31557D1*
X23344Y31518D1*
X23229D1*
X23038Y31557D1*
X22923Y31633D1*
X22885Y31748D1*
Y31824D1*
X23038Y31557D2*
X23535Y32016D1*
X79971Y79819D2*
X80775D1*
Y79474D1*
X80736Y79359D1*
X80698Y79321D1*
X80622Y79283D1*
X80507D1*
X80430Y79321D1*
X80392Y79359D1*
X80354Y79474D1*
X80315Y79359D1*
X80277Y79321D1*
X80201Y79283D1*
X80124D1*
X80048Y79321D1*
X80009Y79359D1*
X79971Y79474D1*
Y79819D1*
X80354D2*
Y79474D1*
X80125Y79036D2*
X80086Y78959D1*
X79972Y78844D1*
X80775D1*
X80907Y78597D2*
Y77871D1*
X80163Y77585D2*
X80125D1*
X80048Y77547D1*
X80010Y77509D1*
X79972Y77432D1*
Y77279D1*
X80010Y77203D1*
X80048Y77165D1*
X80125Y77126D1*
X80201D1*
X80278Y77165D1*
X80392Y77241D1*
X80775Y77623D1*
Y77088D1*
X79972Y76611D2*
X80010Y76726D1*
X80125Y76803D1*
X80316Y76841D1*
X80431D1*
X80622Y76803D1*
X80737Y76726D1*
X80775Y76611D1*
Y76535D1*
X80737Y76420D1*
X80622Y76344D1*
X80431Y76305D1*
X80316D1*
X80125Y76344D1*
X80010Y76420D1*
X79972Y76535D1*
Y76611D1*
X80125Y76344D2*
X80622Y76803D1*
X80125Y76058D2*
X80086Y75981D1*
X79972Y75866D1*
X80775D1*
X79972Y75428D2*
X80010Y75542D1*
X80086Y75581D1*
X80163D1*
X80239Y75542D1*
X80278Y75466D1*
X80316Y75313D1*
X80354Y75198D1*
X80431Y75122D1*
X80507Y75084D1*
X80622D1*
X80698Y75122D1*
X80737Y75160D1*
X80775Y75275D1*
Y75428D1*
X80737Y75542D1*
X80698Y75581D1*
X80622Y75619D1*
X80507D1*
X80431Y75581D1*
X80354Y75504D1*
X80316Y75390D1*
X80278Y75237D1*
X80239Y75160D1*
X80163Y75122D1*
X80086D1*
X80010Y75160D1*
X79972Y75275D1*
Y75428D1*
Y74607D2*
X80010Y74722D1*
X80125Y74799D1*
X80316Y74837D1*
X80431D1*
X80622Y74799D1*
X80737Y74722D1*
X80775Y74607D1*
Y74531D1*
X80737Y74416D1*
X80622Y74340D1*
X80431Y74301D1*
X80316D1*
X80125Y74340D1*
X80010Y74416D1*
X79972Y74531D1*
Y74607D1*
X80125Y74340D2*
X80622Y74799D1*
X80775Y73671D2*
X79972D1*
X80507Y74054D1*
Y73480D1*
X80907Y73233D2*
Y72506D1*
X79971Y72259D2*
X80775Y71953D1*
X79971Y71647D1*
X80125Y71400D2*
X80086Y71323D1*
X79972Y71208D1*
X80775D1*
X80698Y70923D2*
X80737Y70961D1*
X80775Y70923D1*
X80737Y70884D1*
X80698Y70923D1*
X79972Y70407D2*
X80010Y70522D1*
X80125Y70599D1*
X80316Y70637D1*
X80431D1*
X80622Y70599D1*
X80737Y70522D1*
X80775Y70407D1*
Y70331D1*
X80737Y70216D1*
X80622Y70140D1*
X80431Y70101D1*
X80316D1*
X80125Y70140D1*
X80010Y70216D1*
X79972Y70331D1*
Y70407D1*
X80125Y70140D2*
X80622Y70599D1*
X79971Y41237D2*
X80775D1*
Y40892D1*
X80736Y40777D1*
X80698Y40739D1*
X80622Y40701D1*
X80507D1*
X80430Y40739D1*
X80392Y40777D1*
X80354Y40892D1*
X80315Y40777D1*
X80277Y40739D1*
X80201Y40701D1*
X80124D1*
X80048Y40739D1*
X80009Y40777D1*
X79971Y40892D1*
Y41237D1*
X80354D2*
Y40892D1*
X80125Y40454D2*
X80086Y40377D1*
X79972Y40262D1*
X80775D1*
X80907Y40015D2*
Y39288D1*
X80163Y39002D2*
X80125D1*
X80048Y38964D1*
X80010Y38926D1*
X79972Y38849D1*
Y38696D1*
X80010Y38620D1*
X80048Y38582D1*
X80125Y38543D1*
X80201D1*
X80278Y38582D1*
X80392Y38658D1*
X80775Y39041D1*
Y38505D1*
X79972Y38028D2*
X80010Y38143D1*
X80125Y38220D1*
X80316Y38258D1*
X80431D1*
X80622Y38220D1*
X80737Y38143D1*
X80775Y38028D1*
Y37952D1*
X80737Y37837D1*
X80622Y37761D1*
X80431Y37722D1*
X80316D1*
X80125Y37761D1*
X80010Y37837D1*
X79972Y37952D1*
Y38028D1*
X80125Y37761D2*
X80622Y38220D1*
X80125Y37475D2*
X80086Y37398D1*
X79972Y37283D1*
X80775D1*
X79972Y36845D2*
X80010Y36959D1*
X80086Y36998D1*
X80163D1*
X80239Y36959D1*
X80278Y36883D1*
X80316Y36730D1*
X80354Y36615D1*
X80431Y36539D1*
X80507Y36501D1*
X80622D1*
X80698Y36539D1*
X80737Y36577D1*
X80775Y36692D1*
Y36845D1*
X80737Y36959D1*
X80698Y36998D1*
X80622Y37036D1*
X80507D1*
X80431Y36998D1*
X80354Y36921D1*
X80316Y36807D1*
X80278Y36654D1*
X80239Y36577D1*
X80163Y36539D1*
X80086D1*
X80010Y36577D1*
X79972Y36692D1*
Y36845D1*
Y36024D2*
X80010Y36139D1*
X80125Y36216D1*
X80316Y36254D1*
X80431D1*
X80622Y36216D1*
X80737Y36139D1*
X80775Y36024D1*
Y35948D1*
X80737Y35833D1*
X80622Y35757D1*
X80431Y35718D1*
X80316D1*
X80125Y35757D1*
X80010Y35833D1*
X79972Y35948D1*
Y36024D1*
X80125Y35757D2*
X80622Y36216D1*
X80775Y35088D2*
X79972D1*
X80507Y35471D1*
Y34897D1*
X80907Y34650D2*
Y33923D1*
X79971Y33676D2*
X80775Y33370D1*
X79971Y33064D1*
X80125Y32817D2*
X80086Y32740D1*
X79972Y32625D1*
X80775D1*
X80698Y32340D2*
X80737Y32378D1*
X80775Y32340D1*
X80737Y32301D1*
X80698Y32340D1*
X79972Y31824D2*
X80010Y31939D1*
X80125Y32016D1*
X80316Y32054D1*
X80431D1*
X80622Y32016D1*
X80737Y31939D1*
X80775Y31824D1*
Y31748D1*
X80737Y31633D1*
X80622Y31557D1*
X80431Y31518D1*
X80316D1*
X80125Y31557D1*
X80010Y31633D1*
X79972Y31748D1*
Y31824D1*
X80125Y31557D2*
X80622Y32016D1*
M02*
