G04 DipTrace 2.4.0.2*
%INThrough.gbr*%
%MOIN*%
G04 Drill Symbols*
G04 D=0.0276 - Cross*
G04 D=0.028 - X*
G04 D=0.0315 - Y*
G04 D=0.032 - T*
G04 D=0.0354 - V*
G04 D=0.0394 - Clock*
G04 D=0.04 - Box_Cross*
G04 D=0.0433 - Box_X*
G04 D=0.047 - Box_Y*
G04 D=0.052 - Box_T*
%ADD10C,0.0079*%
%FSLAX44Y44*%
G04*
G70*
G90*
G75*
G01*
X39803Y78937D2*
D10*
Y78701D1*
X40039D1*
X39803Y77937D2*
Y77701D1*
X40039D1*
X39606Y61024D2*
X40079D1*
X39843D2*
Y60787D1*
X39606Y62024D2*
X40079D1*
X39843D2*
Y61787D1*
X25797Y59586D2*
Y59113D1*
X25561Y59350D2*
X26034D1*
X25797Y60586D2*
Y60113D1*
X25561Y60350D2*
X26034D1*
X36654Y62441D2*
Y61969D1*
X36417Y62205D2*
X36890D1*
X36417Y62441D2*
X36890D1*
Y61969D1*
X36417D1*
Y62441D1*
X36654Y60441D2*
Y59969D1*
X36417Y60205D2*
X36890D1*
X36417Y60441D2*
X36890D1*
Y59969D1*
X36417D1*
Y60441D1*
X25797Y58461D2*
Y57989D1*
X25561Y58225D2*
X26034D1*
X25797Y57461D2*
Y56989D1*
X25561Y57225D2*
X26034D1*
X23425Y46457D2*
X23898D1*
X23661D2*
Y46220D1*
X24425Y46457D2*
X24898D1*
X24661D2*
Y46220D1*
X25787Y54331D2*
X26260D1*
X26024D2*
Y54094D1*
X24787Y54331D2*
X25260D1*
X25024D2*
Y54094D1*
X26669Y46417D2*
X27142D1*
X26906D2*
Y46181D1*
X25669Y46417D2*
X26142D1*
X25906D2*
Y46181D1*
X18307Y75402D2*
X18780Y74929D1*
Y75402D2*
X18307Y74929D1*
Y75402D2*
X18780D1*
Y74929D1*
X18307D1*
Y75402D1*
Y79402D2*
X18780Y78929D1*
Y79402D2*
X18307Y78929D1*
Y79402D2*
X18780D1*
Y78929D1*
X18307D1*
Y79402D1*
Y66150D2*
X18780Y65677D1*
Y66150D2*
X18307Y65677D1*
Y66150D2*
X18780D1*
Y65677D1*
X18307D1*
Y66150D1*
Y70150D2*
X18780Y69677D1*
Y70150D2*
X18307Y69677D1*
Y70150D2*
X18780D1*
Y69677D1*
X18307D1*
Y70150D1*
Y57094D2*
X18780Y56622D1*
Y57094D2*
X18307Y56622D1*
Y57094D2*
X18780D1*
Y56622D1*
X18307D1*
Y57094D1*
Y61094D2*
X18780Y60622D1*
Y61094D2*
X18307Y60622D1*
Y61094D2*
X18780D1*
Y60622D1*
X18307D1*
Y61094D1*
Y48039D2*
X18780Y47567D1*
Y48039D2*
X18307Y47567D1*
Y48039D2*
X18780D1*
Y47567D1*
X18307D1*
Y48039D1*
Y52039D2*
X18780Y51567D1*
Y52039D2*
X18307Y51567D1*
Y52039D2*
X18780D1*
Y51567D1*
X18307D1*
Y52039D1*
X45276Y52008D2*
X45748Y51535D1*
Y52008D2*
X45276Y51535D1*
Y52008D2*
X45748D1*
Y51535D1*
X45276D1*
Y52008D1*
Y48008D2*
X45748Y47535D1*
Y48008D2*
X45276Y47535D1*
Y48008D2*
X45748D1*
Y47535D1*
X45276D1*
Y48008D1*
Y61260D2*
X45748Y60787D1*
Y61260D2*
X45276Y60787D1*
Y61260D2*
X45748D1*
Y60787D1*
X45276D1*
Y61260D1*
Y57260D2*
X45748Y56787D1*
Y57260D2*
X45276Y56787D1*
Y57260D2*
X45748D1*
Y56787D1*
X45276D1*
Y57260D1*
Y70150D2*
X45748Y69677D1*
Y70150D2*
X45276Y69677D1*
Y70150D2*
X45748D1*
Y69677D1*
X45276D1*
Y70150D1*
Y66150D2*
X45748Y65677D1*
Y66150D2*
X45276Y65677D1*
Y66150D2*
X45748D1*
Y65677D1*
X45276D1*
Y66150D1*
Y79402D2*
X45748Y78929D1*
Y79402D2*
X45276Y78929D1*
Y79402D2*
X45748D1*
Y78929D1*
X45276D1*
Y79402D1*
Y75402D2*
X45748Y74929D1*
Y75402D2*
X45276Y74929D1*
Y75402D2*
X45748D1*
Y74929D1*
X45276D1*
Y75402D1*
X40827Y74157D2*
X41063Y73921D1*
X41299Y74157D1*
X41063Y73921D2*
Y73685D1*
X40827Y75157D2*
X41299Y74685D1*
Y75157D2*
X40827Y74685D1*
X26614Y51181D2*
X27087D1*
X26850D2*
Y50945D1*
X25614Y51181D2*
X26087D1*
X25850D2*
Y50945D1*
X25614Y48181D2*
X26087D1*
X25850D2*
Y47945D1*
X26614Y48181D2*
X27087D1*
X26850D2*
Y47945D1*
X24614Y51181D2*
X25087D1*
X24850D2*
Y50945D1*
X23614Y51181D2*
X24087D1*
X23850D2*
Y50945D1*
X24614Y48181D2*
X25087D1*
X24850D2*
Y47945D1*
X23614Y48181D2*
X24087D1*
X23850D2*
Y47945D1*
X29370Y70866D2*
Y70394D1*
X29134Y70630D2*
X29606D1*
X29134Y70866D2*
X29606D1*
Y70394D1*
X29134D1*
Y70866D1*
X29370Y69866D2*
Y69394D1*
X29134Y69630D2*
X29606D1*
X29134Y69866D2*
X29606D1*
Y69394D1*
X29134D1*
Y69866D1*
X29850Y78140D2*
X30322Y77668D1*
Y78140D2*
X29850Y77668D1*
Y78140D2*
X30322D1*
Y77668D1*
X29850D1*
Y78140D1*
X29086D2*
Y77904D1*
X29322D1*
X28086Y78140D2*
Y77904D1*
X28322D1*
X27086Y78140D2*
Y77904D1*
X27322D1*
X32080Y76095D2*
Y75623D1*
X31844Y75859D2*
X32316D1*
X31844Y76095D2*
X32316D1*
Y75623D1*
X31844D1*
Y76095D1*
X32080Y77095D2*
Y76623D1*
X31844Y76859D2*
X32316D1*
X31844Y77095D2*
X32316D1*
Y76623D1*
X31844D1*
Y77095D1*
X27795Y70827D2*
Y70354D1*
X27559Y70591D2*
X28031D1*
X27559Y70827D2*
X28031D1*
Y70354D1*
X27559D1*
Y70827D1*
X27795Y69827D2*
Y69354D1*
X27559Y69591D2*
X28031D1*
X27559Y69827D2*
X28031D1*
Y69354D1*
X27559D1*
Y69827D1*
X28622Y68031D2*
Y67559D1*
X28386Y67795D2*
X28858D1*
X28386Y68031D2*
X28858D1*
Y67559D1*
X28386D1*
Y68031D1*
X27622D2*
Y67559D1*
X27386Y67795D2*
X27858D1*
X27386Y68031D2*
X27858D1*
Y67559D1*
X27386D1*
Y68031D1*
X26622D2*
Y67559D1*
X26386Y67795D2*
X26858D1*
X26386Y68031D2*
X26858D1*
Y67559D1*
X26386D1*
Y68031D1*
X25622D2*
Y67559D1*
X25386Y67795D2*
X25858D1*
X25386Y68031D2*
X25858D1*
Y67559D1*
X25386D1*
Y68031D1*
X24622D2*
Y67559D1*
X24386Y67795D2*
X24858D1*
X24386Y68031D2*
X24858D1*
Y67559D1*
X24386D1*
Y68031D1*
X16545Y77165D2*
X17018D1*
X16781D2*
Y76929D1*
X16545Y77402D2*
X17018D1*
Y76929D1*
X16545D1*
Y77402D1*
X15745Y79515D2*
X16218D1*
X15981D2*
Y79279D1*
X15745Y79752D2*
X16218D1*
Y79279D1*
X15745D1*
Y79752D1*
Y74815D2*
X16218D1*
X15981D2*
Y74579D1*
X15745Y75052D2*
X16218D1*
Y74579D1*
X15745D1*
Y75052D1*
X10945Y74815D2*
X11418D1*
X11181D2*
Y74579D1*
X10945Y75052D2*
X11418D1*
Y74579D1*
X10945D1*
Y75052D1*
Y79515D2*
X11418D1*
X11181D2*
Y79279D1*
X10945Y79752D2*
X11418D1*
Y79279D1*
X10945D1*
Y79752D1*
X16545Y67913D2*
X17018D1*
X16781D2*
Y67677D1*
X16545Y68150D2*
X17018D1*
Y67677D1*
X16545D1*
Y68150D1*
X15745Y70263D2*
X16218D1*
X15981D2*
Y70027D1*
X15745Y70500D2*
X16218D1*
Y70027D1*
X15745D1*
Y70500D1*
Y65563D2*
X16218D1*
X15981D2*
Y65327D1*
X15745Y65800D2*
X16218D1*
Y65327D1*
X15745D1*
Y65800D1*
X10945Y65563D2*
X11418D1*
X11181D2*
Y65327D1*
X10945Y65800D2*
X11418D1*
Y65327D1*
X10945D1*
Y65800D1*
Y70263D2*
X11418D1*
X11181D2*
Y70027D1*
X10945Y70500D2*
X11418D1*
Y70027D1*
X10945D1*
Y70500D1*
X16545Y58858D2*
X17018D1*
X16781D2*
Y58622D1*
X16545Y59094D2*
X17018D1*
Y58622D1*
X16545D1*
Y59094D1*
X15745Y61208D2*
X16218D1*
X15981D2*
Y60972D1*
X15745Y61444D2*
X16218D1*
Y60972D1*
X15745D1*
Y61444D1*
Y56508D2*
X16218D1*
X15981D2*
Y56272D1*
X15745Y56744D2*
X16218D1*
Y56272D1*
X15745D1*
Y56744D1*
X10945Y56508D2*
X11418D1*
X11181D2*
Y56272D1*
X10945Y56744D2*
X11418D1*
Y56272D1*
X10945D1*
Y56744D1*
Y61208D2*
X11418D1*
X11181D2*
Y60972D1*
X10945Y61444D2*
X11418D1*
Y60972D1*
X10945D1*
Y61444D1*
X16545Y49803D2*
X17018D1*
X16781D2*
Y49567D1*
X16545Y50039D2*
X17018D1*
Y49567D1*
X16545D1*
Y50039D1*
X15745Y52153D2*
X16218D1*
X15981D2*
Y51917D1*
X15745Y52389D2*
X16218D1*
Y51917D1*
X15745D1*
Y52389D1*
Y47453D2*
X16218D1*
X15981D2*
Y47217D1*
X15745Y47689D2*
X16218D1*
Y47217D1*
X15745D1*
Y47689D1*
X10945Y47453D2*
X11418D1*
X11181D2*
Y47217D1*
X10945Y47689D2*
X11418D1*
Y47217D1*
X10945D1*
Y47689D1*
Y52153D2*
X11418D1*
X11181D2*
Y51917D1*
X10945Y52389D2*
X11418D1*
Y51917D1*
X10945D1*
Y52389D1*
X47037Y49803D2*
X47510D1*
X47274D2*
Y49567D1*
X47037Y50039D2*
X47510D1*
Y49567D1*
X47037D1*
Y50039D1*
X47837Y47453D2*
X48310D1*
X48074D2*
Y47217D1*
X47837Y47689D2*
X48310D1*
Y47217D1*
X47837D1*
Y47689D1*
Y52153D2*
X48310D1*
X48074D2*
Y51917D1*
X47837Y52389D2*
X48310D1*
Y51917D1*
X47837D1*
Y52389D1*
X52637Y52153D2*
X53110D1*
X52874D2*
Y51917D1*
X52637Y52389D2*
X53110D1*
Y51917D1*
X52637D1*
Y52389D1*
Y47453D2*
X53110D1*
X52874D2*
Y47217D1*
X52637Y47689D2*
X53110D1*
Y47217D1*
X52637D1*
Y47689D1*
X47037Y58858D2*
X47510D1*
X47274D2*
Y58622D1*
X47037Y59094D2*
X47510D1*
Y58622D1*
X47037D1*
Y59094D1*
X47837Y56508D2*
X48310D1*
X48074D2*
Y56272D1*
X47837Y56744D2*
X48310D1*
Y56272D1*
X47837D1*
Y56744D1*
Y61208D2*
X48310D1*
X48074D2*
Y60972D1*
X47837Y61444D2*
X48310D1*
Y60972D1*
X47837D1*
Y61444D1*
X52637Y61208D2*
X53110D1*
X52874D2*
Y60972D1*
X52637Y61444D2*
X53110D1*
Y60972D1*
X52637D1*
Y61444D1*
Y56508D2*
X53110D1*
X52874D2*
Y56272D1*
X52637Y56744D2*
X53110D1*
Y56272D1*
X52637D1*
Y56744D1*
X47037Y67913D2*
X47510D1*
X47274D2*
Y67677D1*
X47037Y68150D2*
X47510D1*
Y67677D1*
X47037D1*
Y68150D1*
X47837Y65563D2*
X48310D1*
X48074D2*
Y65327D1*
X47837Y65800D2*
X48310D1*
Y65327D1*
X47837D1*
Y65800D1*
Y70263D2*
X48310D1*
X48074D2*
Y70027D1*
X47837Y70500D2*
X48310D1*
Y70027D1*
X47837D1*
Y70500D1*
X52637Y70263D2*
X53110D1*
X52874D2*
Y70027D1*
X52637Y70500D2*
X53110D1*
Y70027D1*
X52637D1*
Y70500D1*
Y65563D2*
X53110D1*
X52874D2*
Y65327D1*
X52637Y65800D2*
X53110D1*
Y65327D1*
X52637D1*
Y65800D1*
X47037Y77165D2*
X47510D1*
X47274D2*
Y76929D1*
X47037Y77402D2*
X47510D1*
Y76929D1*
X47037D1*
Y77402D1*
X47837Y74815D2*
X48310D1*
X48074D2*
Y74579D1*
X47837Y75052D2*
X48310D1*
Y74579D1*
X47837D1*
Y75052D1*
Y79515D2*
X48310D1*
X48074D2*
Y79279D1*
X47837Y79752D2*
X48310D1*
Y79279D1*
X47837D1*
Y79752D1*
X52637Y79515D2*
X53110D1*
X52874D2*
Y79279D1*
X52637Y79752D2*
X53110D1*
Y79279D1*
X52637D1*
Y79752D1*
Y74815D2*
X53110D1*
X52874D2*
Y74579D1*
X52637Y75052D2*
X53110D1*
Y74579D1*
X52637D1*
Y75052D1*
X39449Y63819D2*
Y63583D1*
X39685D1*
X39449Y66811D2*
Y66575D1*
X39685D1*
X11886Y73138D2*
X12358D1*
X12122D2*
Y72902D1*
X11886Y72138D2*
X12358D1*
X12122D2*
Y71902D1*
X14886Y72138D2*
X15358D1*
X15122D2*
Y71902D1*
X14886Y73138D2*
X15358D1*
X15122D2*
Y72902D1*
X11886Y63886D2*
X12358D1*
X12122D2*
Y63650D1*
X11886Y62886D2*
X12358D1*
X12122D2*
Y62650D1*
X14886Y62886D2*
X15358D1*
X15122D2*
Y62650D1*
X14886Y63886D2*
X15358D1*
X15122D2*
Y63650D1*
X11886Y54831D2*
X12358D1*
X12122D2*
Y54594D1*
X11886Y53831D2*
X12358D1*
X12122D2*
Y53594D1*
X14886Y53831D2*
X15358D1*
X15122D2*
Y53594D1*
X14886Y54831D2*
X15358D1*
X15122D2*
Y54594D1*
X11886Y45815D2*
X12358D1*
X12122D2*
Y45579D1*
X11886Y44815D2*
X12358D1*
X12122D2*
Y44579D1*
X14886Y44815D2*
X15358D1*
X15122D2*
Y44579D1*
X14886Y45815D2*
X15358D1*
X15122D2*
Y45579D1*
X51500Y44776D2*
X51972D1*
X51736D2*
Y44539D1*
X51500Y45776D2*
X51972D1*
X51736D2*
Y45539D1*
X48500Y45776D2*
X48972D1*
X48736D2*
Y45539D1*
X48500Y44776D2*
X48972D1*
X48736D2*
Y44539D1*
X51500Y53831D2*
X51972D1*
X51736D2*
Y53594D1*
X51500Y54831D2*
X51972D1*
X51736D2*
Y54594D1*
X48500Y54831D2*
X48972D1*
X48736D2*
Y54594D1*
X48500Y53831D2*
X48972D1*
X48736D2*
Y53594D1*
X51500Y62886D2*
X51972D1*
X51736D2*
Y62650D1*
X51500Y63886D2*
X51972D1*
X51736D2*
Y63650D1*
X48500Y63886D2*
X48972D1*
X48736D2*
Y63650D1*
X48500Y62886D2*
X48972D1*
X48736D2*
Y62650D1*
X51500Y71941D2*
X51972D1*
X51736D2*
Y71705D1*
X51500Y72941D2*
X51972D1*
X51736D2*
Y72705D1*
X48500Y72941D2*
X48972D1*
X48736D2*
Y72705D1*
X48500Y71941D2*
X48972D1*
X48736D2*
Y71705D1*
X27225Y57810D2*
X27462Y57574D1*
X27698Y57810D1*
X27462Y57574D2*
Y57338D1*
X27225Y59810D2*
X27462Y59574D1*
X27698Y59810D1*
X27462Y59574D2*
Y59338D1*
X18685Y73516D2*
X19157D1*
X18921D2*
Y73280D1*
X20685Y73516D2*
X21157D1*
X20921D2*
Y73280D1*
X19685Y73516D2*
X20157D1*
X19921D2*
Y73280D1*
X18685Y64264D2*
X19157D1*
X18921D2*
Y64028D1*
X20685Y64264D2*
X21157D1*
X20921D2*
Y64028D1*
X19685Y64264D2*
X20157D1*
X19921D2*
Y64028D1*
X18685Y55209D2*
X19157D1*
X18921D2*
Y54972D1*
X20685Y55209D2*
X21157D1*
X20921D2*
Y54972D1*
X19685Y55209D2*
X20157D1*
X19921D2*
Y54972D1*
X18685Y46154D2*
X19157D1*
X18921D2*
Y45917D1*
X20685Y46154D2*
X21157D1*
X20921D2*
Y45917D1*
X19685Y46154D2*
X20157D1*
X19921D2*
Y45917D1*
X44701Y52665D2*
X45173D1*
X44937D2*
Y52429D1*
X42701Y52665D2*
X43173D1*
X42937D2*
Y52429D1*
X43701Y52665D2*
X44173D1*
X43937D2*
Y52429D1*
X44701Y61917D2*
X45173D1*
X44937D2*
Y61681D1*
X42701Y61917D2*
X43173D1*
X42937D2*
Y61681D1*
X43701Y61917D2*
X44173D1*
X43937D2*
Y61681D1*
X44701Y70776D2*
X45173D1*
X44937D2*
Y70539D1*
X42701Y70776D2*
X43173D1*
X42937D2*
Y70539D1*
X43701Y70776D2*
X44173D1*
X43937D2*
Y70539D1*
X44701Y79831D2*
X45173D1*
X44937D2*
Y79594D1*
X42701Y79831D2*
X43173D1*
X42937D2*
Y79594D1*
X43701Y79831D2*
X44173D1*
X43937D2*
Y79594D1*
X29882Y51142D2*
Y50906D1*
X30118D1*
X31882Y51142D2*
Y50906D1*
X32118D1*
X30882Y51142D2*
Y50906D1*
X31118D1*
X19488Y79559D2*
X19961D1*
X19724D2*
Y79323D1*
X19488Y75559D2*
X19961D1*
X19724D2*
Y75323D1*
X10071Y73228D2*
X10543D1*
X10307D2*
Y72992D1*
X6071Y73228D2*
X6543D1*
X6307D2*
Y72992D1*
X23150Y66220D2*
X23622D1*
X23386D2*
Y65984D1*
X23150Y62220D2*
X23622D1*
X23386D2*
Y61984D1*
X35630Y74327D2*
X36102D1*
X35866D2*
Y74091D1*
X35630Y70327D2*
X36102D1*
X35866D2*
Y70091D1*
X19488Y70307D2*
X19961D1*
X19724D2*
Y70071D1*
X19488Y66307D2*
X19961D1*
X19724D2*
Y66071D1*
X10071Y63976D2*
X10543D1*
X10307D2*
Y63740D1*
X6071Y63976D2*
X6543D1*
X6307D2*
Y63740D1*
X19488Y61134D2*
X19961D1*
X19724D2*
Y60898D1*
X19488Y57134D2*
X19961D1*
X19724D2*
Y56898D1*
X10071Y54921D2*
X10543D1*
X10307D2*
Y54685D1*
X6071Y54921D2*
X6543D1*
X6307D2*
Y54685D1*
X19488Y52118D2*
X19961D1*
X19724D2*
Y51882D1*
X19488Y48118D2*
X19961D1*
X19724D2*
Y47882D1*
X10071Y45366D2*
X10543D1*
X10307D2*
Y45130D1*
X6071Y45366D2*
X6543D1*
X6307D2*
Y45130D1*
X34646Y70327D2*
X35118D1*
X34882D2*
Y70091D1*
X34646Y74327D2*
X35118D1*
X34882D2*
Y74091D1*
X34134Y77890D2*
X34606D1*
X34370D2*
Y77653D1*
X38134Y77890D2*
X38606D1*
X38370D2*
Y77653D1*
X44094Y45539D2*
X44567D1*
X44331D2*
Y45303D1*
X44094Y49539D2*
X44567D1*
X44331D2*
Y49303D1*
X53512Y44882D2*
X53984D1*
X53748D2*
Y44646D1*
X57512Y44882D2*
X57984D1*
X57748D2*
Y44646D1*
X44094Y54791D2*
X44567D1*
X44331D2*
Y54555D1*
X44094Y58791D2*
X44567D1*
X44331D2*
Y58555D1*
X53512Y53740D2*
X53984D1*
X53748D2*
Y53504D1*
X57512Y53740D2*
X57984D1*
X57748D2*
Y53504D1*
X44094Y63650D2*
X44567D1*
X44331D2*
Y63413D1*
X44094Y67650D2*
X44567D1*
X44331D2*
Y67413D1*
X53512Y62795D2*
X53984D1*
X53748D2*
Y62559D1*
X57512Y62795D2*
X57984D1*
X57748D2*
Y62559D1*
X44094Y72705D2*
X44567D1*
X44331D2*
Y72469D1*
X44094Y76705D2*
X44567D1*
X44331D2*
Y76469D1*
X53512Y71850D2*
X53984D1*
X53748D2*
Y71614D1*
X57512Y71850D2*
X57984D1*
X57748D2*
Y71614D1*
X27953Y50394D2*
X28425D1*
X28189D2*
Y50157D1*
X27953Y46394D2*
X28425D1*
X28189D2*
Y46157D1*
X22386Y46421D2*
X22858D1*
X22622D2*
Y46185D1*
X22386Y50421D2*
X22858D1*
X22622D2*
Y50185D1*
X23110Y52441D2*
X23583D1*
X23346D2*
Y52205D1*
X27110Y52441D2*
X27583D1*
X27346D2*
Y52205D1*
X30512Y74677D2*
X30984D1*
X30748D2*
Y74441D1*
X30512Y70677D2*
X30984D1*
X30748D2*
Y70441D1*
X25394Y74756D2*
X25866D1*
X25630D2*
Y74520D1*
X25394Y70756D2*
X25866D1*
X25630D2*
Y70520D1*
X31496Y74677D2*
X31969D1*
X31732D2*
Y74441D1*
X31496Y70677D2*
X31969D1*
X31732D2*
Y70441D1*
X26378Y74756D2*
X26850D1*
X26614D2*
Y74520D1*
X26378Y70756D2*
X26850D1*
X26614D2*
Y70520D1*
X36614Y74327D2*
X37087D1*
X36850D2*
Y74090D1*
X36614Y70327D2*
X37087D1*
X36850D2*
Y70090D1*
X37598Y74327D2*
X38071D1*
X37835D2*
Y74091D1*
X37598Y70327D2*
X38071D1*
X37835D2*
Y70091D1*
X20669Y79559D2*
X21142D1*
X20906D2*
Y79323D1*
X20669Y75559D2*
X21142D1*
X20906D2*
Y75323D1*
X20669Y70307D2*
X21142D1*
X20906D2*
Y70071D1*
X20669Y66307D2*
X21142D1*
X20906D2*
Y66071D1*
X20669Y61134D2*
X21142D1*
X20906D2*
Y60898D1*
X20669Y57134D2*
X21142D1*
X20906D2*
Y56898D1*
X20669Y52118D2*
X21142D1*
X20906D2*
Y51882D1*
X20669Y48118D2*
X21142D1*
X20906D2*
Y47882D1*
X43110Y49539D2*
X43583D1*
X43346D2*
Y49303D1*
X43110Y45539D2*
X43583D1*
X43346D2*
Y45303D1*
X43110Y58791D2*
X43583D1*
X43346D2*
Y58555D1*
X43110Y54791D2*
X43583D1*
X43346D2*
Y54555D1*
X43110Y67650D2*
X43583D1*
X43346D2*
Y67413D1*
X43110Y63650D2*
X43583D1*
X43346D2*
Y63413D1*
X43110Y76705D2*
X43583D1*
X43346D2*
Y76469D1*
X43110Y72705D2*
X43583D1*
X43346D2*
Y72469D1*
X33858Y65276D2*
X34331D1*
X34094D2*
Y65039D1*
X33858Y69276D2*
X34331D1*
X34094D2*
Y69039D1*
X26893Y65713D2*
Y65241D1*
X26657Y65477D2*
X27130D1*
X26657Y65713D2*
X27130D1*
Y65241D1*
X26657D1*
Y65713D1*
X25113D2*
Y65241D1*
X24877Y65477D2*
X25350D1*
X24877Y65713D2*
X25350D1*
Y65241D1*
X24877D1*
Y65713D1*
X26893Y63153D2*
Y62681D1*
X26657Y62917D2*
X27130D1*
X26657Y63153D2*
X27130D1*
Y62681D1*
X26657D1*
Y63153D1*
X25113D2*
Y62681D1*
X24877Y62917D2*
X25350D1*
X24877Y63153D2*
X25350D1*
Y62681D1*
X24877D1*
Y63153D1*
X29528Y74528D2*
X30000D1*
X29764D2*
Y74291D1*
X27528Y74528D2*
X28000D1*
X27764D2*
Y74291D1*
X28528Y74528D2*
X29000D1*
X28764D2*
Y74291D1*
X29528Y72362D2*
X30000D1*
X29764D2*
Y72126D1*
X27528Y72362D2*
X28000D1*
X27764D2*
Y72126D1*
X28528Y72362D2*
X29000D1*
X28764D2*
Y72126D1*
X29331Y66142D2*
X29803D1*
X29567D2*
Y65906D1*
X29331Y65142D2*
X29803D1*
X29567D2*
Y64906D1*
X29331Y64142D2*
X29803D1*
X29567D2*
Y63906D1*
X29331Y63142D2*
X29803D1*
X29567D2*
Y62906D1*
X29331Y62142D2*
X29803D1*
X29567D2*
Y61906D1*
X29331Y61142D2*
X29803D1*
X29567D2*
Y60906D1*
X29331Y60142D2*
X29803D1*
X29567D2*
Y59906D1*
X29331Y59142D2*
X29803D1*
X29567D2*
Y58906D1*
X29331Y58142D2*
X29803D1*
X29567D2*
Y57906D1*
X29331Y57142D2*
X29803D1*
X29567D2*
Y56906D1*
X29331Y56142D2*
X29803D1*
X29567D2*
Y55906D1*
X29331Y55142D2*
X29803D1*
X29567D2*
Y54906D1*
X29331Y54142D2*
X29803D1*
X29567D2*
Y53906D1*
X29331Y53142D2*
X29803D1*
X29567D2*
Y52906D1*
X32331Y53142D2*
X32803D1*
X32567D2*
Y52906D1*
X32331Y54142D2*
X32803D1*
X32567D2*
Y53906D1*
X32331Y55142D2*
X32803D1*
X32567D2*
Y54906D1*
X32331Y56142D2*
X32803D1*
X32567D2*
Y55906D1*
X32331Y57142D2*
X32803D1*
X32567D2*
Y56906D1*
X32331Y58142D2*
X32803D1*
X32567D2*
Y57906D1*
X32331Y59142D2*
X32803D1*
X32567D2*
Y58906D1*
X32331Y60142D2*
X32803D1*
X32567D2*
Y59906D1*
X32331Y61142D2*
X32803D1*
X32567D2*
Y60906D1*
X32331Y62142D2*
X32803D1*
X32567D2*
Y61906D1*
X32331Y63142D2*
X32803D1*
X32567D2*
Y62906D1*
X32331Y64142D2*
X32803D1*
X32567D2*
Y63906D1*
X32331Y65142D2*
X32803D1*
X32567D2*
Y64906D1*
X32331Y66142D2*
X32803D1*
X32567D2*
Y65906D1*
X38740Y71325D2*
X38976Y71089D1*
X39213Y71325D1*
X38976Y71089D2*
Y70853D1*
X38740Y72113D2*
X38976Y71876D1*
X39213Y72113D1*
X38976Y71876D2*
Y71640D1*
X38740Y72900D2*
X38976Y72664D1*
X39213Y72900D1*
X38976Y72664D2*
Y72428D1*
X38740Y73687D2*
X38976Y73451D1*
X39213Y73687D1*
X38976Y73451D2*
Y73215D1*
X38740Y74475D2*
X38976Y74239D1*
X39213Y74475D1*
X38976Y74239D2*
Y74002D1*
X38740Y75262D2*
X38976Y75026D1*
X39213Y75262D1*
X38976Y75026D2*
Y74790D1*
X38740Y76050D2*
X38976Y75813D1*
X39213Y76050D1*
X38976Y75813D2*
Y75577D1*
X38740Y76837D2*
X38976Y76601D1*
X39213Y76837D1*
X38976Y76601D2*
Y76365D1*
X33228Y76837D2*
X33465Y76601D1*
X33701Y76837D1*
X33465Y76601D2*
Y76365D1*
X33228Y76050D2*
X33465Y75813D1*
X33701Y76050D1*
X33465Y75813D2*
Y75577D1*
X33228Y75262D2*
X33465Y75026D1*
X33701Y75262D1*
X33465Y75026D2*
Y74790D1*
X33228Y74475D2*
X33465Y74239D1*
X33701Y74475D1*
X33465Y74239D2*
Y74002D1*
X33228Y73687D2*
X33465Y73451D1*
X33701Y73687D1*
X33465Y73451D2*
Y73215D1*
X33228Y72900D2*
X33465Y72664D1*
X33701Y72900D1*
X33465Y72664D2*
Y72428D1*
X33228Y72113D2*
X33465Y71876D1*
X33701Y72113D1*
X33465Y71876D2*
Y71640D1*
X33228Y71325D2*
X33465Y71089D1*
X33701Y71325D1*
X33465Y71089D2*
Y70853D1*
X36705Y45012D2*
X36941Y44776D1*
X37177Y45012D1*
X39067D2*
X39303Y44776D1*
X39539Y45012D1*
X34343Y58240D2*
X34579Y58004D1*
X34815Y58240D1*
X41429D2*
X41665Y58004D1*
X41902Y58240D1*
X6579Y79370D2*
X6815Y79134D1*
X7051Y79370D1*
X6815Y79134D2*
Y78898D1*
X6579Y79370D2*
X7051D1*
Y78898D1*
X6579D1*
Y79370D1*
Y77402D2*
X6815Y77165D1*
X7051Y77402D1*
X6815Y77165D2*
Y76929D1*
X6579Y77402D2*
X7051D1*
Y76929D1*
X6579D1*
Y77402D1*
Y75433D2*
X6815Y75197D1*
X7051Y75433D1*
X6815Y75197D2*
Y74961D1*
X6579Y75433D2*
X7051D1*
Y74961D1*
X6579D1*
Y75433D1*
Y70118D2*
X6815Y69882D1*
X7051Y70118D1*
X6815Y69882D2*
Y69646D1*
X6579Y70118D2*
X7051D1*
Y69646D1*
X6579D1*
Y70118D1*
Y68150D2*
X6815Y67913D1*
X7051Y68150D1*
X6815Y67913D2*
Y67677D1*
X6579Y68150D2*
X7051D1*
Y67677D1*
X6579D1*
Y68150D1*
Y66181D2*
X6815Y65945D1*
X7051Y66181D1*
X6815Y65945D2*
Y65709D1*
X6579Y66181D2*
X7051D1*
Y65709D1*
X6579D1*
Y66181D1*
Y61063D2*
X6815Y60827D1*
X7051Y61063D1*
X6815Y60827D2*
Y60591D1*
X6579Y61063D2*
X7051D1*
Y60591D1*
X6579D1*
Y61063D1*
Y59094D2*
X6815Y58858D1*
X7051Y59094D1*
X6815Y58858D2*
Y58622D1*
X6579Y59094D2*
X7051D1*
Y58622D1*
X6579D1*
Y59094D1*
Y57126D2*
X6815Y56890D1*
X7051Y57126D1*
X6815Y56890D2*
Y56654D1*
X6579Y57126D2*
X7051D1*
Y56654D1*
X6579D1*
Y57126D1*
Y52008D2*
X6815Y51772D1*
X7051Y52008D1*
X6815Y51772D2*
Y51535D1*
X6579Y52008D2*
X7051D1*
Y51535D1*
X6579D1*
Y52008D1*
Y50039D2*
X6815Y49803D1*
X7051Y50039D1*
X6815Y49803D2*
Y49567D1*
X6579Y50039D2*
X7051D1*
Y49567D1*
X6579D1*
Y50039D1*
Y48071D2*
X6815Y47835D1*
X7051Y48071D1*
X6815Y47835D2*
Y47598D1*
X6579Y48071D2*
X7051D1*
Y47598D1*
X6579D1*
Y48071D1*
X57004D2*
X57240Y47835D1*
X57476Y48071D1*
X57240Y47835D2*
Y47598D1*
X57004Y48071D2*
X57476D1*
Y47598D1*
X57004D1*
Y48071D1*
Y50039D2*
X57240Y49803D1*
X57476Y50039D1*
X57240Y49803D2*
Y49567D1*
X57004Y50039D2*
X57476D1*
Y49567D1*
X57004D1*
Y50039D1*
Y52008D2*
X57240Y51772D1*
X57476Y52008D1*
X57240Y51772D2*
Y51535D1*
X57004Y52008D2*
X57476D1*
Y51535D1*
X57004D1*
Y52008D1*
Y57120D2*
X57240Y56884D1*
X57476Y57120D1*
X57240Y56884D2*
Y56648D1*
X57004Y57120D2*
X57476D1*
Y56648D1*
X57004D1*
Y57120D1*
Y59089D2*
X57240Y58853D1*
X57476Y59089D1*
X57240Y58853D2*
Y58617D1*
X57004Y59089D2*
X57476D1*
Y58617D1*
X57004D1*
Y59089D1*
Y61057D2*
X57240Y60821D1*
X57476Y61057D1*
X57240Y60821D2*
Y60585D1*
X57004Y61057D2*
X57476D1*
Y60585D1*
X57004D1*
Y61057D1*
Y66170D2*
X57240Y65934D1*
X57476Y66170D1*
X57240Y65934D2*
Y65698D1*
X57004Y66170D2*
X57476D1*
Y65698D1*
X57004D1*
Y66170D1*
Y68139D2*
X57240Y67902D1*
X57476Y68139D1*
X57240Y67902D2*
Y67666D1*
X57004Y68139D2*
X57476D1*
Y67666D1*
X57004D1*
Y68139D1*
Y70107D2*
X57240Y69871D1*
X57476Y70107D1*
X57240Y69871D2*
Y69635D1*
X57004Y70107D2*
X57476D1*
Y69635D1*
X57004D1*
Y70107D1*
Y75433D2*
X57240Y75197D1*
X57476Y75433D1*
X57240Y75197D2*
Y74961D1*
X57004Y75433D2*
X57476D1*
Y74961D1*
X57004D1*
Y75433D1*
Y77402D2*
X57240Y77165D1*
X57476Y77402D1*
X57240Y77165D2*
Y76929D1*
X57004Y77402D2*
X57476D1*
Y76929D1*
X57004D1*
Y77402D1*
Y79370D2*
X57240Y79134D1*
X57476Y79370D1*
X57240Y79134D2*
Y78898D1*
X57004Y79370D2*
X57476D1*
Y78898D1*
X57004D1*
Y79370D1*
X30394Y45787D2*
X30630Y45551D1*
X30866Y45787D1*
X30630Y45551D2*
Y45315D1*
X30394Y45787D2*
X30866D1*
Y45315D1*
X30394D1*
Y45787D1*
X32362D2*
X32598Y45551D1*
X32835Y45787D1*
X32598Y45551D2*
Y45315D1*
X32362Y45787D2*
X32835D1*
Y45315D1*
X32362D1*
Y45787D1*
X39803Y40354D2*
Y40118D1*
X40039D1*
X39803Y39354D2*
Y39118D1*
X40039D1*
X39606Y22441D2*
X40079D1*
X39843D2*
Y22205D1*
X39606Y23441D2*
X40079D1*
X39843D2*
Y23205D1*
X25797Y21003D2*
Y20531D1*
X25561Y20767D2*
X26034D1*
X25797Y22003D2*
Y21531D1*
X25561Y21767D2*
X26034D1*
X36654Y23858D2*
Y23386D1*
X36417Y23622D2*
X36890D1*
X36417Y23858D2*
X36890D1*
Y23386D1*
X36417D1*
Y23858D1*
X36654Y21858D2*
Y21386D1*
X36417Y21622D2*
X36890D1*
X36417Y21858D2*
X36890D1*
Y21386D1*
X36417D1*
Y21858D1*
X25797Y19878D2*
Y19406D1*
X25561Y19642D2*
X26034D1*
X25797Y18878D2*
Y18406D1*
X25561Y18642D2*
X26034D1*
X23425Y7874D2*
X23898D1*
X23661D2*
Y7638D1*
X24425Y7874D2*
X24898D1*
X24661D2*
Y7638D1*
X25787Y15748D2*
X26260D1*
X26024D2*
Y15512D1*
X24787Y15748D2*
X25260D1*
X25024D2*
Y15512D1*
X26669Y7835D2*
X27142D1*
X26906D2*
Y7598D1*
X25669Y7835D2*
X26142D1*
X25906D2*
Y7598D1*
X18307Y36819D2*
X18780Y36346D1*
Y36819D2*
X18307Y36346D1*
Y36819D2*
X18780D1*
Y36346D1*
X18307D1*
Y36819D1*
Y40819D2*
X18780Y40346D1*
Y40819D2*
X18307Y40346D1*
Y40819D2*
X18780D1*
Y40346D1*
X18307D1*
Y40819D1*
Y27567D2*
X18780Y27094D1*
Y27567D2*
X18307Y27094D1*
Y27567D2*
X18780D1*
Y27094D1*
X18307D1*
Y27567D1*
Y31567D2*
X18780Y31094D1*
Y31567D2*
X18307Y31094D1*
Y31567D2*
X18780D1*
Y31094D1*
X18307D1*
Y31567D1*
Y18512D2*
X18780Y18039D1*
Y18512D2*
X18307Y18039D1*
Y18512D2*
X18780D1*
Y18039D1*
X18307D1*
Y18512D1*
Y22512D2*
X18780Y22039D1*
Y22512D2*
X18307Y22039D1*
Y22512D2*
X18780D1*
Y22039D1*
X18307D1*
Y22512D1*
Y9457D2*
X18780Y8984D1*
Y9457D2*
X18307Y8984D1*
Y9457D2*
X18780D1*
Y8984D1*
X18307D1*
Y9457D1*
Y13457D2*
X18780Y12984D1*
Y13457D2*
X18307Y12984D1*
Y13457D2*
X18780D1*
Y12984D1*
X18307D1*
Y13457D1*
X45276Y13425D2*
X45748Y12953D1*
Y13425D2*
X45276Y12953D1*
Y13425D2*
X45748D1*
Y12953D1*
X45276D1*
Y13425D1*
Y9425D2*
X45748Y8953D1*
Y9425D2*
X45276Y8953D1*
Y9425D2*
X45748D1*
Y8953D1*
X45276D1*
Y9425D1*
Y22677D2*
X45748Y22205D1*
Y22677D2*
X45276Y22205D1*
Y22677D2*
X45748D1*
Y22205D1*
X45276D1*
Y22677D1*
Y18677D2*
X45748Y18205D1*
Y18677D2*
X45276Y18205D1*
Y18677D2*
X45748D1*
Y18205D1*
X45276D1*
Y18677D1*
Y31567D2*
X45748Y31094D1*
Y31567D2*
X45276Y31094D1*
Y31567D2*
X45748D1*
Y31094D1*
X45276D1*
Y31567D1*
Y27567D2*
X45748Y27094D1*
Y27567D2*
X45276Y27094D1*
Y27567D2*
X45748D1*
Y27094D1*
X45276D1*
Y27567D1*
Y40819D2*
X45748Y40346D1*
Y40819D2*
X45276Y40346D1*
Y40819D2*
X45748D1*
Y40346D1*
X45276D1*
Y40819D1*
Y36819D2*
X45748Y36346D1*
Y36819D2*
X45276Y36346D1*
Y36819D2*
X45748D1*
Y36346D1*
X45276D1*
Y36819D1*
X40827Y35575D2*
X41063Y35339D1*
X41299Y35575D1*
X41063Y35339D2*
Y35102D1*
X40827Y36575D2*
X41299Y36102D1*
Y36575D2*
X40827Y36102D1*
X26614Y12598D2*
X27087D1*
X26850D2*
Y12362D1*
X25614Y12598D2*
X26087D1*
X25850D2*
Y12362D1*
X25614Y9598D2*
X26087D1*
X25850D2*
Y9362D1*
X26614Y9598D2*
X27087D1*
X26850D2*
Y9362D1*
X24614Y12598D2*
X25087D1*
X24850D2*
Y12362D1*
X23614Y12598D2*
X24087D1*
X23850D2*
Y12362D1*
X24614Y9598D2*
X25087D1*
X24850D2*
Y9362D1*
X23614Y9598D2*
X24087D1*
X23850D2*
Y9362D1*
X29370Y32283D2*
Y31811D1*
X29134Y32047D2*
X29606D1*
X29134Y32283D2*
X29606D1*
Y31811D1*
X29134D1*
Y32283D1*
X29370Y31283D2*
Y30811D1*
X29134Y31047D2*
X29606D1*
X29134Y31283D2*
X29606D1*
Y30811D1*
X29134D1*
Y31283D1*
X29850Y39557D2*
X30322Y39085D1*
Y39557D2*
X29850Y39085D1*
Y39557D2*
X30322D1*
Y39085D1*
X29850D1*
Y39557D1*
X29086D2*
Y39321D1*
X29322D1*
X28086Y39557D2*
Y39321D1*
X28322D1*
X27086Y39557D2*
Y39321D1*
X27322D1*
X32080Y37513D2*
Y37040D1*
X31844Y37276D2*
X32316D1*
X31844Y37513D2*
X32316D1*
Y37040D1*
X31844D1*
Y37513D1*
X32080Y38513D2*
Y38040D1*
X31844Y38276D2*
X32316D1*
X31844Y38513D2*
X32316D1*
Y38040D1*
X31844D1*
Y38513D1*
X27795Y32244D2*
Y31772D1*
X27559Y32008D2*
X28031D1*
X27559Y32244D2*
X28031D1*
Y31772D1*
X27559D1*
Y32244D1*
X27795Y31244D2*
Y30772D1*
X27559Y31008D2*
X28031D1*
X27559Y31244D2*
X28031D1*
Y30772D1*
X27559D1*
Y31244D1*
X28622Y29449D2*
Y28976D1*
X28386Y29213D2*
X28858D1*
X28386Y29449D2*
X28858D1*
Y28976D1*
X28386D1*
Y29449D1*
X27622D2*
Y28976D1*
X27386Y29213D2*
X27858D1*
X27386Y29449D2*
X27858D1*
Y28976D1*
X27386D1*
Y29449D1*
X26622D2*
Y28976D1*
X26386Y29213D2*
X26858D1*
X26386Y29449D2*
X26858D1*
Y28976D1*
X26386D1*
Y29449D1*
X25622D2*
Y28976D1*
X25386Y29213D2*
X25858D1*
X25386Y29449D2*
X25858D1*
Y28976D1*
X25386D1*
Y29449D1*
X24622D2*
Y28976D1*
X24386Y29213D2*
X24858D1*
X24386Y29449D2*
X24858D1*
Y28976D1*
X24386D1*
Y29449D1*
X16545Y38583D2*
X17018D1*
X16781D2*
Y38346D1*
X16545Y38819D2*
X17018D1*
Y38346D1*
X16545D1*
Y38819D1*
X15745Y40933D2*
X16218D1*
X15981D2*
Y40696D1*
X15745Y41169D2*
X16218D1*
Y40696D1*
X15745D1*
Y41169D1*
Y36233D2*
X16218D1*
X15981D2*
Y35996D1*
X15745Y36469D2*
X16218D1*
Y35996D1*
X15745D1*
Y36469D1*
X10945Y36233D2*
X11418D1*
X11181D2*
Y35996D1*
X10945Y36469D2*
X11418D1*
Y35996D1*
X10945D1*
Y36469D1*
Y40933D2*
X11418D1*
X11181D2*
Y40696D1*
X10945Y41169D2*
X11418D1*
Y40696D1*
X10945D1*
Y41169D1*
X16545Y29331D2*
X17018D1*
X16781D2*
Y29094D1*
X16545Y29567D2*
X17018D1*
Y29094D1*
X16545D1*
Y29567D1*
X15745Y31681D2*
X16218D1*
X15981D2*
Y31444D1*
X15745Y31917D2*
X16218D1*
Y31444D1*
X15745D1*
Y31917D1*
Y26981D2*
X16218D1*
X15981D2*
Y26744D1*
X15745Y27217D2*
X16218D1*
Y26744D1*
X15745D1*
Y27217D1*
X10945Y26981D2*
X11418D1*
X11181D2*
Y26744D1*
X10945Y27217D2*
X11418D1*
Y26744D1*
X10945D1*
Y27217D1*
Y31681D2*
X11418D1*
X11181D2*
Y31444D1*
X10945Y31917D2*
X11418D1*
Y31444D1*
X10945D1*
Y31917D1*
X16545Y20276D2*
X17018D1*
X16781D2*
Y20039D1*
X16545Y20512D2*
X17018D1*
Y20039D1*
X16545D1*
Y20512D1*
X15745Y22626D2*
X16218D1*
X15981D2*
Y22389D1*
X15745Y22862D2*
X16218D1*
Y22389D1*
X15745D1*
Y22862D1*
Y17926D2*
X16218D1*
X15981D2*
Y17689D1*
X15745Y18162D2*
X16218D1*
Y17689D1*
X15745D1*
Y18162D1*
X10945Y17926D2*
X11418D1*
X11181D2*
Y17689D1*
X10945Y18162D2*
X11418D1*
Y17689D1*
X10945D1*
Y18162D1*
Y22626D2*
X11418D1*
X11181D2*
Y22389D1*
X10945Y22862D2*
X11418D1*
Y22389D1*
X10945D1*
Y22862D1*
X16545Y11220D2*
X17018D1*
X16781D2*
Y10984D1*
X16545Y11457D2*
X17018D1*
Y10984D1*
X16545D1*
Y11457D1*
X15745Y13570D2*
X16218D1*
X15981D2*
Y13334D1*
X15745Y13807D2*
X16218D1*
Y13334D1*
X15745D1*
Y13807D1*
Y8870D2*
X16218D1*
X15981D2*
Y8634D1*
X15745Y9107D2*
X16218D1*
Y8634D1*
X15745D1*
Y9107D1*
X10945Y8870D2*
X11418D1*
X11181D2*
Y8634D1*
X10945Y9107D2*
X11418D1*
Y8634D1*
X10945D1*
Y9107D1*
Y13570D2*
X11418D1*
X11181D2*
Y13334D1*
X10945Y13807D2*
X11418D1*
Y13334D1*
X10945D1*
Y13807D1*
X47037Y11220D2*
X47510D1*
X47274D2*
Y10984D1*
X47037Y11457D2*
X47510D1*
Y10984D1*
X47037D1*
Y11457D1*
X47837Y8870D2*
X48310D1*
X48074D2*
Y8634D1*
X47837Y9107D2*
X48310D1*
Y8634D1*
X47837D1*
Y9107D1*
Y13570D2*
X48310D1*
X48074D2*
Y13334D1*
X47837Y13807D2*
X48310D1*
Y13334D1*
X47837D1*
Y13807D1*
X52637Y13570D2*
X53110D1*
X52874D2*
Y13334D1*
X52637Y13807D2*
X53110D1*
Y13334D1*
X52637D1*
Y13807D1*
Y8870D2*
X53110D1*
X52874D2*
Y8634D1*
X52637Y9107D2*
X53110D1*
Y8634D1*
X52637D1*
Y9107D1*
X47037Y20276D2*
X47510D1*
X47274D2*
Y20039D1*
X47037Y20512D2*
X47510D1*
Y20039D1*
X47037D1*
Y20512D1*
X47837Y17926D2*
X48310D1*
X48074D2*
Y17689D1*
X47837Y18162D2*
X48310D1*
Y17689D1*
X47837D1*
Y18162D1*
Y22626D2*
X48310D1*
X48074D2*
Y22389D1*
X47837Y22862D2*
X48310D1*
Y22389D1*
X47837D1*
Y22862D1*
X52637Y22626D2*
X53110D1*
X52874D2*
Y22389D1*
X52637Y22862D2*
X53110D1*
Y22389D1*
X52637D1*
Y22862D1*
Y17926D2*
X53110D1*
X52874D2*
Y17689D1*
X52637Y18162D2*
X53110D1*
Y17689D1*
X52637D1*
Y18162D1*
X47037Y29331D2*
X47510D1*
X47274D2*
Y29094D1*
X47037Y29567D2*
X47510D1*
Y29094D1*
X47037D1*
Y29567D1*
X47837Y26981D2*
X48310D1*
X48074D2*
Y26744D1*
X47837Y27217D2*
X48310D1*
Y26744D1*
X47837D1*
Y27217D1*
Y31681D2*
X48310D1*
X48074D2*
Y31444D1*
X47837Y31917D2*
X48310D1*
Y31444D1*
X47837D1*
Y31917D1*
X52637Y31681D2*
X53110D1*
X52874D2*
Y31444D1*
X52637Y31917D2*
X53110D1*
Y31444D1*
X52637D1*
Y31917D1*
Y26981D2*
X53110D1*
X52874D2*
Y26744D1*
X52637Y27217D2*
X53110D1*
Y26744D1*
X52637D1*
Y27217D1*
X47037Y38583D2*
X47510D1*
X47274D2*
Y38346D1*
X47037Y38819D2*
X47510D1*
Y38346D1*
X47037D1*
Y38819D1*
X47837Y36233D2*
X48310D1*
X48074D2*
Y35996D1*
X47837Y36469D2*
X48310D1*
Y35996D1*
X47837D1*
Y36469D1*
Y40933D2*
X48310D1*
X48074D2*
Y40696D1*
X47837Y41169D2*
X48310D1*
Y40696D1*
X47837D1*
Y41169D1*
X52637Y40933D2*
X53110D1*
X52874D2*
Y40696D1*
X52637Y41169D2*
X53110D1*
Y40696D1*
X52637D1*
Y41169D1*
Y36233D2*
X53110D1*
X52874D2*
Y35996D1*
X52637Y36469D2*
X53110D1*
Y35996D1*
X52637D1*
Y36469D1*
X39449Y25236D2*
Y25000D1*
X39685D1*
X39449Y28228D2*
Y27992D1*
X39685D1*
X11886Y34555D2*
X12358D1*
X12122D2*
Y34319D1*
X11886Y33555D2*
X12358D1*
X12122D2*
Y33319D1*
X14886Y33555D2*
X15358D1*
X15122D2*
Y33319D1*
X14886Y34555D2*
X15358D1*
X15122D2*
Y34319D1*
X11886Y25303D2*
X12358D1*
X12122D2*
Y25067D1*
X11886Y24303D2*
X12358D1*
X12122D2*
Y24067D1*
X14886Y24303D2*
X15358D1*
X15122D2*
Y24067D1*
X14886Y25303D2*
X15358D1*
X15122D2*
Y25067D1*
X11886Y16248D2*
X12358D1*
X12122D2*
Y16012D1*
X11886Y15248D2*
X12358D1*
X12122D2*
Y15012D1*
X14886Y15248D2*
X15358D1*
X15122D2*
Y15012D1*
X14886Y16248D2*
X15358D1*
X15122D2*
Y16012D1*
X11886Y7232D2*
X12358D1*
X12122D2*
Y6996D1*
X11886Y6232D2*
X12358D1*
X12122D2*
Y5996D1*
X14886Y6232D2*
X15358D1*
X15122D2*
Y5996D1*
X14886Y7232D2*
X15358D1*
X15122D2*
Y6996D1*
X51500Y6193D2*
X51972D1*
X51736D2*
Y5957D1*
X51500Y7193D2*
X51972D1*
X51736D2*
Y6957D1*
X48500Y7193D2*
X48972D1*
X48736D2*
Y6957D1*
X48500Y6193D2*
X48972D1*
X48736D2*
Y5957D1*
X51500Y15248D2*
X51972D1*
X51736D2*
Y15012D1*
X51500Y16248D2*
X51972D1*
X51736D2*
Y16012D1*
X48500Y16248D2*
X48972D1*
X48736D2*
Y16012D1*
X48500Y15248D2*
X48972D1*
X48736D2*
Y15012D1*
X51500Y24303D2*
X51972D1*
X51736D2*
Y24067D1*
X51500Y25303D2*
X51972D1*
X51736D2*
Y25067D1*
X48500Y25303D2*
X48972D1*
X48736D2*
Y25067D1*
X48500Y24303D2*
X48972D1*
X48736D2*
Y24067D1*
X51500Y33358D2*
X51972D1*
X51736D2*
Y33122D1*
X51500Y34358D2*
X51972D1*
X51736D2*
Y34122D1*
X48500Y34358D2*
X48972D1*
X48736D2*
Y34122D1*
X48500Y33358D2*
X48972D1*
X48736D2*
Y33122D1*
X27225Y19228D2*
X27462Y18992D1*
X27698Y19228D1*
X27462Y18992D2*
Y18755D1*
X27225Y21228D2*
X27462Y20992D1*
X27698Y21228D1*
X27462Y20992D2*
Y20755D1*
X18685Y34933D2*
X19157D1*
X18921D2*
Y34697D1*
X20685Y34933D2*
X21157D1*
X20921D2*
Y34697D1*
X19685Y34933D2*
X20157D1*
X19921D2*
Y34697D1*
X18685Y25681D2*
X19157D1*
X18921D2*
Y25445D1*
X20685Y25681D2*
X21157D1*
X20921D2*
Y25445D1*
X19685Y25681D2*
X20157D1*
X19921D2*
Y25445D1*
X18685Y16626D2*
X19157D1*
X18921D2*
Y16390D1*
X20685Y16626D2*
X21157D1*
X20921D2*
Y16390D1*
X19685Y16626D2*
X20157D1*
X19921D2*
Y16390D1*
X18685Y7571D2*
X19157D1*
X18921D2*
Y7335D1*
X20685Y7571D2*
X21157D1*
X20921D2*
Y7335D1*
X19685Y7571D2*
X20157D1*
X19921D2*
Y7335D1*
X44701Y14083D2*
X45173D1*
X44937D2*
Y13846D1*
X42701Y14083D2*
X43173D1*
X42937D2*
Y13846D1*
X43701Y14083D2*
X44173D1*
X43937D2*
Y13846D1*
X44701Y23335D2*
X45173D1*
X44937D2*
Y23098D1*
X42701Y23335D2*
X43173D1*
X42937D2*
Y23098D1*
X43701Y23335D2*
X44173D1*
X43937D2*
Y23098D1*
X44701Y32193D2*
X45173D1*
X44937D2*
Y31957D1*
X42701Y32193D2*
X43173D1*
X42937D2*
Y31957D1*
X43701Y32193D2*
X44173D1*
X43937D2*
Y31957D1*
X44701Y41248D2*
X45173D1*
X44937D2*
Y41012D1*
X42701Y41248D2*
X43173D1*
X42937D2*
Y41012D1*
X43701Y41248D2*
X44173D1*
X43937D2*
Y41012D1*
X29882Y12559D2*
Y12323D1*
X30118D1*
X31882Y12559D2*
Y12323D1*
X32118D1*
X30882Y12559D2*
Y12323D1*
X31118D1*
X19488Y40976D2*
X19961D1*
X19724D2*
Y40740D1*
X19488Y36976D2*
X19961D1*
X19724D2*
Y36740D1*
X10071Y34646D2*
X10543D1*
X10307D2*
Y34409D1*
X6071Y34646D2*
X6543D1*
X6307D2*
Y34409D1*
X23150Y27638D2*
X23622D1*
X23386D2*
Y27402D1*
X23150Y23638D2*
X23622D1*
X23386D2*
Y23402D1*
X35630Y35744D2*
X36102D1*
X35866D2*
Y35508D1*
X35630Y31744D2*
X36102D1*
X35866D2*
Y31508D1*
X19488Y31724D2*
X19961D1*
X19724D2*
Y31488D1*
X19488Y27724D2*
X19961D1*
X19724D2*
Y27488D1*
X10071Y25394D2*
X10543D1*
X10307D2*
Y25157D1*
X6071Y25394D2*
X6543D1*
X6307D2*
Y25157D1*
X19488Y22551D2*
X19961D1*
X19724D2*
Y22315D1*
X19488Y18551D2*
X19961D1*
X19724D2*
Y18315D1*
X10071Y16339D2*
X10543D1*
X10307D2*
Y16102D1*
X6071Y16339D2*
X6543D1*
X6307D2*
Y16102D1*
X19488Y13535D2*
X19961D1*
X19724D2*
Y13299D1*
X19488Y9535D2*
X19961D1*
X19724D2*
Y9299D1*
X10071Y6783D2*
X10543D1*
X10307D2*
Y6547D1*
X6071Y6783D2*
X6543D1*
X6307D2*
Y6547D1*
X34646Y31744D2*
X35118D1*
X34882D2*
Y31508D1*
X34646Y35744D2*
X35118D1*
X34882D2*
Y35508D1*
X34134Y39307D2*
X34606D1*
X34370D2*
Y39071D1*
X38134Y39307D2*
X38606D1*
X38370D2*
Y39071D1*
X44094Y6957D2*
X44567D1*
X44331D2*
Y6720D1*
X44094Y10957D2*
X44567D1*
X44331D2*
Y10720D1*
X53512Y6299D2*
X53984D1*
X53748D2*
Y6063D1*
X57512Y6299D2*
X57984D1*
X57748D2*
Y6063D1*
X44094Y16209D2*
X44567D1*
X44331D2*
Y15972D1*
X44094Y20209D2*
X44567D1*
X44331D2*
Y19972D1*
X53512Y15157D2*
X53984D1*
X53748D2*
Y14921D1*
X57512Y15157D2*
X57984D1*
X57748D2*
Y14921D1*
X44094Y25067D2*
X44567D1*
X44331D2*
Y24831D1*
X44094Y29067D2*
X44567D1*
X44331D2*
Y28831D1*
X53512Y24213D2*
X53984D1*
X53748D2*
Y23976D1*
X57512Y24213D2*
X57984D1*
X57748D2*
Y23976D1*
X44094Y34122D2*
X44567D1*
X44331D2*
Y33886D1*
X44094Y38122D2*
X44567D1*
X44331D2*
Y37886D1*
X53512Y33268D2*
X53984D1*
X53748D2*
Y33031D1*
X57512Y33268D2*
X57984D1*
X57748D2*
Y33031D1*
X27953Y11811D2*
X28425D1*
X28189D2*
Y11575D1*
X27953Y7811D2*
X28425D1*
X28189D2*
Y7575D1*
X22386Y7839D2*
X22858D1*
X22622D2*
Y7602D1*
X22386Y11839D2*
X22858D1*
X22622D2*
Y11602D1*
X23110Y13858D2*
X23583D1*
X23346D2*
Y13622D1*
X27110Y13858D2*
X27583D1*
X27346D2*
Y13622D1*
X30512Y36094D2*
X30984D1*
X30748D2*
Y35858D1*
X30512Y32094D2*
X30984D1*
X30748D2*
Y31858D1*
X25394Y36173D2*
X25866D1*
X25630D2*
Y35937D1*
X25394Y32173D2*
X25866D1*
X25630D2*
Y31937D1*
X31496Y36094D2*
X31969D1*
X31732D2*
Y35858D1*
X31496Y32094D2*
X31969D1*
X31732D2*
Y31858D1*
X26378Y36173D2*
X26850D1*
X26614D2*
Y35937D1*
X26378Y32173D2*
X26850D1*
X26614D2*
Y31937D1*
X36614Y35744D2*
X37087D1*
X36850D2*
Y35508D1*
X36614Y31744D2*
X37087D1*
X36850D2*
Y31508D1*
X37598Y35744D2*
X38071D1*
X37835D2*
Y35508D1*
X37598Y31744D2*
X38071D1*
X37835D2*
Y31508D1*
X20669Y40976D2*
X21142D1*
X20906D2*
Y40740D1*
X20669Y36976D2*
X21142D1*
X20906D2*
Y36740D1*
X20669Y31724D2*
X21142D1*
X20906D2*
Y31488D1*
X20669Y27724D2*
X21142D1*
X20906D2*
Y27488D1*
X20669Y22551D2*
X21142D1*
X20906D2*
Y22315D1*
X20669Y18551D2*
X21142D1*
X20906D2*
Y18315D1*
X20669Y13535D2*
X21142D1*
X20906D2*
Y13299D1*
X20669Y9535D2*
X21142D1*
X20906D2*
Y9299D1*
X43110Y10957D2*
X43583D1*
X43346D2*
Y10720D1*
X43110Y6957D2*
X43583D1*
X43346D2*
Y6720D1*
X43110Y20209D2*
X43583D1*
X43346D2*
Y19972D1*
X43110Y16209D2*
X43583D1*
X43346D2*
Y15972D1*
X43110Y29067D2*
X43583D1*
X43346D2*
Y28831D1*
X43110Y25067D2*
X43583D1*
X43346D2*
Y24831D1*
X43110Y38122D2*
X43583D1*
X43346D2*
Y37886D1*
X43110Y34122D2*
X43583D1*
X43346D2*
Y33886D1*
X33858Y26693D2*
X34331D1*
X34094D2*
Y26457D1*
X33858Y30693D2*
X34331D1*
X34094D2*
Y30457D1*
X26893Y27131D2*
Y26658D1*
X26657Y26894D2*
X27130D1*
X26657Y27131D2*
X27130D1*
Y26658D1*
X26657D1*
Y27131D1*
X25113D2*
Y26658D1*
X24877Y26894D2*
X25350D1*
X24877Y27131D2*
X25350D1*
Y26658D1*
X24877D1*
Y27131D1*
X26893Y24571D2*
Y24098D1*
X26657Y24334D2*
X27130D1*
X26657Y24571D2*
X27130D1*
Y24098D1*
X26657D1*
Y24571D1*
X25113D2*
Y24098D1*
X24877Y24334D2*
X25350D1*
X24877Y24571D2*
X25350D1*
Y24098D1*
X24877D1*
Y24571D1*
X29528Y35945D2*
X30000D1*
X29764D2*
Y35709D1*
X27528Y35945D2*
X28000D1*
X27764D2*
Y35709D1*
X28528Y35945D2*
X29000D1*
X28764D2*
Y35709D1*
X29528Y33780D2*
X30000D1*
X29764D2*
Y33543D1*
X27528Y33780D2*
X28000D1*
X27764D2*
Y33543D1*
X28528Y33780D2*
X29000D1*
X28764D2*
Y33543D1*
X29331Y27559D2*
X29803D1*
X29567D2*
Y27323D1*
X29331Y26559D2*
X29803D1*
X29567D2*
Y26323D1*
X29331Y25559D2*
X29803D1*
X29567D2*
Y25323D1*
X29331Y24559D2*
X29803D1*
X29567D2*
Y24323D1*
X29331Y23559D2*
X29803D1*
X29567D2*
Y23323D1*
X29331Y22559D2*
X29803D1*
X29567D2*
Y22323D1*
X29331Y21559D2*
X29803D1*
X29567D2*
Y21323D1*
X29331Y20559D2*
X29803D1*
X29567D2*
Y20323D1*
X29331Y19559D2*
X29803D1*
X29567D2*
Y19323D1*
X29331Y18559D2*
X29803D1*
X29567D2*
Y18323D1*
X29331Y17559D2*
X29803D1*
X29567D2*
Y17323D1*
X29331Y16559D2*
X29803D1*
X29567D2*
Y16323D1*
X29331Y15559D2*
X29803D1*
X29567D2*
Y15323D1*
X29331Y14559D2*
X29803D1*
X29567D2*
Y14323D1*
X32331Y14559D2*
X32803D1*
X32567D2*
Y14323D1*
X32331Y15559D2*
X32803D1*
X32567D2*
Y15323D1*
X32331Y16559D2*
X32803D1*
X32567D2*
Y16323D1*
X32331Y17559D2*
X32803D1*
X32567D2*
Y17323D1*
X32331Y18559D2*
X32803D1*
X32567D2*
Y18323D1*
X32331Y19559D2*
X32803D1*
X32567D2*
Y19323D1*
X32331Y20559D2*
X32803D1*
X32567D2*
Y20323D1*
X32331Y21559D2*
X32803D1*
X32567D2*
Y21323D1*
X32331Y22559D2*
X32803D1*
X32567D2*
Y22323D1*
X32331Y23559D2*
X32803D1*
X32567D2*
Y23323D1*
X32331Y24559D2*
X32803D1*
X32567D2*
Y24323D1*
X32331Y25559D2*
X32803D1*
X32567D2*
Y25323D1*
X32331Y26559D2*
X32803D1*
X32567D2*
Y26323D1*
X32331Y27559D2*
X32803D1*
X32567D2*
Y27323D1*
X38740Y32743D2*
X38976Y32506D1*
X39213Y32743D1*
X38976Y32506D2*
Y32270D1*
X38740Y33530D2*
X38976Y33294D1*
X39213Y33530D1*
X38976Y33294D2*
Y33057D1*
X38740Y34317D2*
X38976Y34081D1*
X39213Y34317D1*
X38976Y34081D2*
Y33845D1*
X38740Y35105D2*
X38976Y34869D1*
X39213Y35105D1*
X38976Y34869D2*
Y34632D1*
X38740Y35892D2*
X38976Y35656D1*
X39213Y35892D1*
X38976Y35656D2*
Y35420D1*
X38740Y36680D2*
X38976Y36443D1*
X39213Y36680D1*
X38976Y36443D2*
Y36207D1*
X38740Y37467D2*
X38976Y37231D1*
X39213Y37467D1*
X38976Y37231D2*
Y36994D1*
X38740Y38254D2*
X38976Y38018D1*
X39213Y38254D1*
X38976Y38018D2*
Y37782D1*
X33228Y38254D2*
X33465Y38018D1*
X33701Y38254D1*
X33465Y38018D2*
Y37782D1*
X33228Y37467D2*
X33465Y37231D1*
X33701Y37467D1*
X33465Y37231D2*
Y36994D1*
X33228Y36680D2*
X33465Y36443D1*
X33701Y36680D1*
X33465Y36443D2*
Y36207D1*
X33228Y35892D2*
X33465Y35656D1*
X33701Y35892D1*
X33465Y35656D2*
Y35420D1*
X33228Y35105D2*
X33465Y34869D1*
X33701Y35105D1*
X33465Y34869D2*
Y34632D1*
X33228Y34317D2*
X33465Y34081D1*
X33701Y34317D1*
X33465Y34081D2*
Y33845D1*
X33228Y33530D2*
X33465Y33294D1*
X33701Y33530D1*
X33465Y33294D2*
Y33057D1*
X33228Y32743D2*
X33465Y32506D1*
X33701Y32743D1*
X33465Y32506D2*
Y32270D1*
X36705Y6429D2*
X36941Y6193D1*
X37177Y6429D1*
X39067D2*
X39303Y6193D1*
X39539Y6429D1*
X34343Y19657D2*
X34579Y19421D1*
X34815Y19657D1*
X41429D2*
X41665Y19421D1*
X41902Y19657D1*
X6579Y40787D2*
X6815Y40551D1*
X7051Y40787D1*
X6815Y40551D2*
Y40315D1*
X6579Y40787D2*
X7051D1*
Y40315D1*
X6579D1*
Y40787D1*
Y38819D2*
X6815Y38583D1*
X7051Y38819D1*
X6815Y38583D2*
Y38346D1*
X6579Y38819D2*
X7051D1*
Y38346D1*
X6579D1*
Y38819D1*
Y36850D2*
X6815Y36614D1*
X7051Y36850D1*
X6815Y36614D2*
Y36378D1*
X6579Y36850D2*
X7051D1*
Y36378D1*
X6579D1*
Y36850D1*
Y31535D2*
X6815Y31299D1*
X7051Y31535D1*
X6815Y31299D2*
Y31063D1*
X6579Y31535D2*
X7051D1*
Y31063D1*
X6579D1*
Y31535D1*
Y29567D2*
X6815Y29331D1*
X7051Y29567D1*
X6815Y29331D2*
Y29094D1*
X6579Y29567D2*
X7051D1*
Y29094D1*
X6579D1*
Y29567D1*
Y27598D2*
X6815Y27362D1*
X7051Y27598D1*
X6815Y27362D2*
Y27126D1*
X6579Y27598D2*
X7051D1*
Y27126D1*
X6579D1*
Y27598D1*
Y22480D2*
X6815Y22244D1*
X7051Y22480D1*
X6815Y22244D2*
Y22008D1*
X6579Y22480D2*
X7051D1*
Y22008D1*
X6579D1*
Y22480D1*
Y20512D2*
X6815Y20276D1*
X7051Y20512D1*
X6815Y20276D2*
Y20039D1*
X6579Y20512D2*
X7051D1*
Y20039D1*
X6579D1*
Y20512D1*
Y18543D2*
X6815Y18307D1*
X7051Y18543D1*
X6815Y18307D2*
Y18071D1*
X6579Y18543D2*
X7051D1*
Y18071D1*
X6579D1*
Y18543D1*
Y13425D2*
X6815Y13189D1*
X7051Y13425D1*
X6815Y13189D2*
Y12953D1*
X6579Y13425D2*
X7051D1*
Y12953D1*
X6579D1*
Y13425D1*
Y11457D2*
X6815Y11220D1*
X7051Y11457D1*
X6815Y11220D2*
Y10984D1*
X6579Y11457D2*
X7051D1*
Y10984D1*
X6579D1*
Y11457D1*
Y9488D2*
X6815Y9252D1*
X7051Y9488D1*
X6815Y9252D2*
Y9016D1*
X6579Y9488D2*
X7051D1*
Y9016D1*
X6579D1*
Y9488D1*
X57004D2*
X57240Y9252D1*
X57476Y9488D1*
X57240Y9252D2*
Y9016D1*
X57004Y9488D2*
X57476D1*
Y9016D1*
X57004D1*
Y9488D1*
Y11457D2*
X57240Y11220D1*
X57476Y11457D1*
X57240Y11220D2*
Y10984D1*
X57004Y11457D2*
X57476D1*
Y10984D1*
X57004D1*
Y11457D1*
Y13425D2*
X57240Y13189D1*
X57476Y13425D1*
X57240Y13189D2*
Y12953D1*
X57004Y13425D2*
X57476D1*
Y12953D1*
X57004D1*
Y13425D1*
Y18538D2*
X57240Y18302D1*
X57476Y18538D1*
X57240Y18302D2*
Y18065D1*
X57004Y18538D2*
X57476D1*
Y18065D1*
X57004D1*
Y18538D1*
Y20506D2*
X57240Y20270D1*
X57476Y20506D1*
X57240Y20270D2*
Y20034D1*
X57004Y20506D2*
X57476D1*
Y20034D1*
X57004D1*
Y20506D1*
Y22475D2*
X57240Y22239D1*
X57476Y22475D1*
X57240Y22239D2*
Y22002D1*
X57004Y22475D2*
X57476D1*
Y22002D1*
X57004D1*
Y22475D1*
Y27587D2*
X57240Y27351D1*
X57476Y27587D1*
X57240Y27351D2*
Y27115D1*
X57004Y27587D2*
X57476D1*
Y27115D1*
X57004D1*
Y27587D1*
Y29556D2*
X57240Y29320D1*
X57476Y29556D1*
X57240Y29320D2*
Y29083D1*
X57004Y29556D2*
X57476D1*
Y29083D1*
X57004D1*
Y29556D1*
Y31524D2*
X57240Y31288D1*
X57476Y31524D1*
X57240Y31288D2*
Y31052D1*
X57004Y31524D2*
X57476D1*
Y31052D1*
X57004D1*
Y31524D1*
Y36850D2*
X57240Y36614D1*
X57476Y36850D1*
X57240Y36614D2*
Y36378D1*
X57004Y36850D2*
X57476D1*
Y36378D1*
X57004D1*
Y36850D1*
Y38819D2*
X57240Y38583D1*
X57476Y38819D1*
X57240Y38583D2*
Y38346D1*
X57004Y38819D2*
X57476D1*
Y38346D1*
X57004D1*
Y38819D1*
Y40787D2*
X57240Y40551D1*
X57476Y40787D1*
X57240Y40551D2*
Y40315D1*
X57004Y40787D2*
X57476D1*
Y40315D1*
X57004D1*
Y40787D1*
X30394Y7205D2*
X30630Y6969D1*
X30866Y7205D1*
X30630Y6969D2*
Y6732D1*
X30394Y7205D2*
X30866D1*
Y6732D1*
X30394D1*
Y7205D1*
X32362D2*
X32598Y6969D1*
X32835Y7205D1*
X32598Y6969D2*
Y6732D1*
X32362Y7205D2*
X32835D1*
Y6732D1*
X32362D1*
Y7205D1*
X96890Y78937D2*
Y78701D1*
X97126D1*
X96890Y77937D2*
Y77701D1*
X97126D1*
X96693Y61024D2*
X97165D1*
X96929D2*
Y60787D1*
X96693Y62024D2*
X97165D1*
X96929D2*
Y61787D1*
X82884Y59586D2*
Y59113D1*
X82648Y59350D2*
X83120D1*
X82884Y60586D2*
Y60113D1*
X82648Y60350D2*
X83120D1*
X93740Y62441D2*
Y61969D1*
X93504Y62205D2*
X93976D1*
X93504Y62441D2*
X93976D1*
Y61969D1*
X93504D1*
Y62441D1*
X93740Y60441D2*
Y59969D1*
X93504Y60205D2*
X93976D1*
X93504Y60441D2*
X93976D1*
Y59969D1*
X93504D1*
Y60441D1*
X82884Y58461D2*
Y57989D1*
X82648Y58225D2*
X83120D1*
X82884Y57461D2*
Y56989D1*
X82648Y57225D2*
X83120D1*
X80512Y46457D2*
X80984D1*
X80748D2*
Y46220D1*
X81512Y46457D2*
X81984D1*
X81748D2*
Y46220D1*
X82874Y54331D2*
X83346D1*
X83110D2*
Y54094D1*
X81874Y54331D2*
X82346D1*
X82110D2*
Y54094D1*
X83756Y46417D2*
X84228D1*
X83992D2*
Y46181D1*
X82756Y46417D2*
X83228D1*
X82992D2*
Y46181D1*
X75394Y75402D2*
X75866Y74929D1*
Y75402D2*
X75394Y74929D1*
Y75402D2*
X75866D1*
Y74929D1*
X75394D1*
Y75402D1*
Y79402D2*
X75866Y78929D1*
Y79402D2*
X75394Y78929D1*
Y79402D2*
X75866D1*
Y78929D1*
X75394D1*
Y79402D1*
Y66150D2*
X75866Y65677D1*
Y66150D2*
X75394Y65677D1*
Y66150D2*
X75866D1*
Y65677D1*
X75394D1*
Y66150D1*
Y70150D2*
X75866Y69677D1*
Y70150D2*
X75394Y69677D1*
Y70150D2*
X75866D1*
Y69677D1*
X75394D1*
Y70150D1*
Y57094D2*
X75866Y56622D1*
Y57094D2*
X75394Y56622D1*
Y57094D2*
X75866D1*
Y56622D1*
X75394D1*
Y57094D1*
Y61094D2*
X75866Y60622D1*
Y61094D2*
X75394Y60622D1*
Y61094D2*
X75866D1*
Y60622D1*
X75394D1*
Y61094D1*
Y48039D2*
X75866Y47567D1*
Y48039D2*
X75394Y47567D1*
Y48039D2*
X75866D1*
Y47567D1*
X75394D1*
Y48039D1*
Y52039D2*
X75866Y51567D1*
Y52039D2*
X75394Y51567D1*
Y52039D2*
X75866D1*
Y51567D1*
X75394D1*
Y52039D1*
X102362Y52008D2*
X102835Y51535D1*
Y52008D2*
X102362Y51535D1*
Y52008D2*
X102835D1*
Y51535D1*
X102362D1*
Y52008D1*
Y48008D2*
X102835Y47535D1*
Y48008D2*
X102362Y47535D1*
Y48008D2*
X102835D1*
Y47535D1*
X102362D1*
Y48008D1*
Y61260D2*
X102835Y60787D1*
Y61260D2*
X102362Y60787D1*
Y61260D2*
X102835D1*
Y60787D1*
X102362D1*
Y61260D1*
Y57260D2*
X102835Y56787D1*
Y57260D2*
X102362Y56787D1*
Y57260D2*
X102835D1*
Y56787D1*
X102362D1*
Y57260D1*
Y70150D2*
X102835Y69677D1*
Y70150D2*
X102362Y69677D1*
Y70150D2*
X102835D1*
Y69677D1*
X102362D1*
Y70150D1*
Y66150D2*
X102835Y65677D1*
Y66150D2*
X102362Y65677D1*
Y66150D2*
X102835D1*
Y65677D1*
X102362D1*
Y66150D1*
Y79402D2*
X102835Y78929D1*
Y79402D2*
X102362Y78929D1*
Y79402D2*
X102835D1*
Y78929D1*
X102362D1*
Y79402D1*
Y75402D2*
X102835Y74929D1*
Y75402D2*
X102362Y74929D1*
Y75402D2*
X102835D1*
Y74929D1*
X102362D1*
Y75402D1*
X97913Y74157D2*
X98150Y73921D1*
X98386Y74157D1*
X98150Y73921D2*
Y73685D1*
X97913Y75157D2*
X98386Y74685D1*
Y75157D2*
X97913Y74685D1*
X83701Y51181D2*
X84173D1*
X83937D2*
Y50945D1*
X82701Y51181D2*
X83173D1*
X82937D2*
Y50945D1*
X82701Y48181D2*
X83173D1*
X82937D2*
Y47945D1*
X83701Y48181D2*
X84173D1*
X83937D2*
Y47945D1*
X81701Y51181D2*
X82173D1*
X81937D2*
Y50945D1*
X80701Y51181D2*
X81173D1*
X80937D2*
Y50945D1*
X81701Y48181D2*
X82173D1*
X81937D2*
Y47945D1*
X80701Y48181D2*
X81173D1*
X80937D2*
Y47945D1*
X86457Y70866D2*
Y70394D1*
X86220Y70630D2*
X86693D1*
X86220Y70866D2*
X86693D1*
Y70394D1*
X86220D1*
Y70866D1*
X86457Y69866D2*
Y69394D1*
X86220Y69630D2*
X86693D1*
X86220Y69866D2*
X86693D1*
Y69394D1*
X86220D1*
Y69866D1*
X86937Y78140D2*
X87409Y77668D1*
Y78140D2*
X86937Y77668D1*
Y78140D2*
X87409D1*
Y77668D1*
X86937D1*
Y78140D1*
X86173D2*
Y77904D1*
X86409D1*
X85173Y78140D2*
Y77904D1*
X85409D1*
X84173Y78140D2*
Y77904D1*
X84409D1*
X89167Y76095D2*
Y75623D1*
X88930Y75859D2*
X89403D1*
X88930Y76095D2*
X89403D1*
Y75623D1*
X88930D1*
Y76095D1*
X89167Y77095D2*
Y76623D1*
X88930Y76859D2*
X89403D1*
X88930Y77095D2*
X89403D1*
Y76623D1*
X88930D1*
Y77095D1*
X84882Y70827D2*
Y70354D1*
X84646Y70591D2*
X85118D1*
X84646Y70827D2*
X85118D1*
Y70354D1*
X84646D1*
Y70827D1*
X84882Y69827D2*
Y69354D1*
X84646Y69591D2*
X85118D1*
X84646Y69827D2*
X85118D1*
Y69354D1*
X84646D1*
Y69827D1*
X85709Y68031D2*
Y67559D1*
X85472Y67795D2*
X85945D1*
X85472Y68031D2*
X85945D1*
Y67559D1*
X85472D1*
Y68031D1*
X84709D2*
Y67559D1*
X84472Y67795D2*
X84945D1*
X84472Y68031D2*
X84945D1*
Y67559D1*
X84472D1*
Y68031D1*
X83709D2*
Y67559D1*
X83472Y67795D2*
X83945D1*
X83472Y68031D2*
X83945D1*
Y67559D1*
X83472D1*
Y68031D1*
X82709D2*
Y67559D1*
X82472Y67795D2*
X82945D1*
X82472Y68031D2*
X82945D1*
Y67559D1*
X82472D1*
Y68031D1*
X81709D2*
Y67559D1*
X81472Y67795D2*
X81945D1*
X81472Y68031D2*
X81945D1*
Y67559D1*
X81472D1*
Y68031D1*
X73632Y77165D2*
X74104D1*
X73868D2*
Y76929D1*
X73632Y77402D2*
X74104D1*
Y76929D1*
X73632D1*
Y77402D1*
X72832Y79515D2*
X73304D1*
X73068D2*
Y79279D1*
X72832Y79752D2*
X73304D1*
Y79279D1*
X72832D1*
Y79752D1*
Y74815D2*
X73304D1*
X73068D2*
Y74579D1*
X72832Y75052D2*
X73304D1*
Y74579D1*
X72832D1*
Y75052D1*
X68032Y74815D2*
X68504D1*
X68268D2*
Y74579D1*
X68032Y75052D2*
X68504D1*
Y74579D1*
X68032D1*
Y75052D1*
Y79515D2*
X68504D1*
X68268D2*
Y79279D1*
X68032Y79752D2*
X68504D1*
Y79279D1*
X68032D1*
Y79752D1*
X73632Y67913D2*
X74104D1*
X73868D2*
Y67677D1*
X73632Y68150D2*
X74104D1*
Y67677D1*
X73632D1*
Y68150D1*
X72832Y70263D2*
X73304D1*
X73068D2*
Y70027D1*
X72832Y70500D2*
X73304D1*
Y70027D1*
X72832D1*
Y70500D1*
Y65563D2*
X73304D1*
X73068D2*
Y65327D1*
X72832Y65800D2*
X73304D1*
Y65327D1*
X72832D1*
Y65800D1*
X68032Y65563D2*
X68504D1*
X68268D2*
Y65327D1*
X68032Y65800D2*
X68504D1*
Y65327D1*
X68032D1*
Y65800D1*
Y70263D2*
X68504D1*
X68268D2*
Y70027D1*
X68032Y70500D2*
X68504D1*
Y70027D1*
X68032D1*
Y70500D1*
X73632Y58858D2*
X74104D1*
X73868D2*
Y58622D1*
X73632Y59094D2*
X74104D1*
Y58622D1*
X73632D1*
Y59094D1*
X72832Y61208D2*
X73304D1*
X73068D2*
Y60972D1*
X72832Y61444D2*
X73304D1*
Y60972D1*
X72832D1*
Y61444D1*
Y56508D2*
X73304D1*
X73068D2*
Y56272D1*
X72832Y56744D2*
X73304D1*
Y56272D1*
X72832D1*
Y56744D1*
X68032Y56508D2*
X68504D1*
X68268D2*
Y56272D1*
X68032Y56744D2*
X68504D1*
Y56272D1*
X68032D1*
Y56744D1*
Y61208D2*
X68504D1*
X68268D2*
Y60972D1*
X68032Y61444D2*
X68504D1*
Y60972D1*
X68032D1*
Y61444D1*
X73632Y49803D2*
X74104D1*
X73868D2*
Y49567D1*
X73632Y50039D2*
X74104D1*
Y49567D1*
X73632D1*
Y50039D1*
X72832Y52153D2*
X73304D1*
X73068D2*
Y51917D1*
X72832Y52389D2*
X73304D1*
Y51917D1*
X72832D1*
Y52389D1*
Y47453D2*
X73304D1*
X73068D2*
Y47217D1*
X72832Y47689D2*
X73304D1*
Y47217D1*
X72832D1*
Y47689D1*
X68032Y47453D2*
X68504D1*
X68268D2*
Y47217D1*
X68032Y47689D2*
X68504D1*
Y47217D1*
X68032D1*
Y47689D1*
Y52153D2*
X68504D1*
X68268D2*
Y51917D1*
X68032Y52389D2*
X68504D1*
Y51917D1*
X68032D1*
Y52389D1*
X104124Y49803D2*
X104596D1*
X104360D2*
Y49567D1*
X104124Y50039D2*
X104596D1*
Y49567D1*
X104124D1*
Y50039D1*
X104924Y47453D2*
X105396D1*
X105160D2*
Y47217D1*
X104924Y47689D2*
X105396D1*
Y47217D1*
X104924D1*
Y47689D1*
Y52153D2*
X105396D1*
X105160D2*
Y51917D1*
X104924Y52389D2*
X105396D1*
Y51917D1*
X104924D1*
Y52389D1*
X109724Y52153D2*
X110196D1*
X109960D2*
Y51917D1*
X109724Y52389D2*
X110196D1*
Y51917D1*
X109724D1*
Y52389D1*
Y47453D2*
X110196D1*
X109960D2*
Y47217D1*
X109724Y47689D2*
X110196D1*
Y47217D1*
X109724D1*
Y47689D1*
X104124Y58858D2*
X104596D1*
X104360D2*
Y58622D1*
X104124Y59094D2*
X104596D1*
Y58622D1*
X104124D1*
Y59094D1*
X104924Y56508D2*
X105396D1*
X105160D2*
Y56272D1*
X104924Y56744D2*
X105396D1*
Y56272D1*
X104924D1*
Y56744D1*
Y61208D2*
X105396D1*
X105160D2*
Y60972D1*
X104924Y61444D2*
X105396D1*
Y60972D1*
X104924D1*
Y61444D1*
X109724Y61208D2*
X110196D1*
X109960D2*
Y60972D1*
X109724Y61444D2*
X110196D1*
Y60972D1*
X109724D1*
Y61444D1*
Y56508D2*
X110196D1*
X109960D2*
Y56272D1*
X109724Y56744D2*
X110196D1*
Y56272D1*
X109724D1*
Y56744D1*
X104124Y67913D2*
X104596D1*
X104360D2*
Y67677D1*
X104124Y68150D2*
X104596D1*
Y67677D1*
X104124D1*
Y68150D1*
X104924Y65563D2*
X105396D1*
X105160D2*
Y65327D1*
X104924Y65800D2*
X105396D1*
Y65327D1*
X104924D1*
Y65800D1*
Y70263D2*
X105396D1*
X105160D2*
Y70027D1*
X104924Y70500D2*
X105396D1*
Y70027D1*
X104924D1*
Y70500D1*
X109724Y70263D2*
X110196D1*
X109960D2*
Y70027D1*
X109724Y70500D2*
X110196D1*
Y70027D1*
X109724D1*
Y70500D1*
Y65563D2*
X110196D1*
X109960D2*
Y65327D1*
X109724Y65800D2*
X110196D1*
Y65327D1*
X109724D1*
Y65800D1*
X104124Y77165D2*
X104596D1*
X104360D2*
Y76929D1*
X104124Y77402D2*
X104596D1*
Y76929D1*
X104124D1*
Y77402D1*
X104924Y74815D2*
X105396D1*
X105160D2*
Y74579D1*
X104924Y75052D2*
X105396D1*
Y74579D1*
X104924D1*
Y75052D1*
Y79515D2*
X105396D1*
X105160D2*
Y79279D1*
X104924Y79752D2*
X105396D1*
Y79279D1*
X104924D1*
Y79752D1*
X109724Y79515D2*
X110196D1*
X109960D2*
Y79279D1*
X109724Y79752D2*
X110196D1*
Y79279D1*
X109724D1*
Y79752D1*
Y74815D2*
X110196D1*
X109960D2*
Y74579D1*
X109724Y75052D2*
X110196D1*
Y74579D1*
X109724D1*
Y75052D1*
X96535Y63819D2*
Y63583D1*
X96772D1*
X96535Y66811D2*
Y66575D1*
X96772D1*
X68972Y73138D2*
X69445D1*
X69209D2*
Y72902D1*
X68972Y72138D2*
X69445D1*
X69209D2*
Y71902D1*
X71972Y72138D2*
X72445D1*
X72209D2*
Y71902D1*
X71972Y73138D2*
X72445D1*
X72209D2*
Y72902D1*
X68972Y63886D2*
X69445D1*
X69209D2*
Y63650D1*
X68972Y62886D2*
X69445D1*
X69209D2*
Y62650D1*
X71972Y62886D2*
X72445D1*
X72209D2*
Y62650D1*
X71972Y63886D2*
X72445D1*
X72209D2*
Y63650D1*
X68972Y54831D2*
X69445D1*
X69209D2*
Y54594D1*
X68972Y53831D2*
X69445D1*
X69209D2*
Y53594D1*
X71972Y53831D2*
X72445D1*
X72209D2*
Y53594D1*
X71972Y54831D2*
X72445D1*
X72209D2*
Y54594D1*
X68972Y45815D2*
X69445D1*
X69209D2*
Y45579D1*
X68972Y44815D2*
X69445D1*
X69209D2*
Y44579D1*
X71972Y44815D2*
X72445D1*
X72209D2*
Y44579D1*
X71972Y45815D2*
X72445D1*
X72209D2*
Y45579D1*
X108587Y44776D2*
X109059D1*
X108823D2*
Y44539D1*
X108587Y45776D2*
X109059D1*
X108823D2*
Y45539D1*
X105587Y45776D2*
X106059D1*
X105823D2*
Y45539D1*
X105587Y44776D2*
X106059D1*
X105823D2*
Y44539D1*
X108587Y53831D2*
X109059D1*
X108823D2*
Y53594D1*
X108587Y54831D2*
X109059D1*
X108823D2*
Y54594D1*
X105587Y54831D2*
X106059D1*
X105823D2*
Y54594D1*
X105587Y53831D2*
X106059D1*
X105823D2*
Y53594D1*
X108587Y62886D2*
X109059D1*
X108823D2*
Y62650D1*
X108587Y63886D2*
X109059D1*
X108823D2*
Y63650D1*
X105587Y63886D2*
X106059D1*
X105823D2*
Y63650D1*
X105587Y62886D2*
X106059D1*
X105823D2*
Y62650D1*
X108587Y71941D2*
X109059D1*
X108823D2*
Y71705D1*
X108587Y72941D2*
X109059D1*
X108823D2*
Y72705D1*
X105587Y72941D2*
X106059D1*
X105823D2*
Y72705D1*
X105587Y71941D2*
X106059D1*
X105823D2*
Y71705D1*
X84312Y57810D2*
X84548Y57574D1*
X84784Y57810D1*
X84548Y57574D2*
Y57338D1*
X84312Y59810D2*
X84548Y59574D1*
X84784Y59810D1*
X84548Y59574D2*
Y59338D1*
X75772Y73516D2*
X76244D1*
X76008D2*
Y73280D1*
X77772Y73516D2*
X78244D1*
X78008D2*
Y73280D1*
X76772Y73516D2*
X77244D1*
X77008D2*
Y73280D1*
X75772Y64264D2*
X76244D1*
X76008D2*
Y64028D1*
X77772Y64264D2*
X78244D1*
X78008D2*
Y64028D1*
X76772Y64264D2*
X77244D1*
X77008D2*
Y64028D1*
X75772Y55209D2*
X76244D1*
X76008D2*
Y54972D1*
X77772Y55209D2*
X78244D1*
X78008D2*
Y54972D1*
X76772Y55209D2*
X77244D1*
X77008D2*
Y54972D1*
X75772Y46154D2*
X76244D1*
X76008D2*
Y45917D1*
X77772Y46154D2*
X78244D1*
X78008D2*
Y45917D1*
X76772Y46154D2*
X77244D1*
X77008D2*
Y45917D1*
X101787Y52665D2*
X102260D1*
X102024D2*
Y52429D1*
X99787Y52665D2*
X100260D1*
X100024D2*
Y52429D1*
X100787Y52665D2*
X101260D1*
X101024D2*
Y52429D1*
X101787Y61917D2*
X102260D1*
X102024D2*
Y61681D1*
X99787Y61917D2*
X100260D1*
X100024D2*
Y61681D1*
X100787Y61917D2*
X101260D1*
X101024D2*
Y61681D1*
X101787Y70776D2*
X102260D1*
X102024D2*
Y70539D1*
X99787Y70776D2*
X100260D1*
X100024D2*
Y70539D1*
X100787Y70776D2*
X101260D1*
X101024D2*
Y70539D1*
X101787Y79831D2*
X102260D1*
X102024D2*
Y79594D1*
X99787Y79831D2*
X100260D1*
X100024D2*
Y79594D1*
X100787Y79831D2*
X101260D1*
X101024D2*
Y79594D1*
X86969Y51142D2*
Y50906D1*
X87205D1*
X88969Y51142D2*
Y50906D1*
X89205D1*
X87969Y51142D2*
Y50906D1*
X88205D1*
X76575Y79559D2*
X77047D1*
X76811D2*
Y79323D1*
X76575Y75559D2*
X77047D1*
X76811D2*
Y75323D1*
X67157Y73228D2*
X67630D1*
X67394D2*
Y72992D1*
X63157Y73228D2*
X63630D1*
X63394D2*
Y72992D1*
X80236Y66220D2*
X80709D1*
X80472D2*
Y65984D1*
X80236Y62220D2*
X80709D1*
X80472D2*
Y61984D1*
X92717Y74327D2*
X93189D1*
X92953D2*
Y74091D1*
X92717Y70327D2*
X93189D1*
X92953D2*
Y70091D1*
X76575Y70307D2*
X77047D1*
X76811D2*
Y70071D1*
X76575Y66307D2*
X77047D1*
X76811D2*
Y66071D1*
X67157Y63976D2*
X67630D1*
X67394D2*
Y63740D1*
X63157Y63976D2*
X63630D1*
X63394D2*
Y63740D1*
X76575Y61134D2*
X77047D1*
X76811D2*
Y60898D1*
X76575Y57134D2*
X77047D1*
X76811D2*
Y56898D1*
X67157Y54921D2*
X67630D1*
X67394D2*
Y54685D1*
X63157Y54921D2*
X63630D1*
X63394D2*
Y54685D1*
X76575Y52118D2*
X77047D1*
X76811D2*
Y51882D1*
X76575Y48118D2*
X77047D1*
X76811D2*
Y47882D1*
X67157Y45366D2*
X67630D1*
X67394D2*
Y45130D1*
X63157Y45366D2*
X63630D1*
X63394D2*
Y45130D1*
X91732Y70327D2*
X92205D1*
X91969D2*
Y70091D1*
X91732Y74327D2*
X92205D1*
X91969D2*
Y74091D1*
X91220Y77890D2*
X91693D1*
X91457D2*
Y77653D1*
X95220Y77890D2*
X95693D1*
X95457D2*
Y77653D1*
X101181Y45539D2*
X101654D1*
X101417D2*
Y45303D1*
X101181Y49539D2*
X101654D1*
X101417D2*
Y49303D1*
X110598Y44882D2*
X111071D1*
X110835D2*
Y44646D1*
X114598Y44882D2*
X115071D1*
X114835D2*
Y44646D1*
X101181Y54791D2*
X101654D1*
X101417D2*
Y54555D1*
X101181Y58791D2*
X101654D1*
X101417D2*
Y58555D1*
X110598Y53740D2*
X111071D1*
X110835D2*
Y53504D1*
X114598Y53740D2*
X115071D1*
X114835D2*
Y53504D1*
X101181Y63650D2*
X101654D1*
X101417D2*
Y63413D1*
X101181Y67650D2*
X101654D1*
X101417D2*
Y67413D1*
X110598Y62795D2*
X111071D1*
X110835D2*
Y62559D1*
X114598Y62795D2*
X115071D1*
X114835D2*
Y62559D1*
X101181Y72705D2*
X101654D1*
X101417D2*
Y72469D1*
X101181Y76705D2*
X101654D1*
X101417D2*
Y76469D1*
X110598Y71850D2*
X111071D1*
X110835D2*
Y71614D1*
X114598Y71850D2*
X115071D1*
X114835D2*
Y71614D1*
X85039Y50394D2*
X85512D1*
X85276D2*
Y50157D1*
X85039Y46394D2*
X85512D1*
X85276D2*
Y46157D1*
X79472Y46421D2*
X79945D1*
X79709D2*
Y46185D1*
X79472Y50421D2*
X79945D1*
X79709D2*
Y50185D1*
X80197Y52441D2*
X80669D1*
X80433D2*
Y52205D1*
X84197Y52441D2*
X84669D1*
X84433D2*
Y52205D1*
X87598Y74677D2*
X88071D1*
X87835D2*
Y74441D1*
X87598Y70677D2*
X88071D1*
X87835D2*
Y70441D1*
X82480Y74756D2*
X82953D1*
X82717D2*
Y74520D1*
X82480Y70756D2*
X82953D1*
X82717D2*
Y70520D1*
X88583Y74677D2*
X89055D1*
X88819D2*
Y74441D1*
X88583Y70677D2*
X89055D1*
X88819D2*
Y70441D1*
X83465Y74756D2*
X83937D1*
X83701D2*
Y74520D1*
X83465Y70756D2*
X83937D1*
X83701D2*
Y70520D1*
X93701Y74327D2*
X94173D1*
X93937D2*
Y74090D1*
X93701Y70327D2*
X94173D1*
X93937D2*
Y70090D1*
X94685Y74327D2*
X95157D1*
X94921D2*
Y74091D1*
X94685Y70327D2*
X95157D1*
X94921D2*
Y70091D1*
X77756Y79559D2*
X78228D1*
X77992D2*
Y79323D1*
X77756Y75559D2*
X78228D1*
X77992D2*
Y75323D1*
X77756Y70307D2*
X78228D1*
X77992D2*
Y70071D1*
X77756Y66307D2*
X78228D1*
X77992D2*
Y66071D1*
X77756Y61134D2*
X78228D1*
X77992D2*
Y60898D1*
X77756Y57134D2*
X78228D1*
X77992D2*
Y56898D1*
X77756Y52118D2*
X78228D1*
X77992D2*
Y51882D1*
X77756Y48118D2*
X78228D1*
X77992D2*
Y47882D1*
X100197Y49539D2*
X100669D1*
X100433D2*
Y49303D1*
X100197Y45539D2*
X100669D1*
X100433D2*
Y45303D1*
X100197Y58791D2*
X100669D1*
X100433D2*
Y58555D1*
X100197Y54791D2*
X100669D1*
X100433D2*
Y54555D1*
X100197Y67650D2*
X100669D1*
X100433D2*
Y67413D1*
X100197Y63650D2*
X100669D1*
X100433D2*
Y63413D1*
X100197Y76705D2*
X100669D1*
X100433D2*
Y76469D1*
X100197Y72705D2*
X100669D1*
X100433D2*
Y72469D1*
X90945Y65276D2*
X91417D1*
X91181D2*
Y65039D1*
X90945Y69276D2*
X91417D1*
X91181D2*
Y69039D1*
X83980Y65713D2*
Y65241D1*
X83744Y65477D2*
X84216D1*
X83744Y65713D2*
X84216D1*
Y65241D1*
X83744D1*
Y65713D1*
X82200D2*
Y65241D1*
X81964Y65477D2*
X82436D1*
X81964Y65713D2*
X82436D1*
Y65241D1*
X81964D1*
Y65713D1*
X83980Y63153D2*
Y62681D1*
X83744Y62917D2*
X84216D1*
X83744Y63153D2*
X84216D1*
Y62681D1*
X83744D1*
Y63153D1*
X82200D2*
Y62681D1*
X81964Y62917D2*
X82436D1*
X81964Y63153D2*
X82436D1*
Y62681D1*
X81964D1*
Y63153D1*
X86614Y74528D2*
X87087D1*
X86850D2*
Y74291D1*
X84614Y74528D2*
X85087D1*
X84850D2*
Y74291D1*
X85614Y74528D2*
X86087D1*
X85850D2*
Y74291D1*
X86614Y72362D2*
X87087D1*
X86850D2*
Y72126D1*
X84614Y72362D2*
X85087D1*
X84850D2*
Y72126D1*
X85614Y72362D2*
X86087D1*
X85850D2*
Y72126D1*
X86417Y66142D2*
X86890D1*
X86654D2*
Y65906D1*
X86417Y65142D2*
X86890D1*
X86654D2*
Y64906D1*
X86417Y64142D2*
X86890D1*
X86654D2*
Y63906D1*
X86417Y63142D2*
X86890D1*
X86654D2*
Y62906D1*
X86417Y62142D2*
X86890D1*
X86654D2*
Y61906D1*
X86417Y61142D2*
X86890D1*
X86654D2*
Y60906D1*
X86417Y60142D2*
X86890D1*
X86654D2*
Y59906D1*
X86417Y59142D2*
X86890D1*
X86654D2*
Y58906D1*
X86417Y58142D2*
X86890D1*
X86654D2*
Y57906D1*
X86417Y57142D2*
X86890D1*
X86654D2*
Y56906D1*
X86417Y56142D2*
X86890D1*
X86654D2*
Y55906D1*
X86417Y55142D2*
X86890D1*
X86654D2*
Y54906D1*
X86417Y54142D2*
X86890D1*
X86654D2*
Y53906D1*
X86417Y53142D2*
X86890D1*
X86654D2*
Y52906D1*
X89417Y53142D2*
X89890D1*
X89654D2*
Y52906D1*
X89417Y54142D2*
X89890D1*
X89654D2*
Y53906D1*
X89417Y55142D2*
X89890D1*
X89654D2*
Y54906D1*
X89417Y56142D2*
X89890D1*
X89654D2*
Y55906D1*
X89417Y57142D2*
X89890D1*
X89654D2*
Y56906D1*
X89417Y58142D2*
X89890D1*
X89654D2*
Y57906D1*
X89417Y59142D2*
X89890D1*
X89654D2*
Y58906D1*
X89417Y60142D2*
X89890D1*
X89654D2*
Y59906D1*
X89417Y61142D2*
X89890D1*
X89654D2*
Y60906D1*
X89417Y62142D2*
X89890D1*
X89654D2*
Y61906D1*
X89417Y63142D2*
X89890D1*
X89654D2*
Y62906D1*
X89417Y64142D2*
X89890D1*
X89654D2*
Y63906D1*
X89417Y65142D2*
X89890D1*
X89654D2*
Y64906D1*
X89417Y66142D2*
X89890D1*
X89654D2*
Y65906D1*
X95827Y71325D2*
X96063Y71089D1*
X96299Y71325D1*
X96063Y71089D2*
Y70853D1*
X95827Y72113D2*
X96063Y71876D1*
X96299Y72113D1*
X96063Y71876D2*
Y71640D1*
X95827Y72900D2*
X96063Y72664D1*
X96299Y72900D1*
X96063Y72664D2*
Y72428D1*
X95827Y73687D2*
X96063Y73451D1*
X96299Y73687D1*
X96063Y73451D2*
Y73215D1*
X95827Y74475D2*
X96063Y74239D1*
X96299Y74475D1*
X96063Y74239D2*
Y74002D1*
X95827Y75262D2*
X96063Y75026D1*
X96299Y75262D1*
X96063Y75026D2*
Y74790D1*
X95827Y76050D2*
X96063Y75813D1*
X96299Y76050D1*
X96063Y75813D2*
Y75577D1*
X95827Y76837D2*
X96063Y76601D1*
X96299Y76837D1*
X96063Y76601D2*
Y76365D1*
X90315Y76837D2*
X90551Y76601D1*
X90787Y76837D1*
X90551Y76601D2*
Y76365D1*
X90315Y76050D2*
X90551Y75813D1*
X90787Y76050D1*
X90551Y75813D2*
Y75577D1*
X90315Y75262D2*
X90551Y75026D1*
X90787Y75262D1*
X90551Y75026D2*
Y74790D1*
X90315Y74475D2*
X90551Y74239D1*
X90787Y74475D1*
X90551Y74239D2*
Y74002D1*
X90315Y73687D2*
X90551Y73451D1*
X90787Y73687D1*
X90551Y73451D2*
Y73215D1*
X90315Y72900D2*
X90551Y72664D1*
X90787Y72900D1*
X90551Y72664D2*
Y72428D1*
X90315Y72113D2*
X90551Y71876D1*
X90787Y72113D1*
X90551Y71876D2*
Y71640D1*
X90315Y71325D2*
X90551Y71089D1*
X90787Y71325D1*
X90551Y71089D2*
Y70853D1*
X93791Y45012D2*
X94028Y44776D1*
X94264Y45012D1*
X96154D2*
X96390Y44776D1*
X96626Y45012D1*
X91429Y58240D2*
X91665Y58004D1*
X91902Y58240D1*
X98516D2*
X98752Y58004D1*
X98988Y58240D1*
X63665Y79370D2*
X63902Y79134D1*
X64138Y79370D1*
X63902Y79134D2*
Y78898D1*
X63665Y79370D2*
X64138D1*
Y78898D1*
X63665D1*
Y79370D1*
Y77402D2*
X63902Y77165D1*
X64138Y77402D1*
X63902Y77165D2*
Y76929D1*
X63665Y77402D2*
X64138D1*
Y76929D1*
X63665D1*
Y77402D1*
Y75433D2*
X63902Y75197D1*
X64138Y75433D1*
X63902Y75197D2*
Y74961D1*
X63665Y75433D2*
X64138D1*
Y74961D1*
X63665D1*
Y75433D1*
Y70118D2*
X63902Y69882D1*
X64138Y70118D1*
X63902Y69882D2*
Y69646D1*
X63665Y70118D2*
X64138D1*
Y69646D1*
X63665D1*
Y70118D1*
Y68150D2*
X63902Y67913D1*
X64138Y68150D1*
X63902Y67913D2*
Y67677D1*
X63665Y68150D2*
X64138D1*
Y67677D1*
X63665D1*
Y68150D1*
Y66181D2*
X63902Y65945D1*
X64138Y66181D1*
X63902Y65945D2*
Y65709D1*
X63665Y66181D2*
X64138D1*
Y65709D1*
X63665D1*
Y66181D1*
Y61063D2*
X63902Y60827D1*
X64138Y61063D1*
X63902Y60827D2*
Y60591D1*
X63665Y61063D2*
X64138D1*
Y60591D1*
X63665D1*
Y61063D1*
Y59094D2*
X63902Y58858D1*
X64138Y59094D1*
X63902Y58858D2*
Y58622D1*
X63665Y59094D2*
X64138D1*
Y58622D1*
X63665D1*
Y59094D1*
Y57126D2*
X63902Y56890D1*
X64138Y57126D1*
X63902Y56890D2*
Y56654D1*
X63665Y57126D2*
X64138D1*
Y56654D1*
X63665D1*
Y57126D1*
Y52008D2*
X63902Y51772D1*
X64138Y52008D1*
X63902Y51772D2*
Y51535D1*
X63665Y52008D2*
X64138D1*
Y51535D1*
X63665D1*
Y52008D1*
Y50039D2*
X63902Y49803D1*
X64138Y50039D1*
X63902Y49803D2*
Y49567D1*
X63665Y50039D2*
X64138D1*
Y49567D1*
X63665D1*
Y50039D1*
Y48071D2*
X63902Y47835D1*
X64138Y48071D1*
X63902Y47835D2*
Y47598D1*
X63665Y48071D2*
X64138D1*
Y47598D1*
X63665D1*
Y48071D1*
X114091D2*
X114327Y47835D1*
X114563Y48071D1*
X114327Y47835D2*
Y47598D1*
X114091Y48071D2*
X114563D1*
Y47598D1*
X114091D1*
Y48071D1*
Y50039D2*
X114327Y49803D1*
X114563Y50039D1*
X114327Y49803D2*
Y49567D1*
X114091Y50039D2*
X114563D1*
Y49567D1*
X114091D1*
Y50039D1*
Y52008D2*
X114327Y51772D1*
X114563Y52008D1*
X114327Y51772D2*
Y51535D1*
X114091Y52008D2*
X114563D1*
Y51535D1*
X114091D1*
Y52008D1*
Y57120D2*
X114327Y56884D1*
X114563Y57120D1*
X114327Y56884D2*
Y56648D1*
X114091Y57120D2*
X114563D1*
Y56648D1*
X114091D1*
Y57120D1*
Y59089D2*
X114327Y58853D1*
X114563Y59089D1*
X114327Y58853D2*
Y58617D1*
X114091Y59089D2*
X114563D1*
Y58617D1*
X114091D1*
Y59089D1*
Y61057D2*
X114327Y60821D1*
X114563Y61057D1*
X114327Y60821D2*
Y60585D1*
X114091Y61057D2*
X114563D1*
Y60585D1*
X114091D1*
Y61057D1*
Y66170D2*
X114327Y65934D1*
X114563Y66170D1*
X114327Y65934D2*
Y65698D1*
X114091Y66170D2*
X114563D1*
Y65698D1*
X114091D1*
Y66170D1*
Y68139D2*
X114327Y67902D1*
X114563Y68139D1*
X114327Y67902D2*
Y67666D1*
X114091Y68139D2*
X114563D1*
Y67666D1*
X114091D1*
Y68139D1*
Y70107D2*
X114327Y69871D1*
X114563Y70107D1*
X114327Y69871D2*
Y69635D1*
X114091Y70107D2*
X114563D1*
Y69635D1*
X114091D1*
Y70107D1*
Y75433D2*
X114327Y75197D1*
X114563Y75433D1*
X114327Y75197D2*
Y74961D1*
X114091Y75433D2*
X114563D1*
Y74961D1*
X114091D1*
Y75433D1*
Y77402D2*
X114327Y77165D1*
X114563Y77402D1*
X114327Y77165D2*
Y76929D1*
X114091Y77402D2*
X114563D1*
Y76929D1*
X114091D1*
Y77402D1*
Y79370D2*
X114327Y79134D1*
X114563Y79370D1*
X114327Y79134D2*
Y78898D1*
X114091Y79370D2*
X114563D1*
Y78898D1*
X114091D1*
Y79370D1*
X87480Y45787D2*
X87717Y45551D1*
X87953Y45787D1*
X87717Y45551D2*
Y45315D1*
X87480Y45787D2*
X87953D1*
Y45315D1*
X87480D1*
Y45787D1*
X89449D2*
X89685Y45551D1*
X89921Y45787D1*
X89685Y45551D2*
Y45315D1*
X89449Y45787D2*
X89921D1*
Y45315D1*
X89449D1*
Y45787D1*
X96890Y40354D2*
Y40118D1*
X97126D1*
X96890Y39354D2*
Y39118D1*
X97126D1*
X96693Y22441D2*
X97165D1*
X96929D2*
Y22205D1*
X96693Y23441D2*
X97165D1*
X96929D2*
Y23205D1*
X82884Y21003D2*
Y20531D1*
X82648Y20767D2*
X83120D1*
X82884Y22003D2*
Y21531D1*
X82648Y21767D2*
X83120D1*
X93740Y23858D2*
Y23386D1*
X93504Y23622D2*
X93976D1*
X93504Y23858D2*
X93976D1*
Y23386D1*
X93504D1*
Y23858D1*
X93740Y21858D2*
Y21386D1*
X93504Y21622D2*
X93976D1*
X93504Y21858D2*
X93976D1*
Y21386D1*
X93504D1*
Y21858D1*
X82884Y19878D2*
Y19406D1*
X82648Y19642D2*
X83120D1*
X82884Y18878D2*
Y18406D1*
X82648Y18642D2*
X83120D1*
X80512Y7874D2*
X80984D1*
X80748D2*
Y7638D1*
X81512Y7874D2*
X81984D1*
X81748D2*
Y7638D1*
X82874Y15748D2*
X83346D1*
X83110D2*
Y15512D1*
X81874Y15748D2*
X82346D1*
X82110D2*
Y15512D1*
X83756Y7835D2*
X84228D1*
X83992D2*
Y7598D1*
X82756Y7835D2*
X83228D1*
X82992D2*
Y7598D1*
X75394Y36819D2*
X75866Y36346D1*
Y36819D2*
X75394Y36346D1*
Y36819D2*
X75866D1*
Y36346D1*
X75394D1*
Y36819D1*
Y40819D2*
X75866Y40346D1*
Y40819D2*
X75394Y40346D1*
Y40819D2*
X75866D1*
Y40346D1*
X75394D1*
Y40819D1*
Y27567D2*
X75866Y27094D1*
Y27567D2*
X75394Y27094D1*
Y27567D2*
X75866D1*
Y27094D1*
X75394D1*
Y27567D1*
Y31567D2*
X75866Y31094D1*
Y31567D2*
X75394Y31094D1*
Y31567D2*
X75866D1*
Y31094D1*
X75394D1*
Y31567D1*
Y18512D2*
X75866Y18039D1*
Y18512D2*
X75394Y18039D1*
Y18512D2*
X75866D1*
Y18039D1*
X75394D1*
Y18512D1*
Y22512D2*
X75866Y22039D1*
Y22512D2*
X75394Y22039D1*
Y22512D2*
X75866D1*
Y22039D1*
X75394D1*
Y22512D1*
Y9457D2*
X75866Y8984D1*
Y9457D2*
X75394Y8984D1*
Y9457D2*
X75866D1*
Y8984D1*
X75394D1*
Y9457D1*
Y13457D2*
X75866Y12984D1*
Y13457D2*
X75394Y12984D1*
Y13457D2*
X75866D1*
Y12984D1*
X75394D1*
Y13457D1*
X102362Y13425D2*
X102835Y12953D1*
Y13425D2*
X102362Y12953D1*
Y13425D2*
X102835D1*
Y12953D1*
X102362D1*
Y13425D1*
Y9425D2*
X102835Y8953D1*
Y9425D2*
X102362Y8953D1*
Y9425D2*
X102835D1*
Y8953D1*
X102362D1*
Y9425D1*
Y22677D2*
X102835Y22205D1*
Y22677D2*
X102362Y22205D1*
Y22677D2*
X102835D1*
Y22205D1*
X102362D1*
Y22677D1*
Y18677D2*
X102835Y18205D1*
Y18677D2*
X102362Y18205D1*
Y18677D2*
X102835D1*
Y18205D1*
X102362D1*
Y18677D1*
Y31567D2*
X102835Y31094D1*
Y31567D2*
X102362Y31094D1*
Y31567D2*
X102835D1*
Y31094D1*
X102362D1*
Y31567D1*
Y27567D2*
X102835Y27094D1*
Y27567D2*
X102362Y27094D1*
Y27567D2*
X102835D1*
Y27094D1*
X102362D1*
Y27567D1*
Y40819D2*
X102835Y40346D1*
Y40819D2*
X102362Y40346D1*
Y40819D2*
X102835D1*
Y40346D1*
X102362D1*
Y40819D1*
Y36819D2*
X102835Y36346D1*
Y36819D2*
X102362Y36346D1*
Y36819D2*
X102835D1*
Y36346D1*
X102362D1*
Y36819D1*
X97913Y35575D2*
X98150Y35339D1*
X98386Y35575D1*
X98150Y35339D2*
Y35102D1*
X97913Y36575D2*
X98386Y36102D1*
Y36575D2*
X97913Y36102D1*
X83701Y12598D2*
X84173D1*
X83937D2*
Y12362D1*
X82701Y12598D2*
X83173D1*
X82937D2*
Y12362D1*
X82701Y9598D2*
X83173D1*
X82937D2*
Y9362D1*
X83701Y9598D2*
X84173D1*
X83937D2*
Y9362D1*
X81701Y12598D2*
X82173D1*
X81937D2*
Y12362D1*
X80701Y12598D2*
X81173D1*
X80937D2*
Y12362D1*
X81701Y9598D2*
X82173D1*
X81937D2*
Y9362D1*
X80701Y9598D2*
X81173D1*
X80937D2*
Y9362D1*
X86457Y32283D2*
Y31811D1*
X86220Y32047D2*
X86693D1*
X86220Y32283D2*
X86693D1*
Y31811D1*
X86220D1*
Y32283D1*
X86457Y31283D2*
Y30811D1*
X86220Y31047D2*
X86693D1*
X86220Y31283D2*
X86693D1*
Y30811D1*
X86220D1*
Y31283D1*
X86937Y39557D2*
X87409Y39085D1*
Y39557D2*
X86937Y39085D1*
Y39557D2*
X87409D1*
Y39085D1*
X86937D1*
Y39557D1*
X86173D2*
Y39321D1*
X86409D1*
X85173Y39557D2*
Y39321D1*
X85409D1*
X84173Y39557D2*
Y39321D1*
X84409D1*
X89167Y37513D2*
Y37040D1*
X88930Y37276D2*
X89403D1*
X88930Y37513D2*
X89403D1*
Y37040D1*
X88930D1*
Y37513D1*
X89167Y38513D2*
Y38040D1*
X88930Y38276D2*
X89403D1*
X88930Y38513D2*
X89403D1*
Y38040D1*
X88930D1*
Y38513D1*
X84882Y32244D2*
Y31772D1*
X84646Y32008D2*
X85118D1*
X84646Y32244D2*
X85118D1*
Y31772D1*
X84646D1*
Y32244D1*
X84882Y31244D2*
Y30772D1*
X84646Y31008D2*
X85118D1*
X84646Y31244D2*
X85118D1*
Y30772D1*
X84646D1*
Y31244D1*
X85709Y29449D2*
Y28976D1*
X85472Y29213D2*
X85945D1*
X85472Y29449D2*
X85945D1*
Y28976D1*
X85472D1*
Y29449D1*
X84709D2*
Y28976D1*
X84472Y29213D2*
X84945D1*
X84472Y29449D2*
X84945D1*
Y28976D1*
X84472D1*
Y29449D1*
X83709D2*
Y28976D1*
X83472Y29213D2*
X83945D1*
X83472Y29449D2*
X83945D1*
Y28976D1*
X83472D1*
Y29449D1*
X82709D2*
Y28976D1*
X82472Y29213D2*
X82945D1*
X82472Y29449D2*
X82945D1*
Y28976D1*
X82472D1*
Y29449D1*
X81709D2*
Y28976D1*
X81472Y29213D2*
X81945D1*
X81472Y29449D2*
X81945D1*
Y28976D1*
X81472D1*
Y29449D1*
X73632Y38583D2*
X74104D1*
X73868D2*
Y38346D1*
X73632Y38819D2*
X74104D1*
Y38346D1*
X73632D1*
Y38819D1*
X72832Y40933D2*
X73304D1*
X73068D2*
Y40696D1*
X72832Y41169D2*
X73304D1*
Y40696D1*
X72832D1*
Y41169D1*
Y36233D2*
X73304D1*
X73068D2*
Y35996D1*
X72832Y36469D2*
X73304D1*
Y35996D1*
X72832D1*
Y36469D1*
X68032Y36233D2*
X68504D1*
X68268D2*
Y35996D1*
X68032Y36469D2*
X68504D1*
Y35996D1*
X68032D1*
Y36469D1*
Y40933D2*
X68504D1*
X68268D2*
Y40696D1*
X68032Y41169D2*
X68504D1*
Y40696D1*
X68032D1*
Y41169D1*
X73632Y29331D2*
X74104D1*
X73868D2*
Y29094D1*
X73632Y29567D2*
X74104D1*
Y29094D1*
X73632D1*
Y29567D1*
X72832Y31681D2*
X73304D1*
X73068D2*
Y31444D1*
X72832Y31917D2*
X73304D1*
Y31444D1*
X72832D1*
Y31917D1*
Y26981D2*
X73304D1*
X73068D2*
Y26744D1*
X72832Y27217D2*
X73304D1*
Y26744D1*
X72832D1*
Y27217D1*
X68032Y26981D2*
X68504D1*
X68268D2*
Y26744D1*
X68032Y27217D2*
X68504D1*
Y26744D1*
X68032D1*
Y27217D1*
Y31681D2*
X68504D1*
X68268D2*
Y31444D1*
X68032Y31917D2*
X68504D1*
Y31444D1*
X68032D1*
Y31917D1*
X73632Y20276D2*
X74104D1*
X73868D2*
Y20039D1*
X73632Y20512D2*
X74104D1*
Y20039D1*
X73632D1*
Y20512D1*
X72832Y22626D2*
X73304D1*
X73068D2*
Y22389D1*
X72832Y22862D2*
X73304D1*
Y22389D1*
X72832D1*
Y22862D1*
Y17926D2*
X73304D1*
X73068D2*
Y17689D1*
X72832Y18162D2*
X73304D1*
Y17689D1*
X72832D1*
Y18162D1*
X68032Y17926D2*
X68504D1*
X68268D2*
Y17689D1*
X68032Y18162D2*
X68504D1*
Y17689D1*
X68032D1*
Y18162D1*
Y22626D2*
X68504D1*
X68268D2*
Y22389D1*
X68032Y22862D2*
X68504D1*
Y22389D1*
X68032D1*
Y22862D1*
X73632Y11220D2*
X74104D1*
X73868D2*
Y10984D1*
X73632Y11457D2*
X74104D1*
Y10984D1*
X73632D1*
Y11457D1*
X72832Y13570D2*
X73304D1*
X73068D2*
Y13334D1*
X72832Y13807D2*
X73304D1*
Y13334D1*
X72832D1*
Y13807D1*
Y8870D2*
X73304D1*
X73068D2*
Y8634D1*
X72832Y9107D2*
X73304D1*
Y8634D1*
X72832D1*
Y9107D1*
X68032Y8870D2*
X68504D1*
X68268D2*
Y8634D1*
X68032Y9107D2*
X68504D1*
Y8634D1*
X68032D1*
Y9107D1*
Y13570D2*
X68504D1*
X68268D2*
Y13334D1*
X68032Y13807D2*
X68504D1*
Y13334D1*
X68032D1*
Y13807D1*
X104124Y11220D2*
X104596D1*
X104360D2*
Y10984D1*
X104124Y11457D2*
X104596D1*
Y10984D1*
X104124D1*
Y11457D1*
X104924Y8870D2*
X105396D1*
X105160D2*
Y8634D1*
X104924Y9107D2*
X105396D1*
Y8634D1*
X104924D1*
Y9107D1*
Y13570D2*
X105396D1*
X105160D2*
Y13334D1*
X104924Y13807D2*
X105396D1*
Y13334D1*
X104924D1*
Y13807D1*
X109724Y13570D2*
X110196D1*
X109960D2*
Y13334D1*
X109724Y13807D2*
X110196D1*
Y13334D1*
X109724D1*
Y13807D1*
Y8870D2*
X110196D1*
X109960D2*
Y8634D1*
X109724Y9107D2*
X110196D1*
Y8634D1*
X109724D1*
Y9107D1*
X104124Y20276D2*
X104596D1*
X104360D2*
Y20039D1*
X104124Y20512D2*
X104596D1*
Y20039D1*
X104124D1*
Y20512D1*
X104924Y17926D2*
X105396D1*
X105160D2*
Y17689D1*
X104924Y18162D2*
X105396D1*
Y17689D1*
X104924D1*
Y18162D1*
Y22626D2*
X105396D1*
X105160D2*
Y22389D1*
X104924Y22862D2*
X105396D1*
Y22389D1*
X104924D1*
Y22862D1*
X109724Y22626D2*
X110196D1*
X109960D2*
Y22389D1*
X109724Y22862D2*
X110196D1*
Y22389D1*
X109724D1*
Y22862D1*
Y17926D2*
X110196D1*
X109960D2*
Y17689D1*
X109724Y18162D2*
X110196D1*
Y17689D1*
X109724D1*
Y18162D1*
X104124Y29331D2*
X104596D1*
X104360D2*
Y29094D1*
X104124Y29567D2*
X104596D1*
Y29094D1*
X104124D1*
Y29567D1*
X104924Y26981D2*
X105396D1*
X105160D2*
Y26744D1*
X104924Y27217D2*
X105396D1*
Y26744D1*
X104924D1*
Y27217D1*
Y31681D2*
X105396D1*
X105160D2*
Y31444D1*
X104924Y31917D2*
X105396D1*
Y31444D1*
X104924D1*
Y31917D1*
X109724Y31681D2*
X110196D1*
X109960D2*
Y31444D1*
X109724Y31917D2*
X110196D1*
Y31444D1*
X109724D1*
Y31917D1*
Y26981D2*
X110196D1*
X109960D2*
Y26744D1*
X109724Y27217D2*
X110196D1*
Y26744D1*
X109724D1*
Y27217D1*
X104124Y38583D2*
X104596D1*
X104360D2*
Y38346D1*
X104124Y38819D2*
X104596D1*
Y38346D1*
X104124D1*
Y38819D1*
X104924Y36233D2*
X105396D1*
X105160D2*
Y35996D1*
X104924Y36469D2*
X105396D1*
Y35996D1*
X104924D1*
Y36469D1*
Y40933D2*
X105396D1*
X105160D2*
Y40696D1*
X104924Y41169D2*
X105396D1*
Y40696D1*
X104924D1*
Y41169D1*
X109724Y40933D2*
X110196D1*
X109960D2*
Y40696D1*
X109724Y41169D2*
X110196D1*
Y40696D1*
X109724D1*
Y41169D1*
Y36233D2*
X110196D1*
X109960D2*
Y35996D1*
X109724Y36469D2*
X110196D1*
Y35996D1*
X109724D1*
Y36469D1*
X96535Y25236D2*
Y25000D1*
X96772D1*
X96535Y28228D2*
Y27992D1*
X96772D1*
X68972Y34555D2*
X69445D1*
X69209D2*
Y34319D1*
X68972Y33555D2*
X69445D1*
X69209D2*
Y33319D1*
X71972Y33555D2*
X72445D1*
X72209D2*
Y33319D1*
X71972Y34555D2*
X72445D1*
X72209D2*
Y34319D1*
X68972Y25303D2*
X69445D1*
X69209D2*
Y25067D1*
X68972Y24303D2*
X69445D1*
X69209D2*
Y24067D1*
X71972Y24303D2*
X72445D1*
X72209D2*
Y24067D1*
X71972Y25303D2*
X72445D1*
X72209D2*
Y25067D1*
X68972Y16248D2*
X69445D1*
X69209D2*
Y16012D1*
X68972Y15248D2*
X69445D1*
X69209D2*
Y15012D1*
X71972Y15248D2*
X72445D1*
X72209D2*
Y15012D1*
X71972Y16248D2*
X72445D1*
X72209D2*
Y16012D1*
X68972Y7232D2*
X69445D1*
X69209D2*
Y6996D1*
X68972Y6232D2*
X69445D1*
X69209D2*
Y5996D1*
X71972Y6232D2*
X72445D1*
X72209D2*
Y5996D1*
X71972Y7232D2*
X72445D1*
X72209D2*
Y6996D1*
X108587Y6193D2*
X109059D1*
X108823D2*
Y5957D1*
X108587Y7193D2*
X109059D1*
X108823D2*
Y6957D1*
X105587Y7193D2*
X106059D1*
X105823D2*
Y6957D1*
X105587Y6193D2*
X106059D1*
X105823D2*
Y5957D1*
X108587Y15248D2*
X109059D1*
X108823D2*
Y15012D1*
X108587Y16248D2*
X109059D1*
X108823D2*
Y16012D1*
X105587Y16248D2*
X106059D1*
X105823D2*
Y16012D1*
X105587Y15248D2*
X106059D1*
X105823D2*
Y15012D1*
X108587Y24303D2*
X109059D1*
X108823D2*
Y24067D1*
X108587Y25303D2*
X109059D1*
X108823D2*
Y25067D1*
X105587Y25303D2*
X106059D1*
X105823D2*
Y25067D1*
X105587Y24303D2*
X106059D1*
X105823D2*
Y24067D1*
X108587Y33358D2*
X109059D1*
X108823D2*
Y33122D1*
X108587Y34358D2*
X109059D1*
X108823D2*
Y34122D1*
X105587Y34358D2*
X106059D1*
X105823D2*
Y34122D1*
X105587Y33358D2*
X106059D1*
X105823D2*
Y33122D1*
X84312Y19228D2*
X84548Y18992D1*
X84784Y19228D1*
X84548Y18992D2*
Y18755D1*
X84312Y21228D2*
X84548Y20992D1*
X84784Y21228D1*
X84548Y20992D2*
Y20755D1*
X75772Y34933D2*
X76244D1*
X76008D2*
Y34697D1*
X77772Y34933D2*
X78244D1*
X78008D2*
Y34697D1*
X76772Y34933D2*
X77244D1*
X77008D2*
Y34697D1*
X75772Y25681D2*
X76244D1*
X76008D2*
Y25445D1*
X77772Y25681D2*
X78244D1*
X78008D2*
Y25445D1*
X76772Y25681D2*
X77244D1*
X77008D2*
Y25445D1*
X75772Y16626D2*
X76244D1*
X76008D2*
Y16390D1*
X77772Y16626D2*
X78244D1*
X78008D2*
Y16390D1*
X76772Y16626D2*
X77244D1*
X77008D2*
Y16390D1*
X75772Y7571D2*
X76244D1*
X76008D2*
Y7335D1*
X77772Y7571D2*
X78244D1*
X78008D2*
Y7335D1*
X76772Y7571D2*
X77244D1*
X77008D2*
Y7335D1*
X101787Y14083D2*
X102260D1*
X102024D2*
Y13846D1*
X99787Y14083D2*
X100260D1*
X100024D2*
Y13846D1*
X100787Y14083D2*
X101260D1*
X101024D2*
Y13846D1*
X101787Y23335D2*
X102260D1*
X102024D2*
Y23098D1*
X99787Y23335D2*
X100260D1*
X100024D2*
Y23098D1*
X100787Y23335D2*
X101260D1*
X101024D2*
Y23098D1*
X101787Y32193D2*
X102260D1*
X102024D2*
Y31957D1*
X99787Y32193D2*
X100260D1*
X100024D2*
Y31957D1*
X100787Y32193D2*
X101260D1*
X101024D2*
Y31957D1*
X101787Y41248D2*
X102260D1*
X102024D2*
Y41012D1*
X99787Y41248D2*
X100260D1*
X100024D2*
Y41012D1*
X100787Y41248D2*
X101260D1*
X101024D2*
Y41012D1*
X86969Y12559D2*
Y12323D1*
X87205D1*
X88969Y12559D2*
Y12323D1*
X89205D1*
X87969Y12559D2*
Y12323D1*
X88205D1*
X76575Y40976D2*
X77047D1*
X76811D2*
Y40740D1*
X76575Y36976D2*
X77047D1*
X76811D2*
Y36740D1*
X67157Y34646D2*
X67630D1*
X67394D2*
Y34409D1*
X63157Y34646D2*
X63630D1*
X63394D2*
Y34409D1*
X80236Y27638D2*
X80709D1*
X80472D2*
Y27402D1*
X80236Y23638D2*
X80709D1*
X80472D2*
Y23402D1*
X92717Y35744D2*
X93189D1*
X92953D2*
Y35508D1*
X92717Y31744D2*
X93189D1*
X92953D2*
Y31508D1*
X76575Y31724D2*
X77047D1*
X76811D2*
Y31488D1*
X76575Y27724D2*
X77047D1*
X76811D2*
Y27488D1*
X67157Y25394D2*
X67630D1*
X67394D2*
Y25157D1*
X63157Y25394D2*
X63630D1*
X63394D2*
Y25157D1*
X76575Y22551D2*
X77047D1*
X76811D2*
Y22315D1*
X76575Y18551D2*
X77047D1*
X76811D2*
Y18315D1*
X67157Y16339D2*
X67630D1*
X67394D2*
Y16102D1*
X63157Y16339D2*
X63630D1*
X63394D2*
Y16102D1*
X76575Y13535D2*
X77047D1*
X76811D2*
Y13299D1*
X76575Y9535D2*
X77047D1*
X76811D2*
Y9299D1*
X67157Y6783D2*
X67630D1*
X67394D2*
Y6547D1*
X63157Y6783D2*
X63630D1*
X63394D2*
Y6547D1*
X91732Y31744D2*
X92205D1*
X91969D2*
Y31508D1*
X91732Y35744D2*
X92205D1*
X91969D2*
Y35508D1*
X91220Y39307D2*
X91693D1*
X91457D2*
Y39071D1*
X95220Y39307D2*
X95693D1*
X95457D2*
Y39071D1*
X101181Y6957D2*
X101654D1*
X101417D2*
Y6720D1*
X101181Y10957D2*
X101654D1*
X101417D2*
Y10720D1*
X110598Y6299D2*
X111071D1*
X110835D2*
Y6063D1*
X114598Y6299D2*
X115071D1*
X114835D2*
Y6063D1*
X101181Y16209D2*
X101654D1*
X101417D2*
Y15972D1*
X101181Y20209D2*
X101654D1*
X101417D2*
Y19972D1*
X110598Y15157D2*
X111071D1*
X110835D2*
Y14921D1*
X114598Y15157D2*
X115071D1*
X114835D2*
Y14921D1*
X101181Y25067D2*
X101654D1*
X101417D2*
Y24831D1*
X101181Y29067D2*
X101654D1*
X101417D2*
Y28831D1*
X110598Y24213D2*
X111071D1*
X110835D2*
Y23976D1*
X114598Y24213D2*
X115071D1*
X114835D2*
Y23976D1*
X101181Y34122D2*
X101654D1*
X101417D2*
Y33886D1*
X101181Y38122D2*
X101654D1*
X101417D2*
Y37886D1*
X110598Y33268D2*
X111071D1*
X110835D2*
Y33031D1*
X114598Y33268D2*
X115071D1*
X114835D2*
Y33031D1*
X85039Y11811D2*
X85512D1*
X85276D2*
Y11575D1*
X85039Y7811D2*
X85512D1*
X85276D2*
Y7575D1*
X79472Y7839D2*
X79945D1*
X79709D2*
Y7602D1*
X79472Y11839D2*
X79945D1*
X79709D2*
Y11602D1*
X80197Y13858D2*
X80669D1*
X80433D2*
Y13622D1*
X84197Y13858D2*
X84669D1*
X84433D2*
Y13622D1*
X87598Y36094D2*
X88071D1*
X87835D2*
Y35858D1*
X87598Y32094D2*
X88071D1*
X87835D2*
Y31858D1*
X82480Y36173D2*
X82953D1*
X82717D2*
Y35937D1*
X82480Y32173D2*
X82953D1*
X82717D2*
Y31937D1*
X88583Y36094D2*
X89055D1*
X88819D2*
Y35858D1*
X88583Y32094D2*
X89055D1*
X88819D2*
Y31858D1*
X83465Y36173D2*
X83937D1*
X83701D2*
Y35937D1*
X83465Y32173D2*
X83937D1*
X83701D2*
Y31937D1*
X93701Y35744D2*
X94173D1*
X93937D2*
Y35508D1*
X93701Y31744D2*
X94173D1*
X93937D2*
Y31508D1*
X94685Y35744D2*
X95157D1*
X94921D2*
Y35508D1*
X94685Y31744D2*
X95157D1*
X94921D2*
Y31508D1*
X77756Y40976D2*
X78228D1*
X77992D2*
Y40740D1*
X77756Y36976D2*
X78228D1*
X77992D2*
Y36740D1*
X77756Y31724D2*
X78228D1*
X77992D2*
Y31488D1*
X77756Y27724D2*
X78228D1*
X77992D2*
Y27488D1*
X77756Y22551D2*
X78228D1*
X77992D2*
Y22315D1*
X77756Y18551D2*
X78228D1*
X77992D2*
Y18315D1*
X77756Y13535D2*
X78228D1*
X77992D2*
Y13299D1*
X77756Y9535D2*
X78228D1*
X77992D2*
Y9299D1*
X100197Y10957D2*
X100669D1*
X100433D2*
Y10720D1*
X100197Y6957D2*
X100669D1*
X100433D2*
Y6720D1*
X100197Y20209D2*
X100669D1*
X100433D2*
Y19972D1*
X100197Y16209D2*
X100669D1*
X100433D2*
Y15972D1*
X100197Y29067D2*
X100669D1*
X100433D2*
Y28831D1*
X100197Y25067D2*
X100669D1*
X100433D2*
Y24831D1*
X100197Y38122D2*
X100669D1*
X100433D2*
Y37886D1*
X100197Y34122D2*
X100669D1*
X100433D2*
Y33886D1*
X90945Y26693D2*
X91417D1*
X91181D2*
Y26457D1*
X90945Y30693D2*
X91417D1*
X91181D2*
Y30457D1*
X83980Y27131D2*
Y26658D1*
X83744Y26894D2*
X84216D1*
X83744Y27131D2*
X84216D1*
Y26658D1*
X83744D1*
Y27131D1*
X82200D2*
Y26658D1*
X81964Y26894D2*
X82436D1*
X81964Y27131D2*
X82436D1*
Y26658D1*
X81964D1*
Y27131D1*
X83980Y24571D2*
Y24098D1*
X83744Y24334D2*
X84216D1*
X83744Y24571D2*
X84216D1*
Y24098D1*
X83744D1*
Y24571D1*
X82200D2*
Y24098D1*
X81964Y24334D2*
X82436D1*
X81964Y24571D2*
X82436D1*
Y24098D1*
X81964D1*
Y24571D1*
X86614Y35945D2*
X87087D1*
X86850D2*
Y35709D1*
X84614Y35945D2*
X85087D1*
X84850D2*
Y35709D1*
X85614Y35945D2*
X86087D1*
X85850D2*
Y35709D1*
X86614Y33780D2*
X87087D1*
X86850D2*
Y33543D1*
X84614Y33780D2*
X85087D1*
X84850D2*
Y33543D1*
X85614Y33780D2*
X86087D1*
X85850D2*
Y33543D1*
X86417Y27559D2*
X86890D1*
X86654D2*
Y27323D1*
X86417Y26559D2*
X86890D1*
X86654D2*
Y26323D1*
X86417Y25559D2*
X86890D1*
X86654D2*
Y25323D1*
X86417Y24559D2*
X86890D1*
X86654D2*
Y24323D1*
X86417Y23559D2*
X86890D1*
X86654D2*
Y23323D1*
X86417Y22559D2*
X86890D1*
X86654D2*
Y22323D1*
X86417Y21559D2*
X86890D1*
X86654D2*
Y21323D1*
X86417Y20559D2*
X86890D1*
X86654D2*
Y20323D1*
X86417Y19559D2*
X86890D1*
X86654D2*
Y19323D1*
X86417Y18559D2*
X86890D1*
X86654D2*
Y18323D1*
X86417Y17559D2*
X86890D1*
X86654D2*
Y17323D1*
X86417Y16559D2*
X86890D1*
X86654D2*
Y16323D1*
X86417Y15559D2*
X86890D1*
X86654D2*
Y15323D1*
X86417Y14559D2*
X86890D1*
X86654D2*
Y14323D1*
X89417Y14559D2*
X89890D1*
X89654D2*
Y14323D1*
X89417Y15559D2*
X89890D1*
X89654D2*
Y15323D1*
X89417Y16559D2*
X89890D1*
X89654D2*
Y16323D1*
X89417Y17559D2*
X89890D1*
X89654D2*
Y17323D1*
X89417Y18559D2*
X89890D1*
X89654D2*
Y18323D1*
X89417Y19559D2*
X89890D1*
X89654D2*
Y19323D1*
X89417Y20559D2*
X89890D1*
X89654D2*
Y20323D1*
X89417Y21559D2*
X89890D1*
X89654D2*
Y21323D1*
X89417Y22559D2*
X89890D1*
X89654D2*
Y22323D1*
X89417Y23559D2*
X89890D1*
X89654D2*
Y23323D1*
X89417Y24559D2*
X89890D1*
X89654D2*
Y24323D1*
X89417Y25559D2*
X89890D1*
X89654D2*
Y25323D1*
X89417Y26559D2*
X89890D1*
X89654D2*
Y26323D1*
X89417Y27559D2*
X89890D1*
X89654D2*
Y27323D1*
X95827Y32743D2*
X96063Y32506D1*
X96299Y32743D1*
X96063Y32506D2*
Y32270D1*
X95827Y33530D2*
X96063Y33294D1*
X96299Y33530D1*
X96063Y33294D2*
Y33057D1*
X95827Y34317D2*
X96063Y34081D1*
X96299Y34317D1*
X96063Y34081D2*
Y33845D1*
X95827Y35105D2*
X96063Y34869D1*
X96299Y35105D1*
X96063Y34869D2*
Y34632D1*
X95827Y35892D2*
X96063Y35656D1*
X96299Y35892D1*
X96063Y35656D2*
Y35420D1*
X95827Y36680D2*
X96063Y36443D1*
X96299Y36680D1*
X96063Y36443D2*
Y36207D1*
X95827Y37467D2*
X96063Y37231D1*
X96299Y37467D1*
X96063Y37231D2*
Y36994D1*
X95827Y38254D2*
X96063Y38018D1*
X96299Y38254D1*
X96063Y38018D2*
Y37782D1*
X90315Y38254D2*
X90551Y38018D1*
X90787Y38254D1*
X90551Y38018D2*
Y37782D1*
X90315Y37467D2*
X90551Y37231D1*
X90787Y37467D1*
X90551Y37231D2*
Y36994D1*
X90315Y36680D2*
X90551Y36443D1*
X90787Y36680D1*
X90551Y36443D2*
Y36207D1*
X90315Y35892D2*
X90551Y35656D1*
X90787Y35892D1*
X90551Y35656D2*
Y35420D1*
X90315Y35105D2*
X90551Y34869D1*
X90787Y35105D1*
X90551Y34869D2*
Y34632D1*
X90315Y34317D2*
X90551Y34081D1*
X90787Y34317D1*
X90551Y34081D2*
Y33845D1*
X90315Y33530D2*
X90551Y33294D1*
X90787Y33530D1*
X90551Y33294D2*
Y33057D1*
X90315Y32743D2*
X90551Y32506D1*
X90787Y32743D1*
X90551Y32506D2*
Y32270D1*
X93791Y6429D2*
X94028Y6193D1*
X94264Y6429D1*
X96154D2*
X96390Y6193D1*
X96626Y6429D1*
X91429Y19657D2*
X91665Y19421D1*
X91902Y19657D1*
X98516D2*
X98752Y19421D1*
X98988Y19657D1*
X63665Y40787D2*
X63902Y40551D1*
X64138Y40787D1*
X63902Y40551D2*
Y40315D1*
X63665Y40787D2*
X64138D1*
Y40315D1*
X63665D1*
Y40787D1*
Y38819D2*
X63902Y38583D1*
X64138Y38819D1*
X63902Y38583D2*
Y38346D1*
X63665Y38819D2*
X64138D1*
Y38346D1*
X63665D1*
Y38819D1*
Y36850D2*
X63902Y36614D1*
X64138Y36850D1*
X63902Y36614D2*
Y36378D1*
X63665Y36850D2*
X64138D1*
Y36378D1*
X63665D1*
Y36850D1*
Y31535D2*
X63902Y31299D1*
X64138Y31535D1*
X63902Y31299D2*
Y31063D1*
X63665Y31535D2*
X64138D1*
Y31063D1*
X63665D1*
Y31535D1*
Y29567D2*
X63902Y29331D1*
X64138Y29567D1*
X63902Y29331D2*
Y29094D1*
X63665Y29567D2*
X64138D1*
Y29094D1*
X63665D1*
Y29567D1*
Y27598D2*
X63902Y27362D1*
X64138Y27598D1*
X63902Y27362D2*
Y27126D1*
X63665Y27598D2*
X64138D1*
Y27126D1*
X63665D1*
Y27598D1*
Y22480D2*
X63902Y22244D1*
X64138Y22480D1*
X63902Y22244D2*
Y22008D1*
X63665Y22480D2*
X64138D1*
Y22008D1*
X63665D1*
Y22480D1*
Y20512D2*
X63902Y20276D1*
X64138Y20512D1*
X63902Y20276D2*
Y20039D1*
X63665Y20512D2*
X64138D1*
Y20039D1*
X63665D1*
Y20512D1*
Y18543D2*
X63902Y18307D1*
X64138Y18543D1*
X63902Y18307D2*
Y18071D1*
X63665Y18543D2*
X64138D1*
Y18071D1*
X63665D1*
Y18543D1*
Y13425D2*
X63902Y13189D1*
X64138Y13425D1*
X63902Y13189D2*
Y12953D1*
X63665Y13425D2*
X64138D1*
Y12953D1*
X63665D1*
Y13425D1*
Y11457D2*
X63902Y11220D1*
X64138Y11457D1*
X63902Y11220D2*
Y10984D1*
X63665Y11457D2*
X64138D1*
Y10984D1*
X63665D1*
Y11457D1*
Y9488D2*
X63902Y9252D1*
X64138Y9488D1*
X63902Y9252D2*
Y9016D1*
X63665Y9488D2*
X64138D1*
Y9016D1*
X63665D1*
Y9488D1*
X114091D2*
X114327Y9252D1*
X114563Y9488D1*
X114327Y9252D2*
Y9016D1*
X114091Y9488D2*
X114563D1*
Y9016D1*
X114091D1*
Y9488D1*
Y11457D2*
X114327Y11220D1*
X114563Y11457D1*
X114327Y11220D2*
Y10984D1*
X114091Y11457D2*
X114563D1*
Y10984D1*
X114091D1*
Y11457D1*
Y13425D2*
X114327Y13189D1*
X114563Y13425D1*
X114327Y13189D2*
Y12953D1*
X114091Y13425D2*
X114563D1*
Y12953D1*
X114091D1*
Y13425D1*
Y18538D2*
X114327Y18302D1*
X114563Y18538D1*
X114327Y18302D2*
Y18065D1*
X114091Y18538D2*
X114563D1*
Y18065D1*
X114091D1*
Y18538D1*
Y20506D2*
X114327Y20270D1*
X114563Y20506D1*
X114327Y20270D2*
Y20034D1*
X114091Y20506D2*
X114563D1*
Y20034D1*
X114091D1*
Y20506D1*
Y22475D2*
X114327Y22239D1*
X114563Y22475D1*
X114327Y22239D2*
Y22002D1*
X114091Y22475D2*
X114563D1*
Y22002D1*
X114091D1*
Y22475D1*
Y27587D2*
X114327Y27351D1*
X114563Y27587D1*
X114327Y27351D2*
Y27115D1*
X114091Y27587D2*
X114563D1*
Y27115D1*
X114091D1*
Y27587D1*
Y29556D2*
X114327Y29320D1*
X114563Y29556D1*
X114327Y29320D2*
Y29083D1*
X114091Y29556D2*
X114563D1*
Y29083D1*
X114091D1*
Y29556D1*
Y31524D2*
X114327Y31288D1*
X114563Y31524D1*
X114327Y31288D2*
Y31052D1*
X114091Y31524D2*
X114563D1*
Y31052D1*
X114091D1*
Y31524D1*
Y36850D2*
X114327Y36614D1*
X114563Y36850D1*
X114327Y36614D2*
Y36378D1*
X114091Y36850D2*
X114563D1*
Y36378D1*
X114091D1*
Y36850D1*
Y38819D2*
X114327Y38583D1*
X114563Y38819D1*
X114327Y38583D2*
Y38346D1*
X114091Y38819D2*
X114563D1*
Y38346D1*
X114091D1*
Y38819D1*
Y40787D2*
X114327Y40551D1*
X114563Y40787D1*
X114327Y40551D2*
Y40315D1*
X114091Y40787D2*
X114563D1*
Y40315D1*
X114091D1*
Y40787D1*
X87480Y7205D2*
X87717Y6969D1*
X87953Y7205D1*
X87717Y6969D2*
Y6732D1*
X87480Y7205D2*
X87953D1*
Y6732D1*
X87480D1*
Y7205D1*
X89449D2*
X89685Y6969D1*
X89921Y7205D1*
X89685Y6969D2*
Y6732D1*
X89449Y7205D2*
X89921D1*
Y6732D1*
X89449D1*
Y7205D1*
M02*
