G04 DipTrace 2.4.0.2*
%INTopAssy.gbr*%
%MOIN*%
%ADD10C,0.0098*%
%ADD16C,0.0*%
%ADD18C,0.006*%
%ADD20C,0.008*%
%ADD23C,0.01*%
%ADD24C,0.03*%
%ADD36C,0.005*%
%ADD37C,0.002*%
%FSLAX44Y44*%
G04*
G70*
G90*
G75*
G01*
%LNTopAssy*%
%LPD*%
X40403Y77501D2*
D10*
Y78900D1*
X39203Y77501D2*
Y78900D1*
X40403D2*
G03X39203Y78900I-600J1D01*
G01*
Y77501D2*
G03X40403Y77501I600J-1D01*
G01*
X39921Y77138D2*
X39685D1*
X39803Y77020D2*
Y77256D1*
X40343Y62324D2*
D18*
Y62174D1*
X40193D2*
X40343D1*
Y62024D1*
Y62174D2*
X40493D1*
X39843D2*
Y61824D1*
X39342D1*
Y61624D1*
X40343D1*
Y61824D1*
X39843D1*
Y61274D2*
Y60874D1*
X38743Y61524D2*
G02X38743Y61524I1100J0D01*
G01*
G36*
X39342Y61424D2*
X40343D1*
Y61224D1*
X39342D1*
Y61424D1*
G37*
X25547Y59850D2*
D20*
X26047D1*
X36654Y61655D2*
D18*
Y61555D1*
X36203D1*
Y61305D1*
X37104D1*
Y61555D1*
X36654D1*
Y60955D2*
Y60755D1*
X37454Y62505D2*
X37154D1*
X37303Y62655D2*
Y62355D1*
X36654Y60755D2*
Y60555D1*
Y61855D2*
Y61655D1*
X34904Y61205D2*
G02X34904Y61205I1750J0D01*
G01*
G36*
X36203Y61105D2*
X37104D1*
Y60855D1*
X36203D1*
Y61105D1*
G37*
X26047Y57725D2*
D20*
X25547D1*
X23311Y46957D2*
D18*
X25011D1*
Y45957D2*
X23311D1*
X25111Y46857D2*
Y46057D1*
X23211Y46857D2*
Y46057D1*
X25011Y46957D2*
G02X25111Y46857I0J-100D01*
G01*
X23211D2*
G02X23311Y46957I100J0D01*
G01*
X25011Y45957D2*
G03X25111Y46057I0J100D01*
G01*
X23211D2*
G03X23311Y45957I100J0D01*
G01*
X24461Y46457D2*
X24311D1*
X24261D1*
D23*
Y46757D1*
Y46457D2*
Y46157D1*
X24061Y46757D2*
Y46457D1*
Y46157D1*
Y46457D2*
D18*
X24012D1*
X23861D1*
X24724Y54831D2*
X24874D1*
Y54681D2*
Y54831D1*
X25024D1*
X24874D2*
Y54981D1*
Y54331D2*
X25224D1*
Y53831D1*
X25424D1*
Y54831D1*
X25224D1*
Y54331D1*
X25774D2*
X26174D1*
X24424D2*
G02X24424Y54331I1100J0D01*
G01*
G36*
X25624Y53831D2*
X25824D1*
Y54831D1*
X25624D1*
Y53831D1*
G37*
X25606Y46917D2*
D18*
X25755D1*
Y46767D2*
Y46917D1*
X25905D1*
X25755D2*
Y47067D1*
Y46417D2*
X26105D1*
Y45917D1*
X26305D1*
Y46917D1*
X26105D1*
Y46417D1*
X26655D2*
X27056D1*
X25306D2*
G02X25306Y46417I1100J0D01*
G01*
G36*
X26506Y45917D2*
X26706D1*
Y46917D1*
X26506D1*
Y45917D1*
G37*
X18043Y76365D2*
D18*
Y77966D1*
Y76365D2*
X19043D1*
Y77966D2*
Y76365D1*
Y77966D2*
X18043D1*
X18543Y75165D2*
D24*
Y75566D1*
Y79166D2*
Y78765D1*
Y77415D2*
D18*
Y77165D1*
X18793Y76766D2*
X18293D1*
X18543Y77165D1*
Y76565D1*
Y77165D2*
X18793Y76766D1*
Y77165D2*
X18543D1*
X18293D1*
G36*
X18043Y77816D2*
X19043D1*
Y77615D1*
X18043D1*
Y77816D1*
G37*
G36*
X18393Y76365D2*
X18693D1*
Y75615D1*
X18393D1*
Y76365D1*
G37*
G36*
Y78715D2*
X18693D1*
Y77966D1*
X18393D1*
Y78715D1*
G37*
X18043Y67113D2*
D18*
Y68714D1*
Y67113D2*
X19043D1*
Y68714D2*
Y67113D1*
Y68714D2*
X18043D1*
X18543Y65913D2*
D24*
Y66314D1*
Y69914D2*
Y69513D1*
Y68163D2*
D18*
Y67913D1*
X18793Y67514D2*
X18293D1*
X18543Y67913D1*
Y67313D1*
Y67913D2*
X18793Y67514D1*
Y67913D2*
X18543D1*
X18293D1*
G36*
X18043Y68564D2*
X19043D1*
Y68363D1*
X18043D1*
Y68564D1*
G37*
G36*
X18393Y67113D2*
X18693D1*
Y66364D1*
X18393D1*
Y67113D1*
G37*
G36*
Y69463D2*
X18693D1*
Y68714D1*
X18393D1*
Y69463D1*
G37*
X18043Y58058D2*
D18*
Y59658D1*
Y58058D2*
X19043D1*
Y59658D2*
Y58058D1*
Y59658D2*
X18043D1*
X18543Y56858D2*
D24*
Y57258D1*
Y60858D2*
Y60458D1*
Y59108D2*
D18*
Y58858D1*
X18793Y58458D2*
X18293D1*
X18543Y58858D1*
Y58258D1*
Y58858D2*
X18793Y58458D1*
Y58858D2*
X18543D1*
X18293D1*
G36*
X18043Y59508D2*
X19043D1*
Y59308D1*
X18043D1*
Y59508D1*
G37*
G36*
X18393Y58058D2*
X18693D1*
Y57308D1*
X18393D1*
Y58058D1*
G37*
G36*
Y60408D2*
X18693D1*
Y59658D1*
X18393D1*
Y60408D1*
G37*
X18043Y49003D2*
D18*
Y50603D1*
Y49003D2*
X19043D1*
Y50603D2*
Y49003D1*
Y50603D2*
X18043D1*
X18543Y47803D2*
D24*
Y48203D1*
Y51803D2*
Y51403D1*
Y50053D2*
D18*
Y49803D1*
X18793Y49403D2*
X18293D1*
X18543Y49803D1*
Y49203D1*
Y49803D2*
X18793Y49403D1*
Y49803D2*
X18543D1*
X18293D1*
G36*
X18043Y50453D2*
X19043D1*
Y50253D1*
X18043D1*
Y50453D1*
G37*
G36*
X18393Y49003D2*
X18693D1*
Y48253D1*
X18393D1*
Y49003D1*
G37*
G36*
Y51353D2*
X18693D1*
Y50603D1*
X18393D1*
Y51353D1*
G37*
X46012Y50572D2*
D18*
Y48971D1*
Y50572D2*
X45012D1*
Y48971D2*
Y50572D1*
Y48971D2*
X46012D1*
X45512Y51772D2*
D24*
Y51371D1*
Y47772D2*
Y48172D1*
Y49522D2*
D18*
Y49772D1*
X45262Y50171D2*
X45762D1*
X45512Y49772D1*
Y50372D1*
Y49772D2*
X45262Y50171D1*
Y49772D2*
X45512D1*
X45762D1*
G36*
X46012Y49121D2*
X45012D1*
Y49322D1*
X46012D1*
Y49121D1*
G37*
G36*
X45662Y50572D2*
X45362D1*
Y51322D1*
X45662D1*
Y50572D1*
G37*
G36*
Y48222D2*
X45362D1*
Y48971D1*
X45662D1*
Y48222D1*
G37*
X46012Y59824D2*
D18*
Y58223D1*
Y59824D2*
X45012D1*
Y58223D2*
Y59824D1*
Y58223D2*
X46012D1*
X45512Y61024D2*
D24*
Y60623D1*
Y57023D2*
Y57424D1*
Y58774D2*
D18*
Y59024D1*
X45262Y59423D2*
X45762D1*
X45512Y59024D1*
Y59624D1*
Y59024D2*
X45262Y59423D1*
Y59024D2*
X45512D1*
X45762D1*
G36*
X46012Y58373D2*
X45012D1*
Y58574D1*
X46012D1*
Y58373D1*
G37*
G36*
X45662Y59824D2*
X45362D1*
Y60573D1*
X45662D1*
Y59824D1*
G37*
G36*
Y57474D2*
X45362D1*
Y58223D1*
X45662D1*
Y57474D1*
G37*
X46012Y68714D2*
D18*
Y67113D1*
Y68714D2*
X45012D1*
Y67113D2*
Y68714D1*
Y67113D2*
X46012D1*
X45512Y69914D2*
D24*
Y69513D1*
Y65913D2*
Y66314D1*
Y67663D2*
D18*
Y67913D1*
X45262Y68313D2*
X45762D1*
X45512Y67913D1*
Y68514D1*
Y67913D2*
X45262Y68313D1*
Y67913D2*
X45512D1*
X45762D1*
G36*
X46012Y67263D2*
X45012D1*
Y67464D1*
X46012D1*
Y67263D1*
G37*
G36*
X45662Y68714D2*
X45362D1*
Y69463D1*
X45662D1*
Y68714D1*
G37*
G36*
Y66364D2*
X45362D1*
Y67113D1*
X45662D1*
Y66364D1*
G37*
X46012Y77966D2*
D18*
Y76365D1*
Y77966D2*
X45012D1*
Y76365D2*
Y77966D1*
Y76365D2*
X46012D1*
X45512Y79166D2*
D24*
Y78765D1*
Y75165D2*
Y75566D1*
Y76915D2*
D18*
Y77165D1*
X45262Y77565D2*
X45762D1*
X45512Y77165D1*
Y77766D1*
Y77165D2*
X45262Y77565D1*
Y77165D2*
X45512D1*
X45762D1*
G36*
X46012Y76515D2*
X45012D1*
Y76716D1*
X46012D1*
Y76515D1*
G37*
G36*
X45662Y77966D2*
X45362D1*
Y78715D1*
X45662D1*
Y77966D1*
G37*
G36*
Y75615D2*
X45362D1*
Y76365D1*
X45662D1*
Y75615D1*
G37*
X40314Y75421D2*
D10*
X41812D1*
X40311Y75419D2*
G03X41815Y75419I752J-998D01*
G01*
X23350Y48531D2*
D18*
X27350D1*
Y50831D2*
X23350D1*
Y48531D2*
Y50831D1*
X27350Y48531D2*
Y49281D1*
Y50831D2*
Y50081D1*
Y49281D2*
G02X27350Y50081I0J400D01*
G01*
X29870Y70880D2*
Y70380D1*
X29620Y70130D1*
X29120D1*
X28870Y70380D1*
X29620Y71130D2*
X29120D1*
X29870Y70880D2*
X29620Y71130D1*
X29120D2*
X28870Y70880D1*
Y70380D2*
Y70880D1*
X29620Y70130D2*
X29870Y69880D1*
Y69380D1*
X29620Y69130D1*
X29120D1*
X28870Y69380D1*
Y69880D1*
X29120Y70130D1*
G36*
X29270Y70730D2*
X29470D1*
Y70530D1*
X29270D1*
Y70730D1*
G37*
G36*
Y69730D2*
X29470D1*
Y69530D1*
X29270D1*
Y69730D1*
G37*
X30586Y77404D2*
D10*
X26586D1*
Y78404D1*
X30586D1*
Y77404D1*
X31580Y75609D2*
D18*
Y76109D1*
X31830Y76359D1*
X32330D1*
X32580Y76109D1*
X31830Y75359D2*
X32330D1*
X31580Y75609D2*
X31830Y75359D1*
X32330D2*
X32580Y75609D1*
Y76109D2*
Y75609D1*
X31830Y76359D2*
X31580Y76609D1*
Y77109D1*
X31830Y77359D1*
X32330D1*
X32580Y77109D1*
Y76609D1*
X32330Y76359D1*
G36*
X32180Y75759D2*
X31980D1*
Y75959D1*
X32180D1*
Y75759D1*
G37*
G36*
Y76759D2*
X31980D1*
Y76959D1*
X32180D1*
Y76759D1*
G37*
X28295Y70841D2*
D18*
Y70341D1*
X28045Y70091D1*
X27545D1*
X27295Y70341D1*
X28045Y71091D2*
X27545D1*
X28295Y70841D2*
X28045Y71091D1*
X27545D2*
X27295Y70841D1*
Y70341D2*
Y70841D1*
X28045Y70091D2*
X28295Y69841D1*
Y69341D1*
X28045Y69091D1*
X27545D1*
X27295Y69341D1*
Y69841D1*
X27545Y70091D1*
G36*
X27695Y70691D2*
X27895D1*
Y70491D1*
X27695D1*
Y70691D1*
G37*
G36*
Y69691D2*
X27895D1*
Y69491D1*
X27695D1*
Y69691D1*
G37*
X25872Y67295D2*
D18*
X25372D1*
X25122Y67545D1*
Y68045D1*
X25372Y68295D1*
X27122Y67545D2*
X26872Y67295D1*
X26372D1*
X26122Y67545D1*
Y68045D1*
X26372Y68295D1*
X26872D1*
X27122Y68045D1*
X25872Y67295D2*
X26122Y67545D1*
Y68045D2*
X25872Y68295D1*
X25372D2*
X25872D1*
X28872Y67295D2*
X28372D1*
X28122Y67545D1*
Y68045D1*
X28372Y68295D1*
X28122Y67545D2*
X27872Y67295D1*
X27372D1*
X27122Y67545D1*
Y68045D1*
X27372Y68295D1*
X27872D1*
X28122Y68045D1*
X29122Y67545D2*
Y68045D1*
X28872Y67295D2*
X29122Y67545D1*
Y68045D2*
X28872Y68295D1*
X28372D2*
X28872D1*
X24872Y67295D2*
X24372D1*
X24122Y67545D1*
Y68045D1*
X24372Y68295D1*
X24872Y67295D2*
X25122Y67545D1*
Y68045D2*
X24872Y68295D1*
X24372D2*
X24872D1*
G36*
X25722Y67895D2*
X25522D1*
Y67695D1*
X25722D1*
Y67895D1*
G37*
G36*
X26722D2*
X26522D1*
Y67695D1*
X26722D1*
Y67895D1*
G37*
G36*
X27722D2*
X27522D1*
Y67695D1*
X27722D1*
Y67895D1*
G37*
G36*
X28722D2*
X28522D1*
Y67695D1*
X28722D1*
Y67895D1*
G37*
G36*
X24722D2*
X24522D1*
Y67695D1*
X24722D1*
Y67895D1*
G37*
X17781Y73915D2*
D18*
X8881D1*
Y80415D2*
Y73915D1*
Y80415D2*
X17781D1*
Y73915D2*
Y80415D1*
X15031Y74816D2*
X14781D1*
Y76915D1*
D23*
X15281D1*
D18*
Y77416D1*
X14281D2*
D23*
Y76915D1*
X14781D1*
X15281Y77416D2*
X14781D1*
D18*
Y79515D1*
Y77416D2*
D23*
X14281D1*
X14781Y79515D2*
D18*
X15031D1*
X15281Y77416D2*
X14281Y76915D1*
X14032Y77165D2*
X11431D1*
D23*
X11181Y76915D1*
Y75695D2*
D18*
Y76915D1*
Y77416D2*
Y78645D1*
Y76915D2*
D23*
X11051Y76796D1*
X15931Y77165D2*
D18*
X15532D1*
X17781Y64663D2*
X8881D1*
Y71163D2*
Y64663D1*
Y71163D2*
X17781D1*
Y64663D2*
Y71163D1*
X15031Y65564D2*
X14781D1*
Y67663D1*
D23*
X15281D1*
D18*
Y68164D1*
X14281D2*
D23*
Y67663D1*
X14781D1*
X15281Y68164D2*
X14781D1*
D18*
Y70263D1*
Y68164D2*
D23*
X14281D1*
X14781Y70263D2*
D18*
X15031D1*
X15281Y68164D2*
X14281Y67663D1*
X14032Y67913D2*
X11431D1*
D23*
X11181Y67663D1*
Y66443D2*
D18*
Y67663D1*
Y68164D2*
Y69393D1*
Y67663D2*
D23*
X11051Y67544D1*
X15931Y67913D2*
D18*
X15532D1*
X17781Y55608D2*
X8881D1*
Y62108D2*
Y55608D1*
Y62108D2*
X17781D1*
Y55608D2*
Y62108D1*
X15031Y56509D2*
X14781D1*
Y58608D1*
D23*
X15281D1*
D18*
Y59109D1*
X14281D2*
D23*
Y58608D1*
X14781D1*
X15281Y59109D2*
X14781D1*
D18*
Y61208D1*
Y59109D2*
D23*
X14281D1*
X14781Y61208D2*
D18*
X15031D1*
X15281Y59109D2*
X14281Y58608D1*
X14032Y58858D2*
X11431D1*
D23*
X11181Y58608D1*
Y57388D2*
D18*
Y58608D1*
Y59109D2*
Y60338D1*
Y58608D2*
D23*
X11051Y58488D1*
X15931Y58858D2*
D18*
X15532D1*
X17781Y46553D2*
X8881D1*
Y53053D2*
Y46553D1*
Y53053D2*
X17781D1*
Y46553D2*
Y53053D1*
X15031Y47453D2*
X14781D1*
Y49553D1*
D23*
X15281D1*
D18*
Y50053D1*
X14281D2*
D23*
Y49553D1*
X14781D1*
X15281Y50053D2*
X14781D1*
D18*
Y52153D1*
Y50053D2*
D23*
X14281D1*
X14781Y52153D2*
D18*
X15031D1*
X15281Y50053D2*
X14281Y49553D1*
X14032Y49803D2*
X11431D1*
D23*
X11181Y49553D1*
Y48333D2*
D18*
Y49553D1*
Y50053D2*
Y51283D1*
Y49553D2*
D23*
X11051Y49433D1*
X15931Y49803D2*
D18*
X15532D1*
X46274Y53053D2*
X55174D1*
Y46553D2*
Y53053D1*
Y46553D2*
X46274D1*
Y53053D2*
Y46553D1*
X49024Y52153D2*
X49274D1*
Y50053D1*
D23*
X48774D1*
D18*
Y49553D1*
X49774D2*
D23*
Y50053D1*
X49274D1*
X48774Y49553D2*
X49274D1*
D18*
Y47453D1*
Y49553D2*
D23*
X49774D1*
X49274Y47453D2*
D18*
X49024D1*
X48774Y49553D2*
X49774Y50053D1*
X50023Y49803D2*
X52624D1*
D23*
X52874Y50053D1*
Y51273D2*
D18*
Y50053D1*
Y49553D2*
Y48323D1*
Y50053D2*
D23*
X53004Y50173D1*
X48124Y49803D2*
D18*
X48524D1*
X46274Y62108D2*
X55174D1*
Y55608D2*
Y62108D1*
Y55608D2*
X46274D1*
Y62108D2*
Y55608D1*
X49024Y61208D2*
X49274D1*
Y59109D1*
D23*
X48774D1*
D18*
Y58608D1*
X49774D2*
D23*
Y59109D1*
X49274D1*
X48774Y58608D2*
X49274D1*
D18*
Y56509D1*
Y58608D2*
D23*
X49774D1*
X49274Y56509D2*
D18*
X49024D1*
X48774Y58608D2*
X49774Y59109D1*
X50023Y58858D2*
X52624D1*
D23*
X52874Y59109D1*
Y60329D2*
D18*
Y59109D1*
Y58608D2*
Y57378D1*
Y59109D2*
D23*
X53004Y59228D1*
X48124Y58858D2*
D18*
X48524D1*
X46274Y71163D2*
X55174D1*
Y64663D2*
Y71163D1*
Y64663D2*
X46274D1*
Y71163D2*
Y64663D1*
X49024Y70263D2*
X49274D1*
Y68164D1*
D23*
X48774D1*
D18*
Y67663D1*
X49774D2*
D23*
Y68164D1*
X49274D1*
X48774Y67663D2*
X49274D1*
D18*
Y65564D1*
Y67663D2*
D23*
X49774D1*
X49274Y65564D2*
D18*
X49024D1*
X48774Y67663D2*
X49774Y68164D1*
X50023Y67913D2*
X52624D1*
D23*
X52874Y68164D1*
Y69384D2*
D18*
Y68164D1*
Y67663D2*
Y66433D1*
Y68164D2*
D23*
X53004Y68283D1*
X48124Y67913D2*
D18*
X48524D1*
X46274Y80415D2*
X55174D1*
Y73915D2*
Y80415D1*
Y73915D2*
X46274D1*
Y80415D2*
Y73915D1*
X49024Y79515D2*
X49274D1*
Y77416D1*
D23*
X48774D1*
D18*
Y76915D1*
X49774D2*
D23*
Y77416D1*
X49274D1*
X48774Y76915D2*
X49274D1*
D18*
Y74816D1*
Y76915D2*
D23*
X49774D1*
X49274Y74816D2*
D18*
X49024D1*
X48774Y76915D2*
X49774Y77416D1*
X50023Y77165D2*
X52624D1*
D23*
X52874Y77416D1*
Y78636D2*
D18*
Y77416D1*
Y76915D2*
Y75685D1*
Y77416D2*
D23*
X53004Y77535D1*
X48124Y77165D2*
D18*
X48524D1*
X37087Y65079D2*
D10*
G02X37087Y65079I2362J0D01*
G01*
X14772Y71638D2*
D18*
Y73638D1*
X12472D2*
Y71638D1*
X14772D2*
X12472D1*
X14772Y73638D2*
X14022D1*
X12472D2*
X13222D1*
X14022D2*
G02X13222Y73638I-400J0D01*
G01*
X14772Y62386D2*
Y64386D1*
X12472D2*
Y62386D1*
X14772D2*
X12472D1*
X14772Y64386D2*
X14022D1*
X12472D2*
X13222D1*
X14022D2*
G02X13222Y64386I-400J0D01*
G01*
X14772Y53331D2*
Y55331D1*
X12472D2*
Y53331D1*
X14772D2*
X12472D1*
X14772Y55331D2*
X14022D1*
X12472D2*
X13222D1*
X14022D2*
G02X13222Y55331I-400J0D01*
G01*
X14772Y44315D2*
Y46315D1*
X12472D2*
Y44315D1*
X14772D2*
X12472D1*
X14772Y46315D2*
X14022D1*
X12472D2*
X13222D1*
X14022D2*
G02X13222Y46315I-400J0D01*
G01*
X49086Y46276D2*
Y44276D1*
X51386D2*
Y46276D1*
X49086D2*
X51386D1*
X49086Y44276D2*
X49836D1*
X51386D2*
X50636D1*
X49836D2*
G02X50636Y44276I400J0D01*
G01*
X49086Y55331D2*
Y53331D1*
X51386D2*
Y55331D1*
X49086D2*
X51386D1*
X49086Y53331D2*
X49836D1*
X51386D2*
X50636D1*
X49836D2*
G02X50636Y53331I400J0D01*
G01*
X49086Y64386D2*
Y62386D1*
X51386D2*
Y64386D1*
X49086D2*
X51386D1*
X49086Y62386D2*
X49836D1*
X51386D2*
X50636D1*
X49836D2*
G02X50636Y62386I400J0D01*
G01*
X49086Y73441D2*
Y71441D1*
X51386D2*
Y73441D1*
X49086D2*
X51386D1*
X49086Y71441D2*
X49836D1*
X51386D2*
X50636D1*
X49836D2*
G02X50636Y71441I400J0D01*
G01*
X28362Y57224D2*
D20*
Y59924D1*
X26562D2*
Y57224D1*
Y59924D2*
G02X28362Y59924I900J0D01*
G01*
X26562Y57224D2*
G03X28362Y57224I900J0D01*
G01*
X19096Y72866D2*
D36*
X20746D1*
X18971Y73963D2*
G02X20871Y73963I950J-447D01*
G01*
X20369Y73466D2*
X19474D1*
X18971Y73963D2*
G03X18872Y73466I949J-447D01*
G01*
G03X18971Y73069I1056J52D01*
G01*
X19369Y73466D2*
X18872D1*
X18971Y73069D2*
G03X19096Y72866I942J443D01*
G01*
X19474Y73466D2*
X19369D1*
X20871Y73069D2*
G03X20970Y73466I-958J449D01*
G01*
G03X20871Y73963I-1048J50D01*
G01*
X20970Y73466D2*
X20474D1*
X20369D1*
X20746Y72866D2*
G03X20876Y73078I-815J644D01*
G01*
X19096Y63614D2*
X20746D1*
X18971Y64711D2*
G02X20871Y64711I950J-447D01*
G01*
X20369Y64214D2*
X19474D1*
X18971Y64711D2*
G03X18872Y64214I949J-447D01*
G01*
G03X18971Y63817I1056J52D01*
G01*
X19369Y64214D2*
X18872D1*
X18971Y63817D2*
G03X19096Y63614I942J443D01*
G01*
X19474Y64214D2*
X19369D1*
X20871Y63817D2*
G03X20970Y64214I-958J449D01*
G01*
G03X20871Y64711I-1048J50D01*
G01*
X20970Y64214D2*
X20474D1*
X20369D1*
X20746Y63614D2*
G03X20876Y63826I-815J644D01*
G01*
X19096Y54559D2*
X20746D1*
X18971Y55656D2*
G02X20871Y55656I950J-447D01*
G01*
X20369Y55159D2*
X19474D1*
X18971Y55656D2*
G03X18872Y55159I949J-447D01*
G01*
G03X18971Y54761I1056J52D01*
G01*
X19369Y55159D2*
X18872D1*
X18971Y54761D2*
G03X19096Y54559I942J443D01*
G01*
X19474Y55159D2*
X19369D1*
X20871Y54761D2*
G03X20970Y55159I-958J449D01*
G01*
G03X20871Y55656I-1048J50D01*
G01*
X20970Y55159D2*
X20474D1*
X20369D1*
X20746Y54559D2*
G03X20876Y54771I-815J644D01*
G01*
X19096Y45504D2*
X20746D1*
X18971Y46601D2*
G02X20871Y46601I950J-447D01*
G01*
X20369Y46103D2*
X19474D1*
X18971Y46601D2*
G03X18872Y46103I949J-447D01*
G01*
G03X18971Y45706I1056J52D01*
G01*
X19369Y46103D2*
X18872D1*
X18971Y45706D2*
G03X19096Y45504I942J443D01*
G01*
X19474Y46103D2*
X19369D1*
X20871Y45706D2*
G03X20970Y46103I-958J449D01*
G01*
G03X20871Y46601I-1048J50D01*
G01*
X20970Y46103D2*
X20474D1*
X20369D1*
X20746Y45504D2*
G03X20876Y45716I-815J644D01*
G01*
X44762Y53315D2*
X43112D1*
X44887Y52218D2*
G02X42987Y52218I-950J447D01*
G01*
X43490Y52715D2*
X44384D1*
X44887Y52218D2*
G03X44986Y52715I-949J447D01*
G01*
G03X44887Y53113I-1056J-52D01*
G01*
X44490Y52715D2*
X44986D1*
X44887Y53113D2*
G03X44762Y53315I-942J-443D01*
G01*
X44384Y52715D2*
X44490D1*
X42987Y53113D2*
G03X42888Y52715I958J-449D01*
G01*
G03X42987Y52218I1048J-50D01*
G01*
X42888Y52715D2*
X43384D1*
X43490D1*
X43112Y53315D2*
G03X42982Y53103I815J-644D01*
G01*
X44762Y62567D2*
X43112D1*
X44887Y61470D2*
G02X42987Y61470I-950J447D01*
G01*
X43490Y61967D2*
X44384D1*
X44887Y61470D2*
G03X44986Y61967I-949J447D01*
G01*
G03X44887Y62365I-1056J-52D01*
G01*
X44490Y61967D2*
X44986D1*
X44887Y62365D2*
G03X44762Y62567I-942J-443D01*
G01*
X44384Y61967D2*
X44490D1*
X42987Y62365D2*
G03X42888Y61967I958J-449D01*
G01*
G03X42987Y61470I1048J-50D01*
G01*
X42888Y61967D2*
X43384D1*
X43490D1*
X43112Y62567D2*
G03X42982Y62355I815J-644D01*
G01*
X44762Y71426D2*
X43112D1*
X44887Y70328D2*
G02X42987Y70328I-950J447D01*
G01*
X43490Y70826D2*
X44384D1*
X44887Y70328D2*
G03X44986Y70826I-949J447D01*
G01*
G03X44887Y71223I-1056J-52D01*
G01*
X44490Y70826D2*
X44986D1*
X44887Y71223D2*
G03X44762Y71426I-942J-443D01*
G01*
X44384Y70826D2*
X44490D1*
X42987Y71223D2*
G03X42888Y70826I958J-449D01*
G01*
G03X42987Y70328I1048J-50D01*
G01*
X42888Y70826D2*
X43384D1*
X43490D1*
X43112Y71426D2*
G03X42982Y71213I815J-644D01*
G01*
X44762Y80481D2*
X43112D1*
X44887Y79384D2*
G02X42987Y79384I-950J447D01*
G01*
X43490Y79881D2*
X44384D1*
X44887Y79384D2*
G03X44986Y79881I-949J447D01*
G01*
G03X44887Y80278I-1056J-52D01*
G01*
X44490Y79881D2*
X44986D1*
X44887Y80278D2*
G03X44762Y80481I-942J-443D01*
G01*
X44384Y79881D2*
X44490D1*
X42987Y80278D2*
G03X42888Y79881I958J-449D01*
G01*
G03X42987Y79384I1048J-50D01*
G01*
X42888Y79881D2*
X43384D1*
X43490D1*
X43112Y80481D2*
G03X42982Y80268I815J-644D01*
G01*
X28835Y51456D2*
D10*
X32929D1*
X28835Y52047D2*
X32929D1*
X28835Y50236D2*
X32929D1*
X28835D2*
Y52047D1*
X32929Y50236D2*
Y52047D1*
X19224Y76561D2*
Y78557D1*
X20224D2*
X19224D1*
X20224Y76561D2*
Y78557D1*
Y76561D2*
X19224D1*
X7309Y73728D2*
X9305D1*
Y72728D2*
Y73728D1*
X7309Y72728D2*
X9305D1*
X7309D2*
Y73728D1*
X22886Y63222D2*
Y65219D1*
X23886D2*
X22886D1*
X23886Y63222D2*
Y65219D1*
Y63222D2*
X22886D1*
X35366Y71329D2*
Y73325D1*
X36366D2*
X35366D1*
X36366Y71329D2*
Y73325D1*
Y71329D2*
X35366D1*
X19224Y67309D2*
Y69305D1*
X20224D2*
X19224D1*
X20224Y67309D2*
Y69305D1*
Y67309D2*
X19224D1*
X7309Y64476D2*
X9305D1*
Y63476D2*
Y64476D1*
X7309Y63476D2*
X9305D1*
X7309D2*
Y64476D1*
X19224Y58136D2*
Y60132D1*
X20224D2*
X19224D1*
X20224Y58136D2*
Y60132D1*
Y58136D2*
X19224D1*
X7309Y55421D2*
X9305D1*
Y54421D2*
Y55421D1*
X7309Y54421D2*
X9305D1*
X7309D2*
Y55421D1*
X19224Y49120D2*
Y51116D1*
X20224D2*
X19224D1*
X20224Y49120D2*
Y51116D1*
Y49120D2*
X19224D1*
X7309Y45866D2*
X9305D1*
Y44866D2*
Y45866D1*
X7309Y44866D2*
X9305D1*
X7309D2*
Y45866D1*
X35382Y73325D2*
Y71329D1*
X34382D2*
X35382D1*
X34382Y73325D2*
Y71329D1*
Y73325D2*
X35382D1*
X37368Y77390D2*
X35372D1*
Y78390D2*
Y77390D1*
X37368Y78390D2*
X35372D1*
X37368D2*
Y77390D1*
X44831Y48538D2*
Y46541D1*
X43831D2*
X44831D1*
X43831Y48538D2*
Y46541D1*
Y48538D2*
X44831D1*
X56746Y44382D2*
X54750D1*
Y45382D2*
Y44382D1*
X56746Y45382D2*
X54750D1*
X56746D2*
Y44382D1*
X44831Y57790D2*
Y55793D1*
X43831D2*
X44831D1*
X43831Y57790D2*
Y55793D1*
Y57790D2*
X44831D1*
X56746Y53240D2*
X54750D1*
Y54240D2*
Y53240D1*
X56746Y54240D2*
X54750D1*
X56746D2*
Y53240D1*
X44831Y66648D2*
Y64651D1*
X43831D2*
X44831D1*
X43831Y66648D2*
Y64651D1*
Y66648D2*
X44831D1*
X56746Y62295D2*
X54750D1*
Y63295D2*
Y62295D1*
X56746Y63295D2*
X54750D1*
X56746D2*
Y62295D1*
X44831Y75703D2*
Y73707D1*
X43831D2*
X44831D1*
X43831Y75703D2*
Y73707D1*
Y75703D2*
X44831D1*
X56746Y71350D2*
X54750D1*
Y72350D2*
Y71350D1*
X56746Y72350D2*
X54750D1*
X56746D2*
Y71350D1*
X27689Y47396D2*
Y49392D1*
X28689D2*
X27689D1*
X28689Y47396D2*
Y49392D1*
Y47396D2*
X27689D1*
X23122Y49419D2*
Y47423D1*
X22122D2*
X23122D1*
X22122Y49419D2*
Y47423D1*
Y49419D2*
X23122D1*
X26345Y51941D2*
X24348D1*
Y52941D2*
Y51941D1*
X26345Y52941D2*
X24348D1*
X26345D2*
Y51941D1*
X30248Y71679D2*
Y73675D1*
X31248D2*
X30248D1*
X31248Y71679D2*
Y73675D1*
Y71679D2*
X30248D1*
X25130Y71758D2*
Y73754D1*
X26130D2*
X25130D1*
X26130Y71758D2*
Y73754D1*
Y71758D2*
X25130D1*
X31232Y71679D2*
Y73675D1*
X32232D2*
X31232D1*
X32232Y71679D2*
Y73675D1*
Y71679D2*
X31232D1*
X26114Y71758D2*
Y73754D1*
X27114D2*
X26114D1*
X27114Y71758D2*
Y73754D1*
Y71758D2*
X26114D1*
X36350Y71328D2*
Y73325D1*
X37350D2*
X36350D1*
X37350Y71328D2*
Y73325D1*
Y71328D2*
X36350D1*
X37335Y71329D2*
Y73325D1*
X38335D2*
X37335D1*
X38335Y71329D2*
Y73325D1*
Y71329D2*
X37335D1*
X20406Y76561D2*
Y78557D1*
X21406D2*
X20406D1*
X21406Y76561D2*
Y78557D1*
Y76561D2*
X20406D1*
Y67309D2*
Y69305D1*
X21406D2*
X20406D1*
X21406Y67309D2*
Y69305D1*
Y67309D2*
X20406D1*
Y58136D2*
Y60132D1*
X21406D2*
X20406D1*
X21406Y58136D2*
Y60132D1*
Y58136D2*
X20406D1*
Y49120D2*
Y51116D1*
X21406D2*
X20406D1*
X21406Y49120D2*
Y51116D1*
Y49120D2*
X20406D1*
X42846Y46541D2*
Y48538D1*
X43846D2*
X42846D1*
X43846Y46541D2*
Y48538D1*
Y46541D2*
X42846D1*
Y55793D2*
Y57790D1*
X43846D2*
X42846D1*
X43846Y55793D2*
Y57790D1*
Y55793D2*
X42846D1*
Y64651D2*
Y66648D1*
X43846D2*
X42846D1*
X43846Y64651D2*
Y66648D1*
Y64651D2*
X42846D1*
Y73707D2*
Y75703D1*
X43846D2*
X42846D1*
X43846Y73707D2*
Y75703D1*
Y73707D2*
X42846D1*
X34594Y68274D2*
Y66277D1*
X33594D2*
X34594D1*
X33594Y68274D2*
Y66277D1*
Y68274D2*
X34594D1*
X25703Y62897D2*
D18*
Y62997D1*
Y62897D2*
X26303D1*
Y62997D2*
Y62897D1*
X26403Y62997D2*
X27003D1*
X26303Y65497D2*
Y65397D1*
Y65497D2*
X25703D1*
Y65397D2*
Y65497D1*
X27003Y62997D2*
X27203Y63197D1*
X24803D2*
X25003Y62997D1*
X25604D1*
X27203Y65197D2*
X27003Y65397D1*
X26403D1*
X24803Y65197D2*
X25003Y65397D1*
X25604D1*
X26503Y64697D2*
D37*
X25503D1*
Y63697D2*
Y64697D1*
Y63697D2*
X26503D1*
Y64697D2*
Y63697D1*
X27203Y64697D2*
X27104D1*
Y63697D2*
Y64697D1*
Y63697D2*
X27203D1*
X24903Y63747D2*
Y64697D1*
Y63747D2*
X24803D1*
X24903Y64697D2*
X24803D1*
Y63197D2*
D18*
Y63347D1*
Y65197D2*
Y65047D1*
Y64697D1*
X27203Y65197D2*
Y65047D1*
Y63197D2*
Y63347D1*
Y63697D1*
Y64697D1*
Y65047D1*
X24803Y64697D2*
Y63747D1*
Y63347D1*
X25703Y62997D2*
X25604D1*
X26303D2*
X26403D1*
X25703Y65397D2*
X25604D1*
X26303D2*
X26403D1*
X25154Y64697D2*
Y63697D1*
X26904D2*
Y64697D1*
X26503Y65147D2*
X26203D1*
X25804D2*
X25503D1*
X26203D2*
X25853Y65047D1*
X25303Y64197D2*
G02X25303Y64197I700J0D01*
G01*
X24954Y65047D2*
G02X24954Y65047I200J0D01*
G01*
X25003Y63347D2*
G02X25003Y63347I200J0D01*
G01*
X26653D2*
G02X26653Y63347I200J0D01*
G01*
Y65047D2*
G02X26653Y65047I200J0D01*
G01*
X25753Y64197D2*
D37*
G02X25753Y64197I250J0D01*
G01*
X25903D2*
D18*
G02X25903Y64197I100J0D01*
G01*
X29589Y75178D2*
D36*
X27939D1*
X29714Y74080D2*
G02X27814Y74080I-950J447D01*
G01*
X28316Y74578D2*
X29211D1*
X29714Y74080D2*
G03X29813Y74578I-949J447D01*
G01*
G03X29714Y74975I-1056J-52D01*
G01*
X29316Y74578D2*
X29813D1*
X29714Y74975D2*
G03X29589Y75178I-942J-443D01*
G01*
X29211Y74578D2*
X29316D1*
X27814Y74975D2*
G03X27715Y74578I958J-449D01*
G01*
G03X27814Y74080I1048J-50D01*
G01*
X27715Y74578D2*
X28211D1*
X28316D1*
X27939Y75178D2*
G03X27809Y74965I815J-644D01*
G01*
X29589Y73012D2*
X27939D1*
X29714Y71915D2*
G02X27814Y71915I-950J447D01*
G01*
X28316Y72412D2*
X29211D1*
X29714Y71915D2*
G03X29813Y72412I-949J447D01*
G01*
G03X29714Y72809I-1056J-52D01*
G01*
X29316Y72412D2*
X29813D1*
X29714Y72809D2*
G03X29589Y73012I-942J-443D01*
G01*
X29211Y72412D2*
X29316D1*
X27814Y72809D2*
G03X27715Y72412I958J-449D01*
G01*
G03X27814Y71915I1048J-50D01*
G01*
X27715Y72412D2*
X28211D1*
X28316D1*
X27939Y73012D2*
G03X27809Y72800I815J-644D01*
G01*
X30567Y66642D2*
D20*
X29867D1*
X30567D2*
G03X31567Y66642I500J0D01*
G01*
X29867Y52642D2*
X32267D1*
Y66642D2*
X31567D1*
X32267D2*
Y66542D1*
X29867Y66642D2*
Y66542D1*
Y52642D2*
Y52741D1*
X32267Y52642D2*
Y52741D1*
X38976Y67939D2*
D10*
X33465D1*
Y77388D1*
X38976D1*
Y67939D1*
X35039Y70302D2*
X37795D1*
Y68333D1*
X37402D1*
Y69514D1*
X37008D1*
Y68333D1*
X36614D1*
Y69514D1*
X36220D1*
Y68333D1*
X35827D1*
Y69514D1*
X35433D1*
Y68333D1*
X33858D1*
X42650Y43909D2*
D36*
X33594D1*
Y58870D1*
X42650D1*
Y43909D1*
X6435Y75554D2*
D23*
X7205Y74844D1*
X6405Y77524D2*
X7205Y76774D1*
X6415Y79524D2*
X7205Y78734D1*
X5165Y80114D2*
D18*
Y74214D1*
X8785D2*
X8705D1*
X8785D2*
Y80114D1*
X5165D2*
X6105D1*
Y79484D1*
Y78784D1*
Y77514D1*
Y76814D2*
Y75544D1*
Y74844D2*
Y74214D1*
Y80114D2*
X8705D1*
X6105Y74214D2*
X5165D1*
X8705D2*
Y80114D1*
Y74214D2*
X6105D1*
X8705Y80114D2*
X8785D1*
X6105Y77514D2*
Y76814D1*
Y75544D2*
Y74844D1*
X6225Y79134D2*
G02X6225Y79134I590J0D01*
G01*
Y75194D2*
G02X6225Y75194I590J0D01*
G01*
X7985Y79134D2*
G02X7985Y79134I200J0D01*
G01*
Y75194D2*
G02X7985Y75194I200J0D01*
G01*
X6225Y77164D2*
G02X6225Y77164I590J0D01*
G01*
X7985D2*
G02X7985Y77164I200J0D01*
G01*
X6435Y66302D2*
D23*
X7205Y65592D1*
X6405Y68272D2*
X7205Y67522D1*
X6415Y70272D2*
X7205Y69482D1*
X5165Y70862D2*
D18*
Y64962D1*
X8785D2*
X8705D1*
X8785D2*
Y70862D1*
X5165D2*
X6105D1*
Y70232D1*
Y69532D1*
Y68262D1*
Y67562D2*
Y66292D1*
Y65592D2*
Y64962D1*
Y70862D2*
X8705D1*
X6105Y64962D2*
X5165D1*
X8705D2*
Y70862D1*
Y64962D2*
X6105D1*
X8705Y70862D2*
X8785D1*
X6105Y68262D2*
Y67562D1*
Y66292D2*
Y65592D1*
X6225Y69882D2*
G02X6225Y69882I590J0D01*
G01*
Y65942D2*
G02X6225Y65942I590J0D01*
G01*
X7985Y69882D2*
G02X7985Y69882I200J0D01*
G01*
Y65942D2*
G02X7985Y65942I200J0D01*
G01*
X6225Y67912D2*
G02X6225Y67912I590J0D01*
G01*
X7985D2*
G02X7985Y67912I200J0D01*
G01*
X6435Y57247D2*
D23*
X7205Y56537D1*
X6405Y59217D2*
X7205Y58467D1*
X6415Y61217D2*
X7205Y60427D1*
X5165Y61807D2*
D18*
Y55907D1*
X8785D2*
X8705D1*
X8785D2*
Y61807D1*
X5165D2*
X6105D1*
Y61177D1*
Y60477D1*
Y59207D1*
Y58507D2*
Y57237D1*
Y56537D2*
Y55907D1*
Y61807D2*
X8705D1*
X6105Y55907D2*
X5165D1*
X8705D2*
Y61807D1*
Y55907D2*
X6105D1*
X8705Y61807D2*
X8785D1*
X6105Y59207D2*
Y58507D1*
Y57237D2*
Y56537D1*
X6225Y60827D2*
G02X6225Y60827I590J0D01*
G01*
Y56887D2*
G02X6225Y56887I590J0D01*
G01*
X7985Y60827D2*
G02X7985Y60827I200J0D01*
G01*
Y56887D2*
G02X7985Y56887I200J0D01*
G01*
X6225Y58857D2*
G02X6225Y58857I590J0D01*
G01*
X7985D2*
G02X7985Y58857I200J0D01*
G01*
X6435Y48191D2*
D23*
X7205Y47482D1*
X6405Y50162D2*
X7205Y49412D1*
X6415Y52162D2*
X7205Y51372D1*
X5165Y52752D2*
D18*
Y46852D1*
X8785D2*
X8705D1*
X8785D2*
Y52752D1*
X5165D2*
X6105D1*
Y52121D1*
Y51422D1*
Y50151D1*
Y49452D2*
Y48181D1*
Y47482D2*
Y46852D1*
Y52752D2*
X8705D1*
X6105Y46852D2*
X5165D1*
X8705D2*
Y52752D1*
Y46852D2*
X6105D1*
X8705Y52752D2*
X8785D1*
X6105Y50151D2*
Y49452D1*
Y48181D2*
Y47482D1*
X6225Y51772D2*
G02X6225Y51772I590J0D01*
G01*
Y47832D2*
G02X6225Y47832I590J0D01*
G01*
X7985Y51772D2*
G02X7985Y51772I200J0D01*
G01*
Y47832D2*
G02X7985Y47832I200J0D01*
G01*
X6225Y49802D2*
G02X6225Y49802I590J0D01*
G01*
X7985D2*
G02X7985Y49802I200J0D01*
G01*
X57620Y51415D2*
D23*
X56850Y52125D1*
X57650Y49444D2*
X56850Y50195D1*
X57640Y47445D2*
X56850Y48235D1*
X58890Y46855D2*
D18*
Y52755D1*
X55270D2*
X55350D1*
X55270D2*
Y46855D1*
X58890D2*
X57950D1*
Y47485D1*
Y48185D1*
Y49455D1*
Y50155D2*
Y51425D1*
Y52125D2*
Y52755D1*
Y46855D2*
X55350D1*
X57950Y52755D2*
X58890D1*
X55350D2*
Y46855D1*
Y52755D2*
X57950D1*
X55350Y46855D2*
X55270D1*
X57950Y49455D2*
Y50155D1*
Y51425D2*
Y52125D1*
X56650Y47835D2*
G02X56650Y47835I590J0D01*
G01*
Y51775D2*
G02X56650Y51775I590J0D01*
G01*
X55670Y47835D2*
G02X55670Y47835I200J0D01*
G01*
Y51775D2*
G02X55670Y51775I200J0D01*
G01*
X56650Y49805D2*
G02X56650Y49805I590J0D01*
G01*
X55670D2*
G02X55670Y49805I200J0D01*
G01*
X57620Y60464D2*
D23*
X56850Y61174D1*
X57650Y58494D2*
X56850Y59244D1*
X57640Y56494D2*
X56850Y57284D1*
X58890Y55904D2*
D18*
Y61804D1*
X55270D2*
X55350D1*
X55270D2*
Y55904D1*
X58890D2*
X57950D1*
Y56534D1*
Y57234D1*
Y58504D1*
Y59204D2*
Y60474D1*
Y61174D2*
Y61804D1*
Y55904D2*
X55350D1*
X57950Y61804D2*
X58890D1*
X55350D2*
Y55904D1*
Y61804D2*
X57950D1*
X55350Y55904D2*
X55270D1*
X57950Y58504D2*
Y59204D1*
Y60474D2*
Y61174D1*
X56650Y56884D2*
G02X56650Y56884I590J0D01*
G01*
Y60824D2*
G02X56650Y60824I590J0D01*
G01*
X55670Y56884D2*
G02X55670Y56884I200J0D01*
G01*
Y60824D2*
G02X55670Y60824I200J0D01*
G01*
X56650Y58854D2*
G02X56650Y58854I590J0D01*
G01*
X55670D2*
G02X55670Y58854I200J0D01*
G01*
X57620Y69514D2*
D23*
X56850Y70224D1*
X57650Y67543D2*
X56850Y68294D1*
X57640Y65544D2*
X56850Y66334D1*
X58890Y64954D2*
D18*
Y70854D1*
X55270D2*
X55350D1*
X55270D2*
Y64954D1*
X58890D2*
X57950D1*
Y65584D1*
Y66284D1*
Y67554D1*
Y68254D2*
Y69524D1*
Y70224D2*
Y70854D1*
Y64954D2*
X55350D1*
X57950Y70854D2*
X58890D1*
X55350D2*
Y64954D1*
Y70854D2*
X57950D1*
X55350Y64954D2*
X55270D1*
X57950Y67554D2*
Y68254D1*
Y69524D2*
Y70224D1*
X56650Y65934D2*
G02X56650Y65934I590J0D01*
G01*
Y69874D2*
G02X56650Y69874I590J0D01*
G01*
X55670Y65934D2*
G02X55670Y65934I200J0D01*
G01*
Y69874D2*
G02X55670Y69874I200J0D01*
G01*
X56650Y67904D2*
G02X56650Y67904I590J0D01*
G01*
X55670D2*
G02X55670Y67904I200J0D01*
G01*
X57620Y78777D2*
D23*
X56850Y79487D1*
X57650Y76806D2*
X56850Y77557D1*
X57640Y74807D2*
X56850Y75597D1*
X58890Y74217D2*
D18*
Y80117D1*
X55270D2*
X55350D1*
X55270D2*
Y74217D1*
X58890D2*
X57950D1*
Y74847D1*
Y75547D1*
Y76817D1*
Y77517D2*
Y78787D1*
Y79487D2*
Y80117D1*
Y74217D2*
X55350D1*
X57950Y80117D2*
X58890D1*
X55350D2*
Y74217D1*
Y80117D2*
X57950D1*
X55350Y74217D2*
X55270D1*
X57950Y76817D2*
Y77517D1*
Y78787D2*
Y79487D1*
X56650Y75197D2*
G02X56650Y75197I590J0D01*
G01*
Y79137D2*
G02X56650Y79137I590J0D01*
G01*
X55670Y75197D2*
G02X55670Y75197I200J0D01*
G01*
Y79137D2*
G02X55670Y79137I200J0D01*
G01*
X56650Y77167D2*
G02X56650Y77167I590J0D01*
G01*
X55670D2*
G02X55670Y77167I200J0D01*
G01*
X30240Y45151D2*
D23*
X31030Y45941D1*
X32200Y45161D2*
X32980Y45951D1*
X29650Y43901D2*
D18*
X33580D1*
Y47521D2*
Y47441D1*
Y47521D2*
X29650D1*
Y43901D2*
Y44841D1*
X30280D1*
X30980D1*
X32250D1*
X32950D2*
X33580D1*
X29650D2*
Y47441D1*
X33580Y44841D2*
Y43901D1*
X29650Y47441D2*
X33580D1*
X29650D2*
Y47521D1*
X33580Y47441D2*
Y44841D1*
X32250D2*
X32950D1*
X30040Y45551D2*
G02X30040Y45551I590J0D01*
G01*
X30430Y46921D2*
G02X30430Y46921I200J0D01*
G01*
X32010Y45551D2*
G02X32010Y45551I590J0D01*
G01*
X32400Y46921D2*
G02X32400Y46921I200J0D01*
G01*
X40403Y38919D2*
D10*
Y40318D1*
X39203Y38919D2*
Y40318D1*
X40403D2*
G03X39203Y40318I-600J1D01*
G01*
Y38919D2*
G03X40403Y38919I600J-1D01*
G01*
X39921Y38555D2*
X39685D1*
X39803Y38437D2*
Y38673D1*
X40343Y23741D2*
D18*
Y23591D1*
X40193D2*
X40343D1*
Y23441D1*
Y23591D2*
X40493D1*
X39843D2*
Y23241D1*
X39342D1*
Y23041D1*
X40343D1*
Y23241D1*
X39843D1*
Y22691D2*
Y22291D1*
X38743Y22941D2*
G02X38743Y22941I1100J0D01*
G01*
G36*
X39342Y22841D2*
X40343D1*
Y22641D1*
X39342D1*
Y22841D1*
G37*
X25547Y21267D2*
D20*
X26047D1*
X36654Y23072D2*
D18*
Y22972D1*
X36203D1*
Y22722D1*
X37104D1*
Y22972D1*
X36654D1*
Y22372D2*
Y22172D1*
X37454Y23922D2*
X37154D1*
X37303Y24072D2*
Y23772D1*
X36654Y22172D2*
Y21972D1*
Y23272D2*
Y23072D1*
X34904Y22622D2*
G02X34904Y22622I1750J0D01*
G01*
G36*
X36203Y22522D2*
X37104D1*
Y22272D1*
X36203D1*
Y22522D1*
G37*
X26047Y19142D2*
D20*
X25547D1*
X23311Y8374D2*
D18*
X25011D1*
Y7374D2*
X23311D1*
X25111Y8274D2*
Y7474D1*
X23211Y8274D2*
Y7474D1*
X25011Y8374D2*
G02X25111Y8274I0J-100D01*
G01*
X23211D2*
G02X23311Y8374I100J0D01*
G01*
X25011Y7374D2*
G03X25111Y7474I0J100D01*
G01*
X23211D2*
G03X23311Y7374I100J0D01*
G01*
X24461Y7874D2*
X24311D1*
X24261D1*
D23*
Y8174D1*
Y7874D2*
Y7574D1*
X24061Y8174D2*
Y7874D1*
Y7574D1*
Y7874D2*
D18*
X24012D1*
X23861D1*
X24724Y16248D2*
X24874D1*
Y16098D2*
Y16248D1*
X25024D1*
X24874D2*
Y16398D1*
Y15748D2*
X25224D1*
Y15248D1*
X25424D1*
Y16248D1*
X25224D1*
Y15748D1*
X25774D2*
X26174D1*
X24424D2*
G02X24424Y15748I1100J0D01*
G01*
G36*
X25624Y15248D2*
X25824D1*
Y16248D1*
X25624D1*
Y15248D1*
G37*
X25606Y8335D2*
D18*
X25755D1*
Y8185D2*
Y8335D1*
X25905D1*
X25755D2*
Y8485D1*
Y7835D2*
X26105D1*
Y7335D1*
X26305D1*
Y8335D1*
X26105D1*
Y7835D1*
X26655D2*
X27056D1*
X25306D2*
G02X25306Y7835I1100J0D01*
G01*
G36*
X26506Y7335D2*
X26706D1*
Y8335D1*
X26506D1*
Y7335D1*
G37*
X18043Y37783D2*
D18*
Y39383D1*
Y37783D2*
X19043D1*
Y39383D2*
Y37783D1*
Y39383D2*
X18043D1*
X18543Y36583D2*
D24*
Y36983D1*
Y40583D2*
Y40183D1*
Y38833D2*
D18*
Y38583D1*
X18793Y38183D2*
X18293D1*
X18543Y38583D1*
Y37982D1*
Y38583D2*
X18793Y38183D1*
Y38583D2*
X18543D1*
X18293D1*
G36*
X18043Y39233D2*
X19043D1*
Y39032D1*
X18043D1*
Y39233D1*
G37*
G36*
X18393Y37783D2*
X18693D1*
Y37033D1*
X18393D1*
Y37783D1*
G37*
G36*
Y40133D2*
X18693D1*
Y39383D1*
X18393D1*
Y40133D1*
G37*
X18043Y28531D2*
D18*
Y30131D1*
Y28531D2*
X19043D1*
Y30131D2*
Y28531D1*
Y30131D2*
X18043D1*
X18543Y27331D2*
D24*
Y27731D1*
Y31331D2*
Y30931D1*
Y29581D2*
D18*
Y29331D1*
X18793Y28931D2*
X18293D1*
X18543Y29331D1*
Y28730D1*
Y29331D2*
X18793Y28931D1*
Y29331D2*
X18543D1*
X18293D1*
G36*
X18043Y29981D2*
X19043D1*
Y29781D1*
X18043D1*
Y29981D1*
G37*
G36*
X18393Y28531D2*
X18693D1*
Y27781D1*
X18393D1*
Y28531D1*
G37*
G36*
Y30881D2*
X18693D1*
Y30131D1*
X18393D1*
Y30881D1*
G37*
X18043Y19475D2*
D18*
Y21076D1*
Y19475D2*
X19043D1*
Y21076D2*
Y19475D1*
Y21076D2*
X18043D1*
X18543Y18275D2*
D24*
Y18676D1*
Y22276D2*
Y21875D1*
Y20525D2*
D18*
Y20276D1*
X18793Y19876D2*
X18293D1*
X18543Y20276D1*
Y19675D1*
Y20276D2*
X18793Y19876D1*
Y20276D2*
X18543D1*
X18293D1*
G36*
X18043Y20926D2*
X19043D1*
Y20725D1*
X18043D1*
Y20926D1*
G37*
G36*
X18393Y19475D2*
X18693D1*
Y18726D1*
X18393D1*
Y19475D1*
G37*
G36*
Y21825D2*
X18693D1*
Y21076D1*
X18393D1*
Y21825D1*
G37*
X18043Y10420D2*
D18*
Y12021D1*
Y10420D2*
X19043D1*
Y12021D2*
Y10420D1*
Y12021D2*
X18043D1*
X18543Y9220D2*
D24*
Y9621D1*
Y13221D2*
Y12820D1*
Y11470D2*
D18*
Y11220D1*
X18793Y10821D2*
X18293D1*
X18543Y11220D1*
Y10620D1*
Y11220D2*
X18793Y10821D1*
Y11220D2*
X18543D1*
X18293D1*
G36*
X18043Y11871D2*
X19043D1*
Y11670D1*
X18043D1*
Y11871D1*
G37*
G36*
X18393Y10420D2*
X18693D1*
Y9671D1*
X18393D1*
Y10420D1*
G37*
G36*
Y12770D2*
X18693D1*
Y12021D1*
X18393D1*
Y12770D1*
G37*
X46012Y11989D2*
D18*
Y10389D1*
Y11989D2*
X45012D1*
Y10389D2*
Y11989D1*
Y10389D2*
X46012D1*
X45512Y13189D2*
D24*
Y12789D1*
Y9189D2*
Y9589D1*
Y10939D2*
D18*
Y11189D1*
X45262Y11589D2*
X45762D1*
X45512Y11189D1*
Y11789D1*
Y11189D2*
X45262Y11589D1*
Y11189D2*
X45512D1*
X45762D1*
G36*
X46012Y10539D2*
X45012D1*
Y10739D1*
X46012D1*
Y10539D1*
G37*
G36*
X45662Y11989D2*
X45362D1*
Y12739D1*
X45662D1*
Y11989D1*
G37*
G36*
Y9639D2*
X45362D1*
Y10389D1*
X45662D1*
Y9639D1*
G37*
X46012Y21241D2*
D18*
Y19641D1*
Y21241D2*
X45012D1*
Y19641D2*
Y21241D1*
Y19641D2*
X46012D1*
X45512Y22441D2*
D24*
Y22041D1*
Y18441D2*
Y18841D1*
Y20191D2*
D18*
Y20441D1*
X45262Y20841D2*
X45762D1*
X45512Y20441D1*
Y21041D1*
Y20441D2*
X45262Y20841D1*
Y20441D2*
X45512D1*
X45762D1*
G36*
X46012Y19791D2*
X45012D1*
Y19991D1*
X46012D1*
Y19791D1*
G37*
G36*
X45662Y21241D2*
X45362D1*
Y21991D1*
X45662D1*
Y21241D1*
G37*
G36*
Y18891D2*
X45362D1*
Y19641D1*
X45662D1*
Y18891D1*
G37*
X46012Y30131D2*
D18*
Y28531D1*
Y30131D2*
X45012D1*
Y28531D2*
Y30131D1*
Y28531D2*
X46012D1*
X45512Y31331D2*
D24*
Y30931D1*
Y27331D2*
Y27731D1*
Y29081D2*
D18*
Y29331D1*
X45262Y29731D2*
X45762D1*
X45512Y29331D1*
Y29931D1*
Y29331D2*
X45262Y29731D1*
Y29331D2*
X45512D1*
X45762D1*
G36*
X46012Y28680D2*
X45012D1*
Y28881D1*
X46012D1*
Y28680D1*
G37*
G36*
X45662Y30131D2*
X45362D1*
Y30881D1*
X45662D1*
Y30131D1*
G37*
G36*
Y27781D2*
X45362D1*
Y28531D1*
X45662D1*
Y27781D1*
G37*
X46012Y39383D2*
D18*
Y37783D1*
Y39383D2*
X45012D1*
Y37783D2*
Y39383D1*
Y37783D2*
X46012D1*
X45512Y40583D2*
D24*
Y40183D1*
Y36583D2*
Y36983D1*
Y38333D2*
D18*
Y38583D1*
X45262Y38983D2*
X45762D1*
X45512Y38583D1*
Y39183D1*
Y38583D2*
X45262Y38983D1*
Y38583D2*
X45512D1*
X45762D1*
G36*
X46012Y37932D2*
X45012D1*
Y38133D1*
X46012D1*
Y37932D1*
G37*
G36*
X45662Y39383D2*
X45362D1*
Y40133D1*
X45662D1*
Y39383D1*
G37*
G36*
Y37033D2*
X45362D1*
Y37783D1*
X45662D1*
Y37033D1*
G37*
X40314Y36839D2*
D10*
X41812D1*
X40311Y36836D2*
G03X41815Y36836I752J-998D01*
G01*
X23350Y9948D2*
D18*
X27350D1*
Y12249D2*
X23350D1*
Y9948D2*
Y12249D1*
X27350Y9948D2*
Y10698D1*
Y12249D2*
Y11498D1*
Y10698D2*
G02X27350Y11498I0J400D01*
G01*
X29870Y32297D2*
Y31797D1*
X29620Y31547D1*
X29120D1*
X28870Y31797D1*
X29620Y32547D2*
X29120D1*
X29870Y32297D2*
X29620Y32547D1*
X29120D2*
X28870Y32297D1*
Y31797D2*
Y32297D1*
X29620Y31547D2*
X29870Y31297D1*
Y30797D1*
X29620Y30547D1*
X29120D1*
X28870Y30797D1*
Y31297D1*
X29120Y31547D1*
G36*
X29270Y32147D2*
X29470D1*
Y31947D1*
X29270D1*
Y32147D1*
G37*
G36*
Y31147D2*
X29470D1*
Y30947D1*
X29270D1*
Y31147D1*
G37*
X30586Y38821D2*
D10*
X26586D1*
Y39821D1*
X30586D1*
Y38821D1*
X31580Y37026D2*
D18*
Y37526D1*
X31830Y37776D1*
X32330D1*
X32580Y37526D1*
X31830Y36776D2*
X32330D1*
X31580Y37026D2*
X31830Y36776D1*
X32330D2*
X32580Y37026D1*
Y37526D2*
Y37026D1*
X31830Y37776D2*
X31580Y38026D1*
Y38526D1*
X31830Y38776D1*
X32330D1*
X32580Y38526D1*
Y38026D1*
X32330Y37776D1*
G36*
X32180Y37176D2*
X31980D1*
Y37376D1*
X32180D1*
Y37176D1*
G37*
G36*
Y38176D2*
X31980D1*
Y38376D1*
X32180D1*
Y38176D1*
G37*
X28295Y32258D2*
D18*
Y31758D1*
X28045Y31508D1*
X27545D1*
X27295Y31758D1*
X28045Y32508D2*
X27545D1*
X28295Y32258D2*
X28045Y32508D1*
X27545D2*
X27295Y32258D1*
Y31758D2*
Y32258D1*
X28045Y31508D2*
X28295Y31258D1*
Y30758D1*
X28045Y30508D1*
X27545D1*
X27295Y30758D1*
Y31258D1*
X27545Y31508D1*
G36*
X27695Y32108D2*
X27895D1*
Y31908D1*
X27695D1*
Y32108D1*
G37*
G36*
Y31108D2*
X27895D1*
Y30908D1*
X27695D1*
Y31108D1*
G37*
X25872Y28713D2*
D18*
X25372D1*
X25122Y28963D1*
Y29463D1*
X25372Y29713D1*
X27122Y28963D2*
X26872Y28713D1*
X26372D1*
X26122Y28963D1*
Y29463D1*
X26372Y29713D1*
X26872D1*
X27122Y29463D1*
X25872Y28713D2*
X26122Y28963D1*
Y29463D2*
X25872Y29713D1*
X25372D2*
X25872D1*
X28872Y28713D2*
X28372D1*
X28122Y28963D1*
Y29463D1*
X28372Y29713D1*
X28122Y28963D2*
X27872Y28713D1*
X27372D1*
X27122Y28963D1*
Y29463D1*
X27372Y29713D1*
X27872D1*
X28122Y29463D1*
X29122Y28963D2*
Y29463D1*
X28872Y28713D2*
X29122Y28963D1*
Y29463D2*
X28872Y29713D1*
X28372D2*
X28872D1*
X24872Y28713D2*
X24372D1*
X24122Y28963D1*
Y29463D1*
X24372Y29713D1*
X24872Y28713D2*
X25122Y28963D1*
Y29463D2*
X24872Y29713D1*
X24372D2*
X24872D1*
G36*
X25722Y29313D2*
X25522D1*
Y29113D1*
X25722D1*
Y29313D1*
G37*
G36*
X26722D2*
X26522D1*
Y29113D1*
X26722D1*
Y29313D1*
G37*
G36*
X27722D2*
X27522D1*
Y29113D1*
X27722D1*
Y29313D1*
G37*
G36*
X28722D2*
X28522D1*
Y29113D1*
X28722D1*
Y29313D1*
G37*
G36*
X24722D2*
X24522D1*
Y29113D1*
X24722D1*
Y29313D1*
G37*
X17781Y35333D2*
D18*
X8881D1*
Y41833D2*
Y35333D1*
Y41833D2*
X17781D1*
Y35333D2*
Y41833D1*
X15031Y36233D2*
X14781D1*
Y38332D1*
D23*
X15281D1*
D18*
Y38833D1*
X14281D2*
D23*
Y38332D1*
X14781D1*
X15281Y38833D2*
X14781D1*
D18*
Y40932D1*
Y38833D2*
D23*
X14281D1*
X14781Y40932D2*
D18*
X15031D1*
X15281Y38833D2*
X14281Y38332D1*
X14032Y38583D2*
X11431D1*
D23*
X11181Y38332D1*
Y37112D2*
D18*
Y38332D1*
Y38833D2*
Y40063D1*
Y38332D2*
D23*
X11051Y38213D1*
X15931Y38583D2*
D18*
X15532D1*
X17781Y26081D2*
X8881D1*
Y32581D2*
Y26081D1*
Y32581D2*
X17781D1*
Y26081D2*
Y32581D1*
X15031Y26981D2*
X14781D1*
Y29080D1*
D23*
X15281D1*
D18*
Y29581D1*
X14281D2*
D23*
Y29080D1*
X14781D1*
X15281Y29581D2*
X14781D1*
D18*
Y31680D1*
Y29581D2*
D23*
X14281D1*
X14781Y31680D2*
D18*
X15031D1*
X15281Y29581D2*
X14281Y29080D1*
X14032Y29331D2*
X11431D1*
D23*
X11181Y29080D1*
Y27860D2*
D18*
Y29080D1*
Y29581D2*
Y30811D1*
Y29080D2*
D23*
X11051Y28961D1*
X15931Y29331D2*
D18*
X15532D1*
X17781Y17026D2*
X8881D1*
Y23526D2*
Y17026D1*
Y23526D2*
X17781D1*
Y17026D2*
Y23526D1*
X15031Y17926D2*
X14781D1*
Y20025D1*
D23*
X15281D1*
D18*
Y20526D1*
X14281D2*
D23*
Y20025D1*
X14781D1*
X15281Y20526D2*
X14781D1*
D18*
Y22625D1*
Y20526D2*
D23*
X14281D1*
X14781Y22625D2*
D18*
X15031D1*
X15281Y20526D2*
X14281Y20025D1*
X14032Y20276D2*
X11431D1*
D23*
X11181Y20025D1*
Y18805D2*
D18*
Y20025D1*
Y20526D2*
Y21756D1*
Y20025D2*
D23*
X11051Y19906D1*
X15931Y20276D2*
D18*
X15532D1*
X17781Y7970D2*
X8881D1*
Y14470D2*
Y7970D1*
Y14470D2*
X17781D1*
Y7970D2*
Y14470D1*
X15031Y8871D2*
X14781D1*
Y10970D1*
D23*
X15281D1*
D18*
Y11471D1*
X14281D2*
D23*
Y10970D1*
X14781D1*
X15281Y11471D2*
X14781D1*
D18*
Y13570D1*
Y11471D2*
D23*
X14281D1*
X14781Y13570D2*
D18*
X15031D1*
X15281Y11471D2*
X14281Y10970D1*
X14032Y11220D2*
X11431D1*
D23*
X11181Y10970D1*
Y9750D2*
D18*
Y10970D1*
Y11471D2*
Y12701D1*
Y10970D2*
D23*
X11051Y10851D1*
X15931Y11220D2*
D18*
X15532D1*
X46274Y14470D2*
X55174D1*
Y7970D2*
Y14470D1*
Y7970D2*
X46274D1*
Y14470D2*
Y7970D1*
X49024Y13570D2*
X49274D1*
Y11471D1*
D23*
X48774D1*
D18*
Y10970D1*
X49774D2*
D23*
Y11471D1*
X49274D1*
X48774Y10970D2*
X49274D1*
D18*
Y8871D1*
Y10970D2*
D23*
X49774D1*
X49274Y8871D2*
D18*
X49024D1*
X48774Y10970D2*
X49774Y11471D1*
X50023Y11220D2*
X52624D1*
D23*
X52874Y11471D1*
Y12691D2*
D18*
Y11471D1*
Y10970D2*
Y9740D1*
Y11471D2*
D23*
X53004Y11590D1*
X48124Y11220D2*
D18*
X48524D1*
X46274Y23526D2*
X55174D1*
Y17026D2*
Y23526D1*
Y17026D2*
X46274D1*
Y23526D2*
Y17026D1*
X49024Y22625D2*
X49274D1*
Y20526D1*
D23*
X48774D1*
D18*
Y20025D1*
X49774D2*
D23*
Y20526D1*
X49274D1*
X48774Y20025D2*
X49274D1*
D18*
Y17926D1*
Y20025D2*
D23*
X49774D1*
X49274Y17926D2*
D18*
X49024D1*
X48774Y20025D2*
X49774Y20526D1*
X50023Y20276D2*
X52624D1*
D23*
X52874Y20526D1*
Y21746D2*
D18*
Y20526D1*
Y20025D2*
Y18796D1*
Y20526D2*
D23*
X53004Y20645D1*
X48124Y20276D2*
D18*
X48524D1*
X46274Y32581D2*
X55174D1*
Y26081D2*
Y32581D1*
Y26081D2*
X46274D1*
Y32581D2*
Y26081D1*
X49024Y31680D2*
X49274D1*
Y29581D1*
D23*
X48774D1*
D18*
Y29080D1*
X49774D2*
D23*
Y29581D1*
X49274D1*
X48774Y29080D2*
X49274D1*
D18*
Y26981D1*
Y29080D2*
D23*
X49774D1*
X49274Y26981D2*
D18*
X49024D1*
X48774Y29080D2*
X49774Y29581D1*
X50023Y29331D2*
X52624D1*
D23*
X52874Y29581D1*
Y30801D2*
D18*
Y29581D1*
Y29080D2*
Y27851D1*
Y29581D2*
D23*
X53004Y29701D1*
X48124Y29331D2*
D18*
X48524D1*
X46274Y41833D2*
X55174D1*
Y35333D2*
Y41833D1*
Y35333D2*
X46274D1*
Y41833D2*
Y35333D1*
X49024Y40932D2*
X49274D1*
Y38833D1*
D23*
X48774D1*
D18*
Y38332D1*
X49774D2*
D23*
Y38833D1*
X49274D1*
X48774Y38332D2*
X49274D1*
D18*
Y36233D1*
Y38332D2*
D23*
X49774D1*
X49274Y36233D2*
D18*
X49024D1*
X48774Y38332D2*
X49774Y38833D1*
X50023Y38583D2*
X52624D1*
D23*
X52874Y38833D1*
Y40053D2*
D18*
Y38833D1*
Y38332D2*
Y37103D1*
Y38833D2*
D23*
X53004Y38953D1*
X48124Y38583D2*
D18*
X48524D1*
X37087Y26496D2*
D10*
G02X37087Y26496I2362J0D01*
G01*
X14772Y33055D2*
D18*
Y35055D1*
X12472D2*
Y33055D1*
X14772D2*
X12472D1*
X14772Y35055D2*
X14022D1*
X12472D2*
X13222D1*
X14022D2*
G02X13222Y35055I-400J0D01*
G01*
X14772Y23803D2*
Y25803D1*
X12472D2*
Y23803D1*
X14772D2*
X12472D1*
X14772Y25803D2*
X14022D1*
X12472D2*
X13222D1*
X14022D2*
G02X13222Y25803I-400J0D01*
G01*
X14772Y14748D2*
Y16748D1*
X12472D2*
Y14748D1*
X14772D2*
X12472D1*
X14772Y16748D2*
X14022D1*
X12472D2*
X13222D1*
X14022D2*
G02X13222Y16748I-400J0D01*
G01*
X14772Y5732D2*
Y7732D1*
X12472D2*
Y5732D1*
X14772D2*
X12472D1*
X14772Y7732D2*
X14022D1*
X12472D2*
X13222D1*
X14022D2*
G02X13222Y7732I-400J0D01*
G01*
X49086Y7693D2*
Y5693D1*
X51386D2*
Y7693D1*
X49086D2*
X51386D1*
X49086Y5693D2*
X49836D1*
X51386D2*
X50636D1*
X49836D2*
G02X50636Y5693I400J0D01*
G01*
X49086Y16748D2*
Y14748D1*
X51386D2*
Y16748D1*
X49086D2*
X51386D1*
X49086Y14748D2*
X49836D1*
X51386D2*
X50636D1*
X49836D2*
G02X50636Y14748I400J0D01*
G01*
X49086Y25803D2*
Y23803D1*
X51386D2*
Y25803D1*
X49086D2*
X51386D1*
X49086Y23803D2*
X49836D1*
X51386D2*
X50636D1*
X49836D2*
G02X50636Y23803I400J0D01*
G01*
X49086Y34858D2*
Y32858D1*
X51386D2*
Y34858D1*
X49086D2*
X51386D1*
X49086Y32858D2*
X49836D1*
X51386D2*
X50636D1*
X49836D2*
G02X50636Y32858I400J0D01*
G01*
X28362Y18642D2*
D20*
Y21342D1*
X26562D2*
Y18642D1*
Y21342D2*
G02X28362Y21342I900J0D01*
G01*
X26562Y18642D2*
G03X28362Y18642I900J0D01*
G01*
X19096Y34283D2*
D36*
X20746D1*
X18971Y35380D2*
G02X20871Y35380I950J-447D01*
G01*
X20369Y34883D2*
X19474D1*
X18971Y35380D2*
G03X18872Y34883I949J-447D01*
G01*
G03X18971Y34486I1056J52D01*
G01*
X19369Y34883D2*
X18872D1*
X18971Y34486D2*
G03X19096Y34283I942J443D01*
G01*
X19474Y34883D2*
X19369D1*
X20871Y34486D2*
G03X20970Y34883I-958J449D01*
G01*
G03X20871Y35380I-1048J50D01*
G01*
X20970Y34883D2*
X20474D1*
X20369D1*
X20746Y34283D2*
G03X20876Y34495I-815J644D01*
G01*
X19096Y25031D2*
X20746D1*
X18971Y26128D2*
G02X20871Y26128I950J-447D01*
G01*
X20369Y25631D2*
X19474D1*
X18971Y26128D2*
G03X18872Y25631I949J-447D01*
G01*
G03X18971Y25234I1056J52D01*
G01*
X19369Y25631D2*
X18872D1*
X18971Y25234D2*
G03X19096Y25031I942J443D01*
G01*
X19474Y25631D2*
X19369D1*
X20871Y25234D2*
G03X20970Y25631I-958J449D01*
G01*
G03X20871Y26128I-1048J50D01*
G01*
X20970Y25631D2*
X20474D1*
X20369D1*
X20746Y25031D2*
G03X20876Y25243I-815J644D01*
G01*
X19096Y15976D2*
X20746D1*
X18971Y17073D2*
G02X20871Y17073I950J-447D01*
G01*
X20369Y16576D2*
X19474D1*
X18971Y17073D2*
G03X18872Y16576I949J-447D01*
G01*
G03X18971Y16179I1056J52D01*
G01*
X19369Y16576D2*
X18872D1*
X18971Y16179D2*
G03X19096Y15976I942J443D01*
G01*
X19474Y16576D2*
X19369D1*
X20871Y16179D2*
G03X20970Y16576I-958J449D01*
G01*
G03X20871Y17073I-1048J50D01*
G01*
X20970Y16576D2*
X20474D1*
X20369D1*
X20746Y15976D2*
G03X20876Y16188I-815J644D01*
G01*
X19096Y6921D2*
X20746D1*
X18971Y8018D2*
G02X20871Y8018I950J-447D01*
G01*
X20369Y7521D2*
X19474D1*
X18971Y8018D2*
G03X18872Y7521I949J-447D01*
G01*
G03X18971Y7124I1056J52D01*
G01*
X19369Y7521D2*
X18872D1*
X18971Y7124D2*
G03X19096Y6921I942J443D01*
G01*
X19474Y7521D2*
X19369D1*
X20871Y7124D2*
G03X20970Y7521I-958J449D01*
G01*
G03X20871Y8018I-1048J50D01*
G01*
X20970Y7521D2*
X20474D1*
X20369D1*
X20746Y6921D2*
G03X20876Y7133I-815J644D01*
G01*
X44762Y14733D2*
X43112D1*
X44887Y13635D2*
G02X42987Y13635I-950J447D01*
G01*
X43490Y14133D2*
X44384D1*
X44887Y13635D2*
G03X44986Y14133I-949J447D01*
G01*
G03X44887Y14530I-1056J-52D01*
G01*
X44490Y14133D2*
X44986D1*
X44887Y14530D2*
G03X44762Y14733I-942J-443D01*
G01*
X44384Y14133D2*
X44490D1*
X42987Y14530D2*
G03X42888Y14133I958J-449D01*
G01*
G03X42987Y13635I1048J-50D01*
G01*
X42888Y14133D2*
X43384D1*
X43490D1*
X43112Y14733D2*
G03X42982Y14520I815J-644D01*
G01*
X44762Y23985D2*
X43112D1*
X44887Y22887D2*
G02X42987Y22887I-950J447D01*
G01*
X43490Y23385D2*
X44384D1*
X44887Y22887D2*
G03X44986Y23385I-949J447D01*
G01*
G03X44887Y23782I-1056J-52D01*
G01*
X44490Y23385D2*
X44986D1*
X44887Y23782D2*
G03X44762Y23985I-942J-443D01*
G01*
X44384Y23385D2*
X44490D1*
X42987Y23782D2*
G03X42888Y23385I958J-449D01*
G01*
G03X42987Y22887I1048J-50D01*
G01*
X42888Y23385D2*
X43384D1*
X43490D1*
X43112Y23985D2*
G03X42982Y23772I815J-644D01*
G01*
X44762Y32843D2*
X43112D1*
X44887Y31746D2*
G02X42987Y31746I-950J447D01*
G01*
X43490Y32243D2*
X44384D1*
X44887Y31746D2*
G03X44986Y32243I-949J447D01*
G01*
G03X44887Y32640I-1056J-52D01*
G01*
X44490Y32243D2*
X44986D1*
X44887Y32640D2*
G03X44762Y32843I-942J-443D01*
G01*
X44384Y32243D2*
X44490D1*
X42987Y32640D2*
G03X42888Y32243I958J-449D01*
G01*
G03X42987Y31746I1048J-50D01*
G01*
X42888Y32243D2*
X43384D1*
X43490D1*
X43112Y32843D2*
G03X42982Y32631I815J-644D01*
G01*
X44762Y41898D2*
X43112D1*
X44887Y40801D2*
G02X42987Y40801I-950J447D01*
G01*
X43490Y41298D2*
X44384D1*
X44887Y40801D2*
G03X44986Y41298I-949J447D01*
G01*
G03X44887Y41695I-1056J-52D01*
G01*
X44490Y41298D2*
X44986D1*
X44887Y41695D2*
G03X44762Y41898I-942J-443D01*
G01*
X44384Y41298D2*
X44490D1*
X42987Y41695D2*
G03X42888Y41298I958J-449D01*
G01*
G03X42987Y40801I1048J-50D01*
G01*
X42888Y41298D2*
X43384D1*
X43490D1*
X43112Y41898D2*
G03X42982Y41686I815J-644D01*
G01*
X28835Y12873D2*
D10*
X32929D1*
X28835Y13465D2*
X32929D1*
X28835Y11654D2*
X32929D1*
X28835D2*
Y13465D1*
X32929Y11654D2*
Y13465D1*
X19224Y37978D2*
Y39975D1*
X20224D2*
X19224D1*
X20224Y37978D2*
Y39975D1*
Y37978D2*
X19224D1*
X7309Y35146D2*
X9305D1*
Y34146D2*
Y35146D1*
X7309Y34146D2*
X9305D1*
X7309D2*
Y35146D1*
X22886Y24640D2*
Y26636D1*
X23886D2*
X22886D1*
X23886Y24640D2*
Y26636D1*
Y24640D2*
X22886D1*
X35366Y32746D2*
Y34742D1*
X36366D2*
X35366D1*
X36366Y32746D2*
Y34742D1*
Y32746D2*
X35366D1*
X19224Y28726D2*
Y30723D1*
X20224D2*
X19224D1*
X20224Y28726D2*
Y30723D1*
Y28726D2*
X19224D1*
X7309Y25894D2*
X9305D1*
Y24894D2*
Y25894D1*
X7309Y24894D2*
X9305D1*
X7309D2*
Y25894D1*
X19224Y19553D2*
Y21549D1*
X20224D2*
X19224D1*
X20224Y19553D2*
Y21549D1*
Y19553D2*
X19224D1*
X7309Y16839D2*
X9305D1*
Y15839D2*
Y16839D1*
X7309Y15839D2*
X9305D1*
X7309D2*
Y16839D1*
X19224Y10537D2*
Y12534D1*
X20224D2*
X19224D1*
X20224Y10537D2*
Y12534D1*
Y10537D2*
X19224D1*
X7309Y7283D2*
X9305D1*
Y6283D2*
Y7283D1*
X7309Y6283D2*
X9305D1*
X7309D2*
Y7283D1*
X35382Y34742D2*
Y32746D1*
X34382D2*
X35382D1*
X34382Y34742D2*
Y32746D1*
Y34742D2*
X35382D1*
X37368Y38807D2*
X35372D1*
Y39807D2*
Y38807D1*
X37368Y39807D2*
X35372D1*
X37368D2*
Y38807D1*
X44831Y9955D2*
Y7959D1*
X43831D2*
X44831D1*
X43831Y9955D2*
Y7959D1*
Y9955D2*
X44831D1*
X56746Y5799D2*
X54750D1*
Y6799D2*
Y5799D1*
X56746Y6799D2*
X54750D1*
X56746D2*
Y5799D1*
X44831Y19207D2*
Y17210D1*
X43831D2*
X44831D1*
X43831Y19207D2*
Y17210D1*
Y19207D2*
X44831D1*
X56746Y14657D2*
X54750D1*
Y15657D2*
Y14657D1*
X56746Y15657D2*
X54750D1*
X56746D2*
Y14657D1*
X44831Y28065D2*
Y26069D1*
X43831D2*
X44831D1*
X43831Y28065D2*
Y26069D1*
Y28065D2*
X44831D1*
X56746Y23713D2*
X54750D1*
Y24713D2*
Y23713D1*
X56746Y24713D2*
X54750D1*
X56746D2*
Y23713D1*
X44831Y37120D2*
Y35124D1*
X43831D2*
X44831D1*
X43831Y37120D2*
Y35124D1*
Y37120D2*
X44831D1*
X56746Y32768D2*
X54750D1*
Y33768D2*
Y32768D1*
X56746Y33768D2*
X54750D1*
X56746D2*
Y32768D1*
X27689Y8813D2*
Y10809D1*
X28689D2*
X27689D1*
X28689Y8813D2*
Y10809D1*
Y8813D2*
X27689D1*
X23122Y10837D2*
Y8840D1*
X22122D2*
X23122D1*
X22122Y10837D2*
Y8840D1*
Y10837D2*
X23122D1*
X26345Y13358D2*
X24348D1*
Y14358D2*
Y13358D1*
X26345Y14358D2*
X24348D1*
X26345D2*
Y13358D1*
X30248Y33096D2*
Y35093D1*
X31248D2*
X30248D1*
X31248Y33096D2*
Y35093D1*
Y33096D2*
X30248D1*
X25130Y33175D2*
Y35171D1*
X26130D2*
X25130D1*
X26130Y33175D2*
Y35171D1*
Y33175D2*
X25130D1*
X31232Y33096D2*
Y35093D1*
X32232D2*
X31232D1*
X32232Y33096D2*
Y35093D1*
Y33096D2*
X31232D1*
X26114Y33175D2*
Y35171D1*
X27114D2*
X26114D1*
X27114Y33175D2*
Y35171D1*
Y33175D2*
X26114D1*
X36350Y32746D2*
Y34742D1*
X37350D2*
X36350D1*
X37350Y32746D2*
Y34742D1*
Y32746D2*
X36350D1*
X37335D2*
Y34742D1*
X38335D2*
X37335D1*
X38335Y32746D2*
Y34742D1*
Y32746D2*
X37335D1*
X20406Y37978D2*
Y39975D1*
X21406D2*
X20406D1*
X21406Y37978D2*
Y39975D1*
Y37978D2*
X20406D1*
Y28726D2*
Y30723D1*
X21406D2*
X20406D1*
X21406Y28726D2*
Y30723D1*
Y28726D2*
X20406D1*
Y19553D2*
Y21549D1*
X21406D2*
X20406D1*
X21406Y19553D2*
Y21549D1*
Y19553D2*
X20406D1*
Y10537D2*
Y12534D1*
X21406D2*
X20406D1*
X21406Y10537D2*
Y12534D1*
Y10537D2*
X20406D1*
X42846Y7959D2*
Y9955D1*
X43846D2*
X42846D1*
X43846Y7959D2*
Y9955D1*
Y7959D2*
X42846D1*
Y17210D2*
Y19207D1*
X43846D2*
X42846D1*
X43846Y17210D2*
Y19207D1*
Y17210D2*
X42846D1*
Y26069D2*
Y28065D1*
X43846D2*
X42846D1*
X43846Y26069D2*
Y28065D1*
Y26069D2*
X42846D1*
Y35124D2*
Y37120D1*
X43846D2*
X42846D1*
X43846Y35124D2*
Y37120D1*
Y35124D2*
X42846D1*
X34594Y29691D2*
Y27695D1*
X33594D2*
X34594D1*
X33594Y29691D2*
Y27695D1*
Y29691D2*
X34594D1*
X25703Y24315D2*
D18*
Y24415D1*
Y24315D2*
X26303D1*
Y24415D2*
Y24315D1*
X26403Y24415D2*
X27003D1*
X26303Y26914D2*
Y26814D1*
Y26914D2*
X25703D1*
Y26814D2*
Y26914D1*
X27003Y24415D2*
X27203Y24614D1*
X24803D2*
X25003Y24415D1*
X25604D1*
X27203Y26615D2*
X27003Y26814D1*
X26403D1*
X24803Y26615D2*
X25003Y26814D1*
X25604D1*
X26503Y26114D2*
D37*
X25503D1*
Y25114D2*
Y26114D1*
Y25114D2*
X26503D1*
Y26114D2*
Y25114D1*
X27203Y26114D2*
X27104D1*
Y25114D2*
Y26114D1*
Y25114D2*
X27203D1*
X24903Y25164D2*
Y26114D1*
Y25164D2*
X24803D1*
X24903Y26114D2*
X24803D1*
Y24614D2*
D18*
Y24764D1*
Y26615D2*
Y26465D1*
Y26114D1*
X27203Y26615D2*
Y26465D1*
Y24614D2*
Y24764D1*
Y25114D1*
Y26114D1*
Y26465D1*
X24803Y26114D2*
Y25164D1*
Y24764D1*
X25703Y24415D2*
X25604D1*
X26303D2*
X26403D1*
X25703Y26814D2*
X25604D1*
X26303D2*
X26403D1*
X25154Y26114D2*
Y25114D1*
X26904D2*
Y26114D1*
X26503Y26565D2*
X26203D1*
X25804D2*
X25503D1*
X26203D2*
X25853Y26465D1*
X25303Y25614D2*
G02X25303Y25614I700J0D01*
G01*
X24954Y26465D2*
G02X24954Y26465I200J0D01*
G01*
X25003Y24764D2*
G02X25003Y24764I200J0D01*
G01*
X26653D2*
G02X26653Y24764I200J0D01*
G01*
Y26465D2*
G02X26653Y26465I200J0D01*
G01*
X25753Y25614D2*
D37*
G02X25753Y25614I250J0D01*
G01*
X25903D2*
D18*
G02X25903Y25614I100J0D01*
G01*
X29589Y36595D2*
D36*
X27939D1*
X29714Y35498D2*
G02X27814Y35498I-950J447D01*
G01*
X28316Y35995D2*
X29211D1*
X29714Y35498D2*
G03X29813Y35995I-949J447D01*
G01*
G03X29714Y36392I-1056J-52D01*
G01*
X29316Y35995D2*
X29813D1*
X29714Y36392D2*
G03X29589Y36595I-942J-443D01*
G01*
X29211Y35995D2*
X29316D1*
X27814Y36392D2*
G03X27715Y35995I958J-449D01*
G01*
G03X27814Y35498I1048J-50D01*
G01*
X27715Y35995D2*
X28211D1*
X28316D1*
X27939Y36595D2*
G03X27809Y36383I815J-644D01*
G01*
X29589Y34430D2*
X27939D1*
X29714Y33332D2*
G02X27814Y33332I-950J447D01*
G01*
X28316Y33830D2*
X29211D1*
X29714Y33332D2*
G03X29813Y33830I-949J447D01*
G01*
G03X29714Y34227I-1056J-52D01*
G01*
X29316Y33830D2*
X29813D1*
X29714Y34227D2*
G03X29589Y34430I-942J-443D01*
G01*
X29211Y33830D2*
X29316D1*
X27814Y34227D2*
G03X27715Y33830I958J-449D01*
G01*
G03X27814Y33332I1048J-50D01*
G01*
X27715Y33830D2*
X28211D1*
X28316D1*
X27939Y34430D2*
G03X27809Y34217I815J-644D01*
G01*
X30567Y28059D2*
D20*
X29867D1*
X30567D2*
G03X31567Y28059I500J0D01*
G01*
X29867Y14059D2*
X32267D1*
Y28059D2*
X31567D1*
X32267D2*
Y27960D1*
X29867Y28059D2*
Y27960D1*
Y14059D2*
Y14158D1*
X32267Y14059D2*
Y14158D1*
X38976Y29357D2*
D10*
X33465D1*
Y38806D1*
X38976D1*
Y29357D1*
X35039Y31719D2*
X37795D1*
Y29751D1*
X37402D1*
Y30932D1*
X37008D1*
Y29751D1*
X36614D1*
Y30932D1*
X36220D1*
Y29751D1*
X35827D1*
Y30932D1*
X35433D1*
Y29751D1*
X33858D1*
X42650Y5327D2*
D36*
X33594D1*
Y20287D1*
X42650D1*
Y5327D1*
X6435Y36971D2*
D23*
X7205Y36261D1*
X6405Y38942D2*
X7205Y38191D1*
X6415Y40941D2*
X7205Y40151D1*
X5165Y41531D2*
D18*
Y35631D1*
X8785D2*
X8705D1*
X8785D2*
Y41531D1*
X5165D2*
X6105D1*
Y40901D1*
Y40201D1*
Y38931D1*
Y38231D2*
Y36961D1*
Y36261D2*
Y35631D1*
Y41531D2*
X8705D1*
X6105Y35631D2*
X5165D1*
X8705D2*
Y41531D1*
Y35631D2*
X6105D1*
X8705Y41531D2*
X8785D1*
X6105Y38931D2*
Y38231D1*
Y36961D2*
Y36261D1*
X6225Y40551D2*
G02X6225Y40551I590J0D01*
G01*
Y36611D2*
G02X6225Y36611I590J0D01*
G01*
X7985Y40551D2*
G02X7985Y40551I200J0D01*
G01*
Y36611D2*
G02X7985Y36611I200J0D01*
G01*
X6225Y38581D2*
G02X6225Y38581I590J0D01*
G01*
X7985D2*
G02X7985Y38581I200J0D01*
G01*
X6435Y27719D2*
D23*
X7205Y27009D1*
X6405Y29690D2*
X7205Y28939D1*
X6415Y31689D2*
X7205Y30899D1*
X5165Y32279D2*
D18*
Y26379D1*
X8785D2*
X8705D1*
X8785D2*
Y32279D1*
X5165D2*
X6105D1*
Y31649D1*
Y30949D1*
Y29679D1*
Y28979D2*
Y27709D1*
Y27009D2*
Y26379D1*
Y32279D2*
X8705D1*
X6105Y26379D2*
X5165D1*
X8705D2*
Y32279D1*
Y26379D2*
X6105D1*
X8705Y32279D2*
X8785D1*
X6105Y29679D2*
Y28979D1*
Y27709D2*
Y27009D1*
X6225Y31299D2*
G02X6225Y31299I590J0D01*
G01*
Y27359D2*
G02X6225Y27359I590J0D01*
G01*
X7985Y31299D2*
G02X7985Y31299I200J0D01*
G01*
Y27359D2*
G02X7985Y27359I200J0D01*
G01*
X6225Y29329D2*
G02X6225Y29329I590J0D01*
G01*
X7985D2*
G02X7985Y29329I200J0D01*
G01*
X6435Y18664D2*
D23*
X7205Y17954D1*
X6405Y20635D2*
X7205Y19884D1*
X6415Y22634D2*
X7205Y21844D1*
X5165Y23224D2*
D18*
Y17324D1*
X8785D2*
X8705D1*
X8785D2*
Y23224D1*
X5165D2*
X6105D1*
Y22594D1*
Y21894D1*
Y20624D1*
Y19924D2*
Y18654D1*
Y17954D2*
Y17324D1*
Y23224D2*
X8705D1*
X6105Y17324D2*
X5165D1*
X8705D2*
Y23224D1*
Y17324D2*
X6105D1*
X8705Y23224D2*
X8785D1*
X6105Y20624D2*
Y19924D1*
Y18654D2*
Y17954D1*
X6225Y22244D2*
G02X6225Y22244I590J0D01*
G01*
Y18304D2*
G02X6225Y18304I590J0D01*
G01*
X7985Y22244D2*
G02X7985Y22244I200J0D01*
G01*
Y18304D2*
G02X7985Y18304I200J0D01*
G01*
X6225Y20274D2*
G02X6225Y20274I590J0D01*
G01*
X7985D2*
G02X7985Y20274I200J0D01*
G01*
X6435Y9609D2*
D23*
X7205Y8899D1*
X6405Y11579D2*
X7205Y10829D1*
X6415Y13579D2*
X7205Y12789D1*
X5165Y14169D2*
D18*
Y8269D1*
X8785D2*
X8705D1*
X8785D2*
Y14169D1*
X5165D2*
X6105D1*
Y13539D1*
Y12839D1*
Y11569D1*
Y10869D2*
Y9599D1*
Y8899D2*
Y8269D1*
Y14169D2*
X8705D1*
X6105Y8269D2*
X5165D1*
X8705D2*
Y14169D1*
Y8269D2*
X6105D1*
X8705Y14169D2*
X8785D1*
X6105Y11569D2*
Y10869D1*
Y9599D2*
Y8899D1*
X6225Y13189D2*
G02X6225Y13189I590J0D01*
G01*
Y9249D2*
G02X6225Y9249I590J0D01*
G01*
X7985Y13189D2*
G02X7985Y13189I200J0D01*
G01*
Y9249D2*
G02X7985Y9249I200J0D01*
G01*
X6225Y11219D2*
G02X6225Y11219I590J0D01*
G01*
X7985D2*
G02X7985Y11219I200J0D01*
G01*
X57620Y12832D2*
D23*
X56850Y13542D1*
X57650Y10862D2*
X56850Y11612D1*
X57640Y8862D2*
X56850Y9652D1*
X58890Y8272D2*
D18*
Y14172D1*
X55270D2*
X55350D1*
X55270D2*
Y8272D1*
X58890D2*
X57950D1*
Y8902D1*
Y9602D1*
Y10872D1*
Y11572D2*
Y12842D1*
Y13542D2*
Y14172D1*
Y8272D2*
X55350D1*
X57950Y14172D2*
X58890D1*
X55350D2*
Y8272D1*
Y14172D2*
X57950D1*
X55350Y8272D2*
X55270D1*
X57950Y10872D2*
Y11572D1*
Y12842D2*
Y13542D1*
X56650Y9252D2*
G02X56650Y9252I590J0D01*
G01*
Y13192D2*
G02X56650Y13192I590J0D01*
G01*
X55670Y9252D2*
G02X55670Y9252I200J0D01*
G01*
Y13192D2*
G02X55670Y13192I200J0D01*
G01*
X56650Y11222D2*
G02X56650Y11222I590J0D01*
G01*
X55670D2*
G02X55670Y11222I200J0D01*
G01*
X57620Y21882D2*
D23*
X56850Y22592D1*
X57650Y19911D2*
X56850Y20662D1*
X57640Y17912D2*
X56850Y18702D1*
X58890Y17322D2*
D18*
Y23222D1*
X55270D2*
X55350D1*
X55270D2*
Y17322D1*
X58890D2*
X57950D1*
Y17952D1*
Y18652D1*
Y19922D1*
Y20622D2*
Y21892D1*
Y22592D2*
Y23222D1*
Y17322D2*
X55350D1*
X57950Y23222D2*
X58890D1*
X55350D2*
Y17322D1*
Y23222D2*
X57950D1*
X55350Y17322D2*
X55270D1*
X57950Y19922D2*
Y20622D1*
Y21892D2*
Y22592D1*
X56650Y18302D2*
G02X56650Y18302I590J0D01*
G01*
Y22242D2*
G02X56650Y22242I590J0D01*
G01*
X55670Y18302D2*
G02X55670Y18302I200J0D01*
G01*
Y22242D2*
G02X55670Y22242I200J0D01*
G01*
X56650Y20272D2*
G02X56650Y20272I590J0D01*
G01*
X55670D2*
G02X55670Y20272I200J0D01*
G01*
X57620Y30931D2*
D23*
X56850Y31641D1*
X57650Y28961D2*
X56850Y29711D1*
X57640Y26961D2*
X56850Y27751D1*
X58890Y26371D2*
D18*
Y32271D1*
X55270D2*
X55350D1*
X55270D2*
Y26371D1*
X58890D2*
X57950D1*
Y27001D1*
Y27701D1*
Y28971D1*
Y29671D2*
Y30941D1*
Y31641D2*
Y32271D1*
Y26371D2*
X55350D1*
X57950Y32271D2*
X58890D1*
X55350D2*
Y26371D1*
Y32271D2*
X57950D1*
X55350Y26371D2*
X55270D1*
X57950Y28971D2*
Y29671D1*
Y30941D2*
Y31641D1*
X56650Y27351D2*
G02X56650Y27351I590J0D01*
G01*
Y31291D2*
G02X56650Y31291I590J0D01*
G01*
X55670Y27351D2*
G02X55670Y27351I200J0D01*
G01*
Y31291D2*
G02X55670Y31291I200J0D01*
G01*
X56650Y29321D2*
G02X56650Y29321I590J0D01*
G01*
X55670D2*
G02X55670Y29321I200J0D01*
G01*
X57620Y40194D2*
D23*
X56850Y40904D1*
X57650Y38224D2*
X56850Y38974D1*
X57640Y36224D2*
X56850Y37014D1*
X58890Y35634D2*
D18*
Y41534D1*
X55270D2*
X55350D1*
X55270D2*
Y35634D1*
X58890D2*
X57950D1*
Y36264D1*
Y36964D1*
Y38234D1*
Y38934D2*
Y40204D1*
Y40904D2*
Y41534D1*
Y35634D2*
X55350D1*
X57950Y41534D2*
X58890D1*
X55350D2*
Y35634D1*
Y41534D2*
X57950D1*
X55350Y35634D2*
X55270D1*
X57950Y38234D2*
Y38934D1*
Y40204D2*
Y40904D1*
X56650Y36614D2*
G02X56650Y36614I590J0D01*
G01*
Y40554D2*
G02X56650Y40554I590J0D01*
G01*
X55670Y36614D2*
G02X55670Y36614I200J0D01*
G01*
Y40554D2*
G02X55670Y40554I200J0D01*
G01*
X56650Y38584D2*
G02X56650Y38584I590J0D01*
G01*
X55670D2*
G02X55670Y38584I200J0D01*
G01*
X30240Y6569D2*
D23*
X31030Y7359D1*
X32200Y6578D2*
X32980Y7369D1*
X29650Y5319D2*
D18*
X33580D1*
Y8939D2*
Y8859D1*
Y8939D2*
X29650D1*
Y5319D2*
Y6259D1*
X30280D1*
X30980D1*
X32250D1*
X32950D2*
X33580D1*
X29650D2*
Y8859D1*
X33580Y6259D2*
Y5319D1*
X29650Y8859D2*
X33580D1*
X29650D2*
Y8939D1*
X33580Y8859D2*
Y6259D1*
X32250D2*
X32950D1*
X30040Y6969D2*
G02X30040Y6969I590J0D01*
G01*
X30430Y8339D2*
G02X30430Y8339I200J0D01*
G01*
X32010Y6969D2*
G02X32010Y6969I590J0D01*
G01*
X32400Y8339D2*
G02X32400Y8339I200J0D01*
G01*
X97490Y77501D2*
D10*
Y78900D1*
X96290Y77501D2*
Y78900D1*
X97490D2*
G03X96290Y78900I-600J1D01*
G01*
Y77501D2*
G03X97490Y77501I600J-1D01*
G01*
X97008Y77138D2*
X96772D1*
X96890Y77020D2*
Y77256D1*
X97429Y62324D2*
D18*
Y62174D1*
X97279D2*
X97429D1*
Y62024D1*
Y62174D2*
X97579D1*
X96929D2*
Y61824D1*
X96429D1*
Y61624D1*
X97429D1*
Y61824D1*
X96929D1*
Y61274D2*
Y60874D1*
X95829Y61524D2*
G02X95829Y61524I1100J0D01*
G01*
G36*
X96429Y61424D2*
X97429D1*
Y61224D1*
X96429D1*
Y61424D1*
G37*
X82634Y59850D2*
D20*
X83134D1*
X93740Y61655D2*
D18*
Y61555D1*
X93290D1*
Y61305D1*
X94190D1*
Y61555D1*
X93740D1*
Y60955D2*
Y60755D1*
X94540Y62505D2*
X94240D1*
X94390Y62655D2*
Y62355D1*
X93740Y60755D2*
Y60555D1*
Y61855D2*
Y61655D1*
X91990Y61205D2*
G02X91990Y61205I1750J0D01*
G01*
G36*
X93290Y61105D2*
X94190D1*
Y60855D1*
X93290D1*
Y61105D1*
G37*
X83134Y57725D2*
D20*
X82634D1*
X80398Y46957D2*
D18*
X82098D1*
Y45957D2*
X80398D1*
X82198Y46857D2*
Y46057D1*
X80298Y46857D2*
Y46057D1*
X82098Y46957D2*
G02X82198Y46857I0J-100D01*
G01*
X80298D2*
G02X80398Y46957I100J0D01*
G01*
X82098Y45957D2*
G03X82198Y46057I0J100D01*
G01*
X80298D2*
G03X80398Y45957I100J0D01*
G01*
X81548Y46457D2*
X81398D1*
X81348D1*
D23*
Y46757D1*
Y46457D2*
Y46157D1*
X81148Y46757D2*
Y46457D1*
Y46157D1*
Y46457D2*
D18*
X81098D1*
X80948D1*
X81810Y54831D2*
X81960D1*
Y54681D2*
Y54831D1*
X82110D1*
X81960D2*
Y54981D1*
Y54331D2*
X82310D1*
Y53831D1*
X82510D1*
Y54831D1*
X82310D1*
Y54331D1*
X82860D2*
X83260D1*
X81510D2*
G02X81510Y54331I1100J0D01*
G01*
G36*
X82710Y53831D2*
X82910D1*
Y54831D1*
X82710D1*
Y53831D1*
G37*
X82692Y46917D2*
D18*
X82842D1*
Y46767D2*
Y46917D1*
X82992D1*
X82842D2*
Y47067D1*
Y46417D2*
X83192D1*
Y45917D1*
X83392D1*
Y46917D1*
X83192D1*
Y46417D1*
X83742D2*
X84142D1*
X82392D2*
G02X82392Y46417I1100J0D01*
G01*
G36*
X83592Y45917D2*
X83792D1*
Y46917D1*
X83592D1*
Y45917D1*
G37*
X75130Y76365D2*
D18*
Y77966D1*
Y76365D2*
X76130D1*
Y77966D2*
Y76365D1*
Y77966D2*
X75130D1*
X75630Y75165D2*
D24*
Y75566D1*
Y79166D2*
Y78765D1*
Y77415D2*
D18*
Y77165D1*
X75880Y76766D2*
X75380D1*
X75630Y77165D1*
Y76565D1*
Y77165D2*
X75880Y76766D1*
Y77165D2*
X75630D1*
X75380D1*
G36*
X75130Y77816D2*
X76130D1*
Y77615D1*
X75130D1*
Y77816D1*
G37*
G36*
X75480Y76365D2*
X75780D1*
Y75615D1*
X75480D1*
Y76365D1*
G37*
G36*
Y78715D2*
X75780D1*
Y77966D1*
X75480D1*
Y78715D1*
G37*
X75130Y67113D2*
D18*
Y68714D1*
Y67113D2*
X76130D1*
Y68714D2*
Y67113D1*
Y68714D2*
X75130D1*
X75630Y65913D2*
D24*
Y66314D1*
Y69914D2*
Y69513D1*
Y68163D2*
D18*
Y67913D1*
X75880Y67514D2*
X75380D1*
X75630Y67913D1*
Y67313D1*
Y67913D2*
X75880Y67514D1*
Y67913D2*
X75630D1*
X75380D1*
G36*
X75130Y68564D2*
X76130D1*
Y68363D1*
X75130D1*
Y68564D1*
G37*
G36*
X75480Y67113D2*
X75780D1*
Y66364D1*
X75480D1*
Y67113D1*
G37*
G36*
Y69463D2*
X75780D1*
Y68714D1*
X75480D1*
Y69463D1*
G37*
X75130Y58058D2*
D18*
Y59658D1*
Y58058D2*
X76130D1*
Y59658D2*
Y58058D1*
Y59658D2*
X75130D1*
X75630Y56858D2*
D24*
Y57258D1*
Y60858D2*
Y60458D1*
Y59108D2*
D18*
Y58858D1*
X75880Y58458D2*
X75380D1*
X75630Y58858D1*
Y58258D1*
Y58858D2*
X75880Y58458D1*
Y58858D2*
X75630D1*
X75380D1*
G36*
X75130Y59508D2*
X76130D1*
Y59308D1*
X75130D1*
Y59508D1*
G37*
G36*
X75480Y58058D2*
X75780D1*
Y57308D1*
X75480D1*
Y58058D1*
G37*
G36*
Y60408D2*
X75780D1*
Y59658D1*
X75480D1*
Y60408D1*
G37*
X75130Y49003D2*
D18*
Y50603D1*
Y49003D2*
X76130D1*
Y50603D2*
Y49003D1*
Y50603D2*
X75130D1*
X75630Y47803D2*
D24*
Y48203D1*
Y51803D2*
Y51403D1*
Y50053D2*
D18*
Y49803D1*
X75880Y49403D2*
X75380D1*
X75630Y49803D1*
Y49203D1*
Y49803D2*
X75880Y49403D1*
Y49803D2*
X75630D1*
X75380D1*
G36*
X75130Y50453D2*
X76130D1*
Y50253D1*
X75130D1*
Y50453D1*
G37*
G36*
X75480Y49003D2*
X75780D1*
Y48253D1*
X75480D1*
Y49003D1*
G37*
G36*
Y51353D2*
X75780D1*
Y50603D1*
X75480D1*
Y51353D1*
G37*
X103098Y50572D2*
D18*
Y48971D1*
Y50572D2*
X102098D1*
Y48971D2*
Y50572D1*
Y48971D2*
X103098D1*
X102598Y51772D2*
D24*
Y51371D1*
Y47772D2*
Y48172D1*
Y49522D2*
D18*
Y49772D1*
X102348Y50171D2*
X102848D1*
X102598Y49772D1*
Y50372D1*
Y49772D2*
X102348Y50171D1*
Y49772D2*
X102598D1*
X102848D1*
G36*
X103098Y49121D2*
X102098D1*
Y49322D1*
X103098D1*
Y49121D1*
G37*
G36*
X102748Y50572D2*
X102448D1*
Y51322D1*
X102748D1*
Y50572D1*
G37*
G36*
Y48222D2*
X102448D1*
Y48971D1*
X102748D1*
Y48222D1*
G37*
X103098Y59824D2*
D18*
Y58223D1*
Y59824D2*
X102098D1*
Y58223D2*
Y59824D1*
Y58223D2*
X103098D1*
X102598Y61024D2*
D24*
Y60623D1*
Y57023D2*
Y57424D1*
Y58774D2*
D18*
Y59024D1*
X102348Y59423D2*
X102848D1*
X102598Y59024D1*
Y59624D1*
Y59024D2*
X102348Y59423D1*
Y59024D2*
X102598D1*
X102848D1*
G36*
X103098Y58373D2*
X102098D1*
Y58574D1*
X103098D1*
Y58373D1*
G37*
G36*
X102748Y59824D2*
X102448D1*
Y60573D1*
X102748D1*
Y59824D1*
G37*
G36*
Y57474D2*
X102448D1*
Y58223D1*
X102748D1*
Y57474D1*
G37*
X103098Y68714D2*
D18*
Y67113D1*
Y68714D2*
X102098D1*
Y67113D2*
Y68714D1*
Y67113D2*
X103098D1*
X102598Y69914D2*
D24*
Y69513D1*
Y65913D2*
Y66314D1*
Y67663D2*
D18*
Y67913D1*
X102348Y68313D2*
X102848D1*
X102598Y67913D1*
Y68514D1*
Y67913D2*
X102348Y68313D1*
Y67913D2*
X102598D1*
X102848D1*
G36*
X103098Y67263D2*
X102098D1*
Y67464D1*
X103098D1*
Y67263D1*
G37*
G36*
X102748Y68714D2*
X102448D1*
Y69463D1*
X102748D1*
Y68714D1*
G37*
G36*
Y66364D2*
X102448D1*
Y67113D1*
X102748D1*
Y66364D1*
G37*
X103098Y77966D2*
D18*
Y76365D1*
Y77966D2*
X102098D1*
Y76365D2*
Y77966D1*
Y76365D2*
X103098D1*
X102598Y79166D2*
D24*
Y78765D1*
Y75165D2*
Y75566D1*
Y76915D2*
D18*
Y77165D1*
X102348Y77565D2*
X102848D1*
X102598Y77165D1*
Y77766D1*
Y77165D2*
X102348Y77565D1*
Y77165D2*
X102598D1*
X102848D1*
G36*
X103098Y76515D2*
X102098D1*
Y76716D1*
X103098D1*
Y76515D1*
G37*
G36*
X102748Y77966D2*
X102448D1*
Y78715D1*
X102748D1*
Y77966D1*
G37*
G36*
Y75615D2*
X102448D1*
Y76365D1*
X102748D1*
Y75615D1*
G37*
X97400Y75421D2*
D10*
X98899D1*
X97397Y75419D2*
G03X98902Y75419I752J-998D01*
G01*
X80437Y48531D2*
D18*
X84437D1*
Y50831D2*
X80437D1*
Y48531D2*
Y50831D1*
X84437Y48531D2*
Y49281D1*
Y50831D2*
Y50081D1*
Y49281D2*
G02X84437Y50081I0J400D01*
G01*
X86957Y70880D2*
Y70380D1*
X86707Y70130D1*
X86207D1*
X85957Y70380D1*
X86707Y71130D2*
X86207D1*
X86957Y70880D2*
X86707Y71130D1*
X86207D2*
X85957Y70880D1*
Y70380D2*
Y70880D1*
X86707Y70130D2*
X86957Y69880D1*
Y69380D1*
X86707Y69130D1*
X86207D1*
X85957Y69380D1*
Y69880D1*
X86207Y70130D1*
G36*
X86357Y70730D2*
X86557D1*
Y70530D1*
X86357D1*
Y70730D1*
G37*
G36*
Y69730D2*
X86557D1*
Y69530D1*
X86357D1*
Y69730D1*
G37*
X87673Y77404D2*
D10*
X83673D1*
Y78404D1*
X87673D1*
Y77404D1*
X88666Y75609D2*
D18*
Y76109D1*
X88917Y76359D1*
X89416D1*
X89667Y76109D1*
X88917Y75359D2*
X89416D1*
X88666Y75609D2*
X88917Y75359D1*
X89416D2*
X89667Y75609D1*
Y76109D2*
Y75609D1*
X88917Y76359D2*
X88666Y76609D1*
Y77109D1*
X88917Y77359D1*
X89416D1*
X89667Y77109D1*
Y76609D1*
X89416Y76359D1*
G36*
X89266Y75759D2*
X89067D1*
Y75959D1*
X89266D1*
Y75759D1*
G37*
G36*
Y76759D2*
X89067D1*
Y76959D1*
X89266D1*
Y76759D1*
G37*
X85382Y70841D2*
D18*
Y70341D1*
X85132Y70091D1*
X84632D1*
X84382Y70341D1*
X85132Y71091D2*
X84632D1*
X85382Y70841D2*
X85132Y71091D1*
X84632D2*
X84382Y70841D1*
Y70341D2*
Y70841D1*
X85132Y70091D2*
X85382Y69841D1*
Y69341D1*
X85132Y69091D1*
X84632D1*
X84382Y69341D1*
Y69841D1*
X84632Y70091D1*
G36*
X84782Y70691D2*
X84982D1*
Y70491D1*
X84782D1*
Y70691D1*
G37*
G36*
Y69691D2*
X84982D1*
Y69491D1*
X84782D1*
Y69691D1*
G37*
X82959Y67295D2*
D18*
X82459D1*
X82209Y67545D1*
Y68045D1*
X82459Y68295D1*
X84209Y67545D2*
X83959Y67295D1*
X83459D1*
X83209Y67545D1*
Y68045D1*
X83459Y68295D1*
X83959D1*
X84209Y68045D1*
X82959Y67295D2*
X83209Y67545D1*
Y68045D2*
X82959Y68295D1*
X82459D2*
X82959D1*
X85959Y67295D2*
X85459D1*
X85209Y67545D1*
Y68045D1*
X85459Y68295D1*
X85209Y67545D2*
X84959Y67295D1*
X84459D1*
X84209Y67545D1*
Y68045D1*
X84459Y68295D1*
X84959D1*
X85209Y68045D1*
X86209Y67545D2*
Y68045D1*
X85959Y67295D2*
X86209Y67545D1*
Y68045D2*
X85959Y68295D1*
X85459D2*
X85959D1*
X81959Y67295D2*
X81459D1*
X81209Y67545D1*
Y68045D1*
X81459Y68295D1*
X81959Y67295D2*
X82209Y67545D1*
Y68045D2*
X81959Y68295D1*
X81459D2*
X81959D1*
G36*
X82809Y67895D2*
X82609D1*
Y67695D1*
X82809D1*
Y67895D1*
G37*
G36*
X83809D2*
X83609D1*
Y67695D1*
X83809D1*
Y67895D1*
G37*
G36*
X84809D2*
X84609D1*
Y67695D1*
X84809D1*
Y67895D1*
G37*
G36*
X85809D2*
X85609D1*
Y67695D1*
X85809D1*
Y67895D1*
G37*
G36*
X81809D2*
X81609D1*
Y67695D1*
X81809D1*
Y67895D1*
G37*
X74868Y73915D2*
D18*
X65968D1*
Y80415D2*
Y73915D1*
Y80415D2*
X74868D1*
Y73915D2*
Y80415D1*
X72118Y74816D2*
X71868D1*
Y76915D1*
D23*
X72368D1*
D18*
Y77416D1*
X71368D2*
D23*
Y76915D1*
X71868D1*
X72368Y77416D2*
X71868D1*
D18*
Y79515D1*
Y77416D2*
D23*
X71368D1*
X71868Y79515D2*
D18*
X72118D1*
X72368Y77416D2*
X71368Y76915D1*
X71119Y77165D2*
X68518D1*
D23*
X68268Y76915D1*
Y75695D2*
D18*
Y76915D1*
Y77416D2*
Y78645D1*
Y76915D2*
D23*
X68138Y76796D1*
X73018Y77165D2*
D18*
X72618D1*
X74868Y64663D2*
X65968D1*
Y71163D2*
Y64663D1*
Y71163D2*
X74868D1*
Y64663D2*
Y71163D1*
X72118Y65564D2*
X71868D1*
Y67663D1*
D23*
X72368D1*
D18*
Y68164D1*
X71368D2*
D23*
Y67663D1*
X71868D1*
X72368Y68164D2*
X71868D1*
D18*
Y70263D1*
Y68164D2*
D23*
X71368D1*
X71868Y70263D2*
D18*
X72118D1*
X72368Y68164D2*
X71368Y67663D1*
X71119Y67913D2*
X68518D1*
D23*
X68268Y67663D1*
Y66443D2*
D18*
Y67663D1*
Y68164D2*
Y69393D1*
Y67663D2*
D23*
X68138Y67544D1*
X73018Y67913D2*
D18*
X72618D1*
X74868Y55608D2*
X65968D1*
Y62108D2*
Y55608D1*
Y62108D2*
X74868D1*
Y55608D2*
Y62108D1*
X72118Y56509D2*
X71868D1*
Y58608D1*
D23*
X72368D1*
D18*
Y59109D1*
X71368D2*
D23*
Y58608D1*
X71868D1*
X72368Y59109D2*
X71868D1*
D18*
Y61208D1*
Y59109D2*
D23*
X71368D1*
X71868Y61208D2*
D18*
X72118D1*
X72368Y59109D2*
X71368Y58608D1*
X71119Y58858D2*
X68518D1*
D23*
X68268Y58608D1*
Y57388D2*
D18*
Y58608D1*
Y59109D2*
Y60338D1*
Y58608D2*
D23*
X68138Y58488D1*
X73018Y58858D2*
D18*
X72618D1*
X74868Y46553D2*
X65968D1*
Y53053D2*
Y46553D1*
Y53053D2*
X74868D1*
Y46553D2*
Y53053D1*
X72118Y47453D2*
X71868D1*
Y49553D1*
D23*
X72368D1*
D18*
Y50053D1*
X71368D2*
D23*
Y49553D1*
X71868D1*
X72368Y50053D2*
X71868D1*
D18*
Y52153D1*
Y50053D2*
D23*
X71368D1*
X71868Y52153D2*
D18*
X72118D1*
X72368Y50053D2*
X71368Y49553D1*
X71119Y49803D2*
X68518D1*
D23*
X68268Y49553D1*
Y48333D2*
D18*
Y49553D1*
Y50053D2*
Y51283D1*
Y49553D2*
D23*
X68138Y49433D1*
X73018Y49803D2*
D18*
X72618D1*
X103360Y53053D2*
X112260D1*
Y46553D2*
Y53053D1*
Y46553D2*
X103360D1*
Y53053D2*
Y46553D1*
X106110Y52153D2*
X106360D1*
Y50053D1*
D23*
X105860D1*
D18*
Y49553D1*
X106861D2*
D23*
Y50053D1*
X106360D1*
X105860Y49553D2*
X106360D1*
D18*
Y47453D1*
Y49553D2*
D23*
X106861D1*
X106360Y47453D2*
D18*
X106110D1*
X105860Y49553D2*
X106861Y50053D1*
X107110Y49803D2*
X109710D1*
D23*
X109960Y50053D1*
Y51273D2*
D18*
Y50053D1*
Y49553D2*
Y48323D1*
Y50053D2*
D23*
X110090Y50173D1*
X105211Y49803D2*
D18*
X105610D1*
X103360Y62108D2*
X112260D1*
Y55608D2*
Y62108D1*
Y55608D2*
X103360D1*
Y62108D2*
Y55608D1*
X106110Y61208D2*
X106360D1*
Y59109D1*
D23*
X105860D1*
D18*
Y58608D1*
X106861D2*
D23*
Y59109D1*
X106360D1*
X105860Y58608D2*
X106360D1*
D18*
Y56509D1*
Y58608D2*
D23*
X106861D1*
X106360Y56509D2*
D18*
X106110D1*
X105860Y58608D2*
X106861Y59109D1*
X107110Y58858D2*
X109710D1*
D23*
X109960Y59109D1*
Y60329D2*
D18*
Y59109D1*
Y58608D2*
Y57378D1*
Y59109D2*
D23*
X110090Y59228D1*
X105211Y58858D2*
D18*
X105610D1*
X103360Y71163D2*
X112260D1*
Y64663D2*
Y71163D1*
Y64663D2*
X103360D1*
Y71163D2*
Y64663D1*
X106110Y70263D2*
X106360D1*
Y68164D1*
D23*
X105860D1*
D18*
Y67663D1*
X106861D2*
D23*
Y68164D1*
X106360D1*
X105860Y67663D2*
X106360D1*
D18*
Y65564D1*
Y67663D2*
D23*
X106861D1*
X106360Y65564D2*
D18*
X106110D1*
X105860Y67663D2*
X106861Y68164D1*
X107110Y67913D2*
X109710D1*
D23*
X109960Y68164D1*
Y69384D2*
D18*
Y68164D1*
Y67663D2*
Y66433D1*
Y68164D2*
D23*
X110090Y68283D1*
X105211Y67913D2*
D18*
X105610D1*
X103360Y80415D2*
X112260D1*
Y73915D2*
Y80415D1*
Y73915D2*
X103360D1*
Y80415D2*
Y73915D1*
X106110Y79515D2*
X106360D1*
Y77416D1*
D23*
X105860D1*
D18*
Y76915D1*
X106861D2*
D23*
Y77416D1*
X106360D1*
X105860Y76915D2*
X106360D1*
D18*
Y74816D1*
Y76915D2*
D23*
X106861D1*
X106360Y74816D2*
D18*
X106110D1*
X105860Y76915D2*
X106861Y77416D1*
X107110Y77165D2*
X109710D1*
D23*
X109960Y77416D1*
Y78636D2*
D18*
Y77416D1*
Y76915D2*
Y75685D1*
Y77416D2*
D23*
X110090Y77535D1*
X105211Y77165D2*
D18*
X105610D1*
X94173Y65079D2*
D10*
G02X94173Y65079I2362J0D01*
G01*
X71859Y71638D2*
D18*
Y73638D1*
X69559D2*
Y71638D1*
X71859D2*
X69559D1*
X71859Y73638D2*
X71109D1*
X69559D2*
X70308D1*
X71109D2*
G02X70308Y73638I-400J0D01*
G01*
X71859Y62386D2*
Y64386D1*
X69559D2*
Y62386D1*
X71859D2*
X69559D1*
X71859Y64386D2*
X71109D1*
X69559D2*
X70308D1*
X71109D2*
G02X70308Y64386I-400J0D01*
G01*
X71859Y53331D2*
Y55331D1*
X69559D2*
Y53331D1*
X71859D2*
X69559D1*
X71859Y55331D2*
X71109D1*
X69559D2*
X70308D1*
X71109D2*
G02X70308Y55331I-400J0D01*
G01*
X71859Y44315D2*
Y46315D1*
X69559D2*
Y44315D1*
X71859D2*
X69559D1*
X71859Y46315D2*
X71109D1*
X69559D2*
X70308D1*
X71109D2*
G02X70308Y46315I-400J0D01*
G01*
X106173Y46276D2*
Y44276D1*
X108473D2*
Y46276D1*
X106173D2*
X108473D1*
X106173Y44276D2*
X106923D1*
X108473D2*
X107723D1*
X106923D2*
G02X107723Y44276I400J0D01*
G01*
X106173Y55331D2*
Y53331D1*
X108473D2*
Y55331D1*
X106173D2*
X108473D1*
X106173Y53331D2*
X106923D1*
X108473D2*
X107723D1*
X106923D2*
G02X107723Y53331I400J0D01*
G01*
X106173Y64386D2*
Y62386D1*
X108473D2*
Y64386D1*
X106173D2*
X108473D1*
X106173Y62386D2*
X106923D1*
X108473D2*
X107723D1*
X106923D2*
G02X107723Y62386I400J0D01*
G01*
X106173Y73441D2*
Y71441D1*
X108473D2*
Y73441D1*
X106173D2*
X108473D1*
X106173Y71441D2*
X106923D1*
X108473D2*
X107723D1*
X106923D2*
G02X107723Y71441I400J0D01*
G01*
X85448Y57224D2*
D20*
Y59924D1*
X83648D2*
Y57224D1*
Y59924D2*
G02X85448Y59924I900J0D01*
G01*
X83648Y57224D2*
G03X85448Y57224I900J0D01*
G01*
X76183Y72866D2*
D36*
X77833D1*
X76058Y73963D2*
G02X77958Y73963I950J-447D01*
G01*
X77455Y73466D2*
X76561D1*
X76058Y73963D2*
G03X75959Y73466I949J-447D01*
G01*
G03X76058Y73069I1056J52D01*
G01*
X76455Y73466D2*
X75959D1*
X76058Y73069D2*
G03X76183Y72866I942J443D01*
G01*
X76561Y73466D2*
X76455D1*
X77958Y73069D2*
G03X78057Y73466I-958J449D01*
G01*
G03X77958Y73963I-1048J50D01*
G01*
X78057Y73466D2*
X77561D1*
X77455D1*
X77833Y72866D2*
G03X77962Y73078I-815J644D01*
G01*
X76183Y63614D2*
X77833D1*
X76058Y64711D2*
G02X77958Y64711I950J-447D01*
G01*
X77455Y64214D2*
X76561D1*
X76058Y64711D2*
G03X75959Y64214I949J-447D01*
G01*
G03X76058Y63817I1056J52D01*
G01*
X76455Y64214D2*
X75959D1*
X76058Y63817D2*
G03X76183Y63614I942J443D01*
G01*
X76561Y64214D2*
X76455D1*
X77958Y63817D2*
G03X78057Y64214I-958J449D01*
G01*
G03X77958Y64711I-1048J50D01*
G01*
X78057Y64214D2*
X77561D1*
X77455D1*
X77833Y63614D2*
G03X77962Y63826I-815J644D01*
G01*
X76183Y54559D2*
X77833D1*
X76058Y55656D2*
G02X77958Y55656I950J-447D01*
G01*
X77455Y55159D2*
X76561D1*
X76058Y55656D2*
G03X75959Y55159I949J-447D01*
G01*
G03X76058Y54761I1056J52D01*
G01*
X76455Y55159D2*
X75959D1*
X76058Y54761D2*
G03X76183Y54559I942J443D01*
G01*
X76561Y55159D2*
X76455D1*
X77958Y54761D2*
G03X78057Y55159I-958J449D01*
G01*
G03X77958Y55656I-1048J50D01*
G01*
X78057Y55159D2*
X77561D1*
X77455D1*
X77833Y54559D2*
G03X77962Y54771I-815J644D01*
G01*
X76183Y45504D2*
X77833D1*
X76058Y46601D2*
G02X77958Y46601I950J-447D01*
G01*
X77455Y46103D2*
X76561D1*
X76058Y46601D2*
G03X75959Y46103I949J-447D01*
G01*
G03X76058Y45706I1056J52D01*
G01*
X76455Y46103D2*
X75959D1*
X76058Y45706D2*
G03X76183Y45504I942J443D01*
G01*
X76561Y46103D2*
X76455D1*
X77958Y45706D2*
G03X78057Y46103I-958J449D01*
G01*
G03X77958Y46601I-1048J50D01*
G01*
X78057Y46103D2*
X77561D1*
X77455D1*
X77833Y45504D2*
G03X77962Y45716I-815J644D01*
G01*
X101848Y53315D2*
X100199D1*
X101974Y52218D2*
G02X100074Y52218I-950J447D01*
G01*
X100576Y52715D2*
X101471D1*
X101974Y52218D2*
G03X102072Y52715I-949J447D01*
G01*
G03X101974Y53113I-1056J-52D01*
G01*
X101576Y52715D2*
X102072D1*
X101974Y53113D2*
G03X101848Y53315I-942J-443D01*
G01*
X101471Y52715D2*
X101576D1*
X100074Y53113D2*
G03X99975Y52715I958J-449D01*
G01*
G03X100074Y52218I1048J-50D01*
G01*
X99975Y52715D2*
X100471D1*
X100576D1*
X100199Y53315D2*
G03X100069Y53103I815J-644D01*
G01*
X101848Y62567D2*
X100199D1*
X101974Y61470D2*
G02X100074Y61470I-950J447D01*
G01*
X100576Y61967D2*
X101471D1*
X101974Y61470D2*
G03X102072Y61967I-949J447D01*
G01*
G03X101974Y62365I-1056J-52D01*
G01*
X101576Y61967D2*
X102072D1*
X101974Y62365D2*
G03X101848Y62567I-942J-443D01*
G01*
X101471Y61967D2*
X101576D1*
X100074Y62365D2*
G03X99975Y61967I958J-449D01*
G01*
G03X100074Y61470I1048J-50D01*
G01*
X99975Y61967D2*
X100471D1*
X100576D1*
X100199Y62567D2*
G03X100069Y62355I815J-644D01*
G01*
X101848Y71426D2*
X100199D1*
X101974Y70328D2*
G02X100074Y70328I-950J447D01*
G01*
X100576Y70826D2*
X101471D1*
X101974Y70328D2*
G03X102072Y70826I-949J447D01*
G01*
G03X101974Y71223I-1056J-52D01*
G01*
X101576Y70826D2*
X102072D1*
X101974Y71223D2*
G03X101848Y71426I-942J-443D01*
G01*
X101471Y70826D2*
X101576D1*
X100074Y71223D2*
G03X99975Y70826I958J-449D01*
G01*
G03X100074Y70328I1048J-50D01*
G01*
X99975Y70826D2*
X100471D1*
X100576D1*
X100199Y71426D2*
G03X100069Y71213I815J-644D01*
G01*
X101848Y80481D2*
X100199D1*
X101974Y79384D2*
G02X100074Y79384I-950J447D01*
G01*
X100576Y79881D2*
X101471D1*
X101974Y79384D2*
G03X102072Y79881I-949J447D01*
G01*
G03X101974Y80278I-1056J-52D01*
G01*
X101576Y79881D2*
X102072D1*
X101974Y80278D2*
G03X101848Y80481I-942J-443D01*
G01*
X101471Y79881D2*
X101576D1*
X100074Y80278D2*
G03X99975Y79881I958J-449D01*
G01*
G03X100074Y79384I1048J-50D01*
G01*
X99975Y79881D2*
X100471D1*
X100576D1*
X100199Y80481D2*
G03X100069Y80268I815J-644D01*
G01*
X85921Y51456D2*
D10*
X90016D1*
X85921Y52047D2*
X90016D1*
X85921Y50236D2*
X90016D1*
X85921D2*
Y52047D1*
X90016Y50236D2*
Y52047D1*
X76311Y76561D2*
Y78557D1*
X77311D2*
X76311D1*
X77311Y76561D2*
Y78557D1*
Y76561D2*
X76311D1*
X64396Y73728D2*
X66392D1*
Y72728D2*
Y73728D1*
X64396Y72728D2*
X66392D1*
X64396D2*
Y73728D1*
X79972Y63222D2*
Y65219D1*
X80972D2*
X79972D1*
X80972Y63222D2*
Y65219D1*
Y63222D2*
X79972D1*
X92453Y71329D2*
Y73325D1*
X93453D2*
X92453D1*
X93453Y71329D2*
Y73325D1*
Y71329D2*
X92453D1*
X76311Y67309D2*
Y69305D1*
X77311D2*
X76311D1*
X77311Y67309D2*
Y69305D1*
Y67309D2*
X76311D1*
X64396Y64476D2*
X66392D1*
Y63476D2*
Y64476D1*
X64396Y63476D2*
X66392D1*
X64396D2*
Y64476D1*
X76311Y58136D2*
Y60132D1*
X77311D2*
X76311D1*
X77311Y58136D2*
Y60132D1*
Y58136D2*
X76311D1*
X64396Y55421D2*
X66392D1*
Y54421D2*
Y55421D1*
X64396Y54421D2*
X66392D1*
X64396D2*
Y55421D1*
X76311Y49120D2*
Y51116D1*
X77311D2*
X76311D1*
X77311Y49120D2*
Y51116D1*
Y49120D2*
X76311D1*
X64396Y45866D2*
X66392D1*
Y44866D2*
Y45866D1*
X64396Y44866D2*
X66392D1*
X64396D2*
Y45866D1*
X92469Y73325D2*
Y71329D1*
X91469D2*
X92469D1*
X91469Y73325D2*
Y71329D1*
Y73325D2*
X92469D1*
X94455Y77390D2*
X92458D1*
Y78390D2*
Y77390D1*
X94455Y78390D2*
X92458D1*
X94455D2*
Y77390D1*
X101917Y48538D2*
Y46541D1*
X100917D2*
X101917D1*
X100917Y48538D2*
Y46541D1*
Y48538D2*
X101917D1*
X113833Y44382D2*
X111836D1*
Y45382D2*
Y44382D1*
X113833Y45382D2*
X111836D1*
X113833D2*
Y44382D1*
X101917Y57790D2*
Y55793D1*
X100917D2*
X101917D1*
X100917Y57790D2*
Y55793D1*
Y57790D2*
X101917D1*
X113833Y53240D2*
X111836D1*
Y54240D2*
Y53240D1*
X113833Y54240D2*
X111836D1*
X113833D2*
Y53240D1*
X101917Y66648D2*
Y64651D1*
X100917D2*
X101917D1*
X100917Y66648D2*
Y64651D1*
Y66648D2*
X101917D1*
X113833Y62295D2*
X111836D1*
Y63295D2*
Y62295D1*
X113833Y63295D2*
X111836D1*
X113833D2*
Y62295D1*
X101917Y75703D2*
Y73707D1*
X100917D2*
X101917D1*
X100917Y75703D2*
Y73707D1*
Y75703D2*
X101917D1*
X113833Y71350D2*
X111836D1*
Y72350D2*
Y71350D1*
X113833Y72350D2*
X111836D1*
X113833D2*
Y71350D1*
X84776Y47396D2*
Y49392D1*
X85776D2*
X84776D1*
X85776Y47396D2*
Y49392D1*
Y47396D2*
X84776D1*
X80209Y49419D2*
Y47423D1*
X79209D2*
X80209D1*
X79209Y49419D2*
Y47423D1*
Y49419D2*
X80209D1*
X83431Y51941D2*
X81435D1*
Y52941D2*
Y51941D1*
X83431Y52941D2*
X81435D1*
X83431D2*
Y51941D1*
X87335Y71679D2*
Y73675D1*
X88335D2*
X87335D1*
X88335Y71679D2*
Y73675D1*
Y71679D2*
X87335D1*
X82217Y71758D2*
Y73754D1*
X83217D2*
X82217D1*
X83217Y71758D2*
Y73754D1*
Y71758D2*
X82217D1*
X88319Y71679D2*
Y73675D1*
X89319D2*
X88319D1*
X89319Y71679D2*
Y73675D1*
Y71679D2*
X88319D1*
X83201Y71758D2*
Y73754D1*
X84201D2*
X83201D1*
X84201Y71758D2*
Y73754D1*
Y71758D2*
X83201D1*
X93437Y71328D2*
Y73325D1*
X94437D2*
X93437D1*
X94437Y71328D2*
Y73325D1*
Y71328D2*
X93437D1*
X94421Y71329D2*
Y73325D1*
X95421D2*
X94421D1*
X95421Y71329D2*
Y73325D1*
Y71329D2*
X94421D1*
X77492Y76561D2*
Y78557D1*
X78492D2*
X77492D1*
X78492Y76561D2*
Y78557D1*
Y76561D2*
X77492D1*
Y67309D2*
Y69305D1*
X78492D2*
X77492D1*
X78492Y67309D2*
Y69305D1*
Y67309D2*
X77492D1*
Y58136D2*
Y60132D1*
X78492D2*
X77492D1*
X78492Y58136D2*
Y60132D1*
Y58136D2*
X77492D1*
Y49120D2*
Y51116D1*
X78492D2*
X77492D1*
X78492Y49120D2*
Y51116D1*
Y49120D2*
X77492D1*
X99933Y46541D2*
Y48538D1*
X100933D2*
X99933D1*
X100933Y46541D2*
Y48538D1*
Y46541D2*
X99933D1*
Y55793D2*
Y57790D1*
X100933D2*
X99933D1*
X100933Y55793D2*
Y57790D1*
Y55793D2*
X99933D1*
Y64651D2*
Y66648D1*
X100933D2*
X99933D1*
X100933Y64651D2*
Y66648D1*
Y64651D2*
X99933D1*
Y73707D2*
Y75703D1*
X100933D2*
X99933D1*
X100933Y73707D2*
Y75703D1*
Y73707D2*
X99933D1*
X91681Y68274D2*
Y66277D1*
X90681D2*
X91681D1*
X90681Y68274D2*
Y66277D1*
Y68274D2*
X91681D1*
X82790Y62897D2*
D18*
Y62997D1*
Y62897D2*
X83390D1*
Y62997D2*
Y62897D1*
X83490Y62997D2*
X84090D1*
X83390Y65497D2*
Y65397D1*
Y65497D2*
X82790D1*
Y65397D2*
Y65497D1*
X84090Y62997D2*
X84290Y63197D1*
X81890D2*
X82090Y62997D1*
X82690D1*
X84290Y65197D2*
X84090Y65397D1*
X83490D1*
X81890Y65197D2*
X82090Y65397D1*
X82690D1*
X83590Y64697D2*
D37*
X82590D1*
Y63697D2*
Y64697D1*
Y63697D2*
X83590D1*
Y64697D2*
Y63697D1*
X84290Y64697D2*
X84190D1*
Y63697D2*
Y64697D1*
Y63697D2*
X84290D1*
X81990Y63747D2*
Y64697D1*
Y63747D2*
X81890D1*
X81990Y64697D2*
X81890D1*
Y63197D2*
D18*
Y63347D1*
Y65197D2*
Y65047D1*
Y64697D1*
X84290Y65197D2*
Y65047D1*
Y63197D2*
Y63347D1*
Y63697D1*
Y64697D1*
Y65047D1*
X81890Y64697D2*
Y63747D1*
Y63347D1*
X82790Y62997D2*
X82690D1*
X83390D2*
X83490D1*
X82790Y65397D2*
X82690D1*
X83390D2*
X83490D1*
X82240Y64697D2*
Y63697D1*
X83990D2*
Y64697D1*
X83590Y65147D2*
X83290D1*
X82890D2*
X82590D1*
X83290D2*
X82940Y65047D1*
X82390Y64197D2*
G02X82390Y64197I700J0D01*
G01*
X82040Y65047D2*
G02X82040Y65047I200J0D01*
G01*
X82090Y63347D2*
G02X82090Y63347I200J0D01*
G01*
X83740D2*
G02X83740Y63347I200J0D01*
G01*
Y65047D2*
G02X83740Y65047I200J0D01*
G01*
X82840Y64197D2*
D37*
G02X82840Y64197I250J0D01*
G01*
X82990D2*
D18*
G02X82990Y64197I100J0D01*
G01*
X86675Y75178D2*
D36*
X85026D1*
X86800Y74080D2*
G02X84900Y74080I-950J447D01*
G01*
X85403Y74578D2*
X86298D1*
X86800Y74080D2*
G03X86899Y74578I-949J447D01*
G01*
G03X86800Y74975I-1056J-52D01*
G01*
X86403Y74578D2*
X86899D1*
X86801Y74975D2*
G03X86675Y75178I-942J-443D01*
G01*
X86298Y74578D2*
X86403D1*
X84900Y74975D2*
G03X84802Y74578I958J-449D01*
G01*
G03X84900Y74080I1048J-50D01*
G01*
X84802Y74578D2*
X85298D1*
X85403D1*
X85026Y75178D2*
G03X84896Y74965I815J-644D01*
G01*
X86675Y73012D2*
X85026D1*
X86800Y71915D2*
G02X84900Y71915I-950J447D01*
G01*
X85403Y72412D2*
X86298D1*
X86800Y71915D2*
G03X86899Y72412I-949J447D01*
G01*
G03X86800Y72809I-1056J-52D01*
G01*
X86403Y72412D2*
X86899D1*
X86801Y72809D2*
G03X86675Y73012I-942J-443D01*
G01*
X86298Y72412D2*
X86403D1*
X84900Y72809D2*
G03X84802Y72412I958J-449D01*
G01*
G03X84900Y71915I1048J-50D01*
G01*
X84802Y72412D2*
X85298D1*
X85403D1*
X85026Y73012D2*
G03X84896Y72800I815J-644D01*
G01*
X87653Y66642D2*
D20*
X86953D1*
X87653D2*
G03X88654Y66642I500J0D01*
G01*
X86953Y52642D2*
X89354D1*
Y66642D2*
X88654D1*
X89354D2*
Y66542D1*
X86953Y66642D2*
Y66542D1*
Y52642D2*
Y52741D1*
X89354Y52642D2*
Y52741D1*
X96063Y67939D2*
D10*
X90551D1*
Y77388D1*
X96063D1*
Y67939D1*
X92126Y70302D2*
X94882D1*
Y68333D1*
X94488D1*
Y69514D1*
X94094D1*
Y68333D1*
X93701D1*
Y69514D1*
X93307D1*
Y68333D1*
X92913D1*
Y69514D1*
X92520D1*
Y68333D1*
X90945D1*
X99736Y43909D2*
D36*
X90681D1*
Y58870D1*
X99736D1*
Y43909D1*
X63521Y75554D2*
D23*
X64292Y74844D1*
X63492Y77524D2*
X64292Y76774D1*
X63502Y79524D2*
X64292Y78734D1*
X62252Y80114D2*
D18*
Y74214D1*
X65872D2*
X65792D1*
X65872D2*
Y80114D1*
X62252D2*
X63192D1*
Y79484D1*
Y78784D1*
Y77514D1*
Y76814D2*
Y75544D1*
Y74844D2*
Y74214D1*
Y80114D2*
X65792D1*
X63192Y74214D2*
X62252D1*
X65792D2*
Y80114D1*
Y74214D2*
X63192D1*
X65792Y80114D2*
X65872D1*
X63192Y77514D2*
Y76814D1*
Y75544D2*
Y74844D1*
X63312Y79134D2*
G02X63312Y79134I590J0D01*
G01*
Y75194D2*
G02X63312Y75194I590J0D01*
G01*
X65072Y79134D2*
G02X65072Y79134I200J0D01*
G01*
Y75194D2*
G02X65072Y75194I200J0D01*
G01*
X63312Y77164D2*
G02X63312Y77164I590J0D01*
G01*
X65072D2*
G02X65072Y77164I200J0D01*
G01*
X63521Y66302D2*
D23*
X64292Y65592D1*
X63492Y68272D2*
X64292Y67522D1*
X63502Y70272D2*
X64292Y69482D1*
X62252Y70862D2*
D18*
Y64962D1*
X65872D2*
X65792D1*
X65872D2*
Y70862D1*
X62252D2*
X63192D1*
Y70232D1*
Y69532D1*
Y68262D1*
Y67562D2*
Y66292D1*
Y65592D2*
Y64962D1*
Y70862D2*
X65792D1*
X63192Y64962D2*
X62252D1*
X65792D2*
Y70862D1*
Y64962D2*
X63192D1*
X65792Y70862D2*
X65872D1*
X63192Y68262D2*
Y67562D1*
Y66292D2*
Y65592D1*
X63312Y69882D2*
G02X63312Y69882I590J0D01*
G01*
Y65942D2*
G02X63312Y65942I590J0D01*
G01*
X65072Y69882D2*
G02X65072Y69882I200J0D01*
G01*
Y65942D2*
G02X65072Y65942I200J0D01*
G01*
X63312Y67912D2*
G02X63312Y67912I590J0D01*
G01*
X65072D2*
G02X65072Y67912I200J0D01*
G01*
X63521Y57247D2*
D23*
X64292Y56537D1*
X63492Y59217D2*
X64292Y58467D1*
X63502Y61217D2*
X64292Y60427D1*
X62252Y61807D2*
D18*
Y55907D1*
X65872D2*
X65792D1*
X65872D2*
Y61807D1*
X62252D2*
X63192D1*
Y61177D1*
Y60477D1*
Y59207D1*
Y58507D2*
Y57237D1*
Y56537D2*
Y55907D1*
Y61807D2*
X65792D1*
X63192Y55907D2*
X62252D1*
X65792D2*
Y61807D1*
Y55907D2*
X63192D1*
X65792Y61807D2*
X65872D1*
X63192Y59207D2*
Y58507D1*
Y57237D2*
Y56537D1*
X63312Y60827D2*
G02X63312Y60827I590J0D01*
G01*
Y56887D2*
G02X63312Y56887I590J0D01*
G01*
X65072Y60827D2*
G02X65072Y60827I200J0D01*
G01*
Y56887D2*
G02X65072Y56887I200J0D01*
G01*
X63312Y58857D2*
G02X63312Y58857I590J0D01*
G01*
X65072D2*
G02X65072Y58857I200J0D01*
G01*
X63521Y48191D2*
D23*
X64292Y47482D1*
X63492Y50162D2*
X64292Y49412D1*
X63502Y52162D2*
X64292Y51372D1*
X62252Y52752D2*
D18*
Y46852D1*
X65872D2*
X65792D1*
X65872D2*
Y52752D1*
X62252D2*
X63192D1*
Y52121D1*
Y51422D1*
Y50151D1*
Y49452D2*
Y48181D1*
Y47482D2*
Y46852D1*
Y52752D2*
X65792D1*
X63192Y46852D2*
X62252D1*
X65792D2*
Y52752D1*
Y46852D2*
X63192D1*
X65792Y52752D2*
X65872D1*
X63192Y50151D2*
Y49452D1*
Y48181D2*
Y47482D1*
X63312Y51772D2*
G02X63312Y51772I590J0D01*
G01*
Y47832D2*
G02X63312Y47832I590J0D01*
G01*
X65072Y51772D2*
G02X65072Y51772I200J0D01*
G01*
Y47832D2*
G02X65072Y47832I200J0D01*
G01*
X63312Y49802D2*
G02X63312Y49802I590J0D01*
G01*
X65072D2*
G02X65072Y49802I200J0D01*
G01*
X114707Y51415D2*
D23*
X113936Y52125D1*
X114737Y49444D2*
X113936Y50195D1*
X114727Y47445D2*
X113936Y48235D1*
X115977Y46855D2*
D18*
Y52755D1*
X112357D2*
X112437D1*
X112357D2*
Y46855D1*
X115977D2*
X115037D1*
Y47485D1*
Y48185D1*
Y49455D1*
Y50155D2*
Y51425D1*
Y52125D2*
Y52755D1*
Y46855D2*
X112437D1*
X115037Y52755D2*
X115977D1*
X112437D2*
Y46855D1*
Y52755D2*
X115037D1*
X112437Y46855D2*
X112357D1*
X115037Y49455D2*
Y50155D1*
Y51425D2*
Y52125D1*
X113737Y47835D2*
G02X113737Y47835I590J0D01*
G01*
Y51775D2*
G02X113737Y51775I590J0D01*
G01*
X112757Y47835D2*
G02X112757Y47835I200J0D01*
G01*
Y51775D2*
G02X112757Y51775I200J0D01*
G01*
X113737Y49805D2*
G02X113737Y49805I590J0D01*
G01*
X112757D2*
G02X112757Y49805I200J0D01*
G01*
X114707Y60464D2*
D23*
X113936Y61174D1*
X114737Y58494D2*
X113936Y59244D1*
X114727Y56494D2*
X113936Y57284D1*
X115977Y55904D2*
D18*
Y61804D1*
X112357D2*
X112437D1*
X112357D2*
Y55904D1*
X115977D2*
X115037D1*
Y56534D1*
Y57234D1*
Y58504D1*
Y59204D2*
Y60474D1*
Y61174D2*
Y61804D1*
Y55904D2*
X112437D1*
X115037Y61804D2*
X115977D1*
X112437D2*
Y55904D1*
Y61804D2*
X115037D1*
X112437Y55904D2*
X112357D1*
X115037Y58504D2*
Y59204D1*
Y60474D2*
Y61174D1*
X113737Y56884D2*
G02X113737Y56884I590J0D01*
G01*
Y60824D2*
G02X113737Y60824I590J0D01*
G01*
X112757Y56884D2*
G02X112757Y56884I200J0D01*
G01*
Y60824D2*
G02X112757Y60824I200J0D01*
G01*
X113737Y58854D2*
G02X113737Y58854I590J0D01*
G01*
X112757D2*
G02X112757Y58854I200J0D01*
G01*
X114707Y69514D2*
D23*
X113936Y70224D1*
X114737Y67543D2*
X113936Y68294D1*
X114727Y65544D2*
X113936Y66334D1*
X115977Y64954D2*
D18*
Y70854D1*
X112357D2*
X112437D1*
X112357D2*
Y64954D1*
X115977D2*
X115037D1*
Y65584D1*
Y66284D1*
Y67554D1*
Y68254D2*
Y69524D1*
Y70224D2*
Y70854D1*
Y64954D2*
X112437D1*
X115037Y70854D2*
X115977D1*
X112437D2*
Y64954D1*
Y70854D2*
X115037D1*
X112437Y64954D2*
X112357D1*
X115037Y67554D2*
Y68254D1*
Y69524D2*
Y70224D1*
X113737Y65934D2*
G02X113737Y65934I590J0D01*
G01*
Y69874D2*
G02X113737Y69874I590J0D01*
G01*
X112757Y65934D2*
G02X112757Y65934I200J0D01*
G01*
Y69874D2*
G02X112757Y69874I200J0D01*
G01*
X113737Y67904D2*
G02X113737Y67904I590J0D01*
G01*
X112757D2*
G02X112757Y67904I200J0D01*
G01*
X114707Y78777D2*
D23*
X113936Y79487D1*
X114737Y76806D2*
X113936Y77557D1*
X114727Y74807D2*
X113936Y75597D1*
X115977Y74217D2*
D18*
Y80117D1*
X112357D2*
X112437D1*
X112357D2*
Y74217D1*
X115977D2*
X115037D1*
Y74847D1*
Y75547D1*
Y76817D1*
Y77517D2*
Y78787D1*
Y79487D2*
Y80117D1*
Y74217D2*
X112437D1*
X115037Y80117D2*
X115977D1*
X112437D2*
Y74217D1*
Y80117D2*
X115037D1*
X112437Y74217D2*
X112357D1*
X115037Y76817D2*
Y77517D1*
Y78787D2*
Y79487D1*
X113737Y75197D2*
G02X113737Y75197I590J0D01*
G01*
Y79137D2*
G02X113737Y79137I590J0D01*
G01*
X112757Y75197D2*
G02X112757Y75197I200J0D01*
G01*
Y79137D2*
G02X112757Y79137I200J0D01*
G01*
X113737Y77167D2*
G02X113737Y77167I590J0D01*
G01*
X112757D2*
G02X112757Y77167I200J0D01*
G01*
X87326Y45151D2*
D23*
X88116Y45941D1*
X89287Y45161D2*
X90066Y45951D1*
X86737Y43901D2*
D18*
X90667D1*
Y47521D2*
Y47441D1*
Y47521D2*
X86737D1*
Y43901D2*
Y44841D1*
X87367D1*
X88066D1*
X89337D1*
X90037D2*
X90667D1*
X86737D2*
Y47441D1*
X90667Y44841D2*
Y43901D1*
X86737Y47441D2*
X90667D1*
X86737D2*
Y47521D1*
X90667Y47441D2*
Y44841D1*
X89337D2*
X90037D1*
X87126Y45551D2*
G02X87126Y45551I590J0D01*
G01*
X87517Y46921D2*
G02X87517Y46921I200J0D01*
G01*
X89097Y45551D2*
G02X89097Y45551I590J0D01*
G01*
X89486Y46921D2*
G02X89486Y46921I200J0D01*
G01*
X97490Y38919D2*
D10*
Y40318D1*
X96290Y38919D2*
Y40318D1*
X97490D2*
G03X96290Y40318I-600J1D01*
G01*
Y38919D2*
G03X97490Y38919I600J-1D01*
G01*
X97008Y38555D2*
X96772D1*
X96890Y38437D2*
Y38673D1*
X97429Y23741D2*
D18*
Y23591D1*
X97279D2*
X97429D1*
Y23441D1*
Y23591D2*
X97579D1*
X96929D2*
Y23241D1*
X96429D1*
Y23041D1*
X97429D1*
Y23241D1*
X96929D1*
Y22691D2*
Y22291D1*
X95829Y22941D2*
G02X95829Y22941I1100J0D01*
G01*
G36*
X96429Y22841D2*
X97429D1*
Y22641D1*
X96429D1*
Y22841D1*
G37*
X82634Y21267D2*
D20*
X83134D1*
X93740Y23072D2*
D18*
Y22972D1*
X93290D1*
Y22722D1*
X94190D1*
Y22972D1*
X93740D1*
Y22372D2*
Y22172D1*
X94540Y23922D2*
X94240D1*
X94390Y24072D2*
Y23772D1*
X93740Y22172D2*
Y21972D1*
Y23272D2*
Y23072D1*
X91990Y22622D2*
G02X91990Y22622I1750J0D01*
G01*
G36*
X93290Y22522D2*
X94190D1*
Y22272D1*
X93290D1*
Y22522D1*
G37*
X83134Y19142D2*
D20*
X82634D1*
X80398Y8374D2*
D18*
X82098D1*
Y7374D2*
X80398D1*
X82198Y8274D2*
Y7474D1*
X80298Y8274D2*
Y7474D1*
X82098Y8374D2*
G02X82198Y8274I0J-100D01*
G01*
X80298D2*
G02X80398Y8374I100J0D01*
G01*
X82098Y7374D2*
G03X82198Y7474I0J100D01*
G01*
X80298D2*
G03X80398Y7374I100J0D01*
G01*
X81548Y7874D2*
X81398D1*
X81348D1*
D23*
Y8174D1*
Y7874D2*
Y7574D1*
X81148Y8174D2*
Y7874D1*
Y7574D1*
Y7874D2*
D18*
X81098D1*
X80948D1*
X81810Y16248D2*
X81960D1*
Y16098D2*
Y16248D1*
X82110D1*
X81960D2*
Y16398D1*
Y15748D2*
X82310D1*
Y15248D1*
X82510D1*
Y16248D1*
X82310D1*
Y15748D1*
X82860D2*
X83260D1*
X81510D2*
G02X81510Y15748I1100J0D01*
G01*
G36*
X82710Y15248D2*
X82910D1*
Y16248D1*
X82710D1*
Y15248D1*
G37*
X82692Y8335D2*
D18*
X82842D1*
Y8185D2*
Y8335D1*
X82992D1*
X82842D2*
Y8485D1*
Y7835D2*
X83192D1*
Y7335D1*
X83392D1*
Y8335D1*
X83192D1*
Y7835D1*
X83742D2*
X84142D1*
X82392D2*
G02X82392Y7835I1100J0D01*
G01*
G36*
X83592Y7335D2*
X83792D1*
Y8335D1*
X83592D1*
Y7335D1*
G37*
X75130Y37783D2*
D18*
Y39383D1*
Y37783D2*
X76130D1*
Y39383D2*
Y37783D1*
Y39383D2*
X75130D1*
X75630Y36583D2*
D24*
Y36983D1*
Y40583D2*
Y40183D1*
Y38833D2*
D18*
Y38583D1*
X75880Y38183D2*
X75380D1*
X75630Y38583D1*
Y37982D1*
Y38583D2*
X75880Y38183D1*
Y38583D2*
X75630D1*
X75380D1*
G36*
X75130Y39233D2*
X76130D1*
Y39032D1*
X75130D1*
Y39233D1*
G37*
G36*
X75480Y37783D2*
X75780D1*
Y37033D1*
X75480D1*
Y37783D1*
G37*
G36*
Y40133D2*
X75780D1*
Y39383D1*
X75480D1*
Y40133D1*
G37*
X75130Y28531D2*
D18*
Y30131D1*
Y28531D2*
X76130D1*
Y30131D2*
Y28531D1*
Y30131D2*
X75130D1*
X75630Y27331D2*
D24*
Y27731D1*
Y31331D2*
Y30931D1*
Y29581D2*
D18*
Y29331D1*
X75880Y28931D2*
X75380D1*
X75630Y29331D1*
Y28730D1*
Y29331D2*
X75880Y28931D1*
Y29331D2*
X75630D1*
X75380D1*
G36*
X75130Y29981D2*
X76130D1*
Y29781D1*
X75130D1*
Y29981D1*
G37*
G36*
X75480Y28531D2*
X75780D1*
Y27781D1*
X75480D1*
Y28531D1*
G37*
G36*
Y30881D2*
X75780D1*
Y30131D1*
X75480D1*
Y30881D1*
G37*
X75130Y19475D2*
D18*
Y21076D1*
Y19475D2*
X76130D1*
Y21076D2*
Y19475D1*
Y21076D2*
X75130D1*
X75630Y18275D2*
D24*
Y18676D1*
Y22276D2*
Y21875D1*
Y20525D2*
D18*
Y20276D1*
X75880Y19876D2*
X75380D1*
X75630Y20276D1*
Y19675D1*
Y20276D2*
X75880Y19876D1*
Y20276D2*
X75630D1*
X75380D1*
G36*
X75130Y20926D2*
X76130D1*
Y20725D1*
X75130D1*
Y20926D1*
G37*
G36*
X75480Y19475D2*
X75780D1*
Y18726D1*
X75480D1*
Y19475D1*
G37*
G36*
Y21825D2*
X75780D1*
Y21076D1*
X75480D1*
Y21825D1*
G37*
X75130Y10420D2*
D18*
Y12021D1*
Y10420D2*
X76130D1*
Y12021D2*
Y10420D1*
Y12021D2*
X75130D1*
X75630Y9220D2*
D24*
Y9621D1*
Y13221D2*
Y12820D1*
Y11470D2*
D18*
Y11220D1*
X75880Y10821D2*
X75380D1*
X75630Y11220D1*
Y10620D1*
Y11220D2*
X75880Y10821D1*
Y11220D2*
X75630D1*
X75380D1*
G36*
X75130Y11871D2*
X76130D1*
Y11670D1*
X75130D1*
Y11871D1*
G37*
G36*
X75480Y10420D2*
X75780D1*
Y9671D1*
X75480D1*
Y10420D1*
G37*
G36*
Y12770D2*
X75780D1*
Y12021D1*
X75480D1*
Y12770D1*
G37*
X103098Y11989D2*
D18*
Y10389D1*
Y11989D2*
X102098D1*
Y10389D2*
Y11989D1*
Y10389D2*
X103098D1*
X102598Y13189D2*
D24*
Y12789D1*
Y9189D2*
Y9589D1*
Y10939D2*
D18*
Y11189D1*
X102348Y11589D2*
X102848D1*
X102598Y11189D1*
Y11789D1*
Y11189D2*
X102348Y11589D1*
Y11189D2*
X102598D1*
X102848D1*
G36*
X103098Y10539D2*
X102098D1*
Y10739D1*
X103098D1*
Y10539D1*
G37*
G36*
X102748Y11989D2*
X102448D1*
Y12739D1*
X102748D1*
Y11989D1*
G37*
G36*
Y9639D2*
X102448D1*
Y10389D1*
X102748D1*
Y9639D1*
G37*
X103098Y21241D2*
D18*
Y19641D1*
Y21241D2*
X102098D1*
Y19641D2*
Y21241D1*
Y19641D2*
X103098D1*
X102598Y22441D2*
D24*
Y22041D1*
Y18441D2*
Y18841D1*
Y20191D2*
D18*
Y20441D1*
X102348Y20841D2*
X102848D1*
X102598Y20441D1*
Y21041D1*
Y20441D2*
X102348Y20841D1*
Y20441D2*
X102598D1*
X102848D1*
G36*
X103098Y19791D2*
X102098D1*
Y19991D1*
X103098D1*
Y19791D1*
G37*
G36*
X102748Y21241D2*
X102448D1*
Y21991D1*
X102748D1*
Y21241D1*
G37*
G36*
Y18891D2*
X102448D1*
Y19641D1*
X102748D1*
Y18891D1*
G37*
X103098Y30131D2*
D18*
Y28531D1*
Y30131D2*
X102098D1*
Y28531D2*
Y30131D1*
Y28531D2*
X103098D1*
X102598Y31331D2*
D24*
Y30931D1*
Y27331D2*
Y27731D1*
Y29081D2*
D18*
Y29331D1*
X102348Y29731D2*
X102848D1*
X102598Y29331D1*
Y29931D1*
Y29331D2*
X102348Y29731D1*
Y29331D2*
X102598D1*
X102848D1*
G36*
X103098Y28680D2*
X102098D1*
Y28881D1*
X103098D1*
Y28680D1*
G37*
G36*
X102748Y30131D2*
X102448D1*
Y30881D1*
X102748D1*
Y30131D1*
G37*
G36*
Y27781D2*
X102448D1*
Y28531D1*
X102748D1*
Y27781D1*
G37*
X103098Y39383D2*
D18*
Y37783D1*
Y39383D2*
X102098D1*
Y37783D2*
Y39383D1*
Y37783D2*
X103098D1*
X102598Y40583D2*
D24*
Y40183D1*
Y36583D2*
Y36983D1*
Y38333D2*
D18*
Y38583D1*
X102348Y38983D2*
X102848D1*
X102598Y38583D1*
Y39183D1*
Y38583D2*
X102348Y38983D1*
Y38583D2*
X102598D1*
X102848D1*
G36*
X103098Y37932D2*
X102098D1*
Y38133D1*
X103098D1*
Y37932D1*
G37*
G36*
X102748Y39383D2*
X102448D1*
Y40133D1*
X102748D1*
Y39383D1*
G37*
G36*
Y37033D2*
X102448D1*
Y37783D1*
X102748D1*
Y37033D1*
G37*
X97400Y36839D2*
D10*
X98899D1*
X97397Y36836D2*
G03X98902Y36836I752J-998D01*
G01*
X80437Y9948D2*
D18*
X84437D1*
Y12249D2*
X80437D1*
Y9948D2*
Y12249D1*
X84437Y9948D2*
Y10698D1*
Y12249D2*
Y11498D1*
Y10698D2*
G02X84437Y11498I0J400D01*
G01*
X86957Y32297D2*
Y31797D1*
X86707Y31547D1*
X86207D1*
X85957Y31797D1*
X86707Y32547D2*
X86207D1*
X86957Y32297D2*
X86707Y32547D1*
X86207D2*
X85957Y32297D1*
Y31797D2*
Y32297D1*
X86707Y31547D2*
X86957Y31297D1*
Y30797D1*
X86707Y30547D1*
X86207D1*
X85957Y30797D1*
Y31297D1*
X86207Y31547D1*
G36*
X86357Y32147D2*
X86557D1*
Y31947D1*
X86357D1*
Y32147D1*
G37*
G36*
Y31147D2*
X86557D1*
Y30947D1*
X86357D1*
Y31147D1*
G37*
X87673Y38821D2*
D10*
X83673D1*
Y39821D1*
X87673D1*
Y38821D1*
X88666Y37026D2*
D18*
Y37526D1*
X88917Y37776D1*
X89416D1*
X89667Y37526D1*
X88917Y36776D2*
X89416D1*
X88666Y37026D2*
X88917Y36776D1*
X89416D2*
X89667Y37026D1*
Y37526D2*
Y37026D1*
X88917Y37776D2*
X88666Y38026D1*
Y38526D1*
X88917Y38776D1*
X89416D1*
X89667Y38526D1*
Y38026D1*
X89416Y37776D1*
G36*
X89266Y37176D2*
X89067D1*
Y37376D1*
X89266D1*
Y37176D1*
G37*
G36*
Y38176D2*
X89067D1*
Y38376D1*
X89266D1*
Y38176D1*
G37*
X85382Y32258D2*
D18*
Y31758D1*
X85132Y31508D1*
X84632D1*
X84382Y31758D1*
X85132Y32508D2*
X84632D1*
X85382Y32258D2*
X85132Y32508D1*
X84632D2*
X84382Y32258D1*
Y31758D2*
Y32258D1*
X85132Y31508D2*
X85382Y31258D1*
Y30758D1*
X85132Y30508D1*
X84632D1*
X84382Y30758D1*
Y31258D1*
X84632Y31508D1*
G36*
X84782Y32108D2*
X84982D1*
Y31908D1*
X84782D1*
Y32108D1*
G37*
G36*
Y31108D2*
X84982D1*
Y30908D1*
X84782D1*
Y31108D1*
G37*
X82959Y28713D2*
D18*
X82459D1*
X82209Y28963D1*
Y29463D1*
X82459Y29713D1*
X84209Y28963D2*
X83959Y28713D1*
X83459D1*
X83209Y28963D1*
Y29463D1*
X83459Y29713D1*
X83959D1*
X84209Y29463D1*
X82959Y28713D2*
X83209Y28963D1*
Y29463D2*
X82959Y29713D1*
X82459D2*
X82959D1*
X85959Y28713D2*
X85459D1*
X85209Y28963D1*
Y29463D1*
X85459Y29713D1*
X85209Y28963D2*
X84959Y28713D1*
X84459D1*
X84209Y28963D1*
Y29463D1*
X84459Y29713D1*
X84959D1*
X85209Y29463D1*
X86209Y28963D2*
Y29463D1*
X85959Y28713D2*
X86209Y28963D1*
Y29463D2*
X85959Y29713D1*
X85459D2*
X85959D1*
X81959Y28713D2*
X81459D1*
X81209Y28963D1*
Y29463D1*
X81459Y29713D1*
X81959Y28713D2*
X82209Y28963D1*
Y29463D2*
X81959Y29713D1*
X81459D2*
X81959D1*
G36*
X82809Y29313D2*
X82609D1*
Y29113D1*
X82809D1*
Y29313D1*
G37*
G36*
X83809D2*
X83609D1*
Y29113D1*
X83809D1*
Y29313D1*
G37*
G36*
X84809D2*
X84609D1*
Y29113D1*
X84809D1*
Y29313D1*
G37*
G36*
X85809D2*
X85609D1*
Y29113D1*
X85809D1*
Y29313D1*
G37*
G36*
X81809D2*
X81609D1*
Y29113D1*
X81809D1*
Y29313D1*
G37*
X74868Y35333D2*
D18*
X65968D1*
Y41833D2*
Y35333D1*
Y41833D2*
X74868D1*
Y35333D2*
Y41833D1*
X72118Y36233D2*
X71868D1*
Y38332D1*
D23*
X72368D1*
D18*
Y38833D1*
X71368D2*
D23*
Y38332D1*
X71868D1*
X72368Y38833D2*
X71868D1*
D18*
Y40932D1*
Y38833D2*
D23*
X71368D1*
X71868Y40932D2*
D18*
X72118D1*
X72368Y38833D2*
X71368Y38332D1*
X71119Y38583D2*
X68518D1*
D23*
X68268Y38332D1*
Y37112D2*
D18*
Y38332D1*
Y38833D2*
Y40063D1*
Y38332D2*
D23*
X68138Y38213D1*
X73018Y38583D2*
D18*
X72618D1*
X74868Y26081D2*
X65968D1*
Y32581D2*
Y26081D1*
Y32581D2*
X74868D1*
Y26081D2*
Y32581D1*
X72118Y26981D2*
X71868D1*
Y29080D1*
D23*
X72368D1*
D18*
Y29581D1*
X71368D2*
D23*
Y29080D1*
X71868D1*
X72368Y29581D2*
X71868D1*
D18*
Y31680D1*
Y29581D2*
D23*
X71368D1*
X71868Y31680D2*
D18*
X72118D1*
X72368Y29581D2*
X71368Y29080D1*
X71119Y29331D2*
X68518D1*
D23*
X68268Y29080D1*
Y27860D2*
D18*
Y29080D1*
Y29581D2*
Y30811D1*
Y29080D2*
D23*
X68138Y28961D1*
X73018Y29331D2*
D18*
X72618D1*
X74868Y17026D2*
X65968D1*
Y23526D2*
Y17026D1*
Y23526D2*
X74868D1*
Y17026D2*
Y23526D1*
X72118Y17926D2*
X71868D1*
Y20025D1*
D23*
X72368D1*
D18*
Y20526D1*
X71368D2*
D23*
Y20025D1*
X71868D1*
X72368Y20526D2*
X71868D1*
D18*
Y22625D1*
Y20526D2*
D23*
X71368D1*
X71868Y22625D2*
D18*
X72118D1*
X72368Y20526D2*
X71368Y20025D1*
X71119Y20276D2*
X68518D1*
D23*
X68268Y20025D1*
Y18805D2*
D18*
Y20025D1*
Y20526D2*
Y21756D1*
Y20025D2*
D23*
X68138Y19906D1*
X73018Y20276D2*
D18*
X72618D1*
X74868Y7970D2*
X65968D1*
Y14470D2*
Y7970D1*
Y14470D2*
X74868D1*
Y7970D2*
Y14470D1*
X72118Y8871D2*
X71868D1*
Y10970D1*
D23*
X72368D1*
D18*
Y11471D1*
X71368D2*
D23*
Y10970D1*
X71868D1*
X72368Y11471D2*
X71868D1*
D18*
Y13570D1*
Y11471D2*
D23*
X71368D1*
X71868Y13570D2*
D18*
X72118D1*
X72368Y11471D2*
X71368Y10970D1*
X71119Y11220D2*
X68518D1*
D23*
X68268Y10970D1*
Y9750D2*
D18*
Y10970D1*
Y11471D2*
Y12701D1*
Y10970D2*
D23*
X68138Y10851D1*
X73018Y11220D2*
D18*
X72618D1*
X103360Y14470D2*
X112260D1*
Y7970D2*
Y14470D1*
Y7970D2*
X103360D1*
Y14470D2*
Y7970D1*
X106110Y13570D2*
X106360D1*
Y11471D1*
D23*
X105860D1*
D18*
Y10970D1*
X106861D2*
D23*
Y11471D1*
X106360D1*
X105860Y10970D2*
X106360D1*
D18*
Y8871D1*
Y10970D2*
D23*
X106861D1*
X106360Y8871D2*
D18*
X106110D1*
X105860Y10970D2*
X106861Y11471D1*
X107110Y11220D2*
X109710D1*
D23*
X109960Y11471D1*
Y12691D2*
D18*
Y11471D1*
Y10970D2*
Y9740D1*
Y11471D2*
D23*
X110090Y11590D1*
X105211Y11220D2*
D18*
X105610D1*
X103360Y23526D2*
X112260D1*
Y17026D2*
Y23526D1*
Y17026D2*
X103360D1*
Y23526D2*
Y17026D1*
X106110Y22625D2*
X106360D1*
Y20526D1*
D23*
X105860D1*
D18*
Y20025D1*
X106861D2*
D23*
Y20526D1*
X106360D1*
X105860Y20025D2*
X106360D1*
D18*
Y17926D1*
Y20025D2*
D23*
X106861D1*
X106360Y17926D2*
D18*
X106110D1*
X105860Y20025D2*
X106861Y20526D1*
X107110Y20276D2*
X109710D1*
D23*
X109960Y20526D1*
Y21746D2*
D18*
Y20526D1*
Y20025D2*
Y18796D1*
Y20526D2*
D23*
X110090Y20645D1*
X105211Y20276D2*
D18*
X105610D1*
X103360Y32581D2*
X112260D1*
Y26081D2*
Y32581D1*
Y26081D2*
X103360D1*
Y32581D2*
Y26081D1*
X106110Y31680D2*
X106360D1*
Y29581D1*
D23*
X105860D1*
D18*
Y29080D1*
X106861D2*
D23*
Y29581D1*
X106360D1*
X105860Y29080D2*
X106360D1*
D18*
Y26981D1*
Y29080D2*
D23*
X106861D1*
X106360Y26981D2*
D18*
X106110D1*
X105860Y29080D2*
X106861Y29581D1*
X107110Y29331D2*
X109710D1*
D23*
X109960Y29581D1*
Y30801D2*
D18*
Y29581D1*
Y29080D2*
Y27851D1*
Y29581D2*
D23*
X110090Y29701D1*
X105211Y29331D2*
D18*
X105610D1*
X103360Y41833D2*
X112260D1*
Y35333D2*
Y41833D1*
Y35333D2*
X103360D1*
Y41833D2*
Y35333D1*
X106110Y40932D2*
X106360D1*
Y38833D1*
D23*
X105860D1*
D18*
Y38332D1*
X106861D2*
D23*
Y38833D1*
X106360D1*
X105860Y38332D2*
X106360D1*
D18*
Y36233D1*
Y38332D2*
D23*
X106861D1*
X106360Y36233D2*
D18*
X106110D1*
X105860Y38332D2*
X106861Y38833D1*
X107110Y38583D2*
X109710D1*
D23*
X109960Y38833D1*
Y40053D2*
D18*
Y38833D1*
Y38332D2*
Y37103D1*
Y38833D2*
D23*
X110090Y38953D1*
X105211Y38583D2*
D18*
X105610D1*
X94173Y26496D2*
D10*
G02X94173Y26496I2362J0D01*
G01*
X71859Y33055D2*
D18*
Y35055D1*
X69559D2*
Y33055D1*
X71859D2*
X69559D1*
X71859Y35055D2*
X71109D1*
X69559D2*
X70308D1*
X71109D2*
G02X70308Y35055I-400J0D01*
G01*
X71859Y23803D2*
Y25803D1*
X69559D2*
Y23803D1*
X71859D2*
X69559D1*
X71859Y25803D2*
X71109D1*
X69559D2*
X70308D1*
X71109D2*
G02X70308Y25803I-400J0D01*
G01*
X71859Y14748D2*
Y16748D1*
X69559D2*
Y14748D1*
X71859D2*
X69559D1*
X71859Y16748D2*
X71109D1*
X69559D2*
X70308D1*
X71109D2*
G02X70308Y16748I-400J0D01*
G01*
X71859Y5732D2*
Y7732D1*
X69559D2*
Y5732D1*
X71859D2*
X69559D1*
X71859Y7732D2*
X71109D1*
X69559D2*
X70308D1*
X71109D2*
G02X70308Y7732I-400J0D01*
G01*
X106173Y7693D2*
Y5693D1*
X108473D2*
Y7693D1*
X106173D2*
X108473D1*
X106173Y5693D2*
X106923D1*
X108473D2*
X107723D1*
X106923D2*
G02X107723Y5693I400J0D01*
G01*
X106173Y16748D2*
Y14748D1*
X108473D2*
Y16748D1*
X106173D2*
X108473D1*
X106173Y14748D2*
X106923D1*
X108473D2*
X107723D1*
X106923D2*
G02X107723Y14748I400J0D01*
G01*
X106173Y25803D2*
Y23803D1*
X108473D2*
Y25803D1*
X106173D2*
X108473D1*
X106173Y23803D2*
X106923D1*
X108473D2*
X107723D1*
X106923D2*
G02X107723Y23803I400J0D01*
G01*
X106173Y34858D2*
Y32858D1*
X108473D2*
Y34858D1*
X106173D2*
X108473D1*
X106173Y32858D2*
X106923D1*
X108473D2*
X107723D1*
X106923D2*
G02X107723Y32858I400J0D01*
G01*
X85448Y18642D2*
D20*
Y21342D1*
X83648D2*
Y18642D1*
Y21342D2*
G02X85448Y21342I900J0D01*
G01*
X83648Y18642D2*
G03X85448Y18642I900J0D01*
G01*
X76183Y34283D2*
D36*
X77833D1*
X76058Y35380D2*
G02X77958Y35380I950J-447D01*
G01*
X77455Y34883D2*
X76561D1*
X76058Y35380D2*
G03X75959Y34883I949J-447D01*
G01*
G03X76058Y34486I1056J52D01*
G01*
X76455Y34883D2*
X75959D1*
X76058Y34486D2*
G03X76183Y34283I942J443D01*
G01*
X76561Y34883D2*
X76455D1*
X77958Y34486D2*
G03X78057Y34883I-958J449D01*
G01*
G03X77958Y35380I-1048J50D01*
G01*
X78057Y34883D2*
X77561D1*
X77455D1*
X77833Y34283D2*
G03X77962Y34495I-815J644D01*
G01*
X76183Y25031D2*
X77833D1*
X76058Y26128D2*
G02X77958Y26128I950J-447D01*
G01*
X77455Y25631D2*
X76561D1*
X76058Y26128D2*
G03X75959Y25631I949J-447D01*
G01*
G03X76058Y25234I1056J52D01*
G01*
X76455Y25631D2*
X75959D1*
X76058Y25234D2*
G03X76183Y25031I942J443D01*
G01*
X76561Y25631D2*
X76455D1*
X77958Y25234D2*
G03X78057Y25631I-958J449D01*
G01*
G03X77958Y26128I-1048J50D01*
G01*
X78057Y25631D2*
X77561D1*
X77455D1*
X77833Y25031D2*
G03X77962Y25243I-815J644D01*
G01*
X76183Y15976D2*
X77833D1*
X76058Y17073D2*
G02X77958Y17073I950J-447D01*
G01*
X77455Y16576D2*
X76561D1*
X76058Y17073D2*
G03X75959Y16576I949J-447D01*
G01*
G03X76058Y16179I1056J52D01*
G01*
X76455Y16576D2*
X75959D1*
X76058Y16179D2*
G03X76183Y15976I942J443D01*
G01*
X76561Y16576D2*
X76455D1*
X77958Y16179D2*
G03X78057Y16576I-958J449D01*
G01*
G03X77958Y17073I-1048J50D01*
G01*
X78057Y16576D2*
X77561D1*
X77455D1*
X77833Y15976D2*
G03X77962Y16188I-815J644D01*
G01*
X76183Y6921D2*
X77833D1*
X76058Y8018D2*
G02X77958Y8018I950J-447D01*
G01*
X77455Y7521D2*
X76561D1*
X76058Y8018D2*
G03X75959Y7521I949J-447D01*
G01*
G03X76058Y7124I1056J52D01*
G01*
X76455Y7521D2*
X75959D1*
X76058Y7124D2*
G03X76183Y6921I942J443D01*
G01*
X76561Y7521D2*
X76455D1*
X77958Y7124D2*
G03X78057Y7521I-958J449D01*
G01*
G03X77958Y8018I-1048J50D01*
G01*
X78057Y7521D2*
X77561D1*
X77455D1*
X77833Y6921D2*
G03X77962Y7133I-815J644D01*
G01*
X101848Y14733D2*
X100199D1*
X101974Y13635D2*
G02X100074Y13635I-950J447D01*
G01*
X100576Y14133D2*
X101471D1*
X101974Y13635D2*
G03X102072Y14133I-949J447D01*
G01*
G03X101974Y14530I-1056J-52D01*
G01*
X101576Y14133D2*
X102072D1*
X101974Y14530D2*
G03X101848Y14733I-942J-443D01*
G01*
X101471Y14133D2*
X101576D1*
X100074Y14530D2*
G03X99975Y14133I958J-449D01*
G01*
G03X100074Y13635I1048J-50D01*
G01*
X99975Y14133D2*
X100471D1*
X100576D1*
X100199Y14733D2*
G03X100069Y14520I815J-644D01*
G01*
X101848Y23985D2*
X100199D1*
X101974Y22887D2*
G02X100074Y22887I-950J447D01*
G01*
X100576Y23385D2*
X101471D1*
X101974Y22887D2*
G03X102072Y23385I-949J447D01*
G01*
G03X101974Y23782I-1056J-52D01*
G01*
X101576Y23385D2*
X102072D1*
X101974Y23782D2*
G03X101848Y23985I-942J-443D01*
G01*
X101471Y23385D2*
X101576D1*
X100074Y23782D2*
G03X99975Y23385I958J-449D01*
G01*
G03X100074Y22887I1048J-50D01*
G01*
X99975Y23385D2*
X100471D1*
X100576D1*
X100199Y23985D2*
G03X100069Y23772I815J-644D01*
G01*
X101848Y32843D2*
X100199D1*
X101974Y31746D2*
G02X100074Y31746I-950J447D01*
G01*
X100576Y32243D2*
X101471D1*
X101974Y31746D2*
G03X102072Y32243I-949J447D01*
G01*
G03X101974Y32640I-1056J-52D01*
G01*
X101576Y32243D2*
X102072D1*
X101974Y32640D2*
G03X101848Y32843I-942J-443D01*
G01*
X101471Y32243D2*
X101576D1*
X100074Y32640D2*
G03X99975Y32243I958J-449D01*
G01*
G03X100074Y31746I1048J-50D01*
G01*
X99975Y32243D2*
X100471D1*
X100576D1*
X100199Y32843D2*
G03X100069Y32631I815J-644D01*
G01*
X101848Y41898D2*
X100199D1*
X101974Y40801D2*
G02X100074Y40801I-950J447D01*
G01*
X100576Y41298D2*
X101471D1*
X101974Y40801D2*
G03X102072Y41298I-949J447D01*
G01*
G03X101974Y41695I-1056J-52D01*
G01*
X101576Y41298D2*
X102072D1*
X101974Y41695D2*
G03X101848Y41898I-942J-443D01*
G01*
X101471Y41298D2*
X101576D1*
X100074Y41695D2*
G03X99975Y41298I958J-449D01*
G01*
G03X100074Y40801I1048J-50D01*
G01*
X99975Y41298D2*
X100471D1*
X100576D1*
X100199Y41898D2*
G03X100069Y41686I815J-644D01*
G01*
X85921Y12873D2*
D10*
X90016D1*
X85921Y13465D2*
X90016D1*
X85921Y11654D2*
X90016D1*
X85921D2*
Y13465D1*
X90016Y11654D2*
Y13465D1*
X76311Y37978D2*
Y39975D1*
X77311D2*
X76311D1*
X77311Y37978D2*
Y39975D1*
Y37978D2*
X76311D1*
X64396Y35146D2*
X66392D1*
Y34146D2*
Y35146D1*
X64396Y34146D2*
X66392D1*
X64396D2*
Y35146D1*
X79972Y24640D2*
Y26636D1*
X80972D2*
X79972D1*
X80972Y24640D2*
Y26636D1*
Y24640D2*
X79972D1*
X92453Y32746D2*
Y34742D1*
X93453D2*
X92453D1*
X93453Y32746D2*
Y34742D1*
Y32746D2*
X92453D1*
X76311Y28726D2*
Y30723D1*
X77311D2*
X76311D1*
X77311Y28726D2*
Y30723D1*
Y28726D2*
X76311D1*
X64396Y25894D2*
X66392D1*
Y24894D2*
Y25894D1*
X64396Y24894D2*
X66392D1*
X64396D2*
Y25894D1*
X76311Y19553D2*
Y21549D1*
X77311D2*
X76311D1*
X77311Y19553D2*
Y21549D1*
Y19553D2*
X76311D1*
X64396Y16839D2*
X66392D1*
Y15839D2*
Y16839D1*
X64396Y15839D2*
X66392D1*
X64396D2*
Y16839D1*
X76311Y10537D2*
Y12534D1*
X77311D2*
X76311D1*
X77311Y10537D2*
Y12534D1*
Y10537D2*
X76311D1*
X64396Y7283D2*
X66392D1*
Y6283D2*
Y7283D1*
X64396Y6283D2*
X66392D1*
X64396D2*
Y7283D1*
X92469Y34742D2*
Y32746D1*
X91469D2*
X92469D1*
X91469Y34742D2*
Y32746D1*
Y34742D2*
X92469D1*
X94455Y38807D2*
X92458D1*
Y39807D2*
Y38807D1*
X94455Y39807D2*
X92458D1*
X94455D2*
Y38807D1*
X101917Y9955D2*
Y7959D1*
X100917D2*
X101917D1*
X100917Y9955D2*
Y7959D1*
Y9955D2*
X101917D1*
X113833Y5799D2*
X111836D1*
Y6799D2*
Y5799D1*
X113833Y6799D2*
X111836D1*
X113833D2*
Y5799D1*
X101917Y19207D2*
Y17210D1*
X100917D2*
X101917D1*
X100917Y19207D2*
Y17210D1*
Y19207D2*
X101917D1*
X113833Y14657D2*
X111836D1*
Y15657D2*
Y14657D1*
X113833Y15657D2*
X111836D1*
X113833D2*
Y14657D1*
X101917Y28065D2*
Y26069D1*
X100917D2*
X101917D1*
X100917Y28065D2*
Y26069D1*
Y28065D2*
X101917D1*
X113833Y23713D2*
X111836D1*
Y24713D2*
Y23713D1*
X113833Y24713D2*
X111836D1*
X113833D2*
Y23713D1*
X101917Y37120D2*
Y35124D1*
X100917D2*
X101917D1*
X100917Y37120D2*
Y35124D1*
Y37120D2*
X101917D1*
X113833Y32768D2*
X111836D1*
Y33768D2*
Y32768D1*
X113833Y33768D2*
X111836D1*
X113833D2*
Y32768D1*
X84776Y8813D2*
Y10809D1*
X85776D2*
X84776D1*
X85776Y8813D2*
Y10809D1*
Y8813D2*
X84776D1*
X80209Y10837D2*
Y8840D1*
X79209D2*
X80209D1*
X79209Y10837D2*
Y8840D1*
Y10837D2*
X80209D1*
X83431Y13358D2*
X81435D1*
Y14358D2*
Y13358D1*
X83431Y14358D2*
X81435D1*
X83431D2*
Y13358D1*
X87335Y33096D2*
Y35093D1*
X88335D2*
X87335D1*
X88335Y33096D2*
Y35093D1*
Y33096D2*
X87335D1*
X82217Y33175D2*
Y35171D1*
X83217D2*
X82217D1*
X83217Y33175D2*
Y35171D1*
Y33175D2*
X82217D1*
X88319Y33096D2*
Y35093D1*
X89319D2*
X88319D1*
X89319Y33096D2*
Y35093D1*
Y33096D2*
X88319D1*
X83201Y33175D2*
Y35171D1*
X84201D2*
X83201D1*
X84201Y33175D2*
Y35171D1*
Y33175D2*
X83201D1*
X93437Y32746D2*
Y34742D1*
X94437D2*
X93437D1*
X94437Y32746D2*
Y34742D1*
Y32746D2*
X93437D1*
X94421D2*
Y34742D1*
X95421D2*
X94421D1*
X95421Y32746D2*
Y34742D1*
Y32746D2*
X94421D1*
X77492Y37978D2*
Y39975D1*
X78492D2*
X77492D1*
X78492Y37978D2*
Y39975D1*
Y37978D2*
X77492D1*
Y28726D2*
Y30723D1*
X78492D2*
X77492D1*
X78492Y28726D2*
Y30723D1*
Y28726D2*
X77492D1*
Y19553D2*
Y21549D1*
X78492D2*
X77492D1*
X78492Y19553D2*
Y21549D1*
Y19553D2*
X77492D1*
Y10537D2*
Y12534D1*
X78492D2*
X77492D1*
X78492Y10537D2*
Y12534D1*
Y10537D2*
X77492D1*
X99933Y7959D2*
Y9955D1*
X100933D2*
X99933D1*
X100933Y7959D2*
Y9955D1*
Y7959D2*
X99933D1*
Y17210D2*
Y19207D1*
X100933D2*
X99933D1*
X100933Y17210D2*
Y19207D1*
Y17210D2*
X99933D1*
Y26069D2*
Y28065D1*
X100933D2*
X99933D1*
X100933Y26069D2*
Y28065D1*
Y26069D2*
X99933D1*
Y35124D2*
Y37120D1*
X100933D2*
X99933D1*
X100933Y35124D2*
Y37120D1*
Y35124D2*
X99933D1*
X91681Y29691D2*
Y27695D1*
X90681D2*
X91681D1*
X90681Y29691D2*
Y27695D1*
Y29691D2*
X91681D1*
X82790Y24315D2*
D18*
Y24415D1*
Y24315D2*
X83390D1*
Y24415D2*
Y24315D1*
X83490Y24415D2*
X84090D1*
X83390Y26914D2*
Y26814D1*
Y26914D2*
X82790D1*
Y26814D2*
Y26914D1*
X84090Y24415D2*
X84290Y24614D1*
X81890D2*
X82090Y24415D1*
X82690D1*
X84290Y26615D2*
X84090Y26814D1*
X83490D1*
X81890Y26615D2*
X82090Y26814D1*
X82690D1*
X83590Y26114D2*
D37*
X82590D1*
Y25114D2*
Y26114D1*
Y25114D2*
X83590D1*
Y26114D2*
Y25114D1*
X84290Y26114D2*
X84190D1*
Y25114D2*
Y26114D1*
Y25114D2*
X84290D1*
X81990Y25164D2*
Y26114D1*
Y25164D2*
X81890D1*
X81990Y26114D2*
X81890D1*
Y24614D2*
D18*
Y24764D1*
Y26615D2*
Y26465D1*
Y26114D1*
X84290Y26615D2*
Y26465D1*
Y24614D2*
Y24764D1*
Y25114D1*
Y26114D1*
Y26465D1*
X81890Y26114D2*
Y25164D1*
Y24764D1*
X82790Y24415D2*
X82690D1*
X83390D2*
X83490D1*
X82790Y26814D2*
X82690D1*
X83390D2*
X83490D1*
X82240Y26114D2*
Y25114D1*
X83990D2*
Y26114D1*
X83590Y26565D2*
X83290D1*
X82890D2*
X82590D1*
X83290D2*
X82940Y26465D1*
X82390Y25614D2*
G02X82390Y25614I700J0D01*
G01*
X82040Y26465D2*
G02X82040Y26465I200J0D01*
G01*
X82090Y24764D2*
G02X82090Y24764I200J0D01*
G01*
X83740D2*
G02X83740Y24764I200J0D01*
G01*
Y26465D2*
G02X83740Y26465I200J0D01*
G01*
X82840Y25614D2*
D37*
G02X82840Y25614I250J0D01*
G01*
X82990D2*
D18*
G02X82990Y25614I100J0D01*
G01*
X86675Y36595D2*
D36*
X85026D1*
X86800Y35498D2*
G02X84900Y35498I-950J447D01*
G01*
X85403Y35995D2*
X86298D1*
X86800Y35498D2*
G03X86899Y35995I-949J447D01*
G01*
G03X86800Y36392I-1056J-52D01*
G01*
X86403Y35995D2*
X86899D1*
X86801Y36392D2*
G03X86675Y36595I-942J-443D01*
G01*
X86298Y35995D2*
X86403D1*
X84900Y36392D2*
G03X84802Y35995I958J-449D01*
G01*
G03X84900Y35498I1048J-50D01*
G01*
X84802Y35995D2*
X85298D1*
X85403D1*
X85026Y36595D2*
G03X84896Y36383I815J-644D01*
G01*
X86675Y34430D2*
X85026D1*
X86800Y33332D2*
G02X84900Y33332I-950J447D01*
G01*
X85403Y33830D2*
X86298D1*
X86800Y33332D2*
G03X86899Y33830I-949J447D01*
G01*
G03X86800Y34227I-1056J-52D01*
G01*
X86403Y33830D2*
X86899D1*
X86801Y34227D2*
G03X86675Y34430I-942J-443D01*
G01*
X86298Y33830D2*
X86403D1*
X84900Y34227D2*
G03X84802Y33830I958J-449D01*
G01*
G03X84900Y33332I1048J-50D01*
G01*
X84802Y33830D2*
X85298D1*
X85403D1*
X85026Y34430D2*
G03X84896Y34217I815J-644D01*
G01*
X87653Y28059D2*
D20*
X86953D1*
X87653D2*
G03X88654Y28059I500J0D01*
G01*
X86953Y14059D2*
X89354D1*
Y28059D2*
X88654D1*
X89354D2*
Y27960D1*
X86953Y28059D2*
Y27960D1*
Y14059D2*
Y14158D1*
X89354Y14059D2*
Y14158D1*
X96063Y29357D2*
D10*
X90551D1*
Y38806D1*
X96063D1*
Y29357D1*
X92126Y31719D2*
X94882D1*
Y29751D1*
X94488D1*
Y30932D1*
X94094D1*
Y29751D1*
X93701D1*
Y30932D1*
X93307D1*
Y29751D1*
X92913D1*
Y30932D1*
X92520D1*
Y29751D1*
X90945D1*
X99736Y5327D2*
D36*
X90681D1*
Y20287D1*
X99736D1*
Y5327D1*
X63521Y36971D2*
D23*
X64292Y36261D1*
X63492Y38942D2*
X64292Y38191D1*
X63502Y40941D2*
X64292Y40151D1*
X62252Y41531D2*
D18*
Y35631D1*
X65872D2*
X65792D1*
X65872D2*
Y41531D1*
X62252D2*
X63192D1*
Y40901D1*
Y40201D1*
Y38931D1*
Y38231D2*
Y36961D1*
Y36261D2*
Y35631D1*
Y41531D2*
X65792D1*
X63192Y35631D2*
X62252D1*
X65792D2*
Y41531D1*
Y35631D2*
X63192D1*
X65792Y41531D2*
X65872D1*
X63192Y38931D2*
Y38231D1*
Y36961D2*
Y36261D1*
X63312Y40551D2*
G02X63312Y40551I590J0D01*
G01*
Y36611D2*
G02X63312Y36611I590J0D01*
G01*
X65072Y40551D2*
G02X65072Y40551I200J0D01*
G01*
Y36611D2*
G02X65072Y36611I200J0D01*
G01*
X63312Y38581D2*
G02X63312Y38581I590J0D01*
G01*
X65072D2*
G02X65072Y38581I200J0D01*
G01*
X63521Y27719D2*
D23*
X64292Y27009D1*
X63492Y29690D2*
X64292Y28939D1*
X63502Y31689D2*
X64292Y30899D1*
X62252Y32279D2*
D18*
Y26379D1*
X65872D2*
X65792D1*
X65872D2*
Y32279D1*
X62252D2*
X63192D1*
Y31649D1*
Y30949D1*
Y29679D1*
Y28979D2*
Y27709D1*
Y27009D2*
Y26379D1*
Y32279D2*
X65792D1*
X63192Y26379D2*
X62252D1*
X65792D2*
Y32279D1*
Y26379D2*
X63192D1*
X65792Y32279D2*
X65872D1*
X63192Y29679D2*
Y28979D1*
Y27709D2*
Y27009D1*
X63312Y31299D2*
G02X63312Y31299I590J0D01*
G01*
Y27359D2*
G02X63312Y27359I590J0D01*
G01*
X65072Y31299D2*
G02X65072Y31299I200J0D01*
G01*
Y27359D2*
G02X65072Y27359I200J0D01*
G01*
X63312Y29329D2*
G02X63312Y29329I590J0D01*
G01*
X65072D2*
G02X65072Y29329I200J0D01*
G01*
X63521Y18664D2*
D23*
X64292Y17954D1*
X63492Y20635D2*
X64292Y19884D1*
X63502Y22634D2*
X64292Y21844D1*
X62252Y23224D2*
D18*
Y17324D1*
X65872D2*
X65792D1*
X65872D2*
Y23224D1*
X62252D2*
X63192D1*
Y22594D1*
Y21894D1*
Y20624D1*
Y19924D2*
Y18654D1*
Y17954D2*
Y17324D1*
Y23224D2*
X65792D1*
X63192Y17324D2*
X62252D1*
X65792D2*
Y23224D1*
Y17324D2*
X63192D1*
X65792Y23224D2*
X65872D1*
X63192Y20624D2*
Y19924D1*
Y18654D2*
Y17954D1*
X63312Y22244D2*
G02X63312Y22244I590J0D01*
G01*
Y18304D2*
G02X63312Y18304I590J0D01*
G01*
X65072Y22244D2*
G02X65072Y22244I200J0D01*
G01*
Y18304D2*
G02X65072Y18304I200J0D01*
G01*
X63312Y20274D2*
G02X63312Y20274I590J0D01*
G01*
X65072D2*
G02X65072Y20274I200J0D01*
G01*
X63521Y9609D2*
D23*
X64292Y8899D1*
X63492Y11579D2*
X64292Y10829D1*
X63502Y13579D2*
X64292Y12789D1*
X62252Y14169D2*
D18*
Y8269D1*
X65872D2*
X65792D1*
X65872D2*
Y14169D1*
X62252D2*
X63192D1*
Y13539D1*
Y12839D1*
Y11569D1*
Y10869D2*
Y9599D1*
Y8899D2*
Y8269D1*
Y14169D2*
X65792D1*
X63192Y8269D2*
X62252D1*
X65792D2*
Y14169D1*
Y8269D2*
X63192D1*
X65792Y14169D2*
X65872D1*
X63192Y11569D2*
Y10869D1*
Y9599D2*
Y8899D1*
X63312Y13189D2*
G02X63312Y13189I590J0D01*
G01*
Y9249D2*
G02X63312Y9249I590J0D01*
G01*
X65072Y13189D2*
G02X65072Y13189I200J0D01*
G01*
Y9249D2*
G02X65072Y9249I200J0D01*
G01*
X63312Y11219D2*
G02X63312Y11219I590J0D01*
G01*
X65072D2*
G02X65072Y11219I200J0D01*
G01*
X114707Y12832D2*
D23*
X113936Y13542D1*
X114737Y10862D2*
X113936Y11612D1*
X114727Y8862D2*
X113936Y9652D1*
X115977Y8272D2*
D18*
Y14172D1*
X112357D2*
X112437D1*
X112357D2*
Y8272D1*
X115977D2*
X115037D1*
Y8902D1*
Y9602D1*
Y10872D1*
Y11572D2*
Y12842D1*
Y13542D2*
Y14172D1*
Y8272D2*
X112437D1*
X115037Y14172D2*
X115977D1*
X112437D2*
Y8272D1*
Y14172D2*
X115037D1*
X112437Y8272D2*
X112357D1*
X115037Y10872D2*
Y11572D1*
Y12842D2*
Y13542D1*
X113737Y9252D2*
G02X113737Y9252I590J0D01*
G01*
Y13192D2*
G02X113737Y13192I590J0D01*
G01*
X112757Y9252D2*
G02X112757Y9252I200J0D01*
G01*
Y13192D2*
G02X112757Y13192I200J0D01*
G01*
X113737Y11222D2*
G02X113737Y11222I590J0D01*
G01*
X112757D2*
G02X112757Y11222I200J0D01*
G01*
X114707Y21882D2*
D23*
X113936Y22592D1*
X114737Y19911D2*
X113936Y20662D1*
X114727Y17912D2*
X113936Y18702D1*
X115977Y17322D2*
D18*
Y23222D1*
X112357D2*
X112437D1*
X112357D2*
Y17322D1*
X115977D2*
X115037D1*
Y17952D1*
Y18652D1*
Y19922D1*
Y20622D2*
Y21892D1*
Y22592D2*
Y23222D1*
Y17322D2*
X112437D1*
X115037Y23222D2*
X115977D1*
X112437D2*
Y17322D1*
Y23222D2*
X115037D1*
X112437Y17322D2*
X112357D1*
X115037Y19922D2*
Y20622D1*
Y21892D2*
Y22592D1*
X113737Y18302D2*
G02X113737Y18302I590J0D01*
G01*
Y22242D2*
G02X113737Y22242I590J0D01*
G01*
X112757Y18302D2*
G02X112757Y18302I200J0D01*
G01*
Y22242D2*
G02X112757Y22242I200J0D01*
G01*
X113737Y20272D2*
G02X113737Y20272I590J0D01*
G01*
X112757D2*
G02X112757Y20272I200J0D01*
G01*
X114707Y30931D2*
D23*
X113936Y31641D1*
X114737Y28961D2*
X113936Y29711D1*
X114727Y26961D2*
X113936Y27751D1*
X115977Y26371D2*
D18*
Y32271D1*
X112357D2*
X112437D1*
X112357D2*
Y26371D1*
X115977D2*
X115037D1*
Y27001D1*
Y27701D1*
Y28971D1*
Y29671D2*
Y30941D1*
Y31641D2*
Y32271D1*
Y26371D2*
X112437D1*
X115037Y32271D2*
X115977D1*
X112437D2*
Y26371D1*
Y32271D2*
X115037D1*
X112437Y26371D2*
X112357D1*
X115037Y28971D2*
Y29671D1*
Y30941D2*
Y31641D1*
X113737Y27351D2*
G02X113737Y27351I590J0D01*
G01*
Y31291D2*
G02X113737Y31291I590J0D01*
G01*
X112757Y27351D2*
G02X112757Y27351I200J0D01*
G01*
Y31291D2*
G02X112757Y31291I200J0D01*
G01*
X113737Y29321D2*
G02X113737Y29321I590J0D01*
G01*
X112757D2*
G02X112757Y29321I200J0D01*
G01*
X114707Y40194D2*
D23*
X113936Y40904D1*
X114737Y38224D2*
X113936Y38974D1*
X114727Y36224D2*
X113936Y37014D1*
X115977Y35634D2*
D18*
Y41534D1*
X112357D2*
X112437D1*
X112357D2*
Y35634D1*
X115977D2*
X115037D1*
Y36264D1*
Y36964D1*
Y38234D1*
Y38934D2*
Y40204D1*
Y40904D2*
Y41534D1*
Y35634D2*
X112437D1*
X115037Y41534D2*
X115977D1*
X112437D2*
Y35634D1*
Y41534D2*
X115037D1*
X112437Y35634D2*
X112357D1*
X115037Y38234D2*
Y38934D1*
Y40204D2*
Y40904D1*
X113737Y36614D2*
G02X113737Y36614I590J0D01*
G01*
Y40554D2*
G02X113737Y40554I590J0D01*
G01*
X112757Y36614D2*
G02X112757Y36614I200J0D01*
G01*
Y40554D2*
G02X112757Y40554I200J0D01*
G01*
X113737Y38584D2*
G02X113737Y38584I590J0D01*
G01*
X112757D2*
G02X112757Y38584I200J0D01*
G01*
X87326Y6569D2*
D23*
X88116Y7359D1*
X89287Y6578D2*
X90066Y7369D1*
X86737Y5319D2*
D18*
X90667D1*
Y8939D2*
Y8859D1*
Y8939D2*
X86737D1*
Y5319D2*
Y6259D1*
X87367D1*
X88066D1*
X89337D1*
X90037D2*
X90667D1*
X86737D2*
Y8859D1*
X90667Y6259D2*
Y5319D1*
X86737Y8859D2*
X90667D1*
X86737D2*
Y8939D1*
X90667Y8859D2*
Y6259D1*
X89337D2*
X90037D1*
X87126Y6969D2*
G02X87126Y6969I590J0D01*
G01*
X87517Y8339D2*
G02X87517Y8339I200J0D01*
G01*
X89097Y6969D2*
G02X89097Y6969I590J0D01*
G01*
X89486Y8339D2*
G02X89486Y8339I200J0D01*
G01*
X4449Y80787D2*
D16*
X59567D1*
Y42992D1*
X4449D1*
Y80787D1*
Y42205D2*
X59567D1*
Y4409D1*
X4449D1*
Y42205D1*
X61535Y80787D2*
X116654D1*
Y42992D1*
X61535D1*
Y80787D1*
Y42205D2*
X116654D1*
Y4409D1*
X61535D1*
Y42205D1*
X26972Y65897D2*
D36*
X26991Y65859D1*
X27048Y65801D1*
X26647D1*
X26903Y62778D2*
X26922D1*
X26960Y62759D1*
X26979Y62740D1*
X26998Y62701D1*
Y62625D1*
X26979Y62587D1*
X26960Y62568D1*
X26922Y62548D1*
X26884D1*
X26845Y62568D1*
X26788Y62606D1*
X26597Y62797D1*
Y62529D1*
X25298Y65959D2*
Y65749D1*
X25145Y65863D1*
Y65806D1*
X25126Y65768D1*
X25107Y65749D1*
X25050Y65729D1*
X25012D1*
X24954Y65749D1*
X24916Y65787D1*
X24897Y65844D1*
Y65902D1*
X24916Y65959D1*
X24935Y65978D1*
X24973Y65997D1*
X24897Y62606D2*
X25298D1*
X25031Y62797D1*
Y62510D1*
X7883Y79884D2*
X7903Y79846D1*
X7960Y79788D1*
X7558D1*
X7844Y77875D2*
X7863D1*
X7902Y77856D1*
X7921Y77836D1*
X7940Y77798D1*
Y77722D1*
X7921Y77684D1*
X7902Y77664D1*
X7863Y77645D1*
X7825D1*
X7787Y77664D1*
X7730Y77703D1*
X7538Y77894D1*
Y77626D1*
X7960Y75886D2*
Y75675D1*
X7807Y75790D1*
Y75733D1*
X7788Y75694D1*
X7769Y75675D1*
X7711Y75656D1*
X7673D1*
X7616Y75675D1*
X7577Y75714D1*
X7558Y75771D1*
Y75828D1*
X7577Y75886D1*
X7597Y75905D1*
X7635Y75924D1*
X7883Y70632D2*
X7903Y70594D1*
X7960Y70536D1*
X7558D1*
X7844Y68623D2*
X7863D1*
X7902Y68604D1*
X7921Y68585D1*
X7940Y68546D1*
Y68470D1*
X7921Y68432D1*
X7902Y68413D1*
X7863Y68393D1*
X7825D1*
X7787Y68413D1*
X7730Y68451D1*
X7538Y68642D1*
Y68374D1*
X7960Y66634D2*
Y66424D1*
X7807Y66538D1*
Y66481D1*
X7788Y66443D1*
X7769Y66424D1*
X7711Y66404D1*
X7673D1*
X7616Y66424D1*
X7577Y66462D1*
X7558Y66519D1*
Y66576D1*
X7577Y66634D1*
X7597Y66653D1*
X7635Y66672D1*
X7883Y61577D2*
X7903Y61538D1*
X7960Y61481D1*
X7558D1*
X7844Y59567D2*
X7863D1*
X7902Y59548D1*
X7921Y59529D1*
X7940Y59491D1*
Y59414D1*
X7921Y59376D1*
X7902Y59357D1*
X7863Y59338D1*
X7825D1*
X7787Y59357D1*
X7730Y59395D1*
X7538Y59587D1*
Y59319D1*
X7960Y57578D2*
Y57368D1*
X7807Y57483D1*
Y57425D1*
X7788Y57387D1*
X7769Y57368D1*
X7711Y57349D1*
X7673D1*
X7616Y57368D1*
X7577Y57406D1*
X7558Y57464D1*
Y57521D1*
X7577Y57578D1*
X7597Y57597D1*
X7635Y57617D1*
X7883Y52522D2*
X7903Y52483D1*
X7960Y52426D1*
X7558D1*
X7844Y50512D2*
X7863D1*
X7902Y50493D1*
X7921Y50474D1*
X7940Y50436D1*
Y50359D1*
X7921Y50321D1*
X7902Y50302D1*
X7863Y50283D1*
X7825D1*
X7787Y50302D1*
X7730Y50340D1*
X7538Y50532D1*
Y50264D1*
X7960Y48523D2*
Y48313D1*
X7807Y48428D1*
Y48370D1*
X7788Y48332D1*
X7769Y48313D1*
X7711Y48294D1*
X7673D1*
X7616Y48313D1*
X7577Y48351D1*
X7558Y48409D1*
Y48466D1*
X7577Y48523D1*
X7597Y48542D1*
X7635Y48562D1*
X56172Y47084D2*
X56152Y47123D1*
X56095Y47180D1*
X56497D1*
X56211Y49094D2*
X56192D1*
X56153Y49113D1*
X56134Y49132D1*
X56115Y49170D1*
Y49247D1*
X56134Y49285D1*
X56153Y49304D1*
X56192Y49323D1*
X56230D1*
X56268Y49304D1*
X56325Y49266D1*
X56517Y49075D1*
Y49342D1*
X56095Y51083D2*
Y51293D1*
X56248Y51179D1*
Y51236D1*
X56267Y51274D1*
X56286Y51293D1*
X56344Y51312D1*
X56382D1*
X56439Y51293D1*
X56478Y51255D1*
X56497Y51198D1*
Y51140D1*
X56478Y51083D1*
X56458Y51064D1*
X56420Y51045D1*
X56172Y56134D2*
X56152Y56173D1*
X56095Y56230D1*
X56497D1*
X56211Y58144D2*
X56192D1*
X56153Y58163D1*
X56134Y58182D1*
X56115Y58220D1*
Y58297D1*
X56134Y58335D1*
X56153Y58354D1*
X56192Y58373D1*
X56230D1*
X56268Y58354D1*
X56325Y58316D1*
X56517Y58124D1*
Y58392D1*
X56095Y60133D2*
Y60343D1*
X56248Y60228D1*
Y60286D1*
X56267Y60324D1*
X56286Y60343D1*
X56344Y60362D1*
X56382D1*
X56439Y60343D1*
X56478Y60305D1*
X56497Y60247D1*
Y60190D1*
X56478Y60133D1*
X56458Y60114D1*
X56420Y60094D1*
X56172Y65184D2*
X56152Y65222D1*
X56095Y65280D1*
X56497D1*
X56211Y67193D2*
X56192D1*
X56153Y67212D1*
X56134Y67231D1*
X56115Y67270D1*
Y67346D1*
X56134Y67384D1*
X56153Y67403D1*
X56192Y67423D1*
X56230D1*
X56268Y67403D1*
X56325Y67365D1*
X56517Y67174D1*
Y67442D1*
X56095Y69182D2*
Y69392D1*
X56248Y69278D1*
Y69335D1*
X56267Y69373D1*
X56286Y69392D1*
X56344Y69412D1*
X56382D1*
X56439Y69392D1*
X56478Y69354D1*
X56497Y69297D1*
Y69239D1*
X56478Y69182D1*
X56458Y69163D1*
X56420Y69144D1*
X56172Y74447D2*
X56152Y74485D1*
X56095Y74543D1*
X56497D1*
X56211Y76456D2*
X56192D1*
X56153Y76475D1*
X56134Y76494D1*
X56115Y76533D1*
Y76609D1*
X56134Y76647D1*
X56153Y76666D1*
X56192Y76686D1*
X56230D1*
X56268Y76666D1*
X56325Y76628D1*
X56517Y76437D1*
Y76705D1*
X56095Y78445D2*
Y78655D1*
X56248Y78541D1*
Y78598D1*
X56267Y78636D1*
X56286Y78655D1*
X56344Y78675D1*
X56382D1*
X56439Y78655D1*
X56478Y78617D1*
X56497Y78560D1*
Y78502D1*
X56478Y78445D1*
X56458Y78426D1*
X56420Y78407D1*
X29830Y46619D2*
X29868Y46639D1*
X29926Y46696D1*
Y46294D1*
X31799Y46600D2*
Y46619D1*
X31818Y46658D1*
X31837Y46677D1*
X31876Y46696D1*
X31952D1*
X31990Y46677D1*
X32009Y46658D1*
X32029Y46619D1*
Y46581D1*
X32009Y46543D1*
X31971Y46486D1*
X31780Y46294D1*
X32048D1*
X26972Y27314D2*
X26991Y27276D1*
X27048Y27219D1*
X26647D1*
X26903Y24195D2*
X26922D1*
X26960Y24176D1*
X26979Y24157D1*
X26998Y24118D1*
Y24042D1*
X26979Y24004D1*
X26960Y23985D1*
X26922Y23965D1*
X26884D1*
X26845Y23985D1*
X26788Y24023D1*
X26597Y24214D1*
Y23946D1*
X25298Y27376D2*
Y27166D1*
X25145Y27281D1*
Y27223D1*
X25126Y27185D1*
X25107Y27166D1*
X25050Y27147D1*
X25012D1*
X24954Y27166D1*
X24916Y27204D1*
X24897Y27262D1*
Y27319D1*
X24916Y27376D1*
X24935Y27395D1*
X24973Y27415D1*
X24897Y24023D2*
X25298D1*
X25031Y24214D1*
Y23927D1*
X7883Y41301D2*
X7903Y41263D1*
X7960Y41205D1*
X7558D1*
X7844Y39292D2*
X7863D1*
X7902Y39273D1*
X7921Y39254D1*
X7940Y39215D1*
Y39139D1*
X7921Y39101D1*
X7902Y39082D1*
X7863Y39062D1*
X7825D1*
X7787Y39082D1*
X7730Y39120D1*
X7538Y39311D1*
Y39043D1*
X7960Y37303D2*
Y37093D1*
X7807Y37207D1*
Y37150D1*
X7788Y37112D1*
X7769Y37093D1*
X7711Y37073D1*
X7673D1*
X7616Y37093D1*
X7577Y37131D1*
X7558Y37188D1*
Y37246D1*
X7577Y37303D1*
X7597Y37322D1*
X7635Y37341D1*
X7883Y32049D2*
X7903Y32011D1*
X7960Y31953D1*
X7558D1*
X7844Y30040D2*
X7863D1*
X7902Y30021D1*
X7921Y30002D1*
X7940Y29963D1*
Y29887D1*
X7921Y29849D1*
X7902Y29830D1*
X7863Y29810D1*
X7825D1*
X7787Y29830D1*
X7730Y29868D1*
X7538Y30059D1*
Y29791D1*
X7960Y28051D2*
Y27841D1*
X7807Y27955D1*
Y27898D1*
X7788Y27860D1*
X7769Y27841D1*
X7711Y27821D1*
X7673D1*
X7616Y27841D1*
X7577Y27879D1*
X7558Y27936D1*
Y27994D1*
X7577Y28051D1*
X7597Y28070D1*
X7635Y28089D1*
X7883Y22994D2*
X7903Y22956D1*
X7960Y22898D1*
X7558D1*
X7844Y20985D2*
X7863D1*
X7902Y20966D1*
X7921Y20947D1*
X7940Y20908D1*
Y20832D1*
X7921Y20794D1*
X7902Y20775D1*
X7863Y20755D1*
X7825D1*
X7787Y20775D1*
X7730Y20813D1*
X7538Y21004D1*
Y20736D1*
X7960Y18996D2*
Y18786D1*
X7807Y18900D1*
Y18843D1*
X7788Y18805D1*
X7769Y18786D1*
X7711Y18766D1*
X7673D1*
X7616Y18786D1*
X7577Y18824D1*
X7558Y18881D1*
Y18939D1*
X7577Y18996D1*
X7597Y19015D1*
X7635Y19034D1*
X7883Y13939D2*
X7903Y13901D1*
X7960Y13843D1*
X7558D1*
X7844Y11930D2*
X7863D1*
X7902Y11911D1*
X7921Y11892D1*
X7940Y11853D1*
Y11777D1*
X7921Y11739D1*
X7902Y11720D1*
X7863Y11700D1*
X7825D1*
X7787Y11720D1*
X7730Y11758D1*
X7538Y11949D1*
Y11681D1*
X7960Y9941D2*
Y9731D1*
X7807Y9845D1*
Y9788D1*
X7788Y9750D1*
X7769Y9731D1*
X7711Y9711D1*
X7673D1*
X7616Y9731D1*
X7577Y9769D1*
X7558Y9826D1*
Y9884D1*
X7577Y9941D1*
X7597Y9960D1*
X7635Y9979D1*
X56172Y8502D2*
X56152Y8540D1*
X56095Y8598D1*
X56497D1*
X56211Y10511D2*
X56192D1*
X56153Y10530D1*
X56134Y10549D1*
X56115Y10588D1*
Y10664D1*
X56134Y10702D1*
X56153Y10721D1*
X56192Y10741D1*
X56230D1*
X56268Y10721D1*
X56325Y10683D1*
X56517Y10492D1*
Y10760D1*
X56095Y12500D2*
Y12710D1*
X56248Y12596D1*
Y12653D1*
X56267Y12691D1*
X56286Y12710D1*
X56344Y12730D1*
X56382D1*
X56439Y12710D1*
X56478Y12672D1*
X56497Y12615D1*
Y12557D1*
X56478Y12500D1*
X56458Y12481D1*
X56420Y12462D1*
X56172Y17551D2*
X56152Y17590D1*
X56095Y17647D1*
X56497D1*
X56211Y19561D2*
X56192D1*
X56153Y19580D1*
X56134Y19599D1*
X56115Y19637D1*
Y19714D1*
X56134Y19752D1*
X56153Y19771D1*
X56192Y19790D1*
X56230D1*
X56268Y19771D1*
X56325Y19733D1*
X56517Y19541D1*
Y19809D1*
X56095Y21550D2*
Y21760D1*
X56248Y21645D1*
Y21703D1*
X56267Y21741D1*
X56286Y21760D1*
X56344Y21779D1*
X56382D1*
X56439Y21760D1*
X56478Y21722D1*
X56497Y21664D1*
Y21607D1*
X56478Y21550D1*
X56458Y21531D1*
X56420Y21511D1*
X56172Y26601D2*
X56152Y26639D1*
X56095Y26697D1*
X56497D1*
X56211Y28611D2*
X56192D1*
X56153Y28630D1*
X56134Y28649D1*
X56115Y28687D1*
Y28764D1*
X56134Y28802D1*
X56153Y28821D1*
X56192Y28840D1*
X56230D1*
X56268Y28821D1*
X56325Y28783D1*
X56517Y28591D1*
Y28859D1*
X56095Y30600D2*
Y30810D1*
X56248Y30695D1*
Y30753D1*
X56267Y30791D1*
X56286Y30810D1*
X56344Y30829D1*
X56382D1*
X56439Y30810D1*
X56478Y30772D1*
X56497Y30714D1*
Y30657D1*
X56478Y30600D1*
X56458Y30581D1*
X56420Y30561D1*
X56172Y35864D2*
X56152Y35902D1*
X56095Y35960D1*
X56497D1*
X56211Y37874D2*
X56192D1*
X56153Y37893D1*
X56134Y37912D1*
X56115Y37950D1*
Y38026D1*
X56134Y38065D1*
X56153Y38084D1*
X56192Y38103D1*
X56230D1*
X56268Y38084D1*
X56325Y38046D1*
X56517Y37854D1*
Y38122D1*
X56095Y39863D2*
Y40073D1*
X56248Y39958D1*
Y40016D1*
X56267Y40054D1*
X56286Y40073D1*
X56344Y40092D1*
X56382D1*
X56439Y40073D1*
X56478Y40035D1*
X56497Y39977D1*
Y39920D1*
X56478Y39863D1*
X56458Y39844D1*
X56420Y39824D1*
X29830Y8037D2*
X29868Y8056D1*
X29926Y8113D1*
Y7712D1*
X31799Y8018D2*
Y8037D1*
X31818Y8075D1*
X31837Y8094D1*
X31876Y8113D1*
X31952D1*
X31990Y8094D1*
X32009Y8075D1*
X32029Y8037D1*
Y7999D1*
X32009Y7960D1*
X31971Y7903D1*
X31780Y7712D1*
X32048D1*
X84058Y65897D2*
X84078Y65859D1*
X84135Y65801D1*
X83733D1*
X83989Y62778D2*
X84008D1*
X84047Y62759D1*
X84066Y62740D1*
X84085Y62701D1*
Y62625D1*
X84066Y62587D1*
X84047Y62568D1*
X84008Y62548D1*
X83970D1*
X83932Y62568D1*
X83875Y62606D1*
X83683Y62797D1*
Y62529D1*
X82385Y65959D2*
Y65749D1*
X82232Y65863D1*
Y65806D1*
X82213Y65768D1*
X82194Y65749D1*
X82136Y65729D1*
X82098D1*
X82041Y65749D1*
X82002Y65787D1*
X81983Y65844D1*
Y65902D1*
X82002Y65959D1*
X82022Y65978D1*
X82060Y65997D1*
X81983Y62606D2*
X82385D1*
X82117Y62797D1*
Y62510D1*
X64970Y79884D2*
X64989Y79846D1*
X65046Y79788D1*
X64645D1*
X64931Y77875D2*
X64950D1*
X64988Y77856D1*
X65007Y77836D1*
X65026Y77798D1*
Y77722D1*
X65007Y77684D1*
X64988Y77664D1*
X64950Y77645D1*
X64912D1*
X64873Y77664D1*
X64816Y77703D1*
X64625Y77894D1*
Y77626D1*
X65046Y75886D2*
Y75675D1*
X64893Y75790D1*
Y75733D1*
X64874Y75694D1*
X64855Y75675D1*
X64798Y75656D1*
X64760D1*
X64702Y75675D1*
X64664Y75714D1*
X64645Y75771D1*
Y75828D1*
X64664Y75886D1*
X64683Y75905D1*
X64721Y75924D1*
X64970Y70632D2*
X64989Y70594D1*
X65046Y70536D1*
X64645D1*
X64931Y68623D2*
X64950D1*
X64988Y68604D1*
X65007Y68585D1*
X65026Y68546D1*
Y68470D1*
X65007Y68432D1*
X64988Y68413D1*
X64950Y68393D1*
X64912D1*
X64873Y68413D1*
X64816Y68451D1*
X64625Y68642D1*
Y68374D1*
X65046Y66634D2*
Y66424D1*
X64893Y66538D1*
Y66481D1*
X64874Y66443D1*
X64855Y66424D1*
X64798Y66404D1*
X64760D1*
X64702Y66424D1*
X64664Y66462D1*
X64645Y66519D1*
Y66576D1*
X64664Y66634D1*
X64683Y66653D1*
X64721Y66672D1*
X64970Y61577D2*
X64989Y61538D1*
X65046Y61481D1*
X64645D1*
X64931Y59567D2*
X64950D1*
X64988Y59548D1*
X65007Y59529D1*
X65026Y59491D1*
Y59414D1*
X65007Y59376D1*
X64988Y59357D1*
X64950Y59338D1*
X64912D1*
X64873Y59357D1*
X64816Y59395D1*
X64625Y59587D1*
Y59319D1*
X65046Y57578D2*
Y57368D1*
X64893Y57483D1*
Y57425D1*
X64874Y57387D1*
X64855Y57368D1*
X64798Y57349D1*
X64760D1*
X64702Y57368D1*
X64664Y57406D1*
X64645Y57464D1*
Y57521D1*
X64664Y57578D1*
X64683Y57597D1*
X64721Y57617D1*
X64970Y52522D2*
X64989Y52483D1*
X65046Y52426D1*
X64645D1*
X64931Y50512D2*
X64950D1*
X64988Y50493D1*
X65007Y50474D1*
X65026Y50436D1*
Y50359D1*
X65007Y50321D1*
X64988Y50302D1*
X64950Y50283D1*
X64912D1*
X64873Y50302D1*
X64816Y50340D1*
X64625Y50532D1*
Y50264D1*
X65046Y48523D2*
Y48313D1*
X64893Y48428D1*
Y48370D1*
X64874Y48332D1*
X64855Y48313D1*
X64798Y48294D1*
X64760D1*
X64702Y48313D1*
X64664Y48351D1*
X64645Y48409D1*
Y48466D1*
X64664Y48523D1*
X64683Y48542D1*
X64721Y48562D1*
X113258Y47084D2*
X113239Y47123D1*
X113182Y47180D1*
X113583D1*
X113297Y49094D2*
X113278D1*
X113240Y49113D1*
X113221Y49132D1*
X113202Y49170D1*
Y49247D1*
X113221Y49285D1*
X113240Y49304D1*
X113278Y49323D1*
X113316D1*
X113355Y49304D1*
X113412Y49266D1*
X113603Y49075D1*
Y49342D1*
X113182Y51083D2*
Y51293D1*
X113335Y51179D1*
Y51236D1*
X113354Y51274D1*
X113373Y51293D1*
X113430Y51312D1*
X113468D1*
X113526Y51293D1*
X113564Y51255D1*
X113583Y51198D1*
Y51140D1*
X113564Y51083D1*
X113545Y51064D1*
X113507Y51045D1*
X113258Y56134D2*
X113239Y56173D1*
X113182Y56230D1*
X113583D1*
X113297Y58144D2*
X113278D1*
X113240Y58163D1*
X113221Y58182D1*
X113202Y58220D1*
Y58297D1*
X113221Y58335D1*
X113240Y58354D1*
X113278Y58373D1*
X113316D1*
X113355Y58354D1*
X113412Y58316D1*
X113603Y58124D1*
Y58392D1*
X113182Y60133D2*
Y60343D1*
X113335Y60228D1*
Y60286D1*
X113354Y60324D1*
X113373Y60343D1*
X113430Y60362D1*
X113468D1*
X113526Y60343D1*
X113564Y60305D1*
X113583Y60247D1*
Y60190D1*
X113564Y60133D1*
X113545Y60114D1*
X113507Y60094D1*
X113258Y65184D2*
X113239Y65222D1*
X113182Y65280D1*
X113583D1*
X113297Y67193D2*
X113278D1*
X113240Y67212D1*
X113221Y67231D1*
X113202Y67270D1*
Y67346D1*
X113221Y67384D1*
X113240Y67403D1*
X113278Y67423D1*
X113316D1*
X113355Y67403D1*
X113412Y67365D1*
X113603Y67174D1*
Y67442D1*
X113182Y69182D2*
Y69392D1*
X113335Y69278D1*
Y69335D1*
X113354Y69373D1*
X113373Y69392D1*
X113430Y69412D1*
X113468D1*
X113526Y69392D1*
X113564Y69354D1*
X113583Y69297D1*
Y69239D1*
X113564Y69182D1*
X113545Y69163D1*
X113507Y69144D1*
X113258Y74447D2*
X113239Y74485D1*
X113182Y74543D1*
X113583D1*
X113297Y76456D2*
X113278D1*
X113240Y76475D1*
X113221Y76494D1*
X113202Y76533D1*
Y76609D1*
X113221Y76647D1*
X113240Y76666D1*
X113278Y76686D1*
X113316D1*
X113355Y76666D1*
X113412Y76628D1*
X113603Y76437D1*
Y76705D1*
X113182Y78445D2*
Y78655D1*
X113335Y78541D1*
Y78598D1*
X113354Y78636D1*
X113373Y78655D1*
X113430Y78675D1*
X113468D1*
X113526Y78655D1*
X113564Y78617D1*
X113583Y78560D1*
Y78502D1*
X113564Y78445D1*
X113545Y78426D1*
X113507Y78407D1*
X86916Y46619D2*
X86955Y46639D1*
X87012Y46696D1*
Y46294D1*
X88886Y46600D2*
Y46619D1*
X88905Y46658D1*
X88924Y46677D1*
X88962Y46696D1*
X89039D1*
X89077Y46677D1*
X89096Y46658D1*
X89115Y46619D1*
Y46581D1*
X89096Y46543D1*
X89058Y46486D1*
X88866Y46294D1*
X89134D1*
X84058Y27314D2*
X84078Y27276D1*
X84135Y27219D1*
X83733D1*
X83989Y24195D2*
X84008D1*
X84047Y24176D1*
X84066Y24157D1*
X84085Y24118D1*
Y24042D1*
X84066Y24004D1*
X84047Y23985D1*
X84008Y23965D1*
X83970D1*
X83932Y23985D1*
X83875Y24023D1*
X83683Y24214D1*
Y23946D1*
X82385Y27376D2*
Y27166D1*
X82232Y27281D1*
Y27223D1*
X82213Y27185D1*
X82194Y27166D1*
X82136Y27147D1*
X82098D1*
X82041Y27166D1*
X82002Y27204D1*
X81983Y27262D1*
Y27319D1*
X82002Y27376D1*
X82022Y27395D1*
X82060Y27415D1*
X81983Y24023D2*
X82385D1*
X82117Y24214D1*
Y23927D1*
X64970Y41301D2*
X64989Y41263D1*
X65046Y41205D1*
X64645D1*
X64931Y39292D2*
X64950D1*
X64988Y39273D1*
X65007Y39254D1*
X65026Y39215D1*
Y39139D1*
X65007Y39101D1*
X64988Y39082D1*
X64950Y39062D1*
X64912D1*
X64873Y39082D1*
X64816Y39120D1*
X64625Y39311D1*
Y39043D1*
X65046Y37303D2*
Y37093D1*
X64893Y37207D1*
Y37150D1*
X64874Y37112D1*
X64855Y37093D1*
X64798Y37073D1*
X64760D1*
X64702Y37093D1*
X64664Y37131D1*
X64645Y37188D1*
Y37246D1*
X64664Y37303D1*
X64683Y37322D1*
X64721Y37341D1*
X64970Y32049D2*
X64989Y32011D1*
X65046Y31953D1*
X64645D1*
X64931Y30040D2*
X64950D1*
X64988Y30021D1*
X65007Y30002D1*
X65026Y29963D1*
Y29887D1*
X65007Y29849D1*
X64988Y29830D1*
X64950Y29810D1*
X64912D1*
X64873Y29830D1*
X64816Y29868D1*
X64625Y30059D1*
Y29791D1*
X65046Y28051D2*
Y27841D1*
X64893Y27955D1*
Y27898D1*
X64874Y27860D1*
X64855Y27841D1*
X64798Y27821D1*
X64760D1*
X64702Y27841D1*
X64664Y27879D1*
X64645Y27936D1*
Y27994D1*
X64664Y28051D1*
X64683Y28070D1*
X64721Y28089D1*
X64970Y22994D2*
X64989Y22956D1*
X65046Y22898D1*
X64645D1*
X64931Y20985D2*
X64950D1*
X64988Y20966D1*
X65007Y20947D1*
X65026Y20908D1*
Y20832D1*
X65007Y20794D1*
X64988Y20775D1*
X64950Y20755D1*
X64912D1*
X64873Y20775D1*
X64816Y20813D1*
X64625Y21004D1*
Y20736D1*
X65046Y18996D2*
Y18786D1*
X64893Y18900D1*
Y18843D1*
X64874Y18805D1*
X64855Y18786D1*
X64798Y18766D1*
X64760D1*
X64702Y18786D1*
X64664Y18824D1*
X64645Y18881D1*
Y18939D1*
X64664Y18996D1*
X64683Y19015D1*
X64721Y19034D1*
X64970Y13939D2*
X64989Y13901D1*
X65046Y13843D1*
X64645D1*
X64931Y11930D2*
X64950D1*
X64988Y11911D1*
X65007Y11892D1*
X65026Y11853D1*
Y11777D1*
X65007Y11739D1*
X64988Y11720D1*
X64950Y11700D1*
X64912D1*
X64873Y11720D1*
X64816Y11758D1*
X64625Y11949D1*
Y11681D1*
X65046Y9941D2*
Y9731D1*
X64893Y9845D1*
Y9788D1*
X64874Y9750D1*
X64855Y9731D1*
X64798Y9711D1*
X64760D1*
X64702Y9731D1*
X64664Y9769D1*
X64645Y9826D1*
Y9884D1*
X64664Y9941D1*
X64683Y9960D1*
X64721Y9979D1*
X113258Y8502D2*
X113239Y8540D1*
X113182Y8598D1*
X113583D1*
X113297Y10511D2*
X113278D1*
X113240Y10530D1*
X113221Y10549D1*
X113202Y10588D1*
Y10664D1*
X113221Y10702D1*
X113240Y10721D1*
X113278Y10741D1*
X113316D1*
X113355Y10721D1*
X113412Y10683D1*
X113603Y10492D1*
Y10760D1*
X113182Y12500D2*
Y12710D1*
X113335Y12596D1*
Y12653D1*
X113354Y12691D1*
X113373Y12710D1*
X113430Y12730D1*
X113468D1*
X113526Y12710D1*
X113564Y12672D1*
X113583Y12615D1*
Y12557D1*
X113564Y12500D1*
X113545Y12481D1*
X113507Y12462D1*
X113258Y17551D2*
X113239Y17590D1*
X113182Y17647D1*
X113583D1*
X113297Y19561D2*
X113278D1*
X113240Y19580D1*
X113221Y19599D1*
X113202Y19637D1*
Y19714D1*
X113221Y19752D1*
X113240Y19771D1*
X113278Y19790D1*
X113316D1*
X113355Y19771D1*
X113412Y19733D1*
X113603Y19541D1*
Y19809D1*
X113182Y21550D2*
Y21760D1*
X113335Y21645D1*
Y21703D1*
X113354Y21741D1*
X113373Y21760D1*
X113430Y21779D1*
X113468D1*
X113526Y21760D1*
X113564Y21722D1*
X113583Y21664D1*
Y21607D1*
X113564Y21550D1*
X113545Y21531D1*
X113507Y21511D1*
X113258Y26601D2*
X113239Y26639D1*
X113182Y26697D1*
X113583D1*
X113297Y28611D2*
X113278D1*
X113240Y28630D1*
X113221Y28649D1*
X113202Y28687D1*
Y28764D1*
X113221Y28802D1*
X113240Y28821D1*
X113278Y28840D1*
X113316D1*
X113355Y28821D1*
X113412Y28783D1*
X113603Y28591D1*
Y28859D1*
X113182Y30600D2*
Y30810D1*
X113335Y30695D1*
Y30753D1*
X113354Y30791D1*
X113373Y30810D1*
X113430Y30829D1*
X113468D1*
X113526Y30810D1*
X113564Y30772D1*
X113583Y30714D1*
Y30657D1*
X113564Y30600D1*
X113545Y30581D1*
X113507Y30561D1*
X113258Y35864D2*
X113239Y35902D1*
X113182Y35960D1*
X113583D1*
X113297Y37874D2*
X113278D1*
X113240Y37893D1*
X113221Y37912D1*
X113202Y37950D1*
Y38026D1*
X113221Y38065D1*
X113240Y38084D1*
X113278Y38103D1*
X113316D1*
X113355Y38084D1*
X113412Y38046D1*
X113603Y37854D1*
Y38122D1*
X113182Y39863D2*
Y40073D1*
X113335Y39958D1*
Y40016D1*
X113354Y40054D1*
X113373Y40073D1*
X113430Y40092D1*
X113468D1*
X113526Y40073D1*
X113564Y40035D1*
X113583Y39977D1*
Y39920D1*
X113564Y39863D1*
X113545Y39844D1*
X113507Y39824D1*
X86916Y8037D2*
X86955Y8056D1*
X87012Y8113D1*
Y7712D1*
X88886Y8018D2*
Y8037D1*
X88905Y8075D1*
X88924Y8094D1*
X88962Y8113D1*
X89039D1*
X89077Y8094D1*
X89096Y8075D1*
X89115Y8037D1*
Y7999D1*
X89096Y7960D1*
X89058Y7903D1*
X88866Y7712D1*
X89134D1*
M02*
