G04 DipTrace 2.4.0.2*
%INTopMask.gbr*%
%MOIN*%
%ADD14C,0.0787*%
%ADD35R,0.0787X0.0787*%
%ADD54O,0.0784X0.1489*%
%ADD56O,0.1489X0.0784*%
%ADD58C,0.0839*%
%ADD60O,0.0866X0.0669*%
%ADD62R,0.0866X0.0669*%
%ADD64O,0.1199X0.0639*%
%ADD66R,0.0866X0.0866*%
%ADD67O,0.1639X0.0859*%
%ADD69O,0.0679X0.1279*%
%ADD71C,0.0866*%
%ADD72C,0.0709*%
%ADD73R,0.0748X0.0748*%
%ADD75O,0.1279X0.0679*%
%ADD77O,0.0599X0.1119*%
%ADD85C,0.1079*%
%ADD87C,0.0779*%
%ADD90R,0.0866X0.0787*%
%ADD92C,0.0866*%
%FSLAX44Y44*%
G04*
G70*
G90*
G75*
G01*
%LNTopMask*%
%LPD*%
D92*
X39803Y78701D3*
D90*
Y77701D3*
G36*
X39989Y60669D2*
X40197Y60877D1*
Y61170D1*
X39989Y61378D1*
X39696D1*
X39488Y61170D1*
Y60877D1*
X39696Y60669D1*
X39989D1*
G37*
D72*
X39843Y62024D3*
D87*
X25797Y59350D3*
Y60350D3*
D85*
X36654Y62205D3*
G36*
X36877Y59665D2*
X37193Y59981D1*
Y60428D1*
X36877Y60744D1*
X36430D1*
X36114Y60428D1*
Y59981D1*
X36430Y59665D1*
X36877D1*
G37*
D87*
X25797Y58225D3*
Y57225D3*
G36*
X23961Y46581D2*
X23785Y46756D1*
X23537D1*
X23362Y46581D1*
Y46333D1*
X23537Y46157D1*
X23785D1*
X23961Y46333D1*
Y46581D1*
G37*
G36*
X24961D2*
X24785Y46756D1*
X24537D1*
X24362Y46581D1*
Y46333D1*
X24537Y46157D1*
X24785D1*
X24961Y46333D1*
Y46581D1*
G37*
G36*
X26378Y54477D2*
X26170Y54685D1*
X25877D1*
X25669Y54477D1*
Y54184D1*
X25877Y53976D1*
X26170D1*
X26378Y54184D1*
Y54477D1*
G37*
D72*
X25024Y54331D3*
G36*
X27260Y46564D2*
X27052Y46772D1*
X26759D1*
X26551Y46564D1*
Y46271D1*
X26759Y46063D1*
X27052D1*
X27260Y46271D1*
Y46564D1*
G37*
D72*
X25906Y46417D3*
G36*
X18717Y74746D2*
X18963Y74992D1*
Y75339D1*
X18717Y75585D1*
X18370D1*
X18124Y75339D1*
Y74992D1*
X18370Y74746D1*
X18717D1*
G37*
G36*
Y78746D2*
X18963Y78992D1*
Y79339D1*
X18717Y79585D1*
X18370D1*
X18124Y79339D1*
Y78992D1*
X18370Y78746D1*
X18717D1*
G37*
G36*
Y65494D2*
X18963Y65740D1*
Y66087D1*
X18717Y66333D1*
X18370D1*
X18124Y66087D1*
Y65740D1*
X18370Y65494D1*
X18717D1*
G37*
G36*
Y69494D2*
X18963Y69740D1*
Y70087D1*
X18717Y70333D1*
X18370D1*
X18124Y70087D1*
Y69740D1*
X18370Y69494D1*
X18717D1*
G37*
G36*
Y56439D2*
X18963Y56685D1*
Y57032D1*
X18717Y57278D1*
X18370D1*
X18124Y57032D1*
Y56685D1*
X18370Y56439D1*
X18717D1*
G37*
G36*
Y60439D2*
X18963Y60685D1*
Y61032D1*
X18717Y61278D1*
X18370D1*
X18124Y61032D1*
Y60685D1*
X18370Y60439D1*
X18717D1*
G37*
G36*
Y47384D2*
X18963Y47629D1*
Y47977D1*
X18717Y48223D1*
X18370D1*
X18124Y47977D1*
Y47629D1*
X18370Y47384D1*
X18717D1*
G37*
G36*
Y51384D2*
X18963Y51629D1*
Y51977D1*
X18717Y52223D1*
X18370D1*
X18124Y51977D1*
Y51629D1*
X18370Y51384D1*
X18717D1*
G37*
G36*
X45338Y52191D2*
X45092Y51945D1*
Y51598D1*
X45338Y51352D1*
X45686D1*
X45931Y51598D1*
Y51945D1*
X45686Y52191D1*
X45338D1*
G37*
G36*
Y48191D2*
X45092Y47945D1*
Y47598D1*
X45338Y47352D1*
X45686D1*
X45931Y47598D1*
Y47945D1*
X45686Y48191D1*
X45338D1*
G37*
G36*
Y61443D2*
X45092Y61197D1*
Y60850D1*
X45338Y60604D1*
X45686D1*
X45931Y60850D1*
Y61197D1*
X45686Y61443D1*
X45338D1*
G37*
G36*
Y57443D2*
X45092Y57197D1*
Y56850D1*
X45338Y56604D1*
X45686D1*
X45931Y56850D1*
Y57197D1*
X45686Y57443D1*
X45338D1*
G37*
G36*
Y70333D2*
X45092Y70087D1*
Y69740D1*
X45338Y69494D1*
X45686D1*
X45931Y69740D1*
Y70087D1*
X45686Y70333D1*
X45338D1*
G37*
G36*
Y66333D2*
X45092Y66087D1*
Y65740D1*
X45338Y65494D1*
X45686D1*
X45931Y65740D1*
Y66087D1*
X45686Y66333D1*
X45338D1*
G37*
G36*
Y79585D2*
X45092Y79339D1*
Y78992D1*
X45338Y78746D1*
X45686D1*
X45931Y78992D1*
Y79339D1*
X45686Y79585D1*
X45338D1*
G37*
G36*
Y75585D2*
X45092Y75339D1*
Y74992D1*
X45338Y74746D1*
X45686D1*
X45931Y74992D1*
Y75339D1*
X45686Y75585D1*
X45338D1*
G37*
D14*
X41063Y73921D3*
D35*
Y74921D3*
D77*
X26850Y51181D3*
X25850D3*
Y48181D3*
X26850D3*
X24850Y51181D3*
X23850D3*
X24850Y48181D3*
X23850D3*
D75*
X29370Y70630D3*
Y69630D3*
D73*
X30086Y77904D3*
D71*
X29086D3*
X28086D3*
X27086D3*
D75*
X32080Y75859D3*
Y76859D3*
X27795Y70591D3*
Y69591D3*
D69*
X28622Y67795D3*
X27622D3*
X26622D3*
X25622D3*
X24622D3*
D67*
X16781Y77165D3*
X15981Y79515D3*
Y74815D3*
X11181D3*
Y79515D3*
X16781Y67913D3*
X15981Y70263D3*
Y65563D3*
X11181D3*
Y70263D3*
X16781Y58858D3*
X15981Y61208D3*
Y56508D3*
X11181D3*
Y61208D3*
X16781Y49803D3*
X15981Y52153D3*
Y47453D3*
X11181D3*
Y52153D3*
X47274Y49803D3*
X48074Y47453D3*
Y52153D3*
X52874D3*
Y47453D3*
X47274Y58858D3*
X48074Y56508D3*
Y61208D3*
X52874D3*
Y56508D3*
X47274Y67913D3*
X48074Y65563D3*
Y70263D3*
X52874D3*
Y65563D3*
X47274Y77165D3*
X48074Y74815D3*
Y79515D3*
X52874D3*
Y74815D3*
D66*
X39449Y63583D3*
D71*
Y66575D3*
G36*
X11303Y73114D2*
X11311Y73068D1*
X11325Y73023D1*
X11347Y72981D1*
X11374Y72943D1*
X11408Y72910D1*
X11446Y72882D1*
X11487Y72861D1*
X11532Y72847D1*
X11579Y72839D1*
X12146D1*
X12192Y72847D1*
X12237Y72861D1*
X12279Y72882D1*
X12317Y72910D1*
X12350Y72943D1*
X12377Y72981D1*
X12399Y73023D1*
X12413Y73068D1*
X12421Y73114D1*
Y73161D1*
X12413Y73208D1*
X12399Y73252D1*
X12377Y73294D1*
X12350Y73332D1*
X12317Y73366D1*
X12279Y73393D1*
X12237Y73414D1*
X12192Y73429D1*
X12146Y73436D1*
X11579D1*
X11532Y73429D1*
X11487Y73414D1*
X11446Y73393D1*
X11408Y73366D1*
X11374Y73332D1*
X11347Y73294D1*
X11325Y73252D1*
X11311Y73208D1*
X11303Y73161D1*
Y73114D1*
G37*
G36*
Y72114D2*
X11311Y72068D1*
X11325Y72023D1*
X11347Y71981D1*
X11374Y71943D1*
X11408Y71910D1*
X11446Y71882D1*
X11487Y71861D1*
X11532Y71847D1*
X11579Y71839D1*
X12146D1*
X12192Y71847D1*
X12237Y71861D1*
X12279Y71882D1*
X12317Y71910D1*
X12350Y71943D1*
X12377Y71981D1*
X12399Y72023D1*
X12413Y72068D1*
X12421Y72114D1*
Y72161D1*
X12413Y72208D1*
X12399Y72252D1*
X12377Y72294D1*
X12350Y72332D1*
X12317Y72366D1*
X12279Y72393D1*
X12237Y72414D1*
X12192Y72429D1*
X12146Y72436D1*
X11579D1*
X11532Y72429D1*
X11487Y72414D1*
X11446Y72393D1*
X11408Y72366D1*
X11374Y72332D1*
X11347Y72294D1*
X11325Y72252D1*
X11311Y72208D1*
X11303Y72161D1*
Y72114D1*
G37*
G36*
X15941Y72161D2*
X15933Y72208D1*
X15919Y72252D1*
X15897Y72294D1*
X15870Y72332D1*
X15837Y72366D1*
X15799Y72393D1*
X15757Y72414D1*
X15712Y72429D1*
X15666Y72436D1*
X15099D1*
X15052Y72429D1*
X15007Y72414D1*
X14966Y72393D1*
X14928Y72366D1*
X14894Y72332D1*
X14867Y72294D1*
X14845Y72252D1*
X14831Y72208D1*
X14823Y72161D1*
Y72114D1*
X14831Y72068D1*
X14845Y72023D1*
X14867Y71981D1*
X14894Y71943D1*
X14928Y71910D1*
X14966Y71882D1*
X15007Y71861D1*
X15052Y71847D1*
X15099Y71839D1*
X15666D1*
X15712Y71847D1*
X15757Y71861D1*
X15799Y71882D1*
X15837Y71910D1*
X15870Y71943D1*
X15897Y71981D1*
X15919Y72023D1*
X15933Y72068D1*
X15941Y72114D1*
Y72161D1*
G37*
G36*
Y73161D2*
X15933Y73208D1*
X15919Y73252D1*
X15897Y73294D1*
X15870Y73332D1*
X15837Y73366D1*
X15799Y73393D1*
X15757Y73414D1*
X15712Y73429D1*
X15666Y73436D1*
X15099D1*
X15052Y73429D1*
X15007Y73414D1*
X14966Y73393D1*
X14928Y73366D1*
X14894Y73332D1*
X14867Y73294D1*
X14845Y73252D1*
X14831Y73208D1*
X14823Y73161D1*
Y73114D1*
X14831Y73068D1*
X14845Y73023D1*
X14867Y72981D1*
X14894Y72943D1*
X14928Y72910D1*
X14966Y72882D1*
X15007Y72861D1*
X15052Y72847D1*
X15099Y72839D1*
X15666D1*
X15712Y72847D1*
X15757Y72861D1*
X15799Y72882D1*
X15837Y72910D1*
X15870Y72943D1*
X15897Y72981D1*
X15919Y73023D1*
X15933Y73068D1*
X15941Y73114D1*
Y73161D1*
G37*
G36*
X11303Y63862D2*
X11311Y63816D1*
X11325Y63771D1*
X11347Y63729D1*
X11374Y63691D1*
X11408Y63658D1*
X11446Y63630D1*
X11487Y63609D1*
X11532Y63595D1*
X11579Y63587D1*
X12146D1*
X12192Y63595D1*
X12237Y63609D1*
X12279Y63630D1*
X12317Y63658D1*
X12350Y63691D1*
X12377Y63729D1*
X12399Y63771D1*
X12413Y63816D1*
X12421Y63862D1*
Y63909D1*
X12413Y63956D1*
X12399Y64000D1*
X12377Y64042D1*
X12350Y64080D1*
X12317Y64114D1*
X12279Y64141D1*
X12237Y64163D1*
X12192Y64177D1*
X12146Y64184D1*
X11579D1*
X11532Y64177D1*
X11487Y64163D1*
X11446Y64141D1*
X11408Y64114D1*
X11374Y64080D1*
X11347Y64042D1*
X11325Y64000D1*
X11311Y63956D1*
X11303Y63909D1*
Y63862D1*
G37*
G36*
Y62862D2*
X11311Y62816D1*
X11325Y62771D1*
X11347Y62729D1*
X11374Y62691D1*
X11408Y62658D1*
X11446Y62630D1*
X11487Y62609D1*
X11532Y62595D1*
X11579Y62587D1*
X12146D1*
X12192Y62595D1*
X12237Y62609D1*
X12279Y62630D1*
X12317Y62658D1*
X12350Y62691D1*
X12377Y62729D1*
X12399Y62771D1*
X12413Y62816D1*
X12421Y62862D1*
Y62909D1*
X12413Y62956D1*
X12399Y63000D1*
X12377Y63042D1*
X12350Y63080D1*
X12317Y63114D1*
X12279Y63141D1*
X12237Y63163D1*
X12192Y63177D1*
X12146Y63184D1*
X11579D1*
X11532Y63177D1*
X11487Y63163D1*
X11446Y63141D1*
X11408Y63114D1*
X11374Y63080D1*
X11347Y63042D1*
X11325Y63000D1*
X11311Y62956D1*
X11303Y62909D1*
Y62862D1*
G37*
G36*
X15941Y62909D2*
X15933Y62956D1*
X15919Y63000D1*
X15897Y63042D1*
X15870Y63080D1*
X15837Y63114D1*
X15799Y63141D1*
X15757Y63163D1*
X15712Y63177D1*
X15666Y63184D1*
X15099D1*
X15052Y63177D1*
X15007Y63163D1*
X14966Y63141D1*
X14928Y63114D1*
X14894Y63080D1*
X14867Y63042D1*
X14845Y63000D1*
X14831Y62956D1*
X14823Y62909D1*
Y62862D1*
X14831Y62816D1*
X14845Y62771D1*
X14867Y62729D1*
X14894Y62691D1*
X14928Y62658D1*
X14966Y62630D1*
X15007Y62609D1*
X15052Y62595D1*
X15099Y62587D1*
X15666D1*
X15712Y62595D1*
X15757Y62609D1*
X15799Y62630D1*
X15837Y62658D1*
X15870Y62691D1*
X15897Y62729D1*
X15919Y62771D1*
X15933Y62816D1*
X15941Y62862D1*
Y62909D1*
G37*
G36*
Y63909D2*
X15933Y63956D1*
X15919Y64000D1*
X15897Y64042D1*
X15870Y64080D1*
X15837Y64114D1*
X15799Y64141D1*
X15757Y64163D1*
X15712Y64177D1*
X15666Y64184D1*
X15099D1*
X15052Y64177D1*
X15007Y64163D1*
X14966Y64141D1*
X14928Y64114D1*
X14894Y64080D1*
X14867Y64042D1*
X14845Y64000D1*
X14831Y63956D1*
X14823Y63909D1*
Y63862D1*
X14831Y63816D1*
X14845Y63771D1*
X14867Y63729D1*
X14894Y63691D1*
X14928Y63658D1*
X14966Y63630D1*
X15007Y63609D1*
X15052Y63595D1*
X15099Y63587D1*
X15666D1*
X15712Y63595D1*
X15757Y63609D1*
X15799Y63630D1*
X15837Y63658D1*
X15870Y63691D1*
X15897Y63729D1*
X15919Y63771D1*
X15933Y63816D1*
X15941Y63862D1*
Y63909D1*
G37*
G36*
X11303Y54807D2*
X11311Y54761D1*
X11325Y54716D1*
X11347Y54674D1*
X11374Y54636D1*
X11408Y54603D1*
X11446Y54575D1*
X11487Y54554D1*
X11532Y54539D1*
X11579Y54532D1*
X12146D1*
X12192Y54539D1*
X12237Y54554D1*
X12279Y54575D1*
X12317Y54603D1*
X12350Y54636D1*
X12377Y54674D1*
X12399Y54716D1*
X12413Y54761D1*
X12421Y54807D1*
Y54854D1*
X12413Y54901D1*
X12399Y54945D1*
X12377Y54987D1*
X12350Y55025D1*
X12317Y55058D1*
X12279Y55086D1*
X12237Y55107D1*
X12192Y55122D1*
X12146Y55129D1*
X11579D1*
X11532Y55122D1*
X11487Y55107D1*
X11446Y55086D1*
X11408Y55058D1*
X11374Y55025D1*
X11347Y54987D1*
X11325Y54945D1*
X11311Y54901D1*
X11303Y54854D1*
Y54807D1*
G37*
G36*
Y53807D2*
X11311Y53761D1*
X11325Y53716D1*
X11347Y53674D1*
X11374Y53636D1*
X11408Y53603D1*
X11446Y53575D1*
X11487Y53554D1*
X11532Y53539D1*
X11579Y53532D1*
X12146D1*
X12192Y53539D1*
X12237Y53554D1*
X12279Y53575D1*
X12317Y53603D1*
X12350Y53636D1*
X12377Y53674D1*
X12399Y53716D1*
X12413Y53761D1*
X12421Y53807D1*
Y53854D1*
X12413Y53901D1*
X12399Y53945D1*
X12377Y53987D1*
X12350Y54025D1*
X12317Y54058D1*
X12279Y54086D1*
X12237Y54107D1*
X12192Y54122D1*
X12146Y54129D1*
X11579D1*
X11532Y54122D1*
X11487Y54107D1*
X11446Y54086D1*
X11408Y54058D1*
X11374Y54025D1*
X11347Y53987D1*
X11325Y53945D1*
X11311Y53901D1*
X11303Y53854D1*
Y53807D1*
G37*
G36*
X15941Y53854D2*
X15933Y53901D1*
X15919Y53945D1*
X15897Y53987D1*
X15870Y54025D1*
X15837Y54058D1*
X15799Y54086D1*
X15757Y54107D1*
X15712Y54122D1*
X15666Y54129D1*
X15099D1*
X15052Y54122D1*
X15007Y54107D1*
X14966Y54086D1*
X14928Y54058D1*
X14894Y54025D1*
X14867Y53987D1*
X14845Y53945D1*
X14831Y53901D1*
X14823Y53854D1*
Y53807D1*
X14831Y53761D1*
X14845Y53716D1*
X14867Y53674D1*
X14894Y53636D1*
X14928Y53603D1*
X14966Y53575D1*
X15007Y53554D1*
X15052Y53539D1*
X15099Y53532D1*
X15666D1*
X15712Y53539D1*
X15757Y53554D1*
X15799Y53575D1*
X15837Y53603D1*
X15870Y53636D1*
X15897Y53674D1*
X15919Y53716D1*
X15933Y53761D1*
X15941Y53807D1*
Y53854D1*
G37*
G36*
Y54854D2*
X15933Y54901D1*
X15919Y54945D1*
X15897Y54987D1*
X15870Y55025D1*
X15837Y55058D1*
X15799Y55086D1*
X15757Y55107D1*
X15712Y55122D1*
X15666Y55129D1*
X15099D1*
X15052Y55122D1*
X15007Y55107D1*
X14966Y55086D1*
X14928Y55058D1*
X14894Y55025D1*
X14867Y54987D1*
X14845Y54945D1*
X14831Y54901D1*
X14823Y54854D1*
Y54807D1*
X14831Y54761D1*
X14845Y54716D1*
X14867Y54674D1*
X14894Y54636D1*
X14928Y54603D1*
X14966Y54575D1*
X15007Y54554D1*
X15052Y54539D1*
X15099Y54532D1*
X15666D1*
X15712Y54539D1*
X15757Y54554D1*
X15799Y54575D1*
X15837Y54603D1*
X15870Y54636D1*
X15897Y54674D1*
X15919Y54716D1*
X15933Y54761D1*
X15941Y54807D1*
Y54854D1*
G37*
G36*
X11303Y45791D2*
X11311Y45745D1*
X11325Y45700D1*
X11347Y45658D1*
X11374Y45620D1*
X11408Y45587D1*
X11446Y45560D1*
X11487Y45538D1*
X11532Y45524D1*
X11579Y45516D1*
X12146D1*
X12192Y45524D1*
X12237Y45538D1*
X12279Y45560D1*
X12317Y45587D1*
X12350Y45620D1*
X12377Y45658D1*
X12399Y45700D1*
X12413Y45745D1*
X12421Y45791D1*
Y45838D1*
X12413Y45885D1*
X12399Y45930D1*
X12377Y45971D1*
X12350Y46009D1*
X12317Y46043D1*
X12279Y46070D1*
X12237Y46092D1*
X12192Y46106D1*
X12146Y46114D1*
X11579D1*
X11532Y46106D1*
X11487Y46092D1*
X11446Y46070D1*
X11408Y46043D1*
X11374Y46009D1*
X11347Y45971D1*
X11325Y45930D1*
X11311Y45885D1*
X11303Y45838D1*
Y45791D1*
G37*
G36*
Y44791D2*
X11311Y44745D1*
X11325Y44700D1*
X11347Y44658D1*
X11374Y44620D1*
X11408Y44587D1*
X11446Y44560D1*
X11487Y44538D1*
X11532Y44524D1*
X11579Y44516D1*
X12146D1*
X12192Y44524D1*
X12237Y44538D1*
X12279Y44560D1*
X12317Y44587D1*
X12350Y44620D1*
X12377Y44658D1*
X12399Y44700D1*
X12413Y44745D1*
X12421Y44791D1*
Y44838D1*
X12413Y44885D1*
X12399Y44930D1*
X12377Y44971D1*
X12350Y45009D1*
X12317Y45043D1*
X12279Y45070D1*
X12237Y45092D1*
X12192Y45106D1*
X12146Y45114D1*
X11579D1*
X11532Y45106D1*
X11487Y45092D1*
X11446Y45070D1*
X11408Y45043D1*
X11374Y45009D1*
X11347Y44971D1*
X11325Y44930D1*
X11311Y44885D1*
X11303Y44838D1*
Y44791D1*
G37*
G36*
X15941Y44838D2*
X15933Y44885D1*
X15919Y44930D1*
X15897Y44971D1*
X15870Y45009D1*
X15837Y45043D1*
X15799Y45070D1*
X15757Y45092D1*
X15712Y45106D1*
X15666Y45114D1*
X15099D1*
X15052Y45106D1*
X15007Y45092D1*
X14966Y45070D1*
X14928Y45043D1*
X14894Y45009D1*
X14867Y44971D1*
X14845Y44930D1*
X14831Y44885D1*
X14823Y44838D1*
Y44791D1*
X14831Y44745D1*
X14845Y44700D1*
X14867Y44658D1*
X14894Y44620D1*
X14928Y44587D1*
X14966Y44560D1*
X15007Y44538D1*
X15052Y44524D1*
X15099Y44516D1*
X15666D1*
X15712Y44524D1*
X15757Y44538D1*
X15799Y44560D1*
X15837Y44587D1*
X15870Y44620D1*
X15897Y44658D1*
X15919Y44700D1*
X15933Y44745D1*
X15941Y44791D1*
Y44838D1*
G37*
G36*
Y45838D2*
X15933Y45885D1*
X15919Y45930D1*
X15897Y45971D1*
X15870Y46009D1*
X15837Y46043D1*
X15799Y46070D1*
X15757Y46092D1*
X15712Y46106D1*
X15666Y46114D1*
X15099D1*
X15052Y46106D1*
X15007Y46092D1*
X14966Y46070D1*
X14928Y46043D1*
X14894Y46009D1*
X14867Y45971D1*
X14845Y45930D1*
X14831Y45885D1*
X14823Y45838D1*
Y45791D1*
X14831Y45745D1*
X14845Y45700D1*
X14867Y45658D1*
X14894Y45620D1*
X14928Y45587D1*
X14966Y45560D1*
X15007Y45538D1*
X15052Y45524D1*
X15099Y45516D1*
X15666D1*
X15712Y45524D1*
X15757Y45538D1*
X15799Y45560D1*
X15837Y45587D1*
X15870Y45620D1*
X15897Y45658D1*
X15919Y45700D1*
X15933Y45745D1*
X15941Y45791D1*
Y45838D1*
G37*
G36*
X52555Y44799D2*
X52547Y44846D1*
X52533Y44890D1*
X52512Y44932D1*
X52484Y44970D1*
X52451Y45003D1*
X52413Y45031D1*
X52371Y45052D1*
X52326Y45067D1*
X52280Y45074D1*
X51713D1*
X51666Y45067D1*
X51622Y45052D1*
X51580Y45031D1*
X51542Y45003D1*
X51508Y44970D1*
X51481Y44932D1*
X51460Y44890D1*
X51445Y44846D1*
X51438Y44799D1*
Y44752D1*
X51445Y44706D1*
X51460Y44661D1*
X51481Y44619D1*
X51508Y44581D1*
X51542Y44548D1*
X51580Y44520D1*
X51622Y44499D1*
X51666Y44484D1*
X51713Y44477D1*
X52280D1*
X52326Y44484D1*
X52371Y44499D1*
X52413Y44520D1*
X52451Y44548D1*
X52484Y44581D1*
X52512Y44619D1*
X52533Y44661D1*
X52547Y44706D1*
X52555Y44752D1*
Y44799D1*
G37*
G36*
Y45799D2*
X52547Y45846D1*
X52533Y45890D1*
X52512Y45932D1*
X52484Y45970D1*
X52451Y46003D1*
X52413Y46031D1*
X52371Y46052D1*
X52326Y46067D1*
X52280Y46074D1*
X51713D1*
X51666Y46067D1*
X51622Y46052D1*
X51580Y46031D1*
X51542Y46003D1*
X51508Y45970D1*
X51481Y45932D1*
X51460Y45890D1*
X51445Y45846D1*
X51438Y45799D1*
Y45752D1*
X51445Y45706D1*
X51460Y45661D1*
X51481Y45619D1*
X51508Y45581D1*
X51542Y45548D1*
X51580Y45520D1*
X51622Y45499D1*
X51666Y45484D1*
X51713Y45477D1*
X52280D1*
X52326Y45484D1*
X52371Y45499D1*
X52413Y45520D1*
X52451Y45548D1*
X52484Y45581D1*
X52512Y45619D1*
X52533Y45661D1*
X52547Y45706D1*
X52555Y45752D1*
Y45799D1*
G37*
G36*
X47918Y45752D2*
X47925Y45706D1*
X47940Y45661D1*
X47961Y45619D1*
X47988Y45581D1*
X48022Y45548D1*
X48060Y45520D1*
X48102Y45499D1*
X48146Y45484D1*
X48193Y45477D1*
X48760D1*
X48806Y45484D1*
X48851Y45499D1*
X48893Y45520D1*
X48931Y45548D1*
X48964Y45581D1*
X48992Y45619D1*
X49013Y45661D1*
X49027Y45706D1*
X49035Y45752D1*
Y45799D1*
X49027Y45846D1*
X49013Y45890D1*
X48992Y45932D1*
X48964Y45970D1*
X48931Y46003D1*
X48893Y46031D1*
X48851Y46052D1*
X48806Y46067D1*
X48760Y46074D1*
X48193D1*
X48146Y46067D1*
X48102Y46052D1*
X48060Y46031D1*
X48022Y46003D1*
X47988Y45970D1*
X47961Y45932D1*
X47940Y45890D1*
X47925Y45846D1*
X47918Y45799D1*
Y45752D1*
G37*
G36*
Y44752D2*
X47925Y44706D1*
X47940Y44661D1*
X47961Y44619D1*
X47988Y44581D1*
X48022Y44548D1*
X48060Y44520D1*
X48102Y44499D1*
X48146Y44484D1*
X48193Y44477D1*
X48760D1*
X48806Y44484D1*
X48851Y44499D1*
X48893Y44520D1*
X48931Y44548D1*
X48964Y44581D1*
X48992Y44619D1*
X49013Y44661D1*
X49027Y44706D1*
X49035Y44752D1*
Y44799D1*
X49027Y44846D1*
X49013Y44890D1*
X48992Y44932D1*
X48964Y44970D1*
X48931Y45003D1*
X48893Y45031D1*
X48851Y45052D1*
X48806Y45067D1*
X48760Y45074D1*
X48193D1*
X48146Y45067D1*
X48102Y45052D1*
X48060Y45031D1*
X48022Y45003D1*
X47988Y44970D1*
X47961Y44932D1*
X47940Y44890D1*
X47925Y44846D1*
X47918Y44799D1*
Y44752D1*
G37*
G36*
X52555Y53854D2*
X52547Y53901D1*
X52533Y53945D1*
X52512Y53987D1*
X52484Y54025D1*
X52451Y54058D1*
X52413Y54086D1*
X52371Y54107D1*
X52326Y54122D1*
X52280Y54129D1*
X51713D1*
X51666Y54122D1*
X51622Y54107D1*
X51580Y54086D1*
X51542Y54058D1*
X51508Y54025D1*
X51481Y53987D1*
X51460Y53945D1*
X51445Y53901D1*
X51438Y53854D1*
Y53807D1*
X51445Y53761D1*
X51460Y53716D1*
X51481Y53674D1*
X51508Y53636D1*
X51542Y53603D1*
X51580Y53575D1*
X51622Y53554D1*
X51666Y53539D1*
X51713Y53532D1*
X52280D1*
X52326Y53539D1*
X52371Y53554D1*
X52413Y53575D1*
X52451Y53603D1*
X52484Y53636D1*
X52512Y53674D1*
X52533Y53716D1*
X52547Y53761D1*
X52555Y53807D1*
Y53854D1*
G37*
G36*
Y54854D2*
X52547Y54901D1*
X52533Y54945D1*
X52512Y54987D1*
X52484Y55025D1*
X52451Y55058D1*
X52413Y55086D1*
X52371Y55107D1*
X52326Y55122D1*
X52280Y55129D1*
X51713D1*
X51666Y55122D1*
X51622Y55107D1*
X51580Y55086D1*
X51542Y55058D1*
X51508Y55025D1*
X51481Y54987D1*
X51460Y54945D1*
X51445Y54901D1*
X51438Y54854D1*
Y54807D1*
X51445Y54761D1*
X51460Y54716D1*
X51481Y54674D1*
X51508Y54636D1*
X51542Y54603D1*
X51580Y54575D1*
X51622Y54554D1*
X51666Y54539D1*
X51713Y54532D1*
X52280D1*
X52326Y54539D1*
X52371Y54554D1*
X52413Y54575D1*
X52451Y54603D1*
X52484Y54636D1*
X52512Y54674D1*
X52533Y54716D1*
X52547Y54761D1*
X52555Y54807D1*
Y54854D1*
G37*
G36*
X47918Y54807D2*
X47925Y54761D1*
X47940Y54716D1*
X47961Y54674D1*
X47988Y54636D1*
X48022Y54603D1*
X48060Y54575D1*
X48102Y54554D1*
X48146Y54539D1*
X48193Y54532D1*
X48760D1*
X48806Y54539D1*
X48851Y54554D1*
X48893Y54575D1*
X48931Y54603D1*
X48964Y54636D1*
X48992Y54674D1*
X49013Y54716D1*
X49027Y54761D1*
X49035Y54807D1*
Y54854D1*
X49027Y54901D1*
X49013Y54945D1*
X48992Y54987D1*
X48964Y55025D1*
X48931Y55058D1*
X48893Y55086D1*
X48851Y55107D1*
X48806Y55122D1*
X48760Y55129D1*
X48193D1*
X48146Y55122D1*
X48102Y55107D1*
X48060Y55086D1*
X48022Y55058D1*
X47988Y55025D1*
X47961Y54987D1*
X47940Y54945D1*
X47925Y54901D1*
X47918Y54854D1*
Y54807D1*
G37*
G36*
Y53807D2*
X47925Y53761D1*
X47940Y53716D1*
X47961Y53674D1*
X47988Y53636D1*
X48022Y53603D1*
X48060Y53575D1*
X48102Y53554D1*
X48146Y53539D1*
X48193Y53532D1*
X48760D1*
X48806Y53539D1*
X48851Y53554D1*
X48893Y53575D1*
X48931Y53603D1*
X48964Y53636D1*
X48992Y53674D1*
X49013Y53716D1*
X49027Y53761D1*
X49035Y53807D1*
Y53854D1*
X49027Y53901D1*
X49013Y53945D1*
X48992Y53987D1*
X48964Y54025D1*
X48931Y54058D1*
X48893Y54086D1*
X48851Y54107D1*
X48806Y54122D1*
X48760Y54129D1*
X48193D1*
X48146Y54122D1*
X48102Y54107D1*
X48060Y54086D1*
X48022Y54058D1*
X47988Y54025D1*
X47961Y53987D1*
X47940Y53945D1*
X47925Y53901D1*
X47918Y53854D1*
Y53807D1*
G37*
G36*
X52555Y62909D2*
X52547Y62956D1*
X52533Y63000D1*
X52512Y63042D1*
X52484Y63080D1*
X52451Y63114D1*
X52413Y63141D1*
X52371Y63163D1*
X52326Y63177D1*
X52280Y63184D1*
X51713D1*
X51666Y63177D1*
X51622Y63163D1*
X51580Y63141D1*
X51542Y63114D1*
X51508Y63080D1*
X51481Y63042D1*
X51460Y63000D1*
X51445Y62956D1*
X51438Y62909D1*
Y62862D1*
X51445Y62816D1*
X51460Y62771D1*
X51481Y62729D1*
X51508Y62691D1*
X51542Y62658D1*
X51580Y62630D1*
X51622Y62609D1*
X51666Y62595D1*
X51713Y62587D1*
X52280D1*
X52326Y62595D1*
X52371Y62609D1*
X52413Y62630D1*
X52451Y62658D1*
X52484Y62691D1*
X52512Y62729D1*
X52533Y62771D1*
X52547Y62816D1*
X52555Y62862D1*
Y62909D1*
G37*
G36*
Y63909D2*
X52547Y63956D1*
X52533Y64000D1*
X52512Y64042D1*
X52484Y64080D1*
X52451Y64114D1*
X52413Y64141D1*
X52371Y64163D1*
X52326Y64177D1*
X52280Y64184D1*
X51713D1*
X51666Y64177D1*
X51622Y64163D1*
X51580Y64141D1*
X51542Y64114D1*
X51508Y64080D1*
X51481Y64042D1*
X51460Y64000D1*
X51445Y63956D1*
X51438Y63909D1*
Y63862D1*
X51445Y63816D1*
X51460Y63771D1*
X51481Y63729D1*
X51508Y63691D1*
X51542Y63658D1*
X51580Y63630D1*
X51622Y63609D1*
X51666Y63595D1*
X51713Y63587D1*
X52280D1*
X52326Y63595D1*
X52371Y63609D1*
X52413Y63630D1*
X52451Y63658D1*
X52484Y63691D1*
X52512Y63729D1*
X52533Y63771D1*
X52547Y63816D1*
X52555Y63862D1*
Y63909D1*
G37*
G36*
X47918Y63862D2*
X47925Y63816D1*
X47940Y63771D1*
X47961Y63729D1*
X47988Y63691D1*
X48022Y63658D1*
X48060Y63630D1*
X48102Y63609D1*
X48146Y63595D1*
X48193Y63587D1*
X48760D1*
X48806Y63595D1*
X48851Y63609D1*
X48893Y63630D1*
X48931Y63658D1*
X48964Y63691D1*
X48992Y63729D1*
X49013Y63771D1*
X49027Y63816D1*
X49035Y63862D1*
Y63909D1*
X49027Y63956D1*
X49013Y64000D1*
X48992Y64042D1*
X48964Y64080D1*
X48931Y64114D1*
X48893Y64141D1*
X48851Y64163D1*
X48806Y64177D1*
X48760Y64184D1*
X48193D1*
X48146Y64177D1*
X48102Y64163D1*
X48060Y64141D1*
X48022Y64114D1*
X47988Y64080D1*
X47961Y64042D1*
X47940Y64000D1*
X47925Y63956D1*
X47918Y63909D1*
Y63862D1*
G37*
G36*
Y62862D2*
X47925Y62816D1*
X47940Y62771D1*
X47961Y62729D1*
X47988Y62691D1*
X48022Y62658D1*
X48060Y62630D1*
X48102Y62609D1*
X48146Y62595D1*
X48193Y62587D1*
X48760D1*
X48806Y62595D1*
X48851Y62609D1*
X48893Y62630D1*
X48931Y62658D1*
X48964Y62691D1*
X48992Y62729D1*
X49013Y62771D1*
X49027Y62816D1*
X49035Y62862D1*
Y62909D1*
X49027Y62956D1*
X49013Y63000D1*
X48992Y63042D1*
X48964Y63080D1*
X48931Y63114D1*
X48893Y63141D1*
X48851Y63163D1*
X48806Y63177D1*
X48760Y63184D1*
X48193D1*
X48146Y63177D1*
X48102Y63163D1*
X48060Y63141D1*
X48022Y63114D1*
X47988Y63080D1*
X47961Y63042D1*
X47940Y63000D1*
X47925Y62956D1*
X47918Y62909D1*
Y62862D1*
G37*
G36*
X52555Y71964D2*
X52547Y72011D1*
X52533Y72056D1*
X52512Y72097D1*
X52484Y72135D1*
X52451Y72169D1*
X52413Y72196D1*
X52371Y72218D1*
X52326Y72232D1*
X52280Y72240D1*
X51713D1*
X51666Y72232D1*
X51622Y72218D1*
X51580Y72196D1*
X51542Y72169D1*
X51508Y72135D1*
X51481Y72097D1*
X51460Y72056D1*
X51445Y72011D1*
X51438Y71964D1*
Y71917D1*
X51445Y71871D1*
X51460Y71826D1*
X51481Y71784D1*
X51508Y71746D1*
X51542Y71713D1*
X51580Y71686D1*
X51622Y71664D1*
X51666Y71650D1*
X51713Y71642D1*
X52280D1*
X52326Y71650D1*
X52371Y71664D1*
X52413Y71686D1*
X52451Y71713D1*
X52484Y71746D1*
X52512Y71784D1*
X52533Y71826D1*
X52547Y71871D1*
X52555Y71917D1*
Y71964D1*
G37*
G36*
Y72964D2*
X52547Y73011D1*
X52533Y73056D1*
X52512Y73097D1*
X52484Y73135D1*
X52451Y73169D1*
X52413Y73196D1*
X52371Y73218D1*
X52326Y73232D1*
X52280Y73240D1*
X51713D1*
X51666Y73232D1*
X51622Y73218D1*
X51580Y73196D1*
X51542Y73169D1*
X51508Y73135D1*
X51481Y73097D1*
X51460Y73056D1*
X51445Y73011D1*
X51438Y72964D1*
Y72917D1*
X51445Y72871D1*
X51460Y72826D1*
X51481Y72784D1*
X51508Y72746D1*
X51542Y72713D1*
X51580Y72686D1*
X51622Y72664D1*
X51666Y72650D1*
X51713Y72642D1*
X52280D1*
X52326Y72650D1*
X52371Y72664D1*
X52413Y72686D1*
X52451Y72713D1*
X52484Y72746D1*
X52512Y72784D1*
X52533Y72826D1*
X52547Y72871D1*
X52555Y72917D1*
Y72964D1*
G37*
G36*
X47918Y72917D2*
X47925Y72871D1*
X47940Y72826D1*
X47961Y72784D1*
X47988Y72746D1*
X48022Y72713D1*
X48060Y72686D1*
X48102Y72664D1*
X48146Y72650D1*
X48193Y72642D1*
X48760D1*
X48806Y72650D1*
X48851Y72664D1*
X48893Y72686D1*
X48931Y72713D1*
X48964Y72746D1*
X48992Y72784D1*
X49013Y72826D1*
X49027Y72871D1*
X49035Y72917D1*
Y72964D1*
X49027Y73011D1*
X49013Y73056D1*
X48992Y73097D1*
X48964Y73135D1*
X48931Y73169D1*
X48893Y73196D1*
X48851Y73218D1*
X48806Y73232D1*
X48760Y73240D1*
X48193D1*
X48146Y73232D1*
X48102Y73218D1*
X48060Y73196D1*
X48022Y73169D1*
X47988Y73135D1*
X47961Y73097D1*
X47940Y73056D1*
X47925Y73011D1*
X47918Y72964D1*
Y72917D1*
G37*
G36*
Y71917D2*
X47925Y71871D1*
X47940Y71826D1*
X47961Y71784D1*
X47988Y71746D1*
X48022Y71713D1*
X48060Y71686D1*
X48102Y71664D1*
X48146Y71650D1*
X48193Y71642D1*
X48760D1*
X48806Y71650D1*
X48851Y71664D1*
X48893Y71686D1*
X48931Y71713D1*
X48964Y71746D1*
X48992Y71784D1*
X49013Y71826D1*
X49027Y71871D1*
X49035Y71917D1*
Y71964D1*
X49027Y72011D1*
X49013Y72056D1*
X48992Y72097D1*
X48964Y72135D1*
X48931Y72169D1*
X48893Y72196D1*
X48851Y72218D1*
X48806Y72232D1*
X48760Y72240D1*
X48193D1*
X48146Y72232D1*
X48102Y72218D1*
X48060Y72196D1*
X48022Y72169D1*
X47988Y72135D1*
X47961Y72097D1*
X47940Y72056D1*
X47925Y72011D1*
X47918Y71964D1*
Y71917D1*
G37*
G36*
X27072Y57413D2*
X27300Y57185D1*
X27623D1*
X27851Y57413D1*
Y57736D1*
X27623Y57964D1*
X27300D1*
X27072Y57736D1*
Y57413D1*
G37*
G36*
Y59413D2*
X27300Y59185D1*
X27623D1*
X27851Y59413D1*
Y59736D1*
X27623Y59964D1*
X27300D1*
X27072Y59736D1*
Y59413D1*
G37*
D77*
X18921Y73516D3*
X20921D3*
X19921D3*
X18921Y64264D3*
X20921D3*
X19921D3*
X18921Y55209D3*
X20921D3*
X19921D3*
X18921Y46154D3*
X20921D3*
X19921D3*
X44937Y52665D3*
X42937D3*
X43937D3*
X44937Y61917D3*
X42937D3*
X43937D3*
X44937Y70776D3*
X42937D3*
X43937D3*
X44937Y79831D3*
X42937D3*
X43937D3*
D66*
X29882Y50906D3*
D71*
X31882D3*
X30882D3*
D92*
X19724Y79559D3*
D71*
Y75559D3*
D92*
X10307Y73228D3*
D71*
X6307D3*
D92*
X23386Y66220D3*
D71*
Y62220D3*
D92*
X35866Y74327D3*
D71*
Y70327D3*
D92*
X19724Y70307D3*
D71*
Y66307D3*
D92*
X10307Y63976D3*
D71*
X6307D3*
D92*
X19724Y61134D3*
D71*
Y57134D3*
D92*
X10307Y54921D3*
D71*
X6307D3*
D92*
X19724Y52118D3*
D71*
Y48118D3*
D92*
X10307Y45366D3*
D71*
X6307D3*
D92*
X34882Y70327D3*
D71*
Y74327D3*
D92*
X34370Y77890D3*
D71*
X38370D3*
D92*
X44331Y45539D3*
D71*
Y49539D3*
D92*
X53748Y44882D3*
D71*
X57748D3*
D92*
X44331Y54791D3*
D71*
Y58791D3*
D92*
X53748Y53740D3*
D71*
X57748D3*
D92*
X44331Y63650D3*
D71*
Y67650D3*
D92*
X53748Y62795D3*
D71*
X57748D3*
D92*
X44331Y72705D3*
D71*
Y76705D3*
D92*
X53748Y71850D3*
D71*
X57748D3*
D92*
X28189Y50394D3*
D71*
Y46394D3*
D92*
X22622Y46421D3*
D71*
Y50421D3*
D92*
X23346Y52441D3*
D71*
X27346D3*
D92*
X30748Y74677D3*
D71*
Y70677D3*
D92*
X25630Y74756D3*
D71*
Y70756D3*
D92*
X31732Y74677D3*
D71*
Y70677D3*
D92*
X26614Y74756D3*
D71*
Y70756D3*
D92*
X36850Y74327D3*
D71*
Y70327D3*
D92*
X37835Y74327D3*
D71*
Y70327D3*
D92*
X20906Y79559D3*
D71*
Y75559D3*
D92*
Y70307D3*
D71*
Y66307D3*
D92*
Y61134D3*
D71*
Y57134D3*
D92*
Y52118D3*
D71*
Y48118D3*
D92*
X43346Y49539D3*
D71*
Y45539D3*
D92*
Y58791D3*
D71*
Y54791D3*
D92*
Y67650D3*
D71*
Y63650D3*
D92*
Y76705D3*
D71*
Y72705D3*
D92*
X34094Y65276D3*
D71*
Y69276D3*
D69*
X26893Y65477D3*
X25113D3*
X26893Y62917D3*
X25113D3*
D77*
X29764Y74528D3*
X27764D3*
X28764D3*
X29764Y72362D3*
X27764D3*
X28764D3*
D64*
X29567Y66142D3*
Y65142D3*
Y64142D3*
Y63142D3*
Y62142D3*
Y61142D3*
Y60142D3*
Y59142D3*
Y58142D3*
Y57142D3*
Y56142D3*
Y55142D3*
Y54142D3*
Y53142D3*
X32567D3*
Y54142D3*
Y55142D3*
Y56142D3*
Y57142D3*
Y58142D3*
Y59142D3*
Y60142D3*
Y61142D3*
Y62142D3*
Y63142D3*
Y64142D3*
Y65142D3*
Y66142D3*
D62*
X38976Y71089D3*
D60*
Y71876D3*
Y72664D3*
Y73451D3*
Y74239D3*
Y75026D3*
Y75813D3*
Y76601D3*
X33465D3*
Y75813D3*
Y75026D3*
Y74239D3*
Y73451D3*
Y72664D3*
Y71876D3*
Y71089D3*
D58*
X36941Y44776D3*
X39303D3*
X34579Y58004D3*
X41665D3*
D56*
X6815Y79134D3*
Y77165D3*
Y75197D3*
Y69882D3*
Y67913D3*
Y65945D3*
Y60827D3*
Y58858D3*
Y56890D3*
Y51772D3*
Y49803D3*
Y47835D3*
X57240D3*
Y49803D3*
Y51772D3*
Y56884D3*
Y58853D3*
Y60821D3*
Y65934D3*
Y67902D3*
Y69871D3*
Y75197D3*
Y77165D3*
Y79134D3*
D54*
X30630Y45551D3*
X32598D3*
D92*
X41181Y76732D3*
X22520Y66260D3*
X31614Y78346D3*
X22717Y76693D3*
X22598Y73622D3*
X22441Y68465D3*
X23110Y60236D3*
X23150Y59094D3*
X17913Y54685D3*
X19370Y52992D3*
X22598Y45039D3*
X34488Y62402D3*
X39685Y68228D3*
X42087Y64449D3*
X41142Y62835D3*
X40669Y59567D3*
X45748Y54843D3*
X45512Y46063D3*
X46693Y45315D3*
X30748Y49134D3*
X27953Y51535D3*
X32717Y49843D3*
X39803Y40118D3*
D90*
Y39118D3*
G36*
X39989Y22087D2*
X40197Y22294D1*
Y22588D1*
X39989Y22795D1*
X39696D1*
X39488Y22588D1*
Y22294D1*
X39696Y22087D1*
X39989D1*
G37*
D72*
X39843Y23441D3*
D87*
X25797Y20767D3*
Y21767D3*
D85*
X36654Y23622D3*
G36*
X36877Y21083D2*
X37193Y21399D1*
Y21845D1*
X36877Y22161D1*
X36430D1*
X36114Y21845D1*
Y21399D1*
X36430Y21083D1*
X36877D1*
G37*
D87*
X25797Y19642D3*
Y18642D3*
G36*
X23961Y7998D2*
X23785Y8173D1*
X23537D1*
X23362Y7998D1*
Y7750D1*
X23537Y7575D1*
X23785D1*
X23961Y7750D1*
Y7998D1*
G37*
G36*
X24961D2*
X24785Y8173D1*
X24537D1*
X24362Y7998D1*
Y7750D1*
X24537Y7575D1*
X24785D1*
X24961Y7750D1*
Y7998D1*
G37*
G36*
X26378Y15895D2*
X26170Y16102D1*
X25877D1*
X25669Y15895D1*
Y15601D1*
X25877Y15394D1*
X26170D1*
X26378Y15601D1*
Y15895D1*
G37*
D72*
X25024Y15748D3*
G36*
X27260Y7981D2*
X27052Y8189D1*
X26759D1*
X26551Y7981D1*
Y7688D1*
X26759Y7480D1*
X27052D1*
X27260Y7688D1*
Y7981D1*
G37*
D72*
X25906Y7835D3*
G36*
X18717Y36163D2*
X18963Y36409D1*
Y36756D1*
X18717Y37002D1*
X18370D1*
X18124Y36756D1*
Y36409D1*
X18370Y36163D1*
X18717D1*
G37*
G36*
Y40163D2*
X18963Y40409D1*
Y40756D1*
X18717Y41002D1*
X18370D1*
X18124Y40756D1*
Y40409D1*
X18370Y40163D1*
X18717D1*
G37*
G36*
Y26911D2*
X18963Y27157D1*
Y27504D1*
X18717Y27750D1*
X18370D1*
X18124Y27504D1*
Y27157D1*
X18370Y26911D1*
X18717D1*
G37*
G36*
Y30911D2*
X18963Y31157D1*
Y31504D1*
X18717Y31750D1*
X18370D1*
X18124Y31504D1*
Y31157D1*
X18370Y30911D1*
X18717D1*
G37*
G36*
Y17856D2*
X18963Y18102D1*
Y18449D1*
X18717Y18695D1*
X18370D1*
X18124Y18449D1*
Y18102D1*
X18370Y17856D1*
X18717D1*
G37*
G36*
Y21856D2*
X18963Y22102D1*
Y22449D1*
X18717Y22695D1*
X18370D1*
X18124Y22449D1*
Y22102D1*
X18370Y21856D1*
X18717D1*
G37*
G36*
Y8801D2*
X18963Y9047D1*
Y9394D1*
X18717Y9640D1*
X18370D1*
X18124Y9394D1*
Y9047D1*
X18370Y8801D1*
X18717D1*
G37*
G36*
Y12801D2*
X18963Y13047D1*
Y13394D1*
X18717Y13640D1*
X18370D1*
X18124Y13394D1*
Y13047D1*
X18370Y12801D1*
X18717D1*
G37*
G36*
X45338Y13608D2*
X45092Y13363D1*
Y13015D1*
X45338Y12770D1*
X45686D1*
X45931Y13015D1*
Y13363D1*
X45686Y13608D1*
X45338D1*
G37*
G36*
Y9608D2*
X45092Y9363D1*
Y9015D1*
X45338Y8770D1*
X45686D1*
X45931Y9015D1*
Y9363D1*
X45686Y9608D1*
X45338D1*
G37*
G36*
Y22860D2*
X45092Y22615D1*
Y22267D1*
X45338Y22022D1*
X45686D1*
X45931Y22267D1*
Y22615D1*
X45686Y22860D1*
X45338D1*
G37*
G36*
Y18860D2*
X45092Y18615D1*
Y18267D1*
X45338Y18022D1*
X45686D1*
X45931Y18267D1*
Y18615D1*
X45686Y18860D1*
X45338D1*
G37*
G36*
Y31750D2*
X45092Y31504D1*
Y31157D1*
X45338Y30911D1*
X45686D1*
X45931Y31157D1*
Y31504D1*
X45686Y31750D1*
X45338D1*
G37*
G36*
Y27750D2*
X45092Y27504D1*
Y27157D1*
X45338Y26911D1*
X45686D1*
X45931Y27157D1*
Y27504D1*
X45686Y27750D1*
X45338D1*
G37*
G36*
Y41002D2*
X45092Y40756D1*
Y40409D1*
X45338Y40163D1*
X45686D1*
X45931Y40409D1*
Y40756D1*
X45686Y41002D1*
X45338D1*
G37*
G36*
Y37002D2*
X45092Y36756D1*
Y36409D1*
X45338Y36163D1*
X45686D1*
X45931Y36409D1*
Y36756D1*
X45686Y37002D1*
X45338D1*
G37*
D14*
X41063Y35339D3*
D35*
Y36339D3*
D77*
X26850Y12598D3*
X25850D3*
Y9598D3*
X26850D3*
X24850Y12598D3*
X23850D3*
X24850Y9598D3*
X23850D3*
D75*
X29370Y32047D3*
Y31047D3*
D73*
X30086Y39321D3*
D71*
X29086D3*
X28086D3*
X27086D3*
D75*
X32080Y37276D3*
Y38276D3*
X27795Y32008D3*
Y31008D3*
D69*
X28622Y29213D3*
X27622D3*
X26622D3*
X25622D3*
X24622D3*
D67*
X16781Y38583D3*
X15981Y40933D3*
Y36233D3*
X11181D3*
Y40933D3*
X16781Y29331D3*
X15981Y31681D3*
Y26981D3*
X11181D3*
Y31681D3*
X16781Y20276D3*
X15981Y22626D3*
Y17926D3*
X11181D3*
Y22626D3*
X16781Y11220D3*
X15981Y13570D3*
Y8870D3*
X11181D3*
Y13570D3*
X47274Y11220D3*
X48074Y8870D3*
Y13570D3*
X52874D3*
Y8870D3*
X47274Y20276D3*
X48074Y17926D3*
Y22626D3*
X52874D3*
Y17926D3*
X47274Y29331D3*
X48074Y26981D3*
Y31681D3*
X52874D3*
Y26981D3*
X47274Y38583D3*
X48074Y36233D3*
Y40933D3*
X52874D3*
Y36233D3*
D66*
X39449Y25000D3*
D71*
Y27992D3*
G36*
X11303Y34532D2*
X11311Y34485D1*
X11325Y34441D1*
X11347Y34399D1*
X11374Y34361D1*
X11408Y34327D1*
X11446Y34300D1*
X11487Y34278D1*
X11532Y34264D1*
X11579Y34257D1*
X12146D1*
X12192Y34264D1*
X12237Y34278D1*
X12279Y34300D1*
X12317Y34327D1*
X12350Y34361D1*
X12377Y34399D1*
X12399Y34441D1*
X12413Y34485D1*
X12421Y34532D1*
Y34579D1*
X12413Y34625D1*
X12399Y34670D1*
X12377Y34712D1*
X12350Y34750D1*
X12317Y34783D1*
X12279Y34810D1*
X12237Y34832D1*
X12192Y34846D1*
X12146Y34854D1*
X11579D1*
X11532Y34846D1*
X11487Y34832D1*
X11446Y34810D1*
X11408Y34783D1*
X11374Y34750D1*
X11347Y34712D1*
X11325Y34670D1*
X11311Y34625D1*
X11303Y34579D1*
Y34532D1*
G37*
G36*
Y33532D2*
X11311Y33485D1*
X11325Y33441D1*
X11347Y33399D1*
X11374Y33361D1*
X11408Y33327D1*
X11446Y33300D1*
X11487Y33278D1*
X11532Y33264D1*
X11579Y33257D1*
X12146D1*
X12192Y33264D1*
X12237Y33278D1*
X12279Y33300D1*
X12317Y33327D1*
X12350Y33361D1*
X12377Y33399D1*
X12399Y33441D1*
X12413Y33485D1*
X12421Y33532D1*
Y33579D1*
X12413Y33625D1*
X12399Y33670D1*
X12377Y33712D1*
X12350Y33750D1*
X12317Y33783D1*
X12279Y33810D1*
X12237Y33832D1*
X12192Y33846D1*
X12146Y33854D1*
X11579D1*
X11532Y33846D1*
X11487Y33832D1*
X11446Y33810D1*
X11408Y33783D1*
X11374Y33750D1*
X11347Y33712D1*
X11325Y33670D1*
X11311Y33625D1*
X11303Y33579D1*
Y33532D1*
G37*
G36*
X15941Y33579D2*
X15933Y33625D1*
X15919Y33670D1*
X15897Y33712D1*
X15870Y33750D1*
X15837Y33783D1*
X15799Y33810D1*
X15757Y33832D1*
X15712Y33846D1*
X15666Y33854D1*
X15099D1*
X15052Y33846D1*
X15007Y33832D1*
X14966Y33810D1*
X14928Y33783D1*
X14894Y33750D1*
X14867Y33712D1*
X14845Y33670D1*
X14831Y33625D1*
X14823Y33579D1*
Y33532D1*
X14831Y33485D1*
X14845Y33441D1*
X14867Y33399D1*
X14894Y33361D1*
X14928Y33327D1*
X14966Y33300D1*
X15007Y33278D1*
X15052Y33264D1*
X15099Y33257D1*
X15666D1*
X15712Y33264D1*
X15757Y33278D1*
X15799Y33300D1*
X15837Y33327D1*
X15870Y33361D1*
X15897Y33399D1*
X15919Y33441D1*
X15933Y33485D1*
X15941Y33532D1*
Y33579D1*
G37*
G36*
Y34579D2*
X15933Y34625D1*
X15919Y34670D1*
X15897Y34712D1*
X15870Y34750D1*
X15837Y34783D1*
X15799Y34810D1*
X15757Y34832D1*
X15712Y34846D1*
X15666Y34854D1*
X15099D1*
X15052Y34846D1*
X15007Y34832D1*
X14966Y34810D1*
X14928Y34783D1*
X14894Y34750D1*
X14867Y34712D1*
X14845Y34670D1*
X14831Y34625D1*
X14823Y34579D1*
Y34532D1*
X14831Y34485D1*
X14845Y34441D1*
X14867Y34399D1*
X14894Y34361D1*
X14928Y34327D1*
X14966Y34300D1*
X15007Y34278D1*
X15052Y34264D1*
X15099Y34257D1*
X15666D1*
X15712Y34264D1*
X15757Y34278D1*
X15799Y34300D1*
X15837Y34327D1*
X15870Y34361D1*
X15897Y34399D1*
X15919Y34441D1*
X15933Y34485D1*
X15941Y34532D1*
Y34579D1*
G37*
G36*
X11303Y25280D2*
X11311Y25233D1*
X11325Y25189D1*
X11347Y25147D1*
X11374Y25109D1*
X11408Y25075D1*
X11446Y25048D1*
X11487Y25026D1*
X11532Y25012D1*
X11579Y25005D1*
X12146D1*
X12192Y25012D1*
X12237Y25026D1*
X12279Y25048D1*
X12317Y25075D1*
X12350Y25109D1*
X12377Y25147D1*
X12399Y25189D1*
X12413Y25233D1*
X12421Y25280D1*
Y25327D1*
X12413Y25373D1*
X12399Y25418D1*
X12377Y25460D1*
X12350Y25498D1*
X12317Y25531D1*
X12279Y25559D1*
X12237Y25580D1*
X12192Y25594D1*
X12146Y25602D1*
X11579D1*
X11532Y25594D1*
X11487Y25580D1*
X11446Y25559D1*
X11408Y25531D1*
X11374Y25498D1*
X11347Y25460D1*
X11325Y25418D1*
X11311Y25373D1*
X11303Y25327D1*
Y25280D1*
G37*
G36*
Y24280D2*
X11311Y24233D1*
X11325Y24189D1*
X11347Y24147D1*
X11374Y24109D1*
X11408Y24075D1*
X11446Y24048D1*
X11487Y24026D1*
X11532Y24012D1*
X11579Y24005D1*
X12146D1*
X12192Y24012D1*
X12237Y24026D1*
X12279Y24048D1*
X12317Y24075D1*
X12350Y24109D1*
X12377Y24147D1*
X12399Y24189D1*
X12413Y24233D1*
X12421Y24280D1*
Y24327D1*
X12413Y24373D1*
X12399Y24418D1*
X12377Y24460D1*
X12350Y24498D1*
X12317Y24531D1*
X12279Y24559D1*
X12237Y24580D1*
X12192Y24594D1*
X12146Y24602D1*
X11579D1*
X11532Y24594D1*
X11487Y24580D1*
X11446Y24559D1*
X11408Y24531D1*
X11374Y24498D1*
X11347Y24460D1*
X11325Y24418D1*
X11311Y24373D1*
X11303Y24327D1*
Y24280D1*
G37*
G36*
X15941Y24327D2*
X15933Y24373D1*
X15919Y24418D1*
X15897Y24460D1*
X15870Y24498D1*
X15837Y24531D1*
X15799Y24559D1*
X15757Y24580D1*
X15712Y24594D1*
X15666Y24602D1*
X15099D1*
X15052Y24594D1*
X15007Y24580D1*
X14966Y24559D1*
X14928Y24531D1*
X14894Y24498D1*
X14867Y24460D1*
X14845Y24418D1*
X14831Y24373D1*
X14823Y24327D1*
Y24280D1*
X14831Y24233D1*
X14845Y24189D1*
X14867Y24147D1*
X14894Y24109D1*
X14928Y24075D1*
X14966Y24048D1*
X15007Y24026D1*
X15052Y24012D1*
X15099Y24005D1*
X15666D1*
X15712Y24012D1*
X15757Y24026D1*
X15799Y24048D1*
X15837Y24075D1*
X15870Y24109D1*
X15897Y24147D1*
X15919Y24189D1*
X15933Y24233D1*
X15941Y24280D1*
Y24327D1*
G37*
G36*
Y25327D2*
X15933Y25373D1*
X15919Y25418D1*
X15897Y25460D1*
X15870Y25498D1*
X15837Y25531D1*
X15799Y25559D1*
X15757Y25580D1*
X15712Y25594D1*
X15666Y25602D1*
X15099D1*
X15052Y25594D1*
X15007Y25580D1*
X14966Y25559D1*
X14928Y25531D1*
X14894Y25498D1*
X14867Y25460D1*
X14845Y25418D1*
X14831Y25373D1*
X14823Y25327D1*
Y25280D1*
X14831Y25233D1*
X14845Y25189D1*
X14867Y25147D1*
X14894Y25109D1*
X14928Y25075D1*
X14966Y25048D1*
X15007Y25026D1*
X15052Y25012D1*
X15099Y25005D1*
X15666D1*
X15712Y25012D1*
X15757Y25026D1*
X15799Y25048D1*
X15837Y25075D1*
X15870Y25109D1*
X15897Y25147D1*
X15919Y25189D1*
X15933Y25233D1*
X15941Y25280D1*
Y25327D1*
G37*
G36*
X11303Y16225D2*
X11311Y16178D1*
X11325Y16133D1*
X11347Y16092D1*
X11374Y16054D1*
X11408Y16020D1*
X11446Y15993D1*
X11487Y15971D1*
X11532Y15957D1*
X11579Y15949D1*
X12146D1*
X12192Y15957D1*
X12237Y15971D1*
X12279Y15993D1*
X12317Y16020D1*
X12350Y16054D1*
X12377Y16092D1*
X12399Y16133D1*
X12413Y16178D1*
X12421Y16225D1*
Y16272D1*
X12413Y16318D1*
X12399Y16363D1*
X12377Y16405D1*
X12350Y16443D1*
X12317Y16476D1*
X12279Y16503D1*
X12237Y16525D1*
X12192Y16539D1*
X12146Y16547D1*
X11579D1*
X11532Y16539D1*
X11487Y16525D1*
X11446Y16503D1*
X11408Y16476D1*
X11374Y16443D1*
X11347Y16405D1*
X11325Y16363D1*
X11311Y16318D1*
X11303Y16272D1*
Y16225D1*
G37*
G36*
Y15225D2*
X11311Y15178D1*
X11325Y15133D1*
X11347Y15092D1*
X11374Y15054D1*
X11408Y15020D1*
X11446Y14993D1*
X11487Y14971D1*
X11532Y14957D1*
X11579Y14949D1*
X12146D1*
X12192Y14957D1*
X12237Y14971D1*
X12279Y14993D1*
X12317Y15020D1*
X12350Y15054D1*
X12377Y15092D1*
X12399Y15133D1*
X12413Y15178D1*
X12421Y15225D1*
Y15272D1*
X12413Y15318D1*
X12399Y15363D1*
X12377Y15405D1*
X12350Y15443D1*
X12317Y15476D1*
X12279Y15503D1*
X12237Y15525D1*
X12192Y15539D1*
X12146Y15547D1*
X11579D1*
X11532Y15539D1*
X11487Y15525D1*
X11446Y15503D1*
X11408Y15476D1*
X11374Y15443D1*
X11347Y15405D1*
X11325Y15363D1*
X11311Y15318D1*
X11303Y15272D1*
Y15225D1*
G37*
G36*
X15941Y15272D2*
X15933Y15318D1*
X15919Y15363D1*
X15897Y15405D1*
X15870Y15443D1*
X15837Y15476D1*
X15799Y15503D1*
X15757Y15525D1*
X15712Y15539D1*
X15666Y15547D1*
X15099D1*
X15052Y15539D1*
X15007Y15525D1*
X14966Y15503D1*
X14928Y15476D1*
X14894Y15443D1*
X14867Y15405D1*
X14845Y15363D1*
X14831Y15318D1*
X14823Y15272D1*
Y15225D1*
X14831Y15178D1*
X14845Y15133D1*
X14867Y15092D1*
X14894Y15054D1*
X14928Y15020D1*
X14966Y14993D1*
X15007Y14971D1*
X15052Y14957D1*
X15099Y14949D1*
X15666D1*
X15712Y14957D1*
X15757Y14971D1*
X15799Y14993D1*
X15837Y15020D1*
X15870Y15054D1*
X15897Y15092D1*
X15919Y15133D1*
X15933Y15178D1*
X15941Y15225D1*
Y15272D1*
G37*
G36*
Y16272D2*
X15933Y16318D1*
X15919Y16363D1*
X15897Y16405D1*
X15870Y16443D1*
X15837Y16476D1*
X15799Y16503D1*
X15757Y16525D1*
X15712Y16539D1*
X15666Y16547D1*
X15099D1*
X15052Y16539D1*
X15007Y16525D1*
X14966Y16503D1*
X14928Y16476D1*
X14894Y16443D1*
X14867Y16405D1*
X14845Y16363D1*
X14831Y16318D1*
X14823Y16272D1*
Y16225D1*
X14831Y16178D1*
X14845Y16133D1*
X14867Y16092D1*
X14894Y16054D1*
X14928Y16020D1*
X14966Y15993D1*
X15007Y15971D1*
X15052Y15957D1*
X15099Y15949D1*
X15666D1*
X15712Y15957D1*
X15757Y15971D1*
X15799Y15993D1*
X15837Y16020D1*
X15870Y16054D1*
X15897Y16092D1*
X15919Y16133D1*
X15933Y16178D1*
X15941Y16225D1*
Y16272D1*
G37*
G36*
X11303Y7209D2*
X11311Y7162D1*
X11325Y7118D1*
X11347Y7076D1*
X11374Y7038D1*
X11408Y7005D1*
X11446Y6977D1*
X11487Y6956D1*
X11532Y6941D1*
X11579Y6934D1*
X12146D1*
X12192Y6941D1*
X12237Y6956D1*
X12279Y6977D1*
X12317Y7005D1*
X12350Y7038D1*
X12377Y7076D1*
X12399Y7118D1*
X12413Y7162D1*
X12421Y7209D1*
Y7256D1*
X12413Y7302D1*
X12399Y7347D1*
X12377Y7389D1*
X12350Y7427D1*
X12317Y7460D1*
X12279Y7488D1*
X12237Y7509D1*
X12192Y7524D1*
X12146Y7531D1*
X11579D1*
X11532Y7524D1*
X11487Y7509D1*
X11446Y7488D1*
X11408Y7460D1*
X11374Y7427D1*
X11347Y7389D1*
X11325Y7347D1*
X11311Y7302D1*
X11303Y7256D1*
Y7209D1*
G37*
G36*
Y6209D2*
X11311Y6162D1*
X11325Y6118D1*
X11347Y6076D1*
X11374Y6038D1*
X11408Y6005D1*
X11446Y5977D1*
X11487Y5956D1*
X11532Y5941D1*
X11579Y5934D1*
X12146D1*
X12192Y5941D1*
X12237Y5956D1*
X12279Y5977D1*
X12317Y6005D1*
X12350Y6038D1*
X12377Y6076D1*
X12399Y6118D1*
X12413Y6162D1*
X12421Y6209D1*
Y6256D1*
X12413Y6302D1*
X12399Y6347D1*
X12377Y6389D1*
X12350Y6427D1*
X12317Y6460D1*
X12279Y6488D1*
X12237Y6509D1*
X12192Y6524D1*
X12146Y6531D1*
X11579D1*
X11532Y6524D1*
X11487Y6509D1*
X11446Y6488D1*
X11408Y6460D1*
X11374Y6427D1*
X11347Y6389D1*
X11325Y6347D1*
X11311Y6302D1*
X11303Y6256D1*
Y6209D1*
G37*
G36*
X15941Y6256D2*
X15933Y6302D1*
X15919Y6347D1*
X15897Y6389D1*
X15870Y6427D1*
X15837Y6460D1*
X15799Y6488D1*
X15757Y6509D1*
X15712Y6524D1*
X15666Y6531D1*
X15099D1*
X15052Y6524D1*
X15007Y6509D1*
X14966Y6488D1*
X14928Y6460D1*
X14894Y6427D1*
X14867Y6389D1*
X14845Y6347D1*
X14831Y6302D1*
X14823Y6256D1*
Y6209D1*
X14831Y6162D1*
X14845Y6118D1*
X14867Y6076D1*
X14894Y6038D1*
X14928Y6005D1*
X14966Y5977D1*
X15007Y5956D1*
X15052Y5941D1*
X15099Y5934D1*
X15666D1*
X15712Y5941D1*
X15757Y5956D1*
X15799Y5977D1*
X15837Y6005D1*
X15870Y6038D1*
X15897Y6076D1*
X15919Y6118D1*
X15933Y6162D1*
X15941Y6209D1*
Y6256D1*
G37*
G36*
Y7256D2*
X15933Y7302D1*
X15919Y7347D1*
X15897Y7389D1*
X15870Y7427D1*
X15837Y7460D1*
X15799Y7488D1*
X15757Y7509D1*
X15712Y7524D1*
X15666Y7531D1*
X15099D1*
X15052Y7524D1*
X15007Y7509D1*
X14966Y7488D1*
X14928Y7460D1*
X14894Y7427D1*
X14867Y7389D1*
X14845Y7347D1*
X14831Y7302D1*
X14823Y7256D1*
Y7209D1*
X14831Y7162D1*
X14845Y7118D1*
X14867Y7076D1*
X14894Y7038D1*
X14928Y7005D1*
X14966Y6977D1*
X15007Y6956D1*
X15052Y6941D1*
X15099Y6934D1*
X15666D1*
X15712Y6941D1*
X15757Y6956D1*
X15799Y6977D1*
X15837Y7005D1*
X15870Y7038D1*
X15897Y7076D1*
X15919Y7118D1*
X15933Y7162D1*
X15941Y7209D1*
Y7256D1*
G37*
G36*
X52555Y6216D2*
X52547Y6263D1*
X52533Y6308D1*
X52512Y6349D1*
X52484Y6387D1*
X52451Y6421D1*
X52413Y6448D1*
X52371Y6470D1*
X52326Y6484D1*
X52280Y6491D1*
X51713D1*
X51666Y6484D1*
X51622Y6470D1*
X51580Y6448D1*
X51542Y6421D1*
X51508Y6387D1*
X51481Y6349D1*
X51460Y6308D1*
X51445Y6263D1*
X51438Y6216D1*
Y6169D1*
X51445Y6123D1*
X51460Y6078D1*
X51481Y6036D1*
X51508Y5998D1*
X51542Y5965D1*
X51580Y5938D1*
X51622Y5916D1*
X51666Y5902D1*
X51713Y5894D1*
X52280D1*
X52326Y5902D1*
X52371Y5916D1*
X52413Y5938D1*
X52451Y5965D1*
X52484Y5998D1*
X52512Y6036D1*
X52533Y6078D1*
X52547Y6123D1*
X52555Y6169D1*
Y6216D1*
G37*
G36*
Y7216D2*
X52547Y7263D1*
X52533Y7308D1*
X52512Y7349D1*
X52484Y7387D1*
X52451Y7421D1*
X52413Y7448D1*
X52371Y7470D1*
X52326Y7484D1*
X52280Y7491D1*
X51713D1*
X51666Y7484D1*
X51622Y7470D1*
X51580Y7448D1*
X51542Y7421D1*
X51508Y7387D1*
X51481Y7349D1*
X51460Y7308D1*
X51445Y7263D1*
X51438Y7216D1*
Y7169D1*
X51445Y7123D1*
X51460Y7078D1*
X51481Y7036D1*
X51508Y6998D1*
X51542Y6965D1*
X51580Y6938D1*
X51622Y6916D1*
X51666Y6902D1*
X51713Y6894D1*
X52280D1*
X52326Y6902D1*
X52371Y6916D1*
X52413Y6938D1*
X52451Y6965D1*
X52484Y6998D1*
X52512Y7036D1*
X52533Y7078D1*
X52547Y7123D1*
X52555Y7169D1*
Y7216D1*
G37*
G36*
X47918Y7169D2*
X47925Y7123D1*
X47940Y7078D1*
X47961Y7036D1*
X47988Y6998D1*
X48022Y6965D1*
X48060Y6938D1*
X48102Y6916D1*
X48146Y6902D1*
X48193Y6894D1*
X48760D1*
X48806Y6902D1*
X48851Y6916D1*
X48893Y6938D1*
X48931Y6965D1*
X48964Y6998D1*
X48992Y7036D1*
X49013Y7078D1*
X49027Y7123D1*
X49035Y7169D1*
Y7216D1*
X49027Y7263D1*
X49013Y7308D1*
X48992Y7349D1*
X48964Y7387D1*
X48931Y7421D1*
X48893Y7448D1*
X48851Y7470D1*
X48806Y7484D1*
X48760Y7491D1*
X48193D1*
X48146Y7484D1*
X48102Y7470D1*
X48060Y7448D1*
X48022Y7421D1*
X47988Y7387D1*
X47961Y7349D1*
X47940Y7308D1*
X47925Y7263D1*
X47918Y7216D1*
Y7169D1*
G37*
G36*
Y6169D2*
X47925Y6123D1*
X47940Y6078D1*
X47961Y6036D1*
X47988Y5998D1*
X48022Y5965D1*
X48060Y5938D1*
X48102Y5916D1*
X48146Y5902D1*
X48193Y5894D1*
X48760D1*
X48806Y5902D1*
X48851Y5916D1*
X48893Y5938D1*
X48931Y5965D1*
X48964Y5998D1*
X48992Y6036D1*
X49013Y6078D1*
X49027Y6123D1*
X49035Y6169D1*
Y6216D1*
X49027Y6263D1*
X49013Y6308D1*
X48992Y6349D1*
X48964Y6387D1*
X48931Y6421D1*
X48893Y6448D1*
X48851Y6470D1*
X48806Y6484D1*
X48760Y6491D1*
X48193D1*
X48146Y6484D1*
X48102Y6470D1*
X48060Y6448D1*
X48022Y6421D1*
X47988Y6387D1*
X47961Y6349D1*
X47940Y6308D1*
X47925Y6263D1*
X47918Y6216D1*
Y6169D1*
G37*
G36*
X52555Y15272D2*
X52547Y15318D1*
X52533Y15363D1*
X52512Y15405D1*
X52484Y15443D1*
X52451Y15476D1*
X52413Y15503D1*
X52371Y15525D1*
X52326Y15539D1*
X52280Y15547D1*
X51713D1*
X51666Y15539D1*
X51622Y15525D1*
X51580Y15503D1*
X51542Y15476D1*
X51508Y15443D1*
X51481Y15405D1*
X51460Y15363D1*
X51445Y15318D1*
X51438Y15272D1*
Y15225D1*
X51445Y15178D1*
X51460Y15133D1*
X51481Y15092D1*
X51508Y15054D1*
X51542Y15020D1*
X51580Y14993D1*
X51622Y14971D1*
X51666Y14957D1*
X51713Y14949D1*
X52280D1*
X52326Y14957D1*
X52371Y14971D1*
X52413Y14993D1*
X52451Y15020D1*
X52484Y15054D1*
X52512Y15092D1*
X52533Y15133D1*
X52547Y15178D1*
X52555Y15225D1*
Y15272D1*
G37*
G36*
Y16272D2*
X52547Y16318D1*
X52533Y16363D1*
X52512Y16405D1*
X52484Y16443D1*
X52451Y16476D1*
X52413Y16503D1*
X52371Y16525D1*
X52326Y16539D1*
X52280Y16547D1*
X51713D1*
X51666Y16539D1*
X51622Y16525D1*
X51580Y16503D1*
X51542Y16476D1*
X51508Y16443D1*
X51481Y16405D1*
X51460Y16363D1*
X51445Y16318D1*
X51438Y16272D1*
Y16225D1*
X51445Y16178D1*
X51460Y16133D1*
X51481Y16092D1*
X51508Y16054D1*
X51542Y16020D1*
X51580Y15993D1*
X51622Y15971D1*
X51666Y15957D1*
X51713Y15949D1*
X52280D1*
X52326Y15957D1*
X52371Y15971D1*
X52413Y15993D1*
X52451Y16020D1*
X52484Y16054D1*
X52512Y16092D1*
X52533Y16133D1*
X52547Y16178D1*
X52555Y16225D1*
Y16272D1*
G37*
G36*
X47918Y16225D2*
X47925Y16178D1*
X47940Y16133D1*
X47961Y16092D1*
X47988Y16054D1*
X48022Y16020D1*
X48060Y15993D1*
X48102Y15971D1*
X48146Y15957D1*
X48193Y15949D1*
X48760D1*
X48806Y15957D1*
X48851Y15971D1*
X48893Y15993D1*
X48931Y16020D1*
X48964Y16054D1*
X48992Y16092D1*
X49013Y16133D1*
X49027Y16178D1*
X49035Y16225D1*
Y16272D1*
X49027Y16318D1*
X49013Y16363D1*
X48992Y16405D1*
X48964Y16443D1*
X48931Y16476D1*
X48893Y16503D1*
X48851Y16525D1*
X48806Y16539D1*
X48760Y16547D1*
X48193D1*
X48146Y16539D1*
X48102Y16525D1*
X48060Y16503D1*
X48022Y16476D1*
X47988Y16443D1*
X47961Y16405D1*
X47940Y16363D1*
X47925Y16318D1*
X47918Y16272D1*
Y16225D1*
G37*
G36*
Y15225D2*
X47925Y15178D1*
X47940Y15133D1*
X47961Y15092D1*
X47988Y15054D1*
X48022Y15020D1*
X48060Y14993D1*
X48102Y14971D1*
X48146Y14957D1*
X48193Y14949D1*
X48760D1*
X48806Y14957D1*
X48851Y14971D1*
X48893Y14993D1*
X48931Y15020D1*
X48964Y15054D1*
X48992Y15092D1*
X49013Y15133D1*
X49027Y15178D1*
X49035Y15225D1*
Y15272D1*
X49027Y15318D1*
X49013Y15363D1*
X48992Y15405D1*
X48964Y15443D1*
X48931Y15476D1*
X48893Y15503D1*
X48851Y15525D1*
X48806Y15539D1*
X48760Y15547D1*
X48193D1*
X48146Y15539D1*
X48102Y15525D1*
X48060Y15503D1*
X48022Y15476D1*
X47988Y15443D1*
X47961Y15405D1*
X47940Y15363D1*
X47925Y15318D1*
X47918Y15272D1*
Y15225D1*
G37*
G36*
X52555Y24327D2*
X52547Y24373D1*
X52533Y24418D1*
X52512Y24460D1*
X52484Y24498D1*
X52451Y24531D1*
X52413Y24559D1*
X52371Y24580D1*
X52326Y24594D1*
X52280Y24602D1*
X51713D1*
X51666Y24594D1*
X51622Y24580D1*
X51580Y24559D1*
X51542Y24531D1*
X51508Y24498D1*
X51481Y24460D1*
X51460Y24418D1*
X51445Y24373D1*
X51438Y24327D1*
Y24280D1*
X51445Y24233D1*
X51460Y24189D1*
X51481Y24147D1*
X51508Y24109D1*
X51542Y24075D1*
X51580Y24048D1*
X51622Y24026D1*
X51666Y24012D1*
X51713Y24005D1*
X52280D1*
X52326Y24012D1*
X52371Y24026D1*
X52413Y24048D1*
X52451Y24075D1*
X52484Y24109D1*
X52512Y24147D1*
X52533Y24189D1*
X52547Y24233D1*
X52555Y24280D1*
Y24327D1*
G37*
G36*
Y25327D2*
X52547Y25373D1*
X52533Y25418D1*
X52512Y25460D1*
X52484Y25498D1*
X52451Y25531D1*
X52413Y25559D1*
X52371Y25580D1*
X52326Y25594D1*
X52280Y25602D1*
X51713D1*
X51666Y25594D1*
X51622Y25580D1*
X51580Y25559D1*
X51542Y25531D1*
X51508Y25498D1*
X51481Y25460D1*
X51460Y25418D1*
X51445Y25373D1*
X51438Y25327D1*
Y25280D1*
X51445Y25233D1*
X51460Y25189D1*
X51481Y25147D1*
X51508Y25109D1*
X51542Y25075D1*
X51580Y25048D1*
X51622Y25026D1*
X51666Y25012D1*
X51713Y25005D1*
X52280D1*
X52326Y25012D1*
X52371Y25026D1*
X52413Y25048D1*
X52451Y25075D1*
X52484Y25109D1*
X52512Y25147D1*
X52533Y25189D1*
X52547Y25233D1*
X52555Y25280D1*
Y25327D1*
G37*
G36*
X47918Y25280D2*
X47925Y25233D1*
X47940Y25189D1*
X47961Y25147D1*
X47988Y25109D1*
X48022Y25075D1*
X48060Y25048D1*
X48102Y25026D1*
X48146Y25012D1*
X48193Y25005D1*
X48760D1*
X48806Y25012D1*
X48851Y25026D1*
X48893Y25048D1*
X48931Y25075D1*
X48964Y25109D1*
X48992Y25147D1*
X49013Y25189D1*
X49027Y25233D1*
X49035Y25280D1*
Y25327D1*
X49027Y25373D1*
X49013Y25418D1*
X48992Y25460D1*
X48964Y25498D1*
X48931Y25531D1*
X48893Y25559D1*
X48851Y25580D1*
X48806Y25594D1*
X48760Y25602D1*
X48193D1*
X48146Y25594D1*
X48102Y25580D1*
X48060Y25559D1*
X48022Y25531D1*
X47988Y25498D1*
X47961Y25460D1*
X47940Y25418D1*
X47925Y25373D1*
X47918Y25327D1*
Y25280D1*
G37*
G36*
Y24280D2*
X47925Y24233D1*
X47940Y24189D1*
X47961Y24147D1*
X47988Y24109D1*
X48022Y24075D1*
X48060Y24048D1*
X48102Y24026D1*
X48146Y24012D1*
X48193Y24005D1*
X48760D1*
X48806Y24012D1*
X48851Y24026D1*
X48893Y24048D1*
X48931Y24075D1*
X48964Y24109D1*
X48992Y24147D1*
X49013Y24189D1*
X49027Y24233D1*
X49035Y24280D1*
Y24327D1*
X49027Y24373D1*
X49013Y24418D1*
X48992Y24460D1*
X48964Y24498D1*
X48931Y24531D1*
X48893Y24559D1*
X48851Y24580D1*
X48806Y24594D1*
X48760Y24602D1*
X48193D1*
X48146Y24594D1*
X48102Y24580D1*
X48060Y24559D1*
X48022Y24531D1*
X47988Y24498D1*
X47961Y24460D1*
X47940Y24418D1*
X47925Y24373D1*
X47918Y24327D1*
Y24280D1*
G37*
G36*
X52555Y33382D2*
X52547Y33428D1*
X52533Y33473D1*
X52512Y33515D1*
X52484Y33553D1*
X52451Y33586D1*
X52413Y33614D1*
X52371Y33635D1*
X52326Y33649D1*
X52280Y33657D1*
X51713D1*
X51666Y33649D1*
X51622Y33635D1*
X51580Y33614D1*
X51542Y33586D1*
X51508Y33553D1*
X51481Y33515D1*
X51460Y33473D1*
X51445Y33428D1*
X51438Y33382D1*
Y33335D1*
X51445Y33288D1*
X51460Y33244D1*
X51481Y33202D1*
X51508Y33164D1*
X51542Y33131D1*
X51580Y33103D1*
X51622Y33082D1*
X51666Y33067D1*
X51713Y33060D1*
X52280D1*
X52326Y33067D1*
X52371Y33082D1*
X52413Y33103D1*
X52451Y33131D1*
X52484Y33164D1*
X52512Y33202D1*
X52533Y33244D1*
X52547Y33288D1*
X52555Y33335D1*
Y33382D1*
G37*
G36*
Y34382D2*
X52547Y34428D1*
X52533Y34473D1*
X52512Y34515D1*
X52484Y34553D1*
X52451Y34586D1*
X52413Y34614D1*
X52371Y34635D1*
X52326Y34649D1*
X52280Y34657D1*
X51713D1*
X51666Y34649D1*
X51622Y34635D1*
X51580Y34614D1*
X51542Y34586D1*
X51508Y34553D1*
X51481Y34515D1*
X51460Y34473D1*
X51445Y34428D1*
X51438Y34382D1*
Y34335D1*
X51445Y34288D1*
X51460Y34244D1*
X51481Y34202D1*
X51508Y34164D1*
X51542Y34131D1*
X51580Y34103D1*
X51622Y34082D1*
X51666Y34067D1*
X51713Y34060D1*
X52280D1*
X52326Y34067D1*
X52371Y34082D1*
X52413Y34103D1*
X52451Y34131D1*
X52484Y34164D1*
X52512Y34202D1*
X52533Y34244D1*
X52547Y34288D1*
X52555Y34335D1*
Y34382D1*
G37*
G36*
X47918Y34335D2*
X47925Y34288D1*
X47940Y34244D1*
X47961Y34202D1*
X47988Y34164D1*
X48022Y34131D1*
X48060Y34103D1*
X48102Y34082D1*
X48146Y34067D1*
X48193Y34060D1*
X48760D1*
X48806Y34067D1*
X48851Y34082D1*
X48893Y34103D1*
X48931Y34131D1*
X48964Y34164D1*
X48992Y34202D1*
X49013Y34244D1*
X49027Y34288D1*
X49035Y34335D1*
Y34382D1*
X49027Y34428D1*
X49013Y34473D1*
X48992Y34515D1*
X48964Y34553D1*
X48931Y34586D1*
X48893Y34614D1*
X48851Y34635D1*
X48806Y34649D1*
X48760Y34657D1*
X48193D1*
X48146Y34649D1*
X48102Y34635D1*
X48060Y34614D1*
X48022Y34586D1*
X47988Y34553D1*
X47961Y34515D1*
X47940Y34473D1*
X47925Y34428D1*
X47918Y34382D1*
Y34335D1*
G37*
G36*
Y33335D2*
X47925Y33288D1*
X47940Y33244D1*
X47961Y33202D1*
X47988Y33164D1*
X48022Y33131D1*
X48060Y33103D1*
X48102Y33082D1*
X48146Y33067D1*
X48193Y33060D1*
X48760D1*
X48806Y33067D1*
X48851Y33082D1*
X48893Y33103D1*
X48931Y33131D1*
X48964Y33164D1*
X48992Y33202D1*
X49013Y33244D1*
X49027Y33288D1*
X49035Y33335D1*
Y33382D1*
X49027Y33428D1*
X49013Y33473D1*
X48992Y33515D1*
X48964Y33553D1*
X48931Y33586D1*
X48893Y33614D1*
X48851Y33635D1*
X48806Y33649D1*
X48760Y33657D1*
X48193D1*
X48146Y33649D1*
X48102Y33635D1*
X48060Y33614D1*
X48022Y33586D1*
X47988Y33553D1*
X47961Y33515D1*
X47940Y33473D1*
X47925Y33428D1*
X47918Y33382D1*
Y33335D1*
G37*
G36*
X27072Y18830D2*
X27300Y18602D1*
X27623D1*
X27851Y18830D1*
Y19153D1*
X27623Y19381D1*
X27300D1*
X27072Y19153D1*
Y18830D1*
G37*
G36*
Y20830D2*
X27300Y20602D1*
X27623D1*
X27851Y20830D1*
Y21153D1*
X27623Y21381D1*
X27300D1*
X27072Y21153D1*
Y20830D1*
G37*
D77*
X18921Y34933D3*
X20921D3*
X19921D3*
X18921Y25681D3*
X20921D3*
X19921D3*
X18921Y16626D3*
X20921D3*
X19921D3*
X18921Y7571D3*
X20921D3*
X19921D3*
X44937Y14083D3*
X42937D3*
X43937D3*
X44937Y23335D3*
X42937D3*
X43937D3*
X44937Y32193D3*
X42937D3*
X43937D3*
X44937Y41248D3*
X42937D3*
X43937D3*
D66*
X29882Y12323D3*
D71*
X31882D3*
X30882D3*
D92*
X19724Y40976D3*
D71*
Y36976D3*
D92*
X10307Y34646D3*
D71*
X6307D3*
D92*
X23386Y27638D3*
D71*
Y23638D3*
D92*
X35866Y35744D3*
D71*
Y31744D3*
D92*
X19724Y31724D3*
D71*
Y27724D3*
D92*
X10307Y25394D3*
D71*
X6307D3*
D92*
X19724Y22551D3*
D71*
Y18551D3*
D92*
X10307Y16339D3*
D71*
X6307D3*
D92*
X19724Y13535D3*
D71*
Y9535D3*
D92*
X10307Y6783D3*
D71*
X6307D3*
D92*
X34882Y31744D3*
D71*
Y35744D3*
D92*
X34370Y39307D3*
D71*
X38370D3*
D92*
X44331Y6957D3*
D71*
Y10957D3*
D92*
X53748Y6299D3*
D71*
X57748D3*
D92*
X44331Y16209D3*
D71*
Y20209D3*
D92*
X53748Y15157D3*
D71*
X57748D3*
D92*
X44331Y25067D3*
D71*
Y29067D3*
D92*
X53748Y24213D3*
D71*
X57748D3*
D92*
X44331Y34122D3*
D71*
Y38122D3*
D92*
X53748Y33268D3*
D71*
X57748D3*
D92*
X28189Y11811D3*
D71*
Y7811D3*
D92*
X22622Y7839D3*
D71*
Y11839D3*
D92*
X23346Y13858D3*
D71*
X27346D3*
D92*
X30748Y36094D3*
D71*
Y32094D3*
D92*
X25630Y36173D3*
D71*
Y32173D3*
D92*
X31732Y36094D3*
D71*
Y32094D3*
D92*
X26614Y36173D3*
D71*
Y32173D3*
D92*
X36850Y35744D3*
D71*
Y31744D3*
D92*
X37835Y35744D3*
D71*
Y31744D3*
D92*
X20906Y40976D3*
D71*
Y36976D3*
D92*
Y31724D3*
D71*
Y27724D3*
D92*
Y22551D3*
D71*
Y18551D3*
D92*
Y13535D3*
D71*
Y9535D3*
D92*
X43346Y10957D3*
D71*
Y6957D3*
D92*
Y20209D3*
D71*
Y16209D3*
D92*
Y29067D3*
D71*
Y25067D3*
D92*
Y38122D3*
D71*
Y34122D3*
D92*
X34094Y26693D3*
D71*
Y30693D3*
D69*
X26893Y26894D3*
X25113D3*
X26893Y24334D3*
X25113D3*
D77*
X29764Y35945D3*
X27764D3*
X28764D3*
X29764Y33780D3*
X27764D3*
X28764D3*
D64*
X29567Y27559D3*
Y26559D3*
Y25559D3*
Y24559D3*
Y23559D3*
Y22559D3*
Y21559D3*
Y20559D3*
Y19559D3*
Y18559D3*
Y17559D3*
Y16559D3*
Y15559D3*
Y14559D3*
X32567D3*
Y15559D3*
Y16559D3*
Y17559D3*
Y18559D3*
Y19559D3*
Y20559D3*
Y21559D3*
Y22559D3*
Y23559D3*
Y24559D3*
Y25559D3*
Y26559D3*
Y27559D3*
D62*
X38976Y32506D3*
D60*
Y33294D3*
Y34081D3*
Y34869D3*
Y35656D3*
Y36443D3*
Y37231D3*
Y38018D3*
X33465D3*
Y37231D3*
Y36443D3*
Y35656D3*
Y34869D3*
Y34081D3*
Y33294D3*
Y32506D3*
D58*
X36941Y6193D3*
X39303D3*
X34579Y19421D3*
X41665D3*
D56*
X6815Y40551D3*
Y38583D3*
Y36614D3*
Y31299D3*
Y29331D3*
Y27362D3*
Y22244D3*
Y20276D3*
Y18307D3*
Y13189D3*
Y11220D3*
Y9252D3*
X57240D3*
Y11220D3*
Y13189D3*
Y18302D3*
Y20270D3*
Y22239D3*
Y27351D3*
Y29320D3*
Y31288D3*
Y36614D3*
Y38583D3*
Y40551D3*
D54*
X30630Y6969D3*
X32598D3*
D92*
X41181Y38150D3*
X22520Y27677D3*
X31614Y39764D3*
X22717Y38110D3*
X22598Y35039D3*
X22441Y29882D3*
X23110Y21654D3*
X23150Y20512D3*
X17913Y16102D3*
X19370Y14409D3*
X22598Y6457D3*
X34488Y23819D3*
X39685Y29646D3*
X42087Y25866D3*
X41142Y24252D3*
X40669Y20984D3*
X45748Y16260D3*
X45512Y7480D3*
X46693Y6732D3*
X30748Y10551D3*
X27953Y12953D3*
X32717Y11260D3*
X96890Y78701D3*
D90*
Y77701D3*
G36*
X97076Y60669D2*
X97284Y60877D1*
Y61170D1*
X97076Y61378D1*
X96782D1*
X96575Y61170D1*
Y60877D1*
X96782Y60669D1*
X97076D1*
G37*
D72*
X96929Y62024D3*
D87*
X82884Y59350D3*
Y60350D3*
D85*
X93740Y62205D3*
G36*
X93964Y59665D2*
X94280Y59981D1*
Y60428D1*
X93964Y60744D1*
X93517D1*
X93201Y60428D1*
Y59981D1*
X93517Y59665D1*
X93964D1*
G37*
D87*
X82884Y58225D3*
Y57225D3*
G36*
X81047Y46581D2*
X80872Y46756D1*
X80624D1*
X80449Y46581D1*
Y46333D1*
X80624Y46157D1*
X80872D1*
X81047Y46333D1*
Y46581D1*
G37*
G36*
X82047D2*
X81872Y46756D1*
X81624D1*
X81449Y46581D1*
Y46333D1*
X81624Y46157D1*
X81872D1*
X82047Y46333D1*
Y46581D1*
G37*
G36*
X83465Y54477D2*
X83257Y54685D1*
X82963D1*
X82756Y54477D1*
Y54184D1*
X82963Y53976D1*
X83257D1*
X83465Y54184D1*
Y54477D1*
G37*
D72*
X82110Y54331D3*
G36*
X84346Y46564D2*
X84139Y46772D1*
X83845D1*
X83638Y46564D1*
Y46271D1*
X83845Y46063D1*
X84139D1*
X84346Y46271D1*
Y46564D1*
G37*
D72*
X82992Y46417D3*
G36*
X75804Y74746D2*
X76049Y74992D1*
Y75339D1*
X75804Y75585D1*
X75456D1*
X75211Y75339D1*
Y74992D1*
X75456Y74746D1*
X75804D1*
G37*
G36*
Y78746D2*
X76049Y78992D1*
Y79339D1*
X75804Y79585D1*
X75456D1*
X75211Y79339D1*
Y78992D1*
X75456Y78746D1*
X75804D1*
G37*
G36*
Y65494D2*
X76049Y65740D1*
Y66087D1*
X75804Y66333D1*
X75456D1*
X75211Y66087D1*
Y65740D1*
X75456Y65494D1*
X75804D1*
G37*
G36*
Y69494D2*
X76049Y69740D1*
Y70087D1*
X75804Y70333D1*
X75456D1*
X75211Y70087D1*
Y69740D1*
X75456Y69494D1*
X75804D1*
G37*
G36*
Y56439D2*
X76049Y56685D1*
Y57032D1*
X75804Y57278D1*
X75456D1*
X75211Y57032D1*
Y56685D1*
X75456Y56439D1*
X75804D1*
G37*
G36*
Y60439D2*
X76049Y60685D1*
Y61032D1*
X75804Y61278D1*
X75456D1*
X75211Y61032D1*
Y60685D1*
X75456Y60439D1*
X75804D1*
G37*
G36*
Y47384D2*
X76049Y47629D1*
Y47977D1*
X75804Y48223D1*
X75456D1*
X75211Y47977D1*
Y47629D1*
X75456Y47384D1*
X75804D1*
G37*
G36*
Y51384D2*
X76049Y51629D1*
Y51977D1*
X75804Y52223D1*
X75456D1*
X75211Y51977D1*
Y51629D1*
X75456Y51384D1*
X75804D1*
G37*
G36*
X102425Y52191D2*
X102179Y51945D1*
Y51598D1*
X102425Y51352D1*
X102772D1*
X103018Y51598D1*
Y51945D1*
X102772Y52191D1*
X102425D1*
G37*
G36*
Y48191D2*
X102179Y47945D1*
Y47598D1*
X102425Y47352D1*
X102772D1*
X103018Y47598D1*
Y47945D1*
X102772Y48191D1*
X102425D1*
G37*
G36*
Y61443D2*
X102179Y61197D1*
Y60850D1*
X102425Y60604D1*
X102772D1*
X103018Y60850D1*
Y61197D1*
X102772Y61443D1*
X102425D1*
G37*
G36*
Y57443D2*
X102179Y57197D1*
Y56850D1*
X102425Y56604D1*
X102772D1*
X103018Y56850D1*
Y57197D1*
X102772Y57443D1*
X102425D1*
G37*
G36*
Y70333D2*
X102179Y70087D1*
Y69740D1*
X102425Y69494D1*
X102772D1*
X103018Y69740D1*
Y70087D1*
X102772Y70333D1*
X102425D1*
G37*
G36*
Y66333D2*
X102179Y66087D1*
Y65740D1*
X102425Y65494D1*
X102772D1*
X103018Y65740D1*
Y66087D1*
X102772Y66333D1*
X102425D1*
G37*
G36*
Y79585D2*
X102179Y79339D1*
Y78992D1*
X102425Y78746D1*
X102772D1*
X103018Y78992D1*
Y79339D1*
X102772Y79585D1*
X102425D1*
G37*
G36*
Y75585D2*
X102179Y75339D1*
Y74992D1*
X102425Y74746D1*
X102772D1*
X103018Y74992D1*
Y75339D1*
X102772Y75585D1*
X102425D1*
G37*
D14*
X98150Y73921D3*
D35*
Y74921D3*
D77*
X83937Y51181D3*
X82937D3*
Y48181D3*
X83937D3*
X81937Y51181D3*
X80937D3*
X81937Y48181D3*
X80937D3*
D75*
X86457Y70630D3*
Y69630D3*
D73*
X87173Y77904D3*
D71*
X86173D3*
X85173D3*
X84173D3*
D75*
X89167Y75859D3*
Y76859D3*
X84882Y70591D3*
Y69591D3*
D69*
X85709Y67795D3*
X84709D3*
X83709D3*
X82709D3*
X81709D3*
D67*
X73868Y77165D3*
X73068Y79515D3*
Y74815D3*
X68268D3*
Y79515D3*
X73868Y67913D3*
X73068Y70263D3*
Y65563D3*
X68268D3*
Y70263D3*
X73868Y58858D3*
X73068Y61208D3*
Y56508D3*
X68268D3*
Y61208D3*
X73868Y49803D3*
X73068Y52153D3*
Y47453D3*
X68268D3*
Y52153D3*
X104360Y49803D3*
X105160Y47453D3*
Y52153D3*
X109960D3*
Y47453D3*
X104360Y58858D3*
X105160Y56508D3*
Y61208D3*
X109960D3*
Y56508D3*
X104360Y67913D3*
X105160Y65563D3*
Y70263D3*
X109960D3*
Y65563D3*
X104360Y77165D3*
X105160Y74815D3*
Y79515D3*
X109960D3*
Y74815D3*
D66*
X96535Y63583D3*
D71*
Y66575D3*
G36*
X68390Y73114D2*
X68397Y73068D1*
X68412Y73023D1*
X68433Y72981D1*
X68461Y72943D1*
X68494Y72910D1*
X68532Y72882D1*
X68574Y72861D1*
X68619Y72847D1*
X68665Y72839D1*
X69232D1*
X69279Y72847D1*
X69323Y72861D1*
X69365Y72882D1*
X69403Y72910D1*
X69436Y72943D1*
X69464Y72981D1*
X69485Y73023D1*
X69500Y73068D1*
X69507Y73114D1*
Y73161D1*
X69500Y73208D1*
X69485Y73252D1*
X69464Y73294D1*
X69436Y73332D1*
X69403Y73366D1*
X69365Y73393D1*
X69323Y73414D1*
X69279Y73429D1*
X69232Y73436D1*
X68665D1*
X68619Y73429D1*
X68574Y73414D1*
X68532Y73393D1*
X68494Y73366D1*
X68461Y73332D1*
X68433Y73294D1*
X68412Y73252D1*
X68397Y73208D1*
X68390Y73161D1*
Y73114D1*
G37*
G36*
Y72114D2*
X68397Y72068D1*
X68412Y72023D1*
X68433Y71981D1*
X68461Y71943D1*
X68494Y71910D1*
X68532Y71882D1*
X68574Y71861D1*
X68619Y71847D1*
X68665Y71839D1*
X69232D1*
X69279Y71847D1*
X69323Y71861D1*
X69365Y71882D1*
X69403Y71910D1*
X69436Y71943D1*
X69464Y71981D1*
X69485Y72023D1*
X69500Y72068D1*
X69507Y72114D1*
Y72161D1*
X69500Y72208D1*
X69485Y72252D1*
X69464Y72294D1*
X69436Y72332D1*
X69403Y72366D1*
X69365Y72393D1*
X69323Y72414D1*
X69279Y72429D1*
X69232Y72436D1*
X68665D1*
X68619Y72429D1*
X68574Y72414D1*
X68532Y72393D1*
X68494Y72366D1*
X68461Y72332D1*
X68433Y72294D1*
X68412Y72252D1*
X68397Y72208D1*
X68390Y72161D1*
Y72114D1*
G37*
G36*
X73027Y72161D2*
X73020Y72208D1*
X73005Y72252D1*
X72984Y72294D1*
X72956Y72332D1*
X72923Y72366D1*
X72885Y72393D1*
X72843Y72414D1*
X72799Y72429D1*
X72752Y72436D1*
X72185D1*
X72139Y72429D1*
X72094Y72414D1*
X72052Y72393D1*
X72014Y72366D1*
X71981Y72332D1*
X71953Y72294D1*
X71932Y72252D1*
X71917Y72208D1*
X71910Y72161D1*
Y72114D1*
X71917Y72068D1*
X71932Y72023D1*
X71953Y71981D1*
X71981Y71943D1*
X72014Y71910D1*
X72052Y71882D1*
X72094Y71861D1*
X72139Y71847D1*
X72185Y71839D1*
X72752D1*
X72799Y71847D1*
X72843Y71861D1*
X72885Y71882D1*
X72923Y71910D1*
X72956Y71943D1*
X72984Y71981D1*
X73005Y72023D1*
X73020Y72068D1*
X73027Y72114D1*
Y72161D1*
G37*
G36*
Y73161D2*
X73020Y73208D1*
X73005Y73252D1*
X72984Y73294D1*
X72956Y73332D1*
X72923Y73366D1*
X72885Y73393D1*
X72843Y73414D1*
X72799Y73429D1*
X72752Y73436D1*
X72185D1*
X72139Y73429D1*
X72094Y73414D1*
X72052Y73393D1*
X72014Y73366D1*
X71981Y73332D1*
X71953Y73294D1*
X71932Y73252D1*
X71917Y73208D1*
X71910Y73161D1*
Y73114D1*
X71917Y73068D1*
X71932Y73023D1*
X71953Y72981D1*
X71981Y72943D1*
X72014Y72910D1*
X72052Y72882D1*
X72094Y72861D1*
X72139Y72847D1*
X72185Y72839D1*
X72752D1*
X72799Y72847D1*
X72843Y72861D1*
X72885Y72882D1*
X72923Y72910D1*
X72956Y72943D1*
X72984Y72981D1*
X73005Y73023D1*
X73020Y73068D1*
X73027Y73114D1*
Y73161D1*
G37*
G36*
X68390Y63862D2*
X68397Y63816D1*
X68412Y63771D1*
X68433Y63729D1*
X68461Y63691D1*
X68494Y63658D1*
X68532Y63630D1*
X68574Y63609D1*
X68619Y63595D1*
X68665Y63587D1*
X69232D1*
X69279Y63595D1*
X69323Y63609D1*
X69365Y63630D1*
X69403Y63658D1*
X69436Y63691D1*
X69464Y63729D1*
X69485Y63771D1*
X69500Y63816D1*
X69507Y63862D1*
Y63909D1*
X69500Y63956D1*
X69485Y64000D1*
X69464Y64042D1*
X69436Y64080D1*
X69403Y64114D1*
X69365Y64141D1*
X69323Y64163D1*
X69279Y64177D1*
X69232Y64184D1*
X68665D1*
X68619Y64177D1*
X68574Y64163D1*
X68532Y64141D1*
X68494Y64114D1*
X68461Y64080D1*
X68433Y64042D1*
X68412Y64000D1*
X68397Y63956D1*
X68390Y63909D1*
Y63862D1*
G37*
G36*
Y62862D2*
X68397Y62816D1*
X68412Y62771D1*
X68433Y62729D1*
X68461Y62691D1*
X68494Y62658D1*
X68532Y62630D1*
X68574Y62609D1*
X68619Y62595D1*
X68665Y62587D1*
X69232D1*
X69279Y62595D1*
X69323Y62609D1*
X69365Y62630D1*
X69403Y62658D1*
X69436Y62691D1*
X69464Y62729D1*
X69485Y62771D1*
X69500Y62816D1*
X69507Y62862D1*
Y62909D1*
X69500Y62956D1*
X69485Y63000D1*
X69464Y63042D1*
X69436Y63080D1*
X69403Y63114D1*
X69365Y63141D1*
X69323Y63163D1*
X69279Y63177D1*
X69232Y63184D1*
X68665D1*
X68619Y63177D1*
X68574Y63163D1*
X68532Y63141D1*
X68494Y63114D1*
X68461Y63080D1*
X68433Y63042D1*
X68412Y63000D1*
X68397Y62956D1*
X68390Y62909D1*
Y62862D1*
G37*
G36*
X73027Y62909D2*
X73020Y62956D1*
X73005Y63000D1*
X72984Y63042D1*
X72956Y63080D1*
X72923Y63114D1*
X72885Y63141D1*
X72843Y63163D1*
X72799Y63177D1*
X72752Y63184D1*
X72185D1*
X72139Y63177D1*
X72094Y63163D1*
X72052Y63141D1*
X72014Y63114D1*
X71981Y63080D1*
X71953Y63042D1*
X71932Y63000D1*
X71917Y62956D1*
X71910Y62909D1*
Y62862D1*
X71917Y62816D1*
X71932Y62771D1*
X71953Y62729D1*
X71981Y62691D1*
X72014Y62658D1*
X72052Y62630D1*
X72094Y62609D1*
X72139Y62595D1*
X72185Y62587D1*
X72752D1*
X72799Y62595D1*
X72843Y62609D1*
X72885Y62630D1*
X72923Y62658D1*
X72956Y62691D1*
X72984Y62729D1*
X73005Y62771D1*
X73020Y62816D1*
X73027Y62862D1*
Y62909D1*
G37*
G36*
Y63909D2*
X73020Y63956D1*
X73005Y64000D1*
X72984Y64042D1*
X72956Y64080D1*
X72923Y64114D1*
X72885Y64141D1*
X72843Y64163D1*
X72799Y64177D1*
X72752Y64184D1*
X72185D1*
X72139Y64177D1*
X72094Y64163D1*
X72052Y64141D1*
X72014Y64114D1*
X71981Y64080D1*
X71953Y64042D1*
X71932Y64000D1*
X71917Y63956D1*
X71910Y63909D1*
Y63862D1*
X71917Y63816D1*
X71932Y63771D1*
X71953Y63729D1*
X71981Y63691D1*
X72014Y63658D1*
X72052Y63630D1*
X72094Y63609D1*
X72139Y63595D1*
X72185Y63587D1*
X72752D1*
X72799Y63595D1*
X72843Y63609D1*
X72885Y63630D1*
X72923Y63658D1*
X72956Y63691D1*
X72984Y63729D1*
X73005Y63771D1*
X73020Y63816D1*
X73027Y63862D1*
Y63909D1*
G37*
G36*
X68390Y54807D2*
X68397Y54761D1*
X68412Y54716D1*
X68433Y54674D1*
X68461Y54636D1*
X68494Y54603D1*
X68532Y54575D1*
X68574Y54554D1*
X68619Y54539D1*
X68665Y54532D1*
X69232D1*
X69279Y54539D1*
X69323Y54554D1*
X69365Y54575D1*
X69403Y54603D1*
X69436Y54636D1*
X69464Y54674D1*
X69485Y54716D1*
X69500Y54761D1*
X69507Y54807D1*
Y54854D1*
X69500Y54901D1*
X69485Y54945D1*
X69464Y54987D1*
X69436Y55025D1*
X69403Y55058D1*
X69365Y55086D1*
X69323Y55107D1*
X69279Y55122D1*
X69232Y55129D1*
X68665D1*
X68619Y55122D1*
X68574Y55107D1*
X68532Y55086D1*
X68494Y55058D1*
X68461Y55025D1*
X68433Y54987D1*
X68412Y54945D1*
X68397Y54901D1*
X68390Y54854D1*
Y54807D1*
G37*
G36*
Y53807D2*
X68397Y53761D1*
X68412Y53716D1*
X68433Y53674D1*
X68461Y53636D1*
X68494Y53603D1*
X68532Y53575D1*
X68574Y53554D1*
X68619Y53539D1*
X68665Y53532D1*
X69232D1*
X69279Y53539D1*
X69323Y53554D1*
X69365Y53575D1*
X69403Y53603D1*
X69436Y53636D1*
X69464Y53674D1*
X69485Y53716D1*
X69500Y53761D1*
X69507Y53807D1*
Y53854D1*
X69500Y53901D1*
X69485Y53945D1*
X69464Y53987D1*
X69436Y54025D1*
X69403Y54058D1*
X69365Y54086D1*
X69323Y54107D1*
X69279Y54122D1*
X69232Y54129D1*
X68665D1*
X68619Y54122D1*
X68574Y54107D1*
X68532Y54086D1*
X68494Y54058D1*
X68461Y54025D1*
X68433Y53987D1*
X68412Y53945D1*
X68397Y53901D1*
X68390Y53854D1*
Y53807D1*
G37*
G36*
X73027Y53854D2*
X73020Y53901D1*
X73005Y53945D1*
X72984Y53987D1*
X72956Y54025D1*
X72923Y54058D1*
X72885Y54086D1*
X72843Y54107D1*
X72799Y54122D1*
X72752Y54129D1*
X72185D1*
X72139Y54122D1*
X72094Y54107D1*
X72052Y54086D1*
X72014Y54058D1*
X71981Y54025D1*
X71953Y53987D1*
X71932Y53945D1*
X71917Y53901D1*
X71910Y53854D1*
Y53807D1*
X71917Y53761D1*
X71932Y53716D1*
X71953Y53674D1*
X71981Y53636D1*
X72014Y53603D1*
X72052Y53575D1*
X72094Y53554D1*
X72139Y53539D1*
X72185Y53532D1*
X72752D1*
X72799Y53539D1*
X72843Y53554D1*
X72885Y53575D1*
X72923Y53603D1*
X72956Y53636D1*
X72984Y53674D1*
X73005Y53716D1*
X73020Y53761D1*
X73027Y53807D1*
Y53854D1*
G37*
G36*
Y54854D2*
X73020Y54901D1*
X73005Y54945D1*
X72984Y54987D1*
X72956Y55025D1*
X72923Y55058D1*
X72885Y55086D1*
X72843Y55107D1*
X72799Y55122D1*
X72752Y55129D1*
X72185D1*
X72139Y55122D1*
X72094Y55107D1*
X72052Y55086D1*
X72014Y55058D1*
X71981Y55025D1*
X71953Y54987D1*
X71932Y54945D1*
X71917Y54901D1*
X71910Y54854D1*
Y54807D1*
X71917Y54761D1*
X71932Y54716D1*
X71953Y54674D1*
X71981Y54636D1*
X72014Y54603D1*
X72052Y54575D1*
X72094Y54554D1*
X72139Y54539D1*
X72185Y54532D1*
X72752D1*
X72799Y54539D1*
X72843Y54554D1*
X72885Y54575D1*
X72923Y54603D1*
X72956Y54636D1*
X72984Y54674D1*
X73005Y54716D1*
X73020Y54761D1*
X73027Y54807D1*
Y54854D1*
G37*
G36*
X68390Y45791D2*
X68397Y45745D1*
X68412Y45700D1*
X68433Y45658D1*
X68461Y45620D1*
X68494Y45587D1*
X68532Y45560D1*
X68574Y45538D1*
X68619Y45524D1*
X68665Y45516D1*
X69232D1*
X69279Y45524D1*
X69323Y45538D1*
X69365Y45560D1*
X69403Y45587D1*
X69436Y45620D1*
X69464Y45658D1*
X69485Y45700D1*
X69500Y45745D1*
X69507Y45791D1*
Y45838D1*
X69500Y45885D1*
X69485Y45930D1*
X69464Y45971D1*
X69436Y46009D1*
X69403Y46043D1*
X69365Y46070D1*
X69323Y46092D1*
X69279Y46106D1*
X69232Y46114D1*
X68665D1*
X68619Y46106D1*
X68574Y46092D1*
X68532Y46070D1*
X68494Y46043D1*
X68461Y46009D1*
X68433Y45971D1*
X68412Y45930D1*
X68397Y45885D1*
X68390Y45838D1*
Y45791D1*
G37*
G36*
Y44791D2*
X68397Y44745D1*
X68412Y44700D1*
X68433Y44658D1*
X68461Y44620D1*
X68494Y44587D1*
X68532Y44560D1*
X68574Y44538D1*
X68619Y44524D1*
X68665Y44516D1*
X69232D1*
X69279Y44524D1*
X69323Y44538D1*
X69365Y44560D1*
X69403Y44587D1*
X69436Y44620D1*
X69464Y44658D1*
X69485Y44700D1*
X69500Y44745D1*
X69507Y44791D1*
Y44838D1*
X69500Y44885D1*
X69485Y44930D1*
X69464Y44971D1*
X69436Y45009D1*
X69403Y45043D1*
X69365Y45070D1*
X69323Y45092D1*
X69279Y45106D1*
X69232Y45114D1*
X68665D1*
X68619Y45106D1*
X68574Y45092D1*
X68532Y45070D1*
X68494Y45043D1*
X68461Y45009D1*
X68433Y44971D1*
X68412Y44930D1*
X68397Y44885D1*
X68390Y44838D1*
Y44791D1*
G37*
G36*
X73027Y44838D2*
X73020Y44885D1*
X73005Y44930D1*
X72984Y44971D1*
X72956Y45009D1*
X72923Y45043D1*
X72885Y45070D1*
X72843Y45092D1*
X72799Y45106D1*
X72752Y45114D1*
X72185D1*
X72139Y45106D1*
X72094Y45092D1*
X72052Y45070D1*
X72014Y45043D1*
X71981Y45009D1*
X71953Y44971D1*
X71932Y44930D1*
X71917Y44885D1*
X71910Y44838D1*
Y44791D1*
X71917Y44745D1*
X71932Y44700D1*
X71953Y44658D1*
X71981Y44620D1*
X72014Y44587D1*
X72052Y44560D1*
X72094Y44538D1*
X72139Y44524D1*
X72185Y44516D1*
X72752D1*
X72799Y44524D1*
X72843Y44538D1*
X72885Y44560D1*
X72923Y44587D1*
X72956Y44620D1*
X72984Y44658D1*
X73005Y44700D1*
X73020Y44745D1*
X73027Y44791D1*
Y44838D1*
G37*
G36*
Y45838D2*
X73020Y45885D1*
X73005Y45930D1*
X72984Y45971D1*
X72956Y46009D1*
X72923Y46043D1*
X72885Y46070D1*
X72843Y46092D1*
X72799Y46106D1*
X72752Y46114D1*
X72185D1*
X72139Y46106D1*
X72094Y46092D1*
X72052Y46070D1*
X72014Y46043D1*
X71981Y46009D1*
X71953Y45971D1*
X71932Y45930D1*
X71917Y45885D1*
X71910Y45838D1*
Y45791D1*
X71917Y45745D1*
X71932Y45700D1*
X71953Y45658D1*
X71981Y45620D1*
X72014Y45587D1*
X72052Y45560D1*
X72094Y45538D1*
X72139Y45524D1*
X72185Y45516D1*
X72752D1*
X72799Y45524D1*
X72843Y45538D1*
X72885Y45560D1*
X72923Y45587D1*
X72956Y45620D1*
X72984Y45658D1*
X73005Y45700D1*
X73020Y45745D1*
X73027Y45791D1*
Y45838D1*
G37*
G36*
X109641Y44799D2*
X109634Y44846D1*
X109620Y44890D1*
X109598Y44932D1*
X109571Y44970D1*
X109537Y45003D1*
X109499Y45031D1*
X109457Y45052D1*
X109413Y45067D1*
X109366Y45074D1*
X108799D1*
X108753Y45067D1*
X108708Y45052D1*
X108666Y45031D1*
X108628Y45003D1*
X108595Y44970D1*
X108567Y44932D1*
X108546Y44890D1*
X108532Y44846D1*
X108524Y44799D1*
Y44752D1*
X108532Y44706D1*
X108546Y44661D1*
X108567Y44619D1*
X108595Y44581D1*
X108628Y44548D1*
X108666Y44520D1*
X108708Y44499D1*
X108753Y44484D1*
X108799Y44477D1*
X109366D1*
X109413Y44484D1*
X109457Y44499D1*
X109499Y44520D1*
X109537Y44548D1*
X109571Y44581D1*
X109598Y44619D1*
X109620Y44661D1*
X109634Y44706D1*
X109641Y44752D1*
Y44799D1*
G37*
G36*
Y45799D2*
X109634Y45846D1*
X109620Y45890D1*
X109598Y45932D1*
X109571Y45970D1*
X109537Y46003D1*
X109499Y46031D1*
X109457Y46052D1*
X109413Y46067D1*
X109366Y46074D1*
X108799D1*
X108753Y46067D1*
X108708Y46052D1*
X108666Y46031D1*
X108628Y46003D1*
X108595Y45970D1*
X108567Y45932D1*
X108546Y45890D1*
X108532Y45846D1*
X108524Y45799D1*
Y45752D1*
X108532Y45706D1*
X108546Y45661D1*
X108567Y45619D1*
X108595Y45581D1*
X108628Y45548D1*
X108666Y45520D1*
X108708Y45499D1*
X108753Y45484D1*
X108799Y45477D1*
X109366D1*
X109413Y45484D1*
X109457Y45499D1*
X109499Y45520D1*
X109537Y45548D1*
X109571Y45581D1*
X109598Y45619D1*
X109620Y45661D1*
X109634Y45706D1*
X109641Y45752D1*
Y45799D1*
G37*
G36*
X105004Y45752D2*
X105012Y45706D1*
X105026Y45661D1*
X105047Y45619D1*
X105075Y45581D1*
X105108Y45548D1*
X105146Y45520D1*
X105188Y45499D1*
X105233Y45484D1*
X105279Y45477D1*
X105846D1*
X105893Y45484D1*
X105937Y45499D1*
X105979Y45520D1*
X106017Y45548D1*
X106051Y45581D1*
X106078Y45619D1*
X106100Y45661D1*
X106114Y45706D1*
X106121Y45752D1*
Y45799D1*
X106114Y45846D1*
X106100Y45890D1*
X106078Y45932D1*
X106051Y45970D1*
X106017Y46003D1*
X105979Y46031D1*
X105937Y46052D1*
X105893Y46067D1*
X105846Y46074D1*
X105279D1*
X105233Y46067D1*
X105188Y46052D1*
X105146Y46031D1*
X105108Y46003D1*
X105075Y45970D1*
X105047Y45932D1*
X105026Y45890D1*
X105012Y45846D1*
X105004Y45799D1*
Y45752D1*
G37*
G36*
Y44752D2*
X105012Y44706D1*
X105026Y44661D1*
X105047Y44619D1*
X105075Y44581D1*
X105108Y44548D1*
X105146Y44520D1*
X105188Y44499D1*
X105233Y44484D1*
X105279Y44477D1*
X105846D1*
X105893Y44484D1*
X105937Y44499D1*
X105979Y44520D1*
X106017Y44548D1*
X106051Y44581D1*
X106078Y44619D1*
X106100Y44661D1*
X106114Y44706D1*
X106121Y44752D1*
Y44799D1*
X106114Y44846D1*
X106100Y44890D1*
X106078Y44932D1*
X106051Y44970D1*
X106017Y45003D1*
X105979Y45031D1*
X105937Y45052D1*
X105893Y45067D1*
X105846Y45074D1*
X105279D1*
X105233Y45067D1*
X105188Y45052D1*
X105146Y45031D1*
X105108Y45003D1*
X105075Y44970D1*
X105047Y44932D1*
X105026Y44890D1*
X105012Y44846D1*
X105004Y44799D1*
Y44752D1*
G37*
G36*
X109641Y53854D2*
X109634Y53901D1*
X109620Y53945D1*
X109598Y53987D1*
X109571Y54025D1*
X109537Y54058D1*
X109499Y54086D1*
X109457Y54107D1*
X109413Y54122D1*
X109366Y54129D1*
X108799D1*
X108753Y54122D1*
X108708Y54107D1*
X108666Y54086D1*
X108628Y54058D1*
X108595Y54025D1*
X108567Y53987D1*
X108546Y53945D1*
X108532Y53901D1*
X108524Y53854D1*
Y53807D1*
X108532Y53761D1*
X108546Y53716D1*
X108567Y53674D1*
X108595Y53636D1*
X108628Y53603D1*
X108666Y53575D1*
X108708Y53554D1*
X108753Y53539D1*
X108799Y53532D1*
X109366D1*
X109413Y53539D1*
X109457Y53554D1*
X109499Y53575D1*
X109537Y53603D1*
X109571Y53636D1*
X109598Y53674D1*
X109620Y53716D1*
X109634Y53761D1*
X109641Y53807D1*
Y53854D1*
G37*
G36*
Y54854D2*
X109634Y54901D1*
X109620Y54945D1*
X109598Y54987D1*
X109571Y55025D1*
X109537Y55058D1*
X109499Y55086D1*
X109457Y55107D1*
X109413Y55122D1*
X109366Y55129D1*
X108799D1*
X108753Y55122D1*
X108708Y55107D1*
X108666Y55086D1*
X108628Y55058D1*
X108595Y55025D1*
X108567Y54987D1*
X108546Y54945D1*
X108532Y54901D1*
X108524Y54854D1*
Y54807D1*
X108532Y54761D1*
X108546Y54716D1*
X108567Y54674D1*
X108595Y54636D1*
X108628Y54603D1*
X108666Y54575D1*
X108708Y54554D1*
X108753Y54539D1*
X108799Y54532D1*
X109366D1*
X109413Y54539D1*
X109457Y54554D1*
X109499Y54575D1*
X109537Y54603D1*
X109571Y54636D1*
X109598Y54674D1*
X109620Y54716D1*
X109634Y54761D1*
X109641Y54807D1*
Y54854D1*
G37*
G36*
X105004Y54807D2*
X105012Y54761D1*
X105026Y54716D1*
X105047Y54674D1*
X105075Y54636D1*
X105108Y54603D1*
X105146Y54575D1*
X105188Y54554D1*
X105233Y54539D1*
X105279Y54532D1*
X105846D1*
X105893Y54539D1*
X105937Y54554D1*
X105979Y54575D1*
X106017Y54603D1*
X106051Y54636D1*
X106078Y54674D1*
X106100Y54716D1*
X106114Y54761D1*
X106121Y54807D1*
Y54854D1*
X106114Y54901D1*
X106100Y54945D1*
X106078Y54987D1*
X106051Y55025D1*
X106017Y55058D1*
X105979Y55086D1*
X105937Y55107D1*
X105893Y55122D1*
X105846Y55129D1*
X105279D1*
X105233Y55122D1*
X105188Y55107D1*
X105146Y55086D1*
X105108Y55058D1*
X105075Y55025D1*
X105047Y54987D1*
X105026Y54945D1*
X105012Y54901D1*
X105004Y54854D1*
Y54807D1*
G37*
G36*
Y53807D2*
X105012Y53761D1*
X105026Y53716D1*
X105047Y53674D1*
X105075Y53636D1*
X105108Y53603D1*
X105146Y53575D1*
X105188Y53554D1*
X105233Y53539D1*
X105279Y53532D1*
X105846D1*
X105893Y53539D1*
X105937Y53554D1*
X105979Y53575D1*
X106017Y53603D1*
X106051Y53636D1*
X106078Y53674D1*
X106100Y53716D1*
X106114Y53761D1*
X106121Y53807D1*
Y53854D1*
X106114Y53901D1*
X106100Y53945D1*
X106078Y53987D1*
X106051Y54025D1*
X106017Y54058D1*
X105979Y54086D1*
X105937Y54107D1*
X105893Y54122D1*
X105846Y54129D1*
X105279D1*
X105233Y54122D1*
X105188Y54107D1*
X105146Y54086D1*
X105108Y54058D1*
X105075Y54025D1*
X105047Y53987D1*
X105026Y53945D1*
X105012Y53901D1*
X105004Y53854D1*
Y53807D1*
G37*
G36*
X109641Y62909D2*
X109634Y62956D1*
X109620Y63000D1*
X109598Y63042D1*
X109571Y63080D1*
X109537Y63114D1*
X109499Y63141D1*
X109457Y63163D1*
X109413Y63177D1*
X109366Y63184D1*
X108799D1*
X108753Y63177D1*
X108708Y63163D1*
X108666Y63141D1*
X108628Y63114D1*
X108595Y63080D1*
X108567Y63042D1*
X108546Y63000D1*
X108532Y62956D1*
X108524Y62909D1*
Y62862D1*
X108532Y62816D1*
X108546Y62771D1*
X108567Y62729D1*
X108595Y62691D1*
X108628Y62658D1*
X108666Y62630D1*
X108708Y62609D1*
X108753Y62595D1*
X108799Y62587D1*
X109366D1*
X109413Y62595D1*
X109457Y62609D1*
X109499Y62630D1*
X109537Y62658D1*
X109571Y62691D1*
X109598Y62729D1*
X109620Y62771D1*
X109634Y62816D1*
X109641Y62862D1*
Y62909D1*
G37*
G36*
Y63909D2*
X109634Y63956D1*
X109620Y64000D1*
X109598Y64042D1*
X109571Y64080D1*
X109537Y64114D1*
X109499Y64141D1*
X109457Y64163D1*
X109413Y64177D1*
X109366Y64184D1*
X108799D1*
X108753Y64177D1*
X108708Y64163D1*
X108666Y64141D1*
X108628Y64114D1*
X108595Y64080D1*
X108567Y64042D1*
X108546Y64000D1*
X108532Y63956D1*
X108524Y63909D1*
Y63862D1*
X108532Y63816D1*
X108546Y63771D1*
X108567Y63729D1*
X108595Y63691D1*
X108628Y63658D1*
X108666Y63630D1*
X108708Y63609D1*
X108753Y63595D1*
X108799Y63587D1*
X109366D1*
X109413Y63595D1*
X109457Y63609D1*
X109499Y63630D1*
X109537Y63658D1*
X109571Y63691D1*
X109598Y63729D1*
X109620Y63771D1*
X109634Y63816D1*
X109641Y63862D1*
Y63909D1*
G37*
G36*
X105004Y63862D2*
X105012Y63816D1*
X105026Y63771D1*
X105047Y63729D1*
X105075Y63691D1*
X105108Y63658D1*
X105146Y63630D1*
X105188Y63609D1*
X105233Y63595D1*
X105279Y63587D1*
X105846D1*
X105893Y63595D1*
X105937Y63609D1*
X105979Y63630D1*
X106017Y63658D1*
X106051Y63691D1*
X106078Y63729D1*
X106100Y63771D1*
X106114Y63816D1*
X106121Y63862D1*
Y63909D1*
X106114Y63956D1*
X106100Y64000D1*
X106078Y64042D1*
X106051Y64080D1*
X106017Y64114D1*
X105979Y64141D1*
X105937Y64163D1*
X105893Y64177D1*
X105846Y64184D1*
X105279D1*
X105233Y64177D1*
X105188Y64163D1*
X105146Y64141D1*
X105108Y64114D1*
X105075Y64080D1*
X105047Y64042D1*
X105026Y64000D1*
X105012Y63956D1*
X105004Y63909D1*
Y63862D1*
G37*
G36*
Y62862D2*
X105012Y62816D1*
X105026Y62771D1*
X105047Y62729D1*
X105075Y62691D1*
X105108Y62658D1*
X105146Y62630D1*
X105188Y62609D1*
X105233Y62595D1*
X105279Y62587D1*
X105846D1*
X105893Y62595D1*
X105937Y62609D1*
X105979Y62630D1*
X106017Y62658D1*
X106051Y62691D1*
X106078Y62729D1*
X106100Y62771D1*
X106114Y62816D1*
X106121Y62862D1*
Y62909D1*
X106114Y62956D1*
X106100Y63000D1*
X106078Y63042D1*
X106051Y63080D1*
X106017Y63114D1*
X105979Y63141D1*
X105937Y63163D1*
X105893Y63177D1*
X105846Y63184D1*
X105279D1*
X105233Y63177D1*
X105188Y63163D1*
X105146Y63141D1*
X105108Y63114D1*
X105075Y63080D1*
X105047Y63042D1*
X105026Y63000D1*
X105012Y62956D1*
X105004Y62909D1*
Y62862D1*
G37*
G36*
X109641Y71964D2*
X109634Y72011D1*
X109620Y72056D1*
X109598Y72097D1*
X109571Y72135D1*
X109537Y72169D1*
X109499Y72196D1*
X109457Y72218D1*
X109413Y72232D1*
X109366Y72240D1*
X108799D1*
X108753Y72232D1*
X108708Y72218D1*
X108666Y72196D1*
X108628Y72169D1*
X108595Y72135D1*
X108567Y72097D1*
X108546Y72056D1*
X108532Y72011D1*
X108524Y71964D1*
Y71917D1*
X108532Y71871D1*
X108546Y71826D1*
X108567Y71784D1*
X108595Y71746D1*
X108628Y71713D1*
X108666Y71686D1*
X108708Y71664D1*
X108753Y71650D1*
X108799Y71642D1*
X109366D1*
X109413Y71650D1*
X109457Y71664D1*
X109499Y71686D1*
X109537Y71713D1*
X109571Y71746D1*
X109598Y71784D1*
X109620Y71826D1*
X109634Y71871D1*
X109641Y71917D1*
Y71964D1*
G37*
G36*
Y72964D2*
X109634Y73011D1*
X109620Y73056D1*
X109598Y73097D1*
X109571Y73135D1*
X109537Y73169D1*
X109499Y73196D1*
X109457Y73218D1*
X109413Y73232D1*
X109366Y73240D1*
X108799D1*
X108753Y73232D1*
X108708Y73218D1*
X108666Y73196D1*
X108628Y73169D1*
X108595Y73135D1*
X108567Y73097D1*
X108546Y73056D1*
X108532Y73011D1*
X108524Y72964D1*
Y72917D1*
X108532Y72871D1*
X108546Y72826D1*
X108567Y72784D1*
X108595Y72746D1*
X108628Y72713D1*
X108666Y72686D1*
X108708Y72664D1*
X108753Y72650D1*
X108799Y72642D1*
X109366D1*
X109413Y72650D1*
X109457Y72664D1*
X109499Y72686D1*
X109537Y72713D1*
X109571Y72746D1*
X109598Y72784D1*
X109620Y72826D1*
X109634Y72871D1*
X109641Y72917D1*
Y72964D1*
G37*
G36*
X105004Y72917D2*
X105012Y72871D1*
X105026Y72826D1*
X105047Y72784D1*
X105075Y72746D1*
X105108Y72713D1*
X105146Y72686D1*
X105188Y72664D1*
X105233Y72650D1*
X105279Y72642D1*
X105846D1*
X105893Y72650D1*
X105937Y72664D1*
X105979Y72686D1*
X106017Y72713D1*
X106051Y72746D1*
X106078Y72784D1*
X106100Y72826D1*
X106114Y72871D1*
X106121Y72917D1*
Y72964D1*
X106114Y73011D1*
X106100Y73056D1*
X106078Y73097D1*
X106051Y73135D1*
X106017Y73169D1*
X105979Y73196D1*
X105937Y73218D1*
X105893Y73232D1*
X105846Y73240D1*
X105279D1*
X105233Y73232D1*
X105188Y73218D1*
X105146Y73196D1*
X105108Y73169D1*
X105075Y73135D1*
X105047Y73097D1*
X105026Y73056D1*
X105012Y73011D1*
X105004Y72964D1*
Y72917D1*
G37*
G36*
Y71917D2*
X105012Y71871D1*
X105026Y71826D1*
X105047Y71784D1*
X105075Y71746D1*
X105108Y71713D1*
X105146Y71686D1*
X105188Y71664D1*
X105233Y71650D1*
X105279Y71642D1*
X105846D1*
X105893Y71650D1*
X105937Y71664D1*
X105979Y71686D1*
X106017Y71713D1*
X106051Y71746D1*
X106078Y71784D1*
X106100Y71826D1*
X106114Y71871D1*
X106121Y71917D1*
Y71964D1*
X106114Y72011D1*
X106100Y72056D1*
X106078Y72097D1*
X106051Y72135D1*
X106017Y72169D1*
X105979Y72196D1*
X105937Y72218D1*
X105893Y72232D1*
X105846Y72240D1*
X105279D1*
X105233Y72232D1*
X105188Y72218D1*
X105146Y72196D1*
X105108Y72169D1*
X105075Y72135D1*
X105047Y72097D1*
X105026Y72056D1*
X105012Y72011D1*
X105004Y71964D1*
Y71917D1*
G37*
G36*
X84159Y57413D2*
X84387Y57185D1*
X84709D1*
X84938Y57413D1*
Y57736D1*
X84709Y57964D1*
X84387D1*
X84159Y57736D1*
Y57413D1*
G37*
G36*
Y59413D2*
X84387Y59185D1*
X84709D1*
X84938Y59413D1*
Y59736D1*
X84709Y59964D1*
X84387D1*
X84159Y59736D1*
Y59413D1*
G37*
D77*
X76008Y73516D3*
X78008D3*
X77008D3*
X76008Y64264D3*
X78008D3*
X77008D3*
X76008Y55209D3*
X78008D3*
X77008D3*
X76008Y46154D3*
X78008D3*
X77008D3*
X102024Y52665D3*
X100024D3*
X101024D3*
X102024Y61917D3*
X100024D3*
X101024D3*
X102024Y70776D3*
X100024D3*
X101024D3*
X102024Y79831D3*
X100024D3*
X101024D3*
D66*
X86969Y50906D3*
D71*
X88969D3*
X87969D3*
D92*
X76811Y79559D3*
D71*
Y75559D3*
D92*
X67394Y73228D3*
D71*
X63394D3*
D92*
X80472Y66220D3*
D71*
Y62220D3*
D92*
X92953Y74327D3*
D71*
Y70327D3*
D92*
X76811Y70307D3*
D71*
Y66307D3*
D92*
X67394Y63976D3*
D71*
X63394D3*
D92*
X76811Y61134D3*
D71*
Y57134D3*
D92*
X67394Y54921D3*
D71*
X63394D3*
D92*
X76811Y52118D3*
D71*
Y48118D3*
D92*
X67394Y45366D3*
D71*
X63394D3*
D92*
X91969Y70327D3*
D71*
Y74327D3*
D92*
X91457Y77890D3*
D71*
X95457D3*
D92*
X101417Y45539D3*
D71*
Y49539D3*
D92*
X110835Y44882D3*
D71*
X114835D3*
D92*
X101417Y54791D3*
D71*
Y58791D3*
D92*
X110835Y53740D3*
D71*
X114835D3*
D92*
X101417Y63650D3*
D71*
Y67650D3*
D92*
X110835Y62795D3*
D71*
X114835D3*
D92*
X101417Y72705D3*
D71*
Y76705D3*
D92*
X110835Y71850D3*
D71*
X114835D3*
D92*
X85276Y50394D3*
D71*
Y46394D3*
D92*
X79709Y46421D3*
D71*
Y50421D3*
D92*
X80433Y52441D3*
D71*
X84433D3*
D92*
X87835Y74677D3*
D71*
Y70677D3*
D92*
X82717Y74756D3*
D71*
Y70756D3*
D92*
X88819Y74677D3*
D71*
Y70677D3*
D92*
X83701Y74756D3*
D71*
Y70756D3*
D92*
X93937Y74327D3*
D71*
Y70327D3*
D92*
X94921Y74327D3*
D71*
Y70327D3*
D92*
X77992Y79559D3*
D71*
Y75559D3*
D92*
Y70307D3*
D71*
Y66307D3*
D92*
Y61134D3*
D71*
Y57134D3*
D92*
Y52118D3*
D71*
Y48118D3*
D92*
X100433Y49539D3*
D71*
Y45539D3*
D92*
Y58791D3*
D71*
Y54791D3*
D92*
Y67650D3*
D71*
Y63650D3*
D92*
Y76705D3*
D71*
Y72705D3*
D92*
X91181Y65276D3*
D71*
Y69276D3*
D69*
X83980Y65477D3*
X82200D3*
X83980Y62917D3*
X82200D3*
D77*
X86850Y74528D3*
X84850D3*
X85850D3*
X86850Y72362D3*
X84850D3*
X85850D3*
D64*
X86654Y66142D3*
Y65142D3*
Y64142D3*
Y63142D3*
Y62142D3*
Y61142D3*
Y60142D3*
Y59142D3*
Y58142D3*
Y57142D3*
Y56142D3*
Y55142D3*
Y54142D3*
Y53142D3*
X89654D3*
Y54142D3*
Y55142D3*
Y56142D3*
Y57142D3*
Y58142D3*
Y59142D3*
Y60142D3*
Y61142D3*
Y62142D3*
Y63142D3*
Y64142D3*
Y65142D3*
Y66142D3*
D62*
X96063Y71089D3*
D60*
Y71876D3*
Y72664D3*
Y73451D3*
Y74239D3*
Y75026D3*
Y75813D3*
Y76601D3*
X90551D3*
Y75813D3*
Y75026D3*
Y74239D3*
Y73451D3*
Y72664D3*
Y71876D3*
Y71089D3*
D58*
X94028Y44776D3*
X96390D3*
X91665Y58004D3*
X98752D3*
D56*
X63902Y79134D3*
Y77165D3*
Y75197D3*
Y69882D3*
Y67913D3*
Y65945D3*
Y60827D3*
Y58858D3*
Y56890D3*
Y51772D3*
Y49803D3*
Y47835D3*
X114327D3*
Y49803D3*
Y51772D3*
Y56884D3*
Y58853D3*
Y60821D3*
Y65934D3*
Y67902D3*
Y69871D3*
Y75197D3*
Y77165D3*
Y79134D3*
D54*
X87717Y45551D3*
X89685D3*
D92*
X98268Y76732D3*
X79606Y66260D3*
X88701Y78346D3*
X79803Y76693D3*
X79685Y73622D3*
X79528Y68465D3*
X80197Y60236D3*
X80236Y59094D3*
X75000Y54685D3*
X76457Y52992D3*
X79685Y45039D3*
X91575Y62402D3*
X96772Y68228D3*
X99173Y64449D3*
X98228Y62835D3*
X97756Y59567D3*
X102835Y54843D3*
X102598Y46063D3*
X103780Y45315D3*
X87835Y49134D3*
X85039Y51535D3*
X89803Y49843D3*
X96890Y40118D3*
D90*
Y39118D3*
G36*
X97076Y22087D2*
X97284Y22294D1*
Y22588D1*
X97076Y22795D1*
X96782D1*
X96575Y22588D1*
Y22294D1*
X96782Y22087D1*
X97076D1*
G37*
D72*
X96929Y23441D3*
D87*
X82884Y20767D3*
Y21767D3*
D85*
X93740Y23622D3*
G36*
X93964Y21083D2*
X94280Y21399D1*
Y21845D1*
X93964Y22161D1*
X93517D1*
X93201Y21845D1*
Y21399D1*
X93517Y21083D1*
X93964D1*
G37*
D87*
X82884Y19642D3*
Y18642D3*
G36*
X81047Y7998D2*
X80872Y8173D1*
X80624D1*
X80449Y7998D1*
Y7750D1*
X80624Y7575D1*
X80872D1*
X81047Y7750D1*
Y7998D1*
G37*
G36*
X82047D2*
X81872Y8173D1*
X81624D1*
X81449Y7998D1*
Y7750D1*
X81624Y7575D1*
X81872D1*
X82047Y7750D1*
Y7998D1*
G37*
G36*
X83465Y15895D2*
X83257Y16102D1*
X82963D1*
X82756Y15895D1*
Y15601D1*
X82963Y15394D1*
X83257D1*
X83465Y15601D1*
Y15895D1*
G37*
D72*
X82110Y15748D3*
G36*
X84346Y7981D2*
X84139Y8189D1*
X83845D1*
X83638Y7981D1*
Y7688D1*
X83845Y7480D1*
X84139D1*
X84346Y7688D1*
Y7981D1*
G37*
D72*
X82992Y7835D3*
G36*
X75804Y36163D2*
X76049Y36409D1*
Y36756D1*
X75804Y37002D1*
X75456D1*
X75211Y36756D1*
Y36409D1*
X75456Y36163D1*
X75804D1*
G37*
G36*
Y40163D2*
X76049Y40409D1*
Y40756D1*
X75804Y41002D1*
X75456D1*
X75211Y40756D1*
Y40409D1*
X75456Y40163D1*
X75804D1*
G37*
G36*
Y26911D2*
X76049Y27157D1*
Y27504D1*
X75804Y27750D1*
X75456D1*
X75211Y27504D1*
Y27157D1*
X75456Y26911D1*
X75804D1*
G37*
G36*
Y30911D2*
X76049Y31157D1*
Y31504D1*
X75804Y31750D1*
X75456D1*
X75211Y31504D1*
Y31157D1*
X75456Y30911D1*
X75804D1*
G37*
G36*
Y17856D2*
X76049Y18102D1*
Y18449D1*
X75804Y18695D1*
X75456D1*
X75211Y18449D1*
Y18102D1*
X75456Y17856D1*
X75804D1*
G37*
G36*
Y21856D2*
X76049Y22102D1*
Y22449D1*
X75804Y22695D1*
X75456D1*
X75211Y22449D1*
Y22102D1*
X75456Y21856D1*
X75804D1*
G37*
G36*
Y8801D2*
X76049Y9047D1*
Y9394D1*
X75804Y9640D1*
X75456D1*
X75211Y9394D1*
Y9047D1*
X75456Y8801D1*
X75804D1*
G37*
G36*
Y12801D2*
X76049Y13047D1*
Y13394D1*
X75804Y13640D1*
X75456D1*
X75211Y13394D1*
Y13047D1*
X75456Y12801D1*
X75804D1*
G37*
G36*
X102425Y13608D2*
X102179Y13363D1*
Y13015D1*
X102425Y12770D1*
X102772D1*
X103018Y13015D1*
Y13363D1*
X102772Y13608D1*
X102425D1*
G37*
G36*
Y9608D2*
X102179Y9363D1*
Y9015D1*
X102425Y8770D1*
X102772D1*
X103018Y9015D1*
Y9363D1*
X102772Y9608D1*
X102425D1*
G37*
G36*
Y22860D2*
X102179Y22615D1*
Y22267D1*
X102425Y22022D1*
X102772D1*
X103018Y22267D1*
Y22615D1*
X102772Y22860D1*
X102425D1*
G37*
G36*
Y18860D2*
X102179Y18615D1*
Y18267D1*
X102425Y18022D1*
X102772D1*
X103018Y18267D1*
Y18615D1*
X102772Y18860D1*
X102425D1*
G37*
G36*
Y31750D2*
X102179Y31504D1*
Y31157D1*
X102425Y30911D1*
X102772D1*
X103018Y31157D1*
Y31504D1*
X102772Y31750D1*
X102425D1*
G37*
G36*
Y27750D2*
X102179Y27504D1*
Y27157D1*
X102425Y26911D1*
X102772D1*
X103018Y27157D1*
Y27504D1*
X102772Y27750D1*
X102425D1*
G37*
G36*
Y41002D2*
X102179Y40756D1*
Y40409D1*
X102425Y40163D1*
X102772D1*
X103018Y40409D1*
Y40756D1*
X102772Y41002D1*
X102425D1*
G37*
G36*
Y37002D2*
X102179Y36756D1*
Y36409D1*
X102425Y36163D1*
X102772D1*
X103018Y36409D1*
Y36756D1*
X102772Y37002D1*
X102425D1*
G37*
D14*
X98150Y35339D3*
D35*
Y36339D3*
D77*
X83937Y12598D3*
X82937D3*
Y9598D3*
X83937D3*
X81937Y12598D3*
X80937D3*
X81937Y9598D3*
X80937D3*
D75*
X86457Y32047D3*
Y31047D3*
D73*
X87173Y39321D3*
D71*
X86173D3*
X85173D3*
X84173D3*
D75*
X89167Y37276D3*
Y38276D3*
X84882Y32008D3*
Y31008D3*
D69*
X85709Y29213D3*
X84709D3*
X83709D3*
X82709D3*
X81709D3*
D67*
X73868Y38583D3*
X73068Y40933D3*
Y36233D3*
X68268D3*
Y40933D3*
X73868Y29331D3*
X73068Y31681D3*
Y26981D3*
X68268D3*
Y31681D3*
X73868Y20276D3*
X73068Y22626D3*
Y17926D3*
X68268D3*
Y22626D3*
X73868Y11220D3*
X73068Y13570D3*
Y8870D3*
X68268D3*
Y13570D3*
X104360Y11220D3*
X105160Y8870D3*
Y13570D3*
X109960D3*
Y8870D3*
X104360Y20276D3*
X105160Y17926D3*
Y22626D3*
X109960D3*
Y17926D3*
X104360Y29331D3*
X105160Y26981D3*
Y31681D3*
X109960D3*
Y26981D3*
X104360Y38583D3*
X105160Y36233D3*
Y40933D3*
X109960D3*
Y36233D3*
D66*
X96535Y25000D3*
D71*
Y27992D3*
G36*
X68390Y34532D2*
X68397Y34485D1*
X68412Y34441D1*
X68433Y34399D1*
X68461Y34361D1*
X68494Y34327D1*
X68532Y34300D1*
X68574Y34278D1*
X68619Y34264D1*
X68665Y34257D1*
X69232D1*
X69279Y34264D1*
X69323Y34278D1*
X69365Y34300D1*
X69403Y34327D1*
X69436Y34361D1*
X69464Y34399D1*
X69485Y34441D1*
X69500Y34485D1*
X69507Y34532D1*
Y34579D1*
X69500Y34625D1*
X69485Y34670D1*
X69464Y34712D1*
X69436Y34750D1*
X69403Y34783D1*
X69365Y34810D1*
X69323Y34832D1*
X69279Y34846D1*
X69232Y34854D1*
X68665D1*
X68619Y34846D1*
X68574Y34832D1*
X68532Y34810D1*
X68494Y34783D1*
X68461Y34750D1*
X68433Y34712D1*
X68412Y34670D1*
X68397Y34625D1*
X68390Y34579D1*
Y34532D1*
G37*
G36*
Y33532D2*
X68397Y33485D1*
X68412Y33441D1*
X68433Y33399D1*
X68461Y33361D1*
X68494Y33327D1*
X68532Y33300D1*
X68574Y33278D1*
X68619Y33264D1*
X68665Y33257D1*
X69232D1*
X69279Y33264D1*
X69323Y33278D1*
X69365Y33300D1*
X69403Y33327D1*
X69436Y33361D1*
X69464Y33399D1*
X69485Y33441D1*
X69500Y33485D1*
X69507Y33532D1*
Y33579D1*
X69500Y33625D1*
X69485Y33670D1*
X69464Y33712D1*
X69436Y33750D1*
X69403Y33783D1*
X69365Y33810D1*
X69323Y33832D1*
X69279Y33846D1*
X69232Y33854D1*
X68665D1*
X68619Y33846D1*
X68574Y33832D1*
X68532Y33810D1*
X68494Y33783D1*
X68461Y33750D1*
X68433Y33712D1*
X68412Y33670D1*
X68397Y33625D1*
X68390Y33579D1*
Y33532D1*
G37*
G36*
X73027Y33579D2*
X73020Y33625D1*
X73005Y33670D1*
X72984Y33712D1*
X72956Y33750D1*
X72923Y33783D1*
X72885Y33810D1*
X72843Y33832D1*
X72799Y33846D1*
X72752Y33854D1*
X72185D1*
X72139Y33846D1*
X72094Y33832D1*
X72052Y33810D1*
X72014Y33783D1*
X71981Y33750D1*
X71953Y33712D1*
X71932Y33670D1*
X71917Y33625D1*
X71910Y33579D1*
Y33532D1*
X71917Y33485D1*
X71932Y33441D1*
X71953Y33399D1*
X71981Y33361D1*
X72014Y33327D1*
X72052Y33300D1*
X72094Y33278D1*
X72139Y33264D1*
X72185Y33257D1*
X72752D1*
X72799Y33264D1*
X72843Y33278D1*
X72885Y33300D1*
X72923Y33327D1*
X72956Y33361D1*
X72984Y33399D1*
X73005Y33441D1*
X73020Y33485D1*
X73027Y33532D1*
Y33579D1*
G37*
G36*
Y34579D2*
X73020Y34625D1*
X73005Y34670D1*
X72984Y34712D1*
X72956Y34750D1*
X72923Y34783D1*
X72885Y34810D1*
X72843Y34832D1*
X72799Y34846D1*
X72752Y34854D1*
X72185D1*
X72139Y34846D1*
X72094Y34832D1*
X72052Y34810D1*
X72014Y34783D1*
X71981Y34750D1*
X71953Y34712D1*
X71932Y34670D1*
X71917Y34625D1*
X71910Y34579D1*
Y34532D1*
X71917Y34485D1*
X71932Y34441D1*
X71953Y34399D1*
X71981Y34361D1*
X72014Y34327D1*
X72052Y34300D1*
X72094Y34278D1*
X72139Y34264D1*
X72185Y34257D1*
X72752D1*
X72799Y34264D1*
X72843Y34278D1*
X72885Y34300D1*
X72923Y34327D1*
X72956Y34361D1*
X72984Y34399D1*
X73005Y34441D1*
X73020Y34485D1*
X73027Y34532D1*
Y34579D1*
G37*
G36*
X68390Y25280D2*
X68397Y25233D1*
X68412Y25189D1*
X68433Y25147D1*
X68461Y25109D1*
X68494Y25075D1*
X68532Y25048D1*
X68574Y25026D1*
X68619Y25012D1*
X68665Y25005D1*
X69232D1*
X69279Y25012D1*
X69323Y25026D1*
X69365Y25048D1*
X69403Y25075D1*
X69436Y25109D1*
X69464Y25147D1*
X69485Y25189D1*
X69500Y25233D1*
X69507Y25280D1*
Y25327D1*
X69500Y25373D1*
X69485Y25418D1*
X69464Y25460D1*
X69436Y25498D1*
X69403Y25531D1*
X69365Y25559D1*
X69323Y25580D1*
X69279Y25594D1*
X69232Y25602D1*
X68665D1*
X68619Y25594D1*
X68574Y25580D1*
X68532Y25559D1*
X68494Y25531D1*
X68461Y25498D1*
X68433Y25460D1*
X68412Y25418D1*
X68397Y25373D1*
X68390Y25327D1*
Y25280D1*
G37*
G36*
Y24280D2*
X68397Y24233D1*
X68412Y24189D1*
X68433Y24147D1*
X68461Y24109D1*
X68494Y24075D1*
X68532Y24048D1*
X68574Y24026D1*
X68619Y24012D1*
X68665Y24005D1*
X69232D1*
X69279Y24012D1*
X69323Y24026D1*
X69365Y24048D1*
X69403Y24075D1*
X69436Y24109D1*
X69464Y24147D1*
X69485Y24189D1*
X69500Y24233D1*
X69507Y24280D1*
Y24327D1*
X69500Y24373D1*
X69485Y24418D1*
X69464Y24460D1*
X69436Y24498D1*
X69403Y24531D1*
X69365Y24559D1*
X69323Y24580D1*
X69279Y24594D1*
X69232Y24602D1*
X68665D1*
X68619Y24594D1*
X68574Y24580D1*
X68532Y24559D1*
X68494Y24531D1*
X68461Y24498D1*
X68433Y24460D1*
X68412Y24418D1*
X68397Y24373D1*
X68390Y24327D1*
Y24280D1*
G37*
G36*
X73027Y24327D2*
X73020Y24373D1*
X73005Y24418D1*
X72984Y24460D1*
X72956Y24498D1*
X72923Y24531D1*
X72885Y24559D1*
X72843Y24580D1*
X72799Y24594D1*
X72752Y24602D1*
X72185D1*
X72139Y24594D1*
X72094Y24580D1*
X72052Y24559D1*
X72014Y24531D1*
X71981Y24498D1*
X71953Y24460D1*
X71932Y24418D1*
X71917Y24373D1*
X71910Y24327D1*
Y24280D1*
X71917Y24233D1*
X71932Y24189D1*
X71953Y24147D1*
X71981Y24109D1*
X72014Y24075D1*
X72052Y24048D1*
X72094Y24026D1*
X72139Y24012D1*
X72185Y24005D1*
X72752D1*
X72799Y24012D1*
X72843Y24026D1*
X72885Y24048D1*
X72923Y24075D1*
X72956Y24109D1*
X72984Y24147D1*
X73005Y24189D1*
X73020Y24233D1*
X73027Y24280D1*
Y24327D1*
G37*
G36*
Y25327D2*
X73020Y25373D1*
X73005Y25418D1*
X72984Y25460D1*
X72956Y25498D1*
X72923Y25531D1*
X72885Y25559D1*
X72843Y25580D1*
X72799Y25594D1*
X72752Y25602D1*
X72185D1*
X72139Y25594D1*
X72094Y25580D1*
X72052Y25559D1*
X72014Y25531D1*
X71981Y25498D1*
X71953Y25460D1*
X71932Y25418D1*
X71917Y25373D1*
X71910Y25327D1*
Y25280D1*
X71917Y25233D1*
X71932Y25189D1*
X71953Y25147D1*
X71981Y25109D1*
X72014Y25075D1*
X72052Y25048D1*
X72094Y25026D1*
X72139Y25012D1*
X72185Y25005D1*
X72752D1*
X72799Y25012D1*
X72843Y25026D1*
X72885Y25048D1*
X72923Y25075D1*
X72956Y25109D1*
X72984Y25147D1*
X73005Y25189D1*
X73020Y25233D1*
X73027Y25280D1*
Y25327D1*
G37*
G36*
X68390Y16225D2*
X68397Y16178D1*
X68412Y16133D1*
X68433Y16092D1*
X68461Y16054D1*
X68494Y16020D1*
X68532Y15993D1*
X68574Y15971D1*
X68619Y15957D1*
X68665Y15949D1*
X69232D1*
X69279Y15957D1*
X69323Y15971D1*
X69365Y15993D1*
X69403Y16020D1*
X69436Y16054D1*
X69464Y16092D1*
X69485Y16133D1*
X69500Y16178D1*
X69507Y16225D1*
Y16272D1*
X69500Y16318D1*
X69485Y16363D1*
X69464Y16405D1*
X69436Y16443D1*
X69403Y16476D1*
X69365Y16503D1*
X69323Y16525D1*
X69279Y16539D1*
X69232Y16547D1*
X68665D1*
X68619Y16539D1*
X68574Y16525D1*
X68532Y16503D1*
X68494Y16476D1*
X68461Y16443D1*
X68433Y16405D1*
X68412Y16363D1*
X68397Y16318D1*
X68390Y16272D1*
Y16225D1*
G37*
G36*
Y15225D2*
X68397Y15178D1*
X68412Y15133D1*
X68433Y15092D1*
X68461Y15054D1*
X68494Y15020D1*
X68532Y14993D1*
X68574Y14971D1*
X68619Y14957D1*
X68665Y14949D1*
X69232D1*
X69279Y14957D1*
X69323Y14971D1*
X69365Y14993D1*
X69403Y15020D1*
X69436Y15054D1*
X69464Y15092D1*
X69485Y15133D1*
X69500Y15178D1*
X69507Y15225D1*
Y15272D1*
X69500Y15318D1*
X69485Y15363D1*
X69464Y15405D1*
X69436Y15443D1*
X69403Y15476D1*
X69365Y15503D1*
X69323Y15525D1*
X69279Y15539D1*
X69232Y15547D1*
X68665D1*
X68619Y15539D1*
X68574Y15525D1*
X68532Y15503D1*
X68494Y15476D1*
X68461Y15443D1*
X68433Y15405D1*
X68412Y15363D1*
X68397Y15318D1*
X68390Y15272D1*
Y15225D1*
G37*
G36*
X73027Y15272D2*
X73020Y15318D1*
X73005Y15363D1*
X72984Y15405D1*
X72956Y15443D1*
X72923Y15476D1*
X72885Y15503D1*
X72843Y15525D1*
X72799Y15539D1*
X72752Y15547D1*
X72185D1*
X72139Y15539D1*
X72094Y15525D1*
X72052Y15503D1*
X72014Y15476D1*
X71981Y15443D1*
X71953Y15405D1*
X71932Y15363D1*
X71917Y15318D1*
X71910Y15272D1*
Y15225D1*
X71917Y15178D1*
X71932Y15133D1*
X71953Y15092D1*
X71981Y15054D1*
X72014Y15020D1*
X72052Y14993D1*
X72094Y14971D1*
X72139Y14957D1*
X72185Y14949D1*
X72752D1*
X72799Y14957D1*
X72843Y14971D1*
X72885Y14993D1*
X72923Y15020D1*
X72956Y15054D1*
X72984Y15092D1*
X73005Y15133D1*
X73020Y15178D1*
X73027Y15225D1*
Y15272D1*
G37*
G36*
Y16272D2*
X73020Y16318D1*
X73005Y16363D1*
X72984Y16405D1*
X72956Y16443D1*
X72923Y16476D1*
X72885Y16503D1*
X72843Y16525D1*
X72799Y16539D1*
X72752Y16547D1*
X72185D1*
X72139Y16539D1*
X72094Y16525D1*
X72052Y16503D1*
X72014Y16476D1*
X71981Y16443D1*
X71953Y16405D1*
X71932Y16363D1*
X71917Y16318D1*
X71910Y16272D1*
Y16225D1*
X71917Y16178D1*
X71932Y16133D1*
X71953Y16092D1*
X71981Y16054D1*
X72014Y16020D1*
X72052Y15993D1*
X72094Y15971D1*
X72139Y15957D1*
X72185Y15949D1*
X72752D1*
X72799Y15957D1*
X72843Y15971D1*
X72885Y15993D1*
X72923Y16020D1*
X72956Y16054D1*
X72984Y16092D1*
X73005Y16133D1*
X73020Y16178D1*
X73027Y16225D1*
Y16272D1*
G37*
G36*
X68390Y7209D2*
X68397Y7162D1*
X68412Y7118D1*
X68433Y7076D1*
X68461Y7038D1*
X68494Y7005D1*
X68532Y6977D1*
X68574Y6956D1*
X68619Y6941D1*
X68665Y6934D1*
X69232D1*
X69279Y6941D1*
X69323Y6956D1*
X69365Y6977D1*
X69403Y7005D1*
X69436Y7038D1*
X69464Y7076D1*
X69485Y7118D1*
X69500Y7162D1*
X69507Y7209D1*
Y7256D1*
X69500Y7302D1*
X69485Y7347D1*
X69464Y7389D1*
X69436Y7427D1*
X69403Y7460D1*
X69365Y7488D1*
X69323Y7509D1*
X69279Y7524D1*
X69232Y7531D1*
X68665D1*
X68619Y7524D1*
X68574Y7509D1*
X68532Y7488D1*
X68494Y7460D1*
X68461Y7427D1*
X68433Y7389D1*
X68412Y7347D1*
X68397Y7302D1*
X68390Y7256D1*
Y7209D1*
G37*
G36*
Y6209D2*
X68397Y6162D1*
X68412Y6118D1*
X68433Y6076D1*
X68461Y6038D1*
X68494Y6005D1*
X68532Y5977D1*
X68574Y5956D1*
X68619Y5941D1*
X68665Y5934D1*
X69232D1*
X69279Y5941D1*
X69323Y5956D1*
X69365Y5977D1*
X69403Y6005D1*
X69436Y6038D1*
X69464Y6076D1*
X69485Y6118D1*
X69500Y6162D1*
X69507Y6209D1*
Y6256D1*
X69500Y6302D1*
X69485Y6347D1*
X69464Y6389D1*
X69436Y6427D1*
X69403Y6460D1*
X69365Y6488D1*
X69323Y6509D1*
X69279Y6524D1*
X69232Y6531D1*
X68665D1*
X68619Y6524D1*
X68574Y6509D1*
X68532Y6488D1*
X68494Y6460D1*
X68461Y6427D1*
X68433Y6389D1*
X68412Y6347D1*
X68397Y6302D1*
X68390Y6256D1*
Y6209D1*
G37*
G36*
X73027Y6256D2*
X73020Y6302D1*
X73005Y6347D1*
X72984Y6389D1*
X72956Y6427D1*
X72923Y6460D1*
X72885Y6488D1*
X72843Y6509D1*
X72799Y6524D1*
X72752Y6531D1*
X72185D1*
X72139Y6524D1*
X72094Y6509D1*
X72052Y6488D1*
X72014Y6460D1*
X71981Y6427D1*
X71953Y6389D1*
X71932Y6347D1*
X71917Y6302D1*
X71910Y6256D1*
Y6209D1*
X71917Y6162D1*
X71932Y6118D1*
X71953Y6076D1*
X71981Y6038D1*
X72014Y6005D1*
X72052Y5977D1*
X72094Y5956D1*
X72139Y5941D1*
X72185Y5934D1*
X72752D1*
X72799Y5941D1*
X72843Y5956D1*
X72885Y5977D1*
X72923Y6005D1*
X72956Y6038D1*
X72984Y6076D1*
X73005Y6118D1*
X73020Y6162D1*
X73027Y6209D1*
Y6256D1*
G37*
G36*
Y7256D2*
X73020Y7302D1*
X73005Y7347D1*
X72984Y7389D1*
X72956Y7427D1*
X72923Y7460D1*
X72885Y7488D1*
X72843Y7509D1*
X72799Y7524D1*
X72752Y7531D1*
X72185D1*
X72139Y7524D1*
X72094Y7509D1*
X72052Y7488D1*
X72014Y7460D1*
X71981Y7427D1*
X71953Y7389D1*
X71932Y7347D1*
X71917Y7302D1*
X71910Y7256D1*
Y7209D1*
X71917Y7162D1*
X71932Y7118D1*
X71953Y7076D1*
X71981Y7038D1*
X72014Y7005D1*
X72052Y6977D1*
X72094Y6956D1*
X72139Y6941D1*
X72185Y6934D1*
X72752D1*
X72799Y6941D1*
X72843Y6956D1*
X72885Y6977D1*
X72923Y7005D1*
X72956Y7038D1*
X72984Y7076D1*
X73005Y7118D1*
X73020Y7162D1*
X73027Y7209D1*
Y7256D1*
G37*
G36*
X109641Y6216D2*
X109634Y6263D1*
X109620Y6308D1*
X109598Y6349D1*
X109571Y6387D1*
X109537Y6421D1*
X109499Y6448D1*
X109457Y6470D1*
X109413Y6484D1*
X109366Y6491D1*
X108799D1*
X108753Y6484D1*
X108708Y6470D1*
X108666Y6448D1*
X108628Y6421D1*
X108595Y6387D1*
X108567Y6349D1*
X108546Y6308D1*
X108532Y6263D1*
X108524Y6216D1*
Y6169D1*
X108532Y6123D1*
X108546Y6078D1*
X108567Y6036D1*
X108595Y5998D1*
X108628Y5965D1*
X108666Y5938D1*
X108708Y5916D1*
X108753Y5902D1*
X108799Y5894D1*
X109366D1*
X109413Y5902D1*
X109457Y5916D1*
X109499Y5938D1*
X109537Y5965D1*
X109571Y5998D1*
X109598Y6036D1*
X109620Y6078D1*
X109634Y6123D1*
X109641Y6169D1*
Y6216D1*
G37*
G36*
Y7216D2*
X109634Y7263D1*
X109620Y7308D1*
X109598Y7349D1*
X109571Y7387D1*
X109537Y7421D1*
X109499Y7448D1*
X109457Y7470D1*
X109413Y7484D1*
X109366Y7491D1*
X108799D1*
X108753Y7484D1*
X108708Y7470D1*
X108666Y7448D1*
X108628Y7421D1*
X108595Y7387D1*
X108567Y7349D1*
X108546Y7308D1*
X108532Y7263D1*
X108524Y7216D1*
Y7169D1*
X108532Y7123D1*
X108546Y7078D1*
X108567Y7036D1*
X108595Y6998D1*
X108628Y6965D1*
X108666Y6938D1*
X108708Y6916D1*
X108753Y6902D1*
X108799Y6894D1*
X109366D1*
X109413Y6902D1*
X109457Y6916D1*
X109499Y6938D1*
X109537Y6965D1*
X109571Y6998D1*
X109598Y7036D1*
X109620Y7078D1*
X109634Y7123D1*
X109641Y7169D1*
Y7216D1*
G37*
G36*
X105004Y7169D2*
X105012Y7123D1*
X105026Y7078D1*
X105047Y7036D1*
X105075Y6998D1*
X105108Y6965D1*
X105146Y6938D1*
X105188Y6916D1*
X105233Y6902D1*
X105279Y6894D1*
X105846D1*
X105893Y6902D1*
X105937Y6916D1*
X105979Y6938D1*
X106017Y6965D1*
X106051Y6998D1*
X106078Y7036D1*
X106100Y7078D1*
X106114Y7123D1*
X106121Y7169D1*
Y7216D1*
X106114Y7263D1*
X106100Y7308D1*
X106078Y7349D1*
X106051Y7387D1*
X106017Y7421D1*
X105979Y7448D1*
X105937Y7470D1*
X105893Y7484D1*
X105846Y7491D1*
X105279D1*
X105233Y7484D1*
X105188Y7470D1*
X105146Y7448D1*
X105108Y7421D1*
X105075Y7387D1*
X105047Y7349D1*
X105026Y7308D1*
X105012Y7263D1*
X105004Y7216D1*
Y7169D1*
G37*
G36*
Y6169D2*
X105012Y6123D1*
X105026Y6078D1*
X105047Y6036D1*
X105075Y5998D1*
X105108Y5965D1*
X105146Y5938D1*
X105188Y5916D1*
X105233Y5902D1*
X105279Y5894D1*
X105846D1*
X105893Y5902D1*
X105937Y5916D1*
X105979Y5938D1*
X106017Y5965D1*
X106051Y5998D1*
X106078Y6036D1*
X106100Y6078D1*
X106114Y6123D1*
X106121Y6169D1*
Y6216D1*
X106114Y6263D1*
X106100Y6308D1*
X106078Y6349D1*
X106051Y6387D1*
X106017Y6421D1*
X105979Y6448D1*
X105937Y6470D1*
X105893Y6484D1*
X105846Y6491D1*
X105279D1*
X105233Y6484D1*
X105188Y6470D1*
X105146Y6448D1*
X105108Y6421D1*
X105075Y6387D1*
X105047Y6349D1*
X105026Y6308D1*
X105012Y6263D1*
X105004Y6216D1*
Y6169D1*
G37*
G36*
X109641Y15272D2*
X109634Y15318D1*
X109620Y15363D1*
X109598Y15405D1*
X109571Y15443D1*
X109537Y15476D1*
X109499Y15503D1*
X109457Y15525D1*
X109413Y15539D1*
X109366Y15547D1*
X108799D1*
X108753Y15539D1*
X108708Y15525D1*
X108666Y15503D1*
X108628Y15476D1*
X108595Y15443D1*
X108567Y15405D1*
X108546Y15363D1*
X108532Y15318D1*
X108524Y15272D1*
Y15225D1*
X108532Y15178D1*
X108546Y15133D1*
X108567Y15092D1*
X108595Y15054D1*
X108628Y15020D1*
X108666Y14993D1*
X108708Y14971D1*
X108753Y14957D1*
X108799Y14949D1*
X109366D1*
X109413Y14957D1*
X109457Y14971D1*
X109499Y14993D1*
X109537Y15020D1*
X109571Y15054D1*
X109598Y15092D1*
X109620Y15133D1*
X109634Y15178D1*
X109641Y15225D1*
Y15272D1*
G37*
G36*
Y16272D2*
X109634Y16318D1*
X109620Y16363D1*
X109598Y16405D1*
X109571Y16443D1*
X109537Y16476D1*
X109499Y16503D1*
X109457Y16525D1*
X109413Y16539D1*
X109366Y16547D1*
X108799D1*
X108753Y16539D1*
X108708Y16525D1*
X108666Y16503D1*
X108628Y16476D1*
X108595Y16443D1*
X108567Y16405D1*
X108546Y16363D1*
X108532Y16318D1*
X108524Y16272D1*
Y16225D1*
X108532Y16178D1*
X108546Y16133D1*
X108567Y16092D1*
X108595Y16054D1*
X108628Y16020D1*
X108666Y15993D1*
X108708Y15971D1*
X108753Y15957D1*
X108799Y15949D1*
X109366D1*
X109413Y15957D1*
X109457Y15971D1*
X109499Y15993D1*
X109537Y16020D1*
X109571Y16054D1*
X109598Y16092D1*
X109620Y16133D1*
X109634Y16178D1*
X109641Y16225D1*
Y16272D1*
G37*
G36*
X105004Y16225D2*
X105012Y16178D1*
X105026Y16133D1*
X105047Y16092D1*
X105075Y16054D1*
X105108Y16020D1*
X105146Y15993D1*
X105188Y15971D1*
X105233Y15957D1*
X105279Y15949D1*
X105846D1*
X105893Y15957D1*
X105937Y15971D1*
X105979Y15993D1*
X106017Y16020D1*
X106051Y16054D1*
X106078Y16092D1*
X106100Y16133D1*
X106114Y16178D1*
X106121Y16225D1*
Y16272D1*
X106114Y16318D1*
X106100Y16363D1*
X106078Y16405D1*
X106051Y16443D1*
X106017Y16476D1*
X105979Y16503D1*
X105937Y16525D1*
X105893Y16539D1*
X105846Y16547D1*
X105279D1*
X105233Y16539D1*
X105188Y16525D1*
X105146Y16503D1*
X105108Y16476D1*
X105075Y16443D1*
X105047Y16405D1*
X105026Y16363D1*
X105012Y16318D1*
X105004Y16272D1*
Y16225D1*
G37*
G36*
Y15225D2*
X105012Y15178D1*
X105026Y15133D1*
X105047Y15092D1*
X105075Y15054D1*
X105108Y15020D1*
X105146Y14993D1*
X105188Y14971D1*
X105233Y14957D1*
X105279Y14949D1*
X105846D1*
X105893Y14957D1*
X105937Y14971D1*
X105979Y14993D1*
X106017Y15020D1*
X106051Y15054D1*
X106078Y15092D1*
X106100Y15133D1*
X106114Y15178D1*
X106121Y15225D1*
Y15272D1*
X106114Y15318D1*
X106100Y15363D1*
X106078Y15405D1*
X106051Y15443D1*
X106017Y15476D1*
X105979Y15503D1*
X105937Y15525D1*
X105893Y15539D1*
X105846Y15547D1*
X105279D1*
X105233Y15539D1*
X105188Y15525D1*
X105146Y15503D1*
X105108Y15476D1*
X105075Y15443D1*
X105047Y15405D1*
X105026Y15363D1*
X105012Y15318D1*
X105004Y15272D1*
Y15225D1*
G37*
G36*
X109641Y24327D2*
X109634Y24373D1*
X109620Y24418D1*
X109598Y24460D1*
X109571Y24498D1*
X109537Y24531D1*
X109499Y24559D1*
X109457Y24580D1*
X109413Y24594D1*
X109366Y24602D1*
X108799D1*
X108753Y24594D1*
X108708Y24580D1*
X108666Y24559D1*
X108628Y24531D1*
X108595Y24498D1*
X108567Y24460D1*
X108546Y24418D1*
X108532Y24373D1*
X108524Y24327D1*
Y24280D1*
X108532Y24233D1*
X108546Y24189D1*
X108567Y24147D1*
X108595Y24109D1*
X108628Y24075D1*
X108666Y24048D1*
X108708Y24026D1*
X108753Y24012D1*
X108799Y24005D1*
X109366D1*
X109413Y24012D1*
X109457Y24026D1*
X109499Y24048D1*
X109537Y24075D1*
X109571Y24109D1*
X109598Y24147D1*
X109620Y24189D1*
X109634Y24233D1*
X109641Y24280D1*
Y24327D1*
G37*
G36*
Y25327D2*
X109634Y25373D1*
X109620Y25418D1*
X109598Y25460D1*
X109571Y25498D1*
X109537Y25531D1*
X109499Y25559D1*
X109457Y25580D1*
X109413Y25594D1*
X109366Y25602D1*
X108799D1*
X108753Y25594D1*
X108708Y25580D1*
X108666Y25559D1*
X108628Y25531D1*
X108595Y25498D1*
X108567Y25460D1*
X108546Y25418D1*
X108532Y25373D1*
X108524Y25327D1*
Y25280D1*
X108532Y25233D1*
X108546Y25189D1*
X108567Y25147D1*
X108595Y25109D1*
X108628Y25075D1*
X108666Y25048D1*
X108708Y25026D1*
X108753Y25012D1*
X108799Y25005D1*
X109366D1*
X109413Y25012D1*
X109457Y25026D1*
X109499Y25048D1*
X109537Y25075D1*
X109571Y25109D1*
X109598Y25147D1*
X109620Y25189D1*
X109634Y25233D1*
X109641Y25280D1*
Y25327D1*
G37*
G36*
X105004Y25280D2*
X105012Y25233D1*
X105026Y25189D1*
X105047Y25147D1*
X105075Y25109D1*
X105108Y25075D1*
X105146Y25048D1*
X105188Y25026D1*
X105233Y25012D1*
X105279Y25005D1*
X105846D1*
X105893Y25012D1*
X105937Y25026D1*
X105979Y25048D1*
X106017Y25075D1*
X106051Y25109D1*
X106078Y25147D1*
X106100Y25189D1*
X106114Y25233D1*
X106121Y25280D1*
Y25327D1*
X106114Y25373D1*
X106100Y25418D1*
X106078Y25460D1*
X106051Y25498D1*
X106017Y25531D1*
X105979Y25559D1*
X105937Y25580D1*
X105893Y25594D1*
X105846Y25602D1*
X105279D1*
X105233Y25594D1*
X105188Y25580D1*
X105146Y25559D1*
X105108Y25531D1*
X105075Y25498D1*
X105047Y25460D1*
X105026Y25418D1*
X105012Y25373D1*
X105004Y25327D1*
Y25280D1*
G37*
G36*
Y24280D2*
X105012Y24233D1*
X105026Y24189D1*
X105047Y24147D1*
X105075Y24109D1*
X105108Y24075D1*
X105146Y24048D1*
X105188Y24026D1*
X105233Y24012D1*
X105279Y24005D1*
X105846D1*
X105893Y24012D1*
X105937Y24026D1*
X105979Y24048D1*
X106017Y24075D1*
X106051Y24109D1*
X106078Y24147D1*
X106100Y24189D1*
X106114Y24233D1*
X106121Y24280D1*
Y24327D1*
X106114Y24373D1*
X106100Y24418D1*
X106078Y24460D1*
X106051Y24498D1*
X106017Y24531D1*
X105979Y24559D1*
X105937Y24580D1*
X105893Y24594D1*
X105846Y24602D1*
X105279D1*
X105233Y24594D1*
X105188Y24580D1*
X105146Y24559D1*
X105108Y24531D1*
X105075Y24498D1*
X105047Y24460D1*
X105026Y24418D1*
X105012Y24373D1*
X105004Y24327D1*
Y24280D1*
G37*
G36*
X109641Y33382D2*
X109634Y33428D1*
X109620Y33473D1*
X109598Y33515D1*
X109571Y33553D1*
X109537Y33586D1*
X109499Y33614D1*
X109457Y33635D1*
X109413Y33649D1*
X109366Y33657D1*
X108799D1*
X108753Y33649D1*
X108708Y33635D1*
X108666Y33614D1*
X108628Y33586D1*
X108595Y33553D1*
X108567Y33515D1*
X108546Y33473D1*
X108532Y33428D1*
X108524Y33382D1*
Y33335D1*
X108532Y33288D1*
X108546Y33244D1*
X108567Y33202D1*
X108595Y33164D1*
X108628Y33131D1*
X108666Y33103D1*
X108708Y33082D1*
X108753Y33067D1*
X108799Y33060D1*
X109366D1*
X109413Y33067D1*
X109457Y33082D1*
X109499Y33103D1*
X109537Y33131D1*
X109571Y33164D1*
X109598Y33202D1*
X109620Y33244D1*
X109634Y33288D1*
X109641Y33335D1*
Y33382D1*
G37*
G36*
Y34382D2*
X109634Y34428D1*
X109620Y34473D1*
X109598Y34515D1*
X109571Y34553D1*
X109537Y34586D1*
X109499Y34614D1*
X109457Y34635D1*
X109413Y34649D1*
X109366Y34657D1*
X108799D1*
X108753Y34649D1*
X108708Y34635D1*
X108666Y34614D1*
X108628Y34586D1*
X108595Y34553D1*
X108567Y34515D1*
X108546Y34473D1*
X108532Y34428D1*
X108524Y34382D1*
Y34335D1*
X108532Y34288D1*
X108546Y34244D1*
X108567Y34202D1*
X108595Y34164D1*
X108628Y34131D1*
X108666Y34103D1*
X108708Y34082D1*
X108753Y34067D1*
X108799Y34060D1*
X109366D1*
X109413Y34067D1*
X109457Y34082D1*
X109499Y34103D1*
X109537Y34131D1*
X109571Y34164D1*
X109598Y34202D1*
X109620Y34244D1*
X109634Y34288D1*
X109641Y34335D1*
Y34382D1*
G37*
G36*
X105004Y34335D2*
X105012Y34288D1*
X105026Y34244D1*
X105047Y34202D1*
X105075Y34164D1*
X105108Y34131D1*
X105146Y34103D1*
X105188Y34082D1*
X105233Y34067D1*
X105279Y34060D1*
X105846D1*
X105893Y34067D1*
X105937Y34082D1*
X105979Y34103D1*
X106017Y34131D1*
X106051Y34164D1*
X106078Y34202D1*
X106100Y34244D1*
X106114Y34288D1*
X106121Y34335D1*
Y34382D1*
X106114Y34428D1*
X106100Y34473D1*
X106078Y34515D1*
X106051Y34553D1*
X106017Y34586D1*
X105979Y34614D1*
X105937Y34635D1*
X105893Y34649D1*
X105846Y34657D1*
X105279D1*
X105233Y34649D1*
X105188Y34635D1*
X105146Y34614D1*
X105108Y34586D1*
X105075Y34553D1*
X105047Y34515D1*
X105026Y34473D1*
X105012Y34428D1*
X105004Y34382D1*
Y34335D1*
G37*
G36*
Y33335D2*
X105012Y33288D1*
X105026Y33244D1*
X105047Y33202D1*
X105075Y33164D1*
X105108Y33131D1*
X105146Y33103D1*
X105188Y33082D1*
X105233Y33067D1*
X105279Y33060D1*
X105846D1*
X105893Y33067D1*
X105937Y33082D1*
X105979Y33103D1*
X106017Y33131D1*
X106051Y33164D1*
X106078Y33202D1*
X106100Y33244D1*
X106114Y33288D1*
X106121Y33335D1*
Y33382D1*
X106114Y33428D1*
X106100Y33473D1*
X106078Y33515D1*
X106051Y33553D1*
X106017Y33586D1*
X105979Y33614D1*
X105937Y33635D1*
X105893Y33649D1*
X105846Y33657D1*
X105279D1*
X105233Y33649D1*
X105188Y33635D1*
X105146Y33614D1*
X105108Y33586D1*
X105075Y33553D1*
X105047Y33515D1*
X105026Y33473D1*
X105012Y33428D1*
X105004Y33382D1*
Y33335D1*
G37*
G36*
X84159Y18830D2*
X84387Y18602D1*
X84709D1*
X84938Y18830D1*
Y19153D1*
X84709Y19381D1*
X84387D1*
X84159Y19153D1*
Y18830D1*
G37*
G36*
Y20830D2*
X84387Y20602D1*
X84709D1*
X84938Y20830D1*
Y21153D1*
X84709Y21381D1*
X84387D1*
X84159Y21153D1*
Y20830D1*
G37*
D77*
X76008Y34933D3*
X78008D3*
X77008D3*
X76008Y25681D3*
X78008D3*
X77008D3*
X76008Y16626D3*
X78008D3*
X77008D3*
X76008Y7571D3*
X78008D3*
X77008D3*
X102024Y14083D3*
X100024D3*
X101024D3*
X102024Y23335D3*
X100024D3*
X101024D3*
X102024Y32193D3*
X100024D3*
X101024D3*
X102024Y41248D3*
X100024D3*
X101024D3*
D66*
X86969Y12323D3*
D71*
X88969D3*
X87969D3*
D92*
X76811Y40976D3*
D71*
Y36976D3*
D92*
X67394Y34646D3*
D71*
X63394D3*
D92*
X80472Y27638D3*
D71*
Y23638D3*
D92*
X92953Y35744D3*
D71*
Y31744D3*
D92*
X76811Y31724D3*
D71*
Y27724D3*
D92*
X67394Y25394D3*
D71*
X63394D3*
D92*
X76811Y22551D3*
D71*
Y18551D3*
D92*
X67394Y16339D3*
D71*
X63394D3*
D92*
X76811Y13535D3*
D71*
Y9535D3*
D92*
X67394Y6783D3*
D71*
X63394D3*
D92*
X91969Y31744D3*
D71*
Y35744D3*
D92*
X91457Y39307D3*
D71*
X95457D3*
D92*
X101417Y6957D3*
D71*
Y10957D3*
D92*
X110835Y6299D3*
D71*
X114835D3*
D92*
X101417Y16209D3*
D71*
Y20209D3*
D92*
X110835Y15157D3*
D71*
X114835D3*
D92*
X101417Y25067D3*
D71*
Y29067D3*
D92*
X110835Y24213D3*
D71*
X114835D3*
D92*
X101417Y34122D3*
D71*
Y38122D3*
D92*
X110835Y33268D3*
D71*
X114835D3*
D92*
X85276Y11811D3*
D71*
Y7811D3*
D92*
X79709Y7839D3*
D71*
Y11839D3*
D92*
X80433Y13858D3*
D71*
X84433D3*
D92*
X87835Y36094D3*
D71*
Y32094D3*
D92*
X82717Y36173D3*
D71*
Y32173D3*
D92*
X88819Y36094D3*
D71*
Y32094D3*
D92*
X83701Y36173D3*
D71*
Y32173D3*
D92*
X93937Y35744D3*
D71*
Y31744D3*
D92*
X94921Y35744D3*
D71*
Y31744D3*
D92*
X77992Y40976D3*
D71*
Y36976D3*
D92*
Y31724D3*
D71*
Y27724D3*
D92*
Y22551D3*
D71*
Y18551D3*
D92*
Y13535D3*
D71*
Y9535D3*
D92*
X100433Y10957D3*
D71*
Y6957D3*
D92*
Y20209D3*
D71*
Y16209D3*
D92*
Y29067D3*
D71*
Y25067D3*
D92*
Y38122D3*
D71*
Y34122D3*
D92*
X91181Y26693D3*
D71*
Y30693D3*
D69*
X83980Y26894D3*
X82200D3*
X83980Y24334D3*
X82200D3*
D77*
X86850Y35945D3*
X84850D3*
X85850D3*
X86850Y33780D3*
X84850D3*
X85850D3*
D64*
X86654Y27559D3*
Y26559D3*
Y25559D3*
Y24559D3*
Y23559D3*
Y22559D3*
Y21559D3*
Y20559D3*
Y19559D3*
Y18559D3*
Y17559D3*
Y16559D3*
Y15559D3*
Y14559D3*
X89654D3*
Y15559D3*
Y16559D3*
Y17559D3*
Y18559D3*
Y19559D3*
Y20559D3*
Y21559D3*
Y22559D3*
Y23559D3*
Y24559D3*
Y25559D3*
Y26559D3*
Y27559D3*
D62*
X96063Y32506D3*
D60*
Y33294D3*
Y34081D3*
Y34869D3*
Y35656D3*
Y36443D3*
Y37231D3*
Y38018D3*
X90551D3*
Y37231D3*
Y36443D3*
Y35656D3*
Y34869D3*
Y34081D3*
Y33294D3*
Y32506D3*
D58*
X94028Y6193D3*
X96390D3*
X91665Y19421D3*
X98752D3*
D56*
X63902Y40551D3*
Y38583D3*
Y36614D3*
Y31299D3*
Y29331D3*
Y27362D3*
Y22244D3*
Y20276D3*
Y18307D3*
Y13189D3*
Y11220D3*
Y9252D3*
X114327D3*
Y11220D3*
Y13189D3*
Y18302D3*
Y20270D3*
Y22239D3*
Y27351D3*
Y29320D3*
Y31288D3*
Y36614D3*
Y38583D3*
Y40551D3*
D54*
X87717Y6969D3*
X89685D3*
D92*
X98268Y38150D3*
X79606Y27677D3*
X88701Y39764D3*
X79803Y38110D3*
X79685Y35039D3*
X79528Y29882D3*
X80197Y21654D3*
X80236Y20512D3*
X75000Y16102D3*
X76457Y14409D3*
X79685Y6457D3*
X91575Y23819D3*
X96772Y29646D3*
X99173Y25866D3*
X98228Y24252D3*
X97756Y20984D3*
X102835Y16260D3*
X102598Y7480D3*
X103780Y6732D3*
X87835Y10551D3*
X85039Y12953D3*
X89803Y11260D3*
M02*
