G04 DipTrace 2.4.0.2*
%INTopPaste.gbr*%
%MOIN*%
%ADD25C,0.0709*%
%FSLAX44Y44*%
G04*
G70*
G90*
G75*
G01*
%LNTopPaste*%
%LPD*%
D25*
X41181Y76732D3*
X22520Y66260D3*
X31614Y78346D3*
X22717Y76693D3*
X22598Y73622D3*
X22441Y68465D3*
X23110Y60236D3*
X23150Y59094D3*
X17913Y54685D3*
X19370Y52992D3*
X22598Y45039D3*
X34488Y62402D3*
X39685Y68228D3*
X42087Y64449D3*
X41142Y62835D3*
X40669Y59567D3*
X45748Y54843D3*
X45512Y46063D3*
X46693Y45315D3*
X30748Y49134D3*
X27953Y51535D3*
X32717Y49843D3*
X41181Y38150D3*
X22520Y27677D3*
X31614Y39764D3*
X22717Y38110D3*
X22598Y35039D3*
X22441Y29882D3*
X23110Y21654D3*
X23150Y20512D3*
X17913Y16102D3*
X19370Y14409D3*
X22598Y6457D3*
X34488Y23819D3*
X39685Y29646D3*
X42087Y25866D3*
X41142Y24252D3*
X40669Y20984D3*
X45748Y16260D3*
X45512Y7480D3*
X46693Y6732D3*
X30748Y10551D3*
X27953Y12953D3*
X32717Y11260D3*
X98268Y76732D3*
X79606Y66260D3*
X88701Y78346D3*
X79803Y76693D3*
X79685Y73622D3*
X79528Y68465D3*
X80197Y60236D3*
X80236Y59094D3*
X75000Y54685D3*
X76457Y52992D3*
X79685Y45039D3*
X91575Y62402D3*
X96772Y68228D3*
X99173Y64449D3*
X98228Y62835D3*
X97756Y59567D3*
X102835Y54843D3*
X102598Y46063D3*
X103780Y45315D3*
X87835Y49134D3*
X85039Y51535D3*
X89803Y49843D3*
X98268Y38150D3*
X79606Y27677D3*
X88701Y39764D3*
X79803Y38110D3*
X79685Y35039D3*
X79528Y29882D3*
X80197Y21654D3*
X80236Y20512D3*
X75000Y16102D3*
X76457Y14409D3*
X79685Y6457D3*
X91575Y23819D3*
X96772Y29646D3*
X99173Y25866D3*
X98228Y24252D3*
X97756Y20984D3*
X102835Y16260D3*
X102598Y7480D3*
X103780Y6732D3*
X87835Y10551D3*
X85039Y12953D3*
X89803Y11260D3*
M02*
